<?xml version="1.0" standalone="no"?>
<!DOCTYPE svg PUBLIC "-//W3C//DTD SVG 1.1//EN" "http://www.w3.org/Graphics/SVG/1.1/DTD/svg11.dtd" >
<svg xmlns="http://www.w3.org/2000/svg">
<metadata>
This is a custom SVG webfont generated by Font Squirrel.
Copyright   : Copyright c 2010 by Kimberly Geswein All rights reserved
Designer    : Kimberly Geswein
Foundry     : Kimberly Geswein
</metadata>
<defs>
<font id="webfontDUGsNmhG" horiz-adv-x="1142" >
<font-face units-per-em="2048" ascent="1638" descent="-410" />
<missing-glyph horiz-adv-x="1024" />
<glyph unicode=" "  horiz-adv-x="1024" />
<glyph unicode="&#x09;" horiz-adv-x="1024" />
<glyph unicode="&#xa0;" horiz-adv-x="1024" />
<glyph unicode="!" horiz-adv-x="286" d="M238 48q-34 -38 -67 -47t-52 4t-18 43t37 72q28 28 59 9t41 -81zM166 1614l6 -132l9 -203l10 -237l10 -237l9 -202l6 -131q0 -28 -2 -54t-12 -48t-29 -37t-55 -17l-66 1264z" />
<glyph unicode="&#x22;" horiz-adv-x="604" d="M186 1414q22 0 45 -19t41 -45t30 -52t12 -40q0 -26 -13 -67t-36 -80t-53 -67t-64 -28q-4 0 -14 2t-12 2q32 30 46 89t18 121t2 114t-2 70zM390 1434q20 0 43 -19t41 -45t30 -52t12 -40q0 -26 -13 -67t-36 -80t-53 -67t-64 -28q-4 0 -13 2t-11 2q32 30 46 89t18 121t2 114 t-2 70z" />
<glyph unicode="#" horiz-adv-x="1502" d="M1018 520q-14 -18 -52 -23t-78 -7t-71 -3t-31 -9v-334q0 -6 -13 -4t-30 5t-34 7t-27 4q0 24 5 70t6 96t-9 94t-40 62l-290 14v106l290 20v174l-324 28l12 124l336 8v334h68l24 -284q0 6 34 3t75 -8t74 -7t33 4q-2 10 -8 53l-13 93q-7 50 -14 93t-11 53h118l24 -302 l382 -8v-88l-374 -16l-6 -228h330v-98h-284l18 -390l-98 -8zM786 618q94 -10 136 -3t55 35t7 80t-10 132l-188 -4v-240z" />
<glyph unicode="$" horiz-adv-x="1286" d="M82 468q0 2 5 20t12 38t12 37t5 19q54 -36 92 -75t80 -72t97 -57t141 -28v512q0 -2 -27 0t-68 14t-88 37t-88 70t-68 112t-27 165q0 86 42 149t104 102t134 55t134 10q-2 14 -3 48t-1 72t1 72t3 46q2 10 20 28t26 20q10 -2 28 -20t22 -28q2 -12 3 -46t1 -72t-1 -72 t-3 -48q22 -4 62 -9t87 -14t95 -23t88 -35t65 -51t25 -72q0 -2 -6 -14t-14 -26l-15 -27q-7 -13 -7 -15q-60 34 -95 61t-70 47t-83 34t-132 26v-52v-121q0 -71 -2 -149t-8 -136q232 -8 358 -70t170 -150t15 -189t-105 -188t-189 -146t-239 -63v-440l-124 -4l-16 462 q-52 18 -128 42t-147 54t-122 69t-51 91zM670 324q60 0 135 25t141 69t112 103t46 125q0 80 -45 124t-111 65t-142 25t-136 2v-538zM530 1000q16 0 30 1t26 7l4 434q-46 12 -99 3t-98 -36t-75 -69t-30 -96q0 -50 20 -95t53 -78t77 -52t92 -19z" />
<glyph unicode="%" horiz-adv-x="690" d="M168 48h-102q0 40 23 119t60 180t84 217l96 231l97 220l85 187q37 82 61 130l24 48h64zM82 1136q0 4 1 13t3 9q56 48 84 42t34 -35t-7 -63t-37 -42q-34 0 -56 23t-22 53zM492 326q0 4 1 12t3 8q56 50 83 43t33 -35t-6 -63t-36 -41q-34 0 -56 22t-22 54z" />
<glyph unicode="&#x26;" horiz-adv-x="1168" d="M92 692q0 42 14 97t42 103t69 81t95 33q90 6 181 -75t197 -281l-24 592l120 28q4 -60 0 -145t-6 -177t3 -181t29 -155q-16 -24 -3 -14t44 36l75 60q44 34 91 59t92 32t79 -21q-28 -44 -78 -89t-107 -85t-112 -71t-91 -43l6 -284q-22 -16 -38 -19t-28 0t-20 9t-10 10 q-6 10 -13 48t-14 82t-14 81t-13 47q-24 -4 -75 -7t-114 0t-130 16t-122 41t-90 74t-35 118zM198 716q-14 -38 7 -66t62 -48t97 -32t109 -18t98 -8t67 0q-38 42 -65 98t-62 108t-87 96t-140 62q-28 -6 -45 -33t-26 -60t-12 -62t-3 -37z" />
<glyph unicode="'" horiz-adv-x="286" d="M130 1598q32 0 49 -18t25 -44t8 -54v-46q0 -42 -3 -75t-17 -60t-44 -51t-82 -46q0 2 -1 11t-1 13q0 50 10 90t23 81t23 88t10 111z" />
<glyph unicode="(" horiz-adv-x="406" d="M46 786q0 50 -1 121t3 152t14 166t32 161t56 137t88 97q0 -4 13 -13l28 -20l28 -21q13 -10 13 -12q-42 -74 -76 -163t-58 -185t-37 -198t-13 -202q20 -114 28 -219t26 -194t58 -161t122 -122q0 -32 -1 -44t-5 -18t-11 -15t-19 -33q-100 72 -158 160t-87 189t-36 211 t-7 226z" />
<glyph unicode=")" horiz-adv-x="500" d="M48 48q70 20 122 67t89 110t60 137t37 149t19 146t5 129q0 236 -71 465t-215 417q0 10 20 28t30 18q66 0 116 -61t88 -156t64 -210t42 -221t23 -189t7 -117q0 -42 -5 -115t-20 -158t-40 -172t-66 -157t-99 -115t-136 -45q-28 0 -42 9t-28 41z" />
<glyph unicode="*" horiz-adv-x="762" d="M232 460l-48 48l94 190q-16 0 -54 4t-78 17t-72 36t-34 63h144l-96 118q6 0 25 1t25 1q26 0 48 -2t43 -8t45 -16t54 -24v206q22 0 44 -12t41 -30t33 -36t22 -30q16 28 32 38t40 10q4 0 14 -1t12 -1l-98 -190q2 0 37 5t77 5t80 -12t46 -46q-24 -36 -65 -60t-77 -36l94 -94 q0 -10 -19 -29t-29 -19q-4 0 -18 7t-30 16t-30 16t-16 9q-22 4 -44 -2l-28 -8v-276h-96v238z" />
<glyph unicode="+" horiz-adv-x="1104" d="M528 784v596l76 18l44 -590l362 22q-4 -12 2 -35t9 -47t-2 -43t-29 -25l-342 -14v-584q-40 0 -59 -5t-26 -7t-8 6t-3 36q-4 32 -8 86t-9 115l-10 124l-9 114q-4 51 -7 83l-3 32l-324 18q-18 0 -29 15t-19 35t-11 40t-3 28z" />
<glyph unicode="," horiz-adv-x="406" d="M182 44q0 8 -7 36l-15 60l-15 60q-7 28 -9 34l7 10l16 22q9 12 16 23t7 13q60 -126 79 -230t3 -182t-64 -130t-122 -72q-2 0 -10 6t-16 14t-15 14l-7 6q56 42 86 70t45 59t18 74t3 113z" />
<glyph unicode="-" horiz-adv-x="700" d="M52 510q0 12 1 20t14 14t45 9t94 5t159 3t243 1l-24 -102l-482 -24q-26 -4 -38 25t-12 49z" />
<glyph unicode="." horiz-adv-x="312" d="M94 110q0 4 1 13t3 9q-10 42 12 62t52 20t56 -16t26 -42q0 -18 -3 -39t-12 -40t-23 -31t-34 -12q-32 0 -55 23t-23 53z" />
<glyph unicode="/" horiz-adv-x="596" d="M424 1528l78 -52l-402 -1504l-76 76z" />
<glyph unicode="0" horiz-adv-x="928" d="M46 664q0 134 19 271t73 247t152 180t258 70q64 0 112 -54t83 -138t57 -184t36 -190t19 -159t5 -91q0 -100 -27 -209t-84 -201t-144 -151t-205 -59q-68 0 -122 35t-93 93t-66 130t-43 147t-23 144t-7 119zM138 728q0 -48 2 -115t12 -137t28 -139t50 -123t80 -88t118 -34 q104 0 169 61t102 149t51 187t14 175q4 90 -6 190t-35 190t-67 159t-101 98t-138 6t-179 -117q-38 -76 -59 -130t-30 -104t-10 -102t-1 -126z" />
<glyph unicode="1" horiz-adv-x="232" d="M50 1396q0 34 27 57t61 23q0 -348 9 -707t9 -707v-32q0 -16 -8 -26t-28 -13t-60 9q4 278 6 534q0 110 -1 226l-2 226q-1 110 -4 208t-9 174v28z" />
<glyph unicode="2" horiz-adv-x="1170" d="M74 48q64 54 130 139t127 189t114 220t92 231t62 225t23 202q0 42 -6 68t-22 41t-45 21t-73 6t-91 -18t-94 -39t-94 -38t-93 -17q0 50 54 93t126 75t143 51t105 19q122 0 171 -64t49 -174q0 -70 -17 -164t-47 -197t-69 -210t-83 -205t-89 -179t-87 -133q102 14 188 37 t170 53l173 64q89 34 197 68l34 -126q-278 -74 -460 -130t-294 -95l-167 -59q-55 -20 -79 -21t-30 15t-18 52z" />
<glyph unicode="3" horiz-adv-x="1000" d="M104 98q0 2 6 16l13 30l13 30q6 14 8 16l34 -28q20 -16 41 -31t44 -26t45 -13q68 0 133 36t123 95t107 135t84 156t55 158t20 140q-10 92 -56 135t-111 50t-142 -15t-149 -61t-133 -88t-93 -97l-36 98l460 632q-16 4 -74 -7t-129 -29t-137 -41t-98 -41q-6 0 -13 16 t-13 37t-10 40t-4 25l524 96q20 0 30 -10t14 -25t5 -30t1 -27q0 -38 -26 -93t-62 -112t-73 -107l-57 -78q152 36 243 21t142 -58t69 -101t22 -106q0 -76 -24 -168t-65 -186t-99 -181t-127 -155t-145 -109t-156 -41q-34 0 -70 2t-66 12t-49 31t-19 57z" />
<glyph unicode="4" horiz-adv-x="1330" d="M820 698q-168 0 -345 -13t-355 -17q-6 0 -21 5t-30 13l-28 15q-13 7 -17 13l762 666q-16 48 -8 77t30 46t55 22t67 5q40 -42 58 -79t23 -76t-1 -83l-14 -101q-8 -57 -13 -128t1 -165l280 8v-124q-16 -2 -59 -7l-90 -11l-90 -12q-43 -6 -59 -10q-4 0 -8 -2t-6 -18t-2 -54 t3 -112t10 -192t21 -294l-130 -22q-4 50 -2 135t1 179t-7 185t-26 151zM786 1240q-262 -190 -474 -432h19q13 0 28 -1t28 -1h19q68 0 147 -5t146 6t111 47t44 120q0 74 -14 135t-54 131z" />
<glyph unicode="5" horiz-adv-x="1024" d="M34 352q32 0 59 -19t52 -48t51 -63t56 -63t67 -48t85 -19q60 0 116 39t106 103t91 145t71 164t46 161t16 138q-26 86 -113 125t-197 39t-220 -32t-182 -86q-26 14 -38 30t-12 68q2 26 8 88l12 130l12 130q6 62 10 88q8 32 34 49t58 25t62 10t44 4q26 2 94 3t143 3t143 4 t94 6l36 -88q-60 -28 -150 -40t-181 -18t-167 -7t-108 -7l-26 -324l250 94q126 34 218 9t153 -80t91 -124t28 -123q4 -74 -16 -168t-58 -189t-92 -183t-118 -155t-135 -103t-141 -24q-78 0 -142 27t-111 75t-73 113t-26 141z" />
<glyph unicode="6" horiz-adv-x="880" d="M44 346q-10 28 -3 97t26 163t48 205t64 221t75 212t81 177t81 117t76 32h46l-64 -146l-85 -197l-91 -224q-46 -117 -79 -226t-49 -200t-2 -149q20 64 58 149t92 160t122 127t150 52q58 0 104 -22t77 -59t48 -86t17 -103q0 -110 -47 -225t-127 -209t-184 -154t-220 -60 q-66 0 -108 37t-65 91t-32 114t-9 106zM258 276q0 -68 21 -101t101 -33q74 0 140 50t116 124t78 156t28 146q0 38 -11 73t-33 62t-54 44t-74 17q-74 0 -132 -63t-98 -150t-61 -178t-21 -147z" />
<glyph unicode="7" horiz-adv-x="1072" d="M862 1502q-100 0 -205 -30t-212 -65t-216 -65t-213 -30q0 16 -2 37t-1 40t8 36t23 25q104 4 224 39t240 75t236 73t212 33q26 0 39 -11t29 -39q-54 -192 -96 -392t-76 -400t-61 -397l-51 -383h-96l32 291q18 161 44 346t61 391t81 426z" />
<glyph unicode="8" horiz-adv-x="1024" d="M280 314q0 52 16 99t35 92t35 90t16 95q0 4 -1 13t-1 11l-120 86q-60 44 -108 98t-78 119t-30 149q0 68 30 132t80 115t115 82t133 31q48 0 126 -18t152 -51t128 -80t54 -107q2 -84 -32 -161t-78 -141l-84 -117q-40 -53 -50 -89q52 -46 112 -94t110 -104t83 -120t33 -140 q0 -70 -37 -126t-94 -95t-125 -61t-128 -22q-76 0 -131 25t-91 68t-53 100t-17 121zM374 304q0 -52 18 -85t49 -52t72 -26t87 -7q44 0 81 3t68 18t58 46t49 85q10 24 -4 58t-41 71t-65 74t-75 66t-71 47t-54 18q-50 0 -83 -36t-53 -87t-28 -104t-8 -89zM184 1154 q0 -54 24 -115t64 -112t93 -85t111 -34q16 0 44 27t61 70t66 94t59 99t42 87t14 55q-10 60 -60 97t-115 58t-130 28t-103 7q-60 0 -94 -27t-51 -68t-21 -89t-4 -92z" />
<glyph unicode="9" horiz-adv-x="786" d="M628 1050q-82 -114 -188 -172t-244 -58q-44 0 -78 27t-56 69t-34 92t-12 96q0 76 38 152t100 137t142 99t164 38q20 0 64 -2t89 -8t78 -16t33 -24l-32 -1432h-96zM360 1424q-116 -64 -171 -133t-67 -132t13 -114t71 -80t104 -29t114 39t101 122t63 223q0 68 -63 86 t-165 18z" />
<glyph unicode=":" horiz-adv-x="320" d="M98 216q0 42 18 71t52 29q48 0 74 -52q-16 -70 -38 -95t-43 -23t-38 24t-25 46zM124 500q-14 0 -32 10t-31 25t-18 32t9 29q2 32 25 55t50 29t48 -8t21 -52q0 -18 -3 -39t-12 -39t-23 -30t-34 -12z" />
<glyph unicode=";" horiz-adv-x="310" d="M134 -100v38q0 24 -1 49t-2 44t-1 21q-2 4 -10 18l-17 30q-9 16 -16 30t-7 18q0 26 26 37t48 11q38 0 55 -41t22 -92t3 -96t-2 -51q0 -50 -9 -104t-32 -100t-65 -76t-108 -30q0 48 18 78t40 58t40 63t18 95zM44 408q0 14 23 29t51 24t51 8t23 -17q0 -18 -3 -39t-12 -39 t-23 -30t-34 -12q-32 0 -54 22t-22 54z" />
<glyph unicode="&#x3c;" d="M870 1228l48 -124l-648 -604q0 -4 37 -22t88 -39t105 -41t86 -28l104 -21q74 -15 157 -30l158 -28q75 -13 105 -15q0 -4 1 -12t1 -12q0 -32 -20 -53t-52 -21q-4 0 -14 1t-12 1q-36 6 -95 19l-129 28l-142 31l-134 29l-107 23q-45 10 -59 14q-32 8 -81 23l-94 30 q-45 15 -78 27t-33 14v48z" />
<glyph unicode="=" horiz-adv-x="1214" d="M40 274q0 32 66 54t166 36t220 21t228 10t188 3h102q14 0 35 1t40 -2t35 -14t20 -35l-46 -46q-232 -26 -398 -40t-280 -21t-184 -8t-109 2t-55 8t-22 9q-2 0 -4 8t-2 14zM86 674q114 26 229 24t234 -6t242 -1t253 39q34 -16 44 -39t6 -59q-110 -46 -244 -62t-271 -18 t-268 4t-233 6z" />
<glyph unicode="&#x3e;" horiz-adv-x="1096" d="M200 236q0 62 39 108t101 83t138 70l151 68q75 35 138 76t101 95q-88 56 -167 77t-165 34t-186 32t-230 71l82 120q4 0 47 -13l110 -33l150 -46l166 -53l159 -51l130 -42q22 -8 40 -13t32 -11t21 -17t7 -29q0 -30 -12 -42t-40 -32l-88 -62l-135 -94l-158 -109l-158 -108 l-135 -92l-88 -59q-30 14 -40 30t-10 42z" />
<glyph unicode="?" horiz-adv-x="714" d="M164 880q86 8 160 53t130 109t92 138t44 137t-13 107t-77 49t-151 -38t-235 -153l-46 50q50 62 93 107t88 75t100 44t133 14q100 0 155 -39t55 -145q0 -98 -34 -186t-90 -164t-129 -141t-151 -115l18 -452h-96l-3 28q-3 28 -7 74t-10 103t-11 115t-9 111t-6 93v26z M202 76q0 4 1 12t3 8q56 50 84 43t34 -35t-7 -63t-37 -41q-32 0 -55 22t-23 54z" />
<glyph unicode="@" horiz-adv-x="1524" d="M46 644q0 180 68 319t183 234t266 144t317 49q144 24 251 -26t176 -143t101 -216t26 -243q0 -186 -67 -328t-182 -240t-269 -148t-330 -50q-136 0 -237 56t-169 147t-101 207t-33 238zM144 644q0 -120 37 -221t103 -175t160 -116t208 -42q140 0 265 43t219 125t148 201 t54 269q0 52 -9 119t-29 137t-50 136t-73 116t-99 78t-126 20q60 -56 106 -125t76 -145t45 -158t15 -162q12 -126 -36 -209t-128 -127t-177 -50t-181 21t-142 88t-58 151q0 44 7 102t27 110t58 89t100 37q62 8 93 -20t48 -81t25 -121t24 -140q0 -24 11 -45t28 -38t38 -27 t43 -10q38 0 63 27t38 65t18 79t5 67q0 88 -23 189t-73 187t-126 143t-184 57q-124 0 -225 -58t-173 -150t-111 -207t-39 -229zM642 862q-26 0 -41 -23t-23 -56t-10 -73t-2 -75t2 -58t2 -25q74 -42 118 -34t66 44t21 89t-17 102t-47 81t-69 28z" />
<glyph unicode="A" horiz-adv-x="1052" d="M358 886l-194 -912h-130l216 918l-238 34l-2 124q26 2 63 -8l76 -20q39 -10 72 -13t51 15l258 570q74 66 107 85q16 9 28 9q13 0 22 -10q17 -20 32 -76t55 -138l22 -81l34 -125l34 -125q16 -59 20 -83l318 8v-118l-290 -36l114 -896l-120 -6l-116 890zM630 1512 q-30 -22 -64 -86t-66 -139l-60 -145q-28 -70 -46 -106h348q0 130 -21 246t-91 230z" />
<glyph unicode="B" horiz-adv-x="1182" d="M164 -44q8 49 8 129q0 24 -1 51q-3 116 -12 260l-19 304q-10 160 -16 312q-4 101 -4 194q0 46 1 91q3 133 22 224t56 127q17 17 40 17q27 0 61 -23q150 0 254 -8t173 -22t109 -31t59 -36t24 -37t5 -32q0 -46 -29 -108t-70 -122t-85 -111t-76 -77q18 2 66 2h101h101 q48 0 66 -2q102 -20 141 -75q31 -44 31 -101q0 -15 -2 -30q-10 -76 -62 -168t-133 -186t-183 -185t-210 -165t-216 -125t-200 -67zM280 664q0 -32 -2 -89t-4 -130t-2 -157t4 -168q36 8 108 54t157 116t175 154t164 165t121 150t47 111q0 60 -30 78t-86 18q-42 0 -106 -6 t-136 -19t-145 -35t-132 -56t-96 -80t-37 -106zM282 916q72 18 143 75t136 127t120 141l95 121q10 48 10 62q0 18 -10 32q-12 18 -42 31t-91 19t-157 6t-238 -6z" />
<glyph unicode="C" horiz-adv-x="916" d="M70 522q0 70 8 172t27 214t53 223t85 199t123 143t168 55q20 0 47 -1t51 -9t40 -25t16 -47q-150 -10 -242 -82t-147 -187t-82 -267t-45 -322q-1 -13 -1 -30.5t1 -39.5q2 -44 10 -94t24 -101t39 -92t56 -67t77 -26q66 0 119 35t97 90t80 121l68 128q32 62 63 111t63 71 l48 -46q2 -2 -9 -40t-32 -95t-53 -125t-70 -130q-28 -44 -73 -90t-101 -84t-119 -62t-125 -24q-88 0 -141 60t-80 143t-35 172t-8 149z" />
<glyph unicode="D" horiz-adv-x="1098" d="M86 1528q147 27 271 27q84 0 157 -12q182 -31 304 -117t184 -214t69 -273q1 -18 1 -36q0 -127 -43 -259q-49 -150 -149 -279t-250 -227t-346 -140q-48 0 -71 19t-33 48t-10 63t-2 62q-6 84 -19 203l-27 251q-14 132 -27 268t-20 257q-5 94 -5 172v43q2 94 16 144z M210 1096q0 -106 5 -194t17 -191t31 -236l47 -327l130 61q72 35 145 83t143 110t124 140t87 173t35 209q0 122 -60 217t-153 159t-203 98t-212 34q-68 0 -98 -33t-38 -84q-5 -34 -5 -72q0 -19 1 -38q4 -59 4 -109z" />
<glyph unicode="E" horiz-adv-x="1310" d="M-26 768l-8 136l202 48v618l220 29q130 17 264 37t254 42t190 46v-104l-810 -154v-460h12q27 0 72 6q56 8 125 21t145 30l146 33l127 29q57 13 89 17l78 -78l-776 -210l-12 -742q87 -9 166 -9q68 0 129 7q131 14 237 44t195 67t173 67q2 0 7 -17t10 -36t9 -36t8 -17 q-124 -78 -254 -115t-267 -50t-277 -13t-284 -4v808z" />
<glyph unicode="F" horiz-adv-x="1002" d="M134 1000q-37 -10 -73 -10q-9 0 -18 1q-45 3 -80 16t-52 31q-11 11 -11 23q0 7 4 15q10 20 53 38t129 28q11 48 11 103q0 60 -8 131l-14 123q-6 53 -6 100v13q1 52 15 91t50 59l998 142l-20 -134q-54 -10 -129 -17t-160 -16t-173 -17t-169 -19t-150 -24t-115 -29l12 -502 q82 0 144 7t115 16t101 21t101 21t115 16t144 7q0 -72 10 -104t5 -42t-34 -8q-14 1 -40.5 1t-65.5 -1q-77 -2 -215 -19t-358 -67q0 -244 17 -503t17 -503l-148 -32q-2 32 -2 113v187q0 106 1 223t1 222v186q0 81 -2 113z" />
<glyph unicode="G" horiz-adv-x="1404" d="M16 682q0 84 11 195t36 227t69 227t109 194t155 128q69 34 154 34q26 0 54 -3q32 0 71 -10t71 -31t54 -52t22 -71h-12q-8 0 -18 1t-19 2t-11 1q-6 2 -34 10t-61 16t-61 14t-34 6q-90 0 -158 -51t-116 -131t-79 -180t-48 -197t-24 -182t-7 -137q0 -46 3 -108t13 -129 t29 -132t51 -116t79 -83t113 -32q108 10 184 65t133 138t100 183l87 198q44 98 93 185t119 143q-20 3 -39 3q-54 0 -100 -25q-63 -34 -117 -91t-101 -124t-91 -119t-86 -77q-20 -12 -40 -12l-44 15q16 74 74 168t137 180t169 148t172 72q11 1 22 1q85 0 134 -43 q56 -48 79 -133q20 -75 20 -173v-26q-3 -114 -22 -244t-48 -267l-55 -265q-16 8 -35 12l-34 7q-15 3 -25 8t-10 17l23 110q11 54 23 128t23 180t23 264q0 8 -1 29t-1 43t-1 43t-1 29q-36 -38 -72 -122l-82 -186q-46 -102 -105 -208t-137 -189t-180 -130q-74 -34 -163 -34 q-34 0 -71 5q-70 0 -125 37t-95 97t-68 135t-45 151t-25 145t-8 119z" />
<glyph unicode="H" horiz-adv-x="1158" d="M-74 908l48 94l242 34l2 678h96v-660q45 -8 96 -8h21q63 2 129 11t131 20t123 19q0 88 1 161l2 143q1 70 1 146t-2 170q6 14 22 26t34 20t37 12t31 4q5 -139 5 -231v-30q-1 -99 -2 -166v-43q0 -41 1 -74q2 -50 14 -112l242 14v-118l-226 -24q-5 -41 -5 -101v-21 q1 -74 8 -161t18 -181l22 -183l20 -167q9 -78 13 -132q-4 -8 -23 -17t-42 -13q-18 -3 -37 -3h-9q-23 1 -33 11l-92 932l-113 -14q-63 -8 -128 -15l-126 -13q-61 -6 -109 -10v-858l-114 -14q12 173 12 358q0 40 -1 80q-3 228 -41 434z" />
<glyph unicode="I" horiz-adv-x="216" d="M46 158v164v246q0 138 1 294l2 311l2 297q1 142 4 251t7 174t8 65q36 -10 57 -17t21 -17q-2 -52 -3 -149t-1 -222v-272q0 -147 1 -297l2 -296q1 -146 1 -272t-1 -223t-3 -147q-4 0 -13 -1t-13 -1q-26 0 -40 10t-21 26t-9 36t-2 40z" />
<glyph unicode="J" horiz-adv-x="882" d="M56 832q0 46 25 70q21 21 60 21q6 0 13 -1q2 -44 15 -104l23 -104q32 -110 74 -217t88 -188t94 -122q29 -25 57 -25q18 0 35 10q44 26 80 130t58 314t27 537q1 71 1 149q0 281 -14 650q0 12 15 23t35 18t40 12t30 5q-10 -104 -10 -237t4 -283t6 -308q1 -53 1 -105 q0 -104 -3 -206q-4 -153 -19 -293t-48 -254t-88 -195t-137 -113q-68 4 -126 50t-105 117t-84 160t-65 178t-49 171t-33 140z" />
<glyph unicode="K" horiz-adv-x="1216" d="M104 8q2 84 2 170q0 129 -5 261q-9 221 -20 444t-17 444q-2 66 -2 132q0 153 10 303q14 36 49 49t69 13v-830q114 54 230 133t222 166t196 172l156 149l78 -138l-58 -43l-125 -90l-165 -118l-178 -126l-164 -113l-120 -80q38 -48 108 -109t158 -126l186 -133l191 -132 l174 -119q81 -55 135 -97l-46 -94l-117 83l-156 113l-178 129l-183 131l-173 119q-83 55 -145 91q-5 -54 -5 -108q0 -33 2 -66q5 -86 16 -172t21 -173t12 -173q0 -14 -5 -36t-21 -37t-47 -16h-2q-31 0 -83 27z" />
<glyph unicode="L" horiz-adv-x="1072" d="M94 0q-30 0 -38 25t-8 71q10 130 19 312t17 377t14 386t10 343t7 246l3 94q18 22 35 22l13 -3q24 -11 42 -44t28 -78q6 -28 6 -54q0 -15 -2 -29q0 -190 -7 -380t-15 -380t-15 -380t-7 -380q36 -4 101 -7t144 -5t166 -4t167 -2t147 2t107 6v-94q-58 -10 -136 -12 q-52 -1 -108 -1h-57q-87 1 -178 3q-46 1 -89.5 1t-86.5 -1q-85 -2 -157 -9t-122 -25z" />
<glyph unicode="M" horiz-adv-x="1596" d="M1236 1524q-66 -136 -123 -297l-110 -322l-101 -310q-48 -149 -94 -261q-24 -50 -69 -50t-73 50l-32 93l-50 143l-59 168l-59 168l-51 143q-23 63 -35 93q-4 12 -17 40l-28 58q-15 30 -30 57t-21 37q-26 -114 -38 -246t-16 -267t-4 -265v-241q0 -111 -4 -193t-16 -122 q-16 -28 -31 -40t-39 -12q-10 0 -23 3t-25 9t-19 16t-5 24l126 1476q4 30 27 40t45 10q32 0 62 -36t52 -80t36 -82t16 -42q12 -30 35 -93l51 -143l59 -168l59 -168l50 -143l32 -93l202 509l136 345l84 212q30 76 46 113t22 44t12 7q2 0 21 -4t40 -10t38 -13t19 -13 q20 -52 37 -153t33 -233t30 -286l28 -312q14 -158 29 -309t33 -279v-28q0 -30 -21 -50t-51 -20q-4 0 -12 1t-12 1q-22 108 -32 241t-17 275l-14 287q-7 145 -21 278t-39 247t-69 196z" />
<glyph unicode="N" horiz-adv-x="1240" d="M190 1286q-16 -24 -26 -83t-15 -142t-6 -183v-40q0 -81 3 -164q4 -104 10 -205t15 -186t21 -148t24 -91q-16 -34 -40 -43q-17 -6 -38 -6q-10 0 -20 1q-44 192 -62 377t-18 368t16 365t40 370q6 0 25 2t25 2q12 0 25 -6t40 -40t77 -109l136 -213l215 -351l315 -523 q18 148 37 334t35 383t26 393t10 366h94q0 -18 -2 -65t-4 -100l-4 -101q-2 -48 -2 -68q-4 -50 -11 -154l-16 -235l-19 -276l-20 -277l-18 -236l-12 -154q-24 -52 -74 -52q-4 0 -12 1t-8 3z" />
<glyph unicode="O" d="M46 780q0 96 12 199t40 202t72 188t110 156t153 107t199 40q92 0 158 -37t113 -98t76 -141t45 -165t22 -170t6 -155q0 -82 -8 -181t-29 -200t-59 -196t-96 -168t-141 -118t-195 -45q-108 12 -196 83t-150 180t-96 244t-36 275zM138 838q0 -56 10 -133t31 -159t53 -164 t77 -146t104 -104t133 -40q92 0 157 41t111 106t74 149t43 169t20 164t5 137q0 60 -7 137t-24 157t-47 157t-76 138t-109 98t-147 37q-74 0 -133 -41t-104 -107t-78 -148t-53 -165t-30 -158t-10 -125z" />
<glyph unicode="P" horiz-adv-x="1334" d="M144 1714q-44 6 -72 20t-28 50q0 42 29 68t75 40t103 18q46 3 91 3h22q56 -1 105 -4t79 -3q62 0 141 -6t161 -22t161 -44t141 -73t100 -108t38 -149q-4 -130 -59 -231t-142 -176t-196 -128t-220 -87t-213 -52t-176 -22v-31q0 -23 -1 -49t-1 -50v-34q0 -72 10 -150 t22 -156t22 -155t10 -149l-156 -28q-6 192 -19 402t-23 429t-13 441q-1 44 -1 88q0 177 10 348zM566 1814q-22 0 -63 1h-21q-31 0 -63 -2q-43 -3 -81 -14t-54 -37v-836q62 0 157 14t200 43t210 74t185 106t124 139q33 59 33 129q0 22 -3 45q-16 116 -82 183t-157 101 t-193 44t-192 10z" />
<glyph unicode="Q" horiz-adv-x="1502" d="M906 152l-75 -43q-45 -25 -96 -48t-101 -39t-90 -16q-88 0 -159 40t-126 107t-95 151t-66 171t-38 171t-12 148q0 122 25 253t75 257t124 239t171 198t217 135t262 50q144 0 242 -31t157 -94t85 -159t26 -226q0 -174 -35 -337t-92 -314t-132 -291t-155 -268q0 -58 5 -94 t15 -69t25 -73t33 -106q-28 -50 -78 -50q-4 0 -11 1t-7 3zM190 854q0 -38 3 -99t14 -132t32 -147t60 -145t96 -125t139 -86q44 0 101 11t107 35t85 60t35 86q0 12 -1 42t-5 36l-250 998h108l252 -1052q94 164 164 305t116 268t69 247t23 246q0 132 -29 210t-93 119t-166 53 t-248 12q-112 -22 -202 -83t-158 -145t-116 -182t-78 -195t-44 -185t-14 -152z" />
<glyph unicode="R" horiz-adv-x="1338" d="M202 966q-41 -22 -70 -22q-16 0 -28 7q-36 20 -36 61q0 36 31 71q33 37 103 39q6 78 8 187l4 217q2 108 6 202t14 142q-18 0 -34 -1t-30 4t-22 17t-8 40q0 38 27 62t70 37t95 19t102 7h32q31 0 59 -1q41 -2 61 -2q88 0 172 -16t149 -55t105 -104t40 -163q0 -96 -36 -182 t-96 -159t-134 -134t-149 -108t-143 -80t-114 -51l960 -670l-62 -104l-944 680v-924l-118 -8q0 114 -1 201t-3 161t-3 140t-3 138t-3 157t-1 195zM956 1722q-6 74 -40 122t-87 76t-119 37q-42 6 -85 6q-24 0 -48 -2q-67 -5 -131 -20t-112 -37v-772q64 0 134 26t139 71 t132 104t111 125t77 134t29 130z" />
<glyph unicode="S" horiz-adv-x="1692" d="M44 742q0 34 28 50t72 16q8 0 38 -51l78 -127q48 -76 113 -166t146 -166t176 -127t203 -51q98 0 205 23t195 74t146 131t58 196q0 78 -44 140t-117 115t-165 100l-189 96q-97 49 -189 102t-165 119t-117 146t-44 184q0 84 38 136t98 81t133 40t143 11q166 0 333 -52 t307 -142q0 -2 1 -11t1 -13q0 -32 -22 -53t-52 -21q-48 0 -113 31l-139 68q-74 37 -155 68t-161 31q-38 0 -87 -7t-92 -26t-72 -53t-29 -88q0 -102 44 -179t116 -137t163 -109t187 -93l187 -88q91 -44 163 -96t116 -115t44 -147q0 -122 -67 -228t-169 -185t-225 -125 t-235 -46q-76 0 -171 35t-193 93t-191 134t-166 159t-118 166t-45 157z" />
<glyph unicode="T" horiz-adv-x="1450" d="M738 1512h-668v70q198 0 405 13t414 36t409 54t392 67v-98l-810 -142q-12 -184 -15 -381t-5 -389t-7 -370t-19 -324h-94z" />
<glyph unicode="U" horiz-adv-x="1072" d="M476 -4q-110 38 -187 146t-126 254t-75 315t-37 331q-10 148 -10 278v23q1 139 7 227q2 6 10 16t19 21t23 18t22 7l17 -300q9 -164 24 -330t40 -321t63 -276t91 -194t127 -73q56 6 110 81t100 193t83 267t59 306t28 309q2 46 2 89q0 101 -10 187q20 40 51 51t71 11 q-14 -160 -24 -337t-25 -349t-43 -332t-79 -288t-131 -215t-200 -115z" />
<glyph unicode="V" horiz-adv-x="1310" d="M48 1714q2 8 13 24t26 31t31 27t26 14q74 -154 121 -326t93 -363t105 -400t155 -435l524 1666h110l-586 -1904q-10 -34 -36 -43q-18 -6 -39 -6q-9 0 -19 1q-86 202 -141 406t-103 407t-101 405t-133 402q-2 2 -9 16l-16 31q-9 17 -15 30t-6 17z" />
<glyph unicode="W" horiz-adv-x="1832" d="M370 52h-96l-226 1710l108 16q18 -66 37 -182t37 -255t35 -288t30 -284t21 -241l12 -158l290 1298l168 24q30 -38 69 -140t83 -238l92 -292l93 -299q45 -143 87 -260t76 -177l382 1476h102q0 -12 -4 -33t-19 -78l-43 -165l-76 -297l-119 -473l-171 -690l-104 -10 q2 2 0 21t-17 75t-47 158l-89 271l-144 415l-213 588z" />
<glyph unicode="X" horiz-adv-x="1380" d="M168 48q-34 -10 -54 -11h-4q-17 0 -26 7q-10 8 -12 21t0 31l474 894l-510 678h132l45 -64l66 -94l80 -110q43 -58 88 -110t89 -93t84 -59q38 36 89 102l109 146l120 166l121 165q59 79 112 141t93 94h80l-274 -386l-181 -267q-71 -107 -108 -169t-53 -94t-18 -41t-2 -11 q0 -40 35 -103t91 -136t125 -150l136 -146l124 -125q57 -56 91 -86q-14 -28 -30 -39t-44 -11h-12q-6 0 -10 2q-72 54 -148 141l-152 183l-150 189q-74 93 -144 157q-8 0 -17 -5t-26 -28t-46 -73t-76 -140l-117 -228z" />
<glyph unicode="Y" horiz-adv-x="1312" d="M138 1714q72 -64 150 -152l155 -177l147 -167q70 -78 126 -122q74 68 137 152t123 173l123 176q63 87 137 165l98 -48q-48 -92 -126 -195l-157 -201l-147 -182q-68 -84 -96 -136l12 -992q0 -16 -18 -18h-9q-15 0 -33 4q-24 6 -49 13t-37 9q-6 52 -7 130v53q0 55 1 115 q2 90 2 185t-4 181t-15 158t-33 114l-566 696z" />
<glyph unicode="Z" horiz-adv-x="1372" d="M48 48q14 12 41 44l57 68l57 69l39 47q50 72 124 164l160 195l175 212q89 109 168 216t141 208t94 187q-114 0 -230 -9l-233 -18q-117 -9 -233 -13q-33 -1 -66 -1q-82 0 -164 7q0 10 3 27t11 33t19 28t27 12l1022 30q-24 -108 -84 -227t-141 -243t-177 -249l-192 -245 l-186 -233q-90 -113 -158 -209q108 0 219 6l231 13q120 7 251 13t279 6l-16 -108q-93 5 -179 5q-78 0 -152 -4q-155 -9 -302 -21t-295 -19q-45 -2 -91 -2q-106 0 -219 11z" />
<glyph unicode="[" horiz-adv-x="786" d="M68 48q-18 50 -23 88t-1 92t13 142t18 240t15 384t2 576h546v-68l-448 -18q6 -134 4 -294t-8 -332t-14 -349l-16 -345l560 -18q0 -8 -3 -28t-10 -41t-18 -36t-29 -15z" />
<glyph unicode="\" horiz-adv-x="618" d="M120 1190l38 -105l59 -160l69 -187l69 -187l59 -160l38 -105q2 -8 17 -36l31 -60l30 -60q14 -28 18 -34q0 -4 1 -12t1 -12q0 -32 -22 -54t-52 -22q-20 0 -30 7t-16 21t-11 32t-13 40l-68 182l-83 222l-84 230l-74 204l-53 148q-20 58 -20 60v48h96z" />
<glyph unicode="]" horiz-adv-x="778" d="M34 96q24 8 71 16t103 15t114 12l107 9q49 4 81 6t34 2q14 88 19 191t7 204t1 193t-1 162v75q0 55 -1 128t-2 155t-2 155t-2 128t-1 75l-536 54q-18 2 -24 20t-3 39t15 38t30 15q34 -6 92 -9t127 -7l141 -8q72 -4 134 -10t107 -15t59 -23l-38 -1690l-598 -20l-7 14 q-7 14 -13 30t-11 31t-3 15z" />
<glyph unicode="^" horiz-adv-x="762" d="M440 1502q-30 -22 -62 -55t-61 -67t-53 -66l-38 -52q-10 -16 -23 -19t-28 -1t-29 6t-28 4q-4 0 -13 1t-11 1l300 438h94q10 -38 42 -104l69 -139l69 -139q32 -66 44 -104l-108 -6q-8 32 -34 83t-54 100t-51 84t-25 35z" />
<glyph unicode="_" horiz-adv-x="1858" d="M20 70q0 26 12 42t40 32q158 -14 294 -16t261 6t245 24t247 36l267 44q140 24 306 48q2 0 12 1t14 1q26 0 39 -8t29 -42q-52 -34 -115 -56t-123 -38l-160 -18l-244 -26l-286 -30l-286 -30l-244 -25q-108 -11 -160 -15h-26q-18 0 -39 3t-40 11t-31 21t-12 35z" />
<glyph unicode="`" horiz-adv-x="370" d="M84 1240q-58 102 -18 114t150 -84l92 -114q26 -30 29 -53t-7 -36t-27 -16t-31 9q-16 6 -40 23t-49 41t-51 54t-48 62z" />
<glyph unicode="a" horiz-adv-x="956" d="M760 630l-80 -180q-46 -104 -111 -200t-150 -164t-199 -74q-52 0 -85 36t-51 87t-25 105t-7 88q-2 17 -2 36q0 40 8 92q12 78 39 167t68 179t96 162t123 118t146 48q40 4 73 8q19 2 38 2q15 0 30 -1q35 -3 76 -16t99 -45q2 -28 4 -98t3 -159t2 -188t2 -187t2 -158t3 -98 q0 -10 1 -39l2 -61q1 -32 1 -61v-39q-10 0 -30 4t-41 11t-37 18t-16 25zM148 320q0 -58 22 -116t76 -94q38 8 87 58t100 125t100 166t87 181t62 169t26 131q0 30 -14 48t-36 29t-48 14t-50 3q-72 -4 -131 -49t-105 -114t-79 -152t-55 -161t-32 -143t-10 -95z" />
<glyph unicode="b" horiz-adv-x="1012" d="M-110 72q0 48 31 61q27 11 61 11h11q41 -2 81 -12t56 -10l-20 1438h96v-808q38 66 108 116t150 81t163 40q29 3 56 3q51 0 94 -11q67 -17 109 -63q40 -44 40 -119q0 -177 -52 -320q-50 -137 -129 -237t-180 -163t-208 -92q-97 -26 -191 -26h-19q-103 3 -185 37 q-32 0 -52 21t-20 53zM682 894q-100 -12 -176 -59t-131 -115t-89 -149t-48 -162q-12 -67 -12 -130q0 -14 1 -27q3 -76 23 -132q27 -16 59 -16q23 0 50 8q63 20 130 70t131 123t113 155t76 163q21 62 21 117q0 16 -2 32q0 20 -17 42t-40 40t-48 29t-41 11z" />
<glyph unicode="c" horiz-adv-x="820" d="M68 452q0 114 22 224t74 196t138 138t214 52q5 -23 5 -47q0 -18 -3 -38q-6 -45 -27 -75t-55 -33h-4q-32 0 -74 41q-60 0 -98 -48t-59 -114t-29 -135t-8 -111q0 -40 3 -109t18 -136t49 -116t98 -49q44 0 92 30t92 70t78 80t50 62q18 26 27 37l16 20q7 9 15 21t22 40 q4 0 12 2t12 2q26 0 41 -11t31 -39q-58 -72 -104 -142t-102 -127t-133 -95t-195 -44q-76 0 -120 52t-66 125t-27 150t-5 127z" />
<glyph unicode="d" horiz-adv-x="880" d="M644 478q0 -86 -46 -164t-116 -134t-152 -85q-55 -20 -106 -20q-25 0 -48 5q-72 14 -124 77t-60 189q-7 42 -7 85q0 59 13 121q22 106 68 202t112 170t142 107q50 22 101 22q26 0 53 -6q78 -17 148 -105l2 820q0 6 11 9t27 4l33 2q17 1 27 1q14 0 23 -67t14 -180t9 -258 t5 -302t1 -314t-1 -291t-2 -233t-1 -143q-10 0 -31 4t-42 11t-37 18t-16 25v430zM570 794q-50 98 -108 126q-33 16 -66 16q-25 0 -49 -9q-57 -21 -109 -81t-89 -138t-55 -165q-12 -58 -12 -111q0 -26 3 -51q9 -75 51 -129t126 -66q50 0 92 34t76 88t61 122t44 135t26 128 t9 101z" />
<glyph unicode="e" horiz-adv-x="870" d="M156 144q-66 218 -86 379q-11 92 -11 169q0 57 6 106q15 114 59 186t106 110t135 48q41 6 81 6q33 0 66 -4q38 0 76 -20t70 -51t52 -69t20 -76q0 -106 -51 -178t-129 -119t-171 -72t-177 -35v-19q0 -13 -1 -29t-1 -29v-19q0 -52 18 -111t53 -109t84 -83t109 -33 q56 0 101 33t87 72t86 72t102 33q0 -58 -44 -112t-107 -97t-131 -69t-116 -26q-84 0 -162 35t-124 111zM486 1052q-80 0 -136 -39t-91 -98t-51 -130t-16 -135q50 0 125 11t145 40t119 78t49 127q0 26 -13 53t-33 47t-46 33t-52 13z" />
<glyph unicode="f" horiz-adv-x="802" d="M250 1018h-13q-9 0 -21 1t-23 1h-15l-236 6v104l308 32q-1 32 -1 78v50q1 80 12 170t36 181t70 160t114 106q48 26 111 26q27 0 58 -5q46 0 104 -19t108 -53t84 -81t34 -101q-52 0 -93 24t-81 53t-82 53t-96 24q-68 0 -111 -40t-68 -103t-34 -139t-11 -150q-1 -30 -1 -57 q0 -42 2 -80q3 -63 3 -97l442 -18l-8 -92l-448 -34l58 -1028h-130q-10 36 -18 107t-16 160t-14 192t-11 205t-8 196t-5 168z" />
<glyph unicode="g" horiz-adv-x="916" d="M326 -906q-16 -2 -32 -2l-76 10q-54 14 -96 41t-66 66q-18 29 -18 61q0 11 2 22q40 0 71 -16t62 -36t65 -36t82 -16q116 0 195 50t127 132t69 185t21 211q0 28 -3 88l-7 135q-4 75 -9 158t-10 158t-10 135t-9 88l-40 -98q-24 -58 -55 -122t-70 -127t-87 -113t-105 -81 t-121 -31q-34 0 -53 34t-29 78t-13 87t-3 61q-5 64 -5 127t5 126q10 125 41 234t82 195t125 135t169 56q12 1 24 1q86 0 189 -44q32 4 43 -36q10 -37 10 -88q0 -56 -7 -132q-6 -64 -8 -108q0 -104 8 -208t19 -207t19 -206t8 -207q0 -120 -24 -253t-83 -246t-156 -187 t-241 -74zM204 264q0 -20 1 -49t8 -56t22 -46t43 -19q56 0 104 51t89 130t74 175t56 188t35 167t12 111q-60 22 -111 22q-53 0 -97 -24q-86 -46 -139 -145t-77 -234q-21 -116 -21 -232q0 -20 1 -39z" />
<glyph unicode="h" horiz-adv-x="976" d="M72 1552q0 22 12 38t30 26t38 14t38 4v-776l71 96q37 52 80 96t94 74t113 30q98 0 164 -70t108 -178t63 -240t30 -256t10 -226t1 -150q0 -28 -22 -48t-50 -20q-26 0 -42 11t-30 39q0 20 2 71t3 116t1 138t1 138q0 32 0.5 61.5t-0.5 54.5q-1 51 -1 73q-4 42 -16 103 t-38 118t-66 98t-96 41q-82 0 -142 -62t-100 -158t-64 -212t-36 -225t-14 -197q-1 -29 -1 -53q0 -48 3 -73l-146 -2q4 298 6 574q0 118 1 243q0 62 0.5 123.5t-0.5 120.5q-1 119 -2 226t-3 191v28z" />
<glyph unicode="i" horiz-adv-x="262" d="M168 -12q-10 0 -26 4t-32 12t-27 19t-11 25l-2 962q0 14 11 25t27 19t32 12t26 4zM84 1276q-14 0 -32 10t-31 25t-18 32q-1 5 -1 10q0 11 8 19q8 24 32 44t50 27q11 3 21 3q13 0 24 -5q19 -9 19 -45q0 -18 -3 -39t-12 -39t-23 -30t-34 -12z" />
<glyph unicode="j" horiz-adv-x="560" d="M-166 -284l25 -90q15 -54 36 -112t48 -117t63 -105t82 -75t104 -29q30 0 52 24t37 57t23 66t8 49l-62 1246l108 -10q2 -40 7 -126t9 -194t10 -227t10 -227l7 -194q3 -86 5 -128v-26q0 -20 1 -46t1 -50v-38q0 -60 -8 -110t-32 -85t-66 -55t-110 -20q-58 0 -117 36t-112 92 t-96 124t-69 132t-30 115q-1 7 -1 14q0 40 21 61zM300 880q-14 0 -33 10t-32 25t-18 32q-1 4 -1 9q0 12 10 20q8 24 32 44t49 28q12 4 22 4q12 0 22 -5q19 -9 19 -45q0 -18 -3 -39t-11 -40t-22 -31t-34 -12z" />
<glyph unicode="k" horiz-adv-x="1356" d="M144 714q-12 0 -28 11t-31 26t-26 31t-11 26q0 12 7 32t18 41t24 38t23 21l-6 814l120 -20l-22 -768q86 16 181 61t188 108t177 139t148 156l39 -28q19 -14 32 -31t20 -38t3 -47q-40 -16 -96 -51t-120 -79l-132 -94l-131 -94l-118 -79q-55 -35 -91 -49q148 -46 287 -94 t279 -86t283 -62t297 -24q0 -4 -4 -7t-8 -9l-9 -18q-7 -14 -16 -30t-18 -29t-13 -15q-86 -7 -158 -7q-29 0 -56 1q-94 4 -174 19t-156 39t-158 55l-180 67q-98 36 -224 74q-6 -49 -6 -96q0 -29 2 -57q6 -75 18 -149l23 -148q11 -74 15 -150q0 -20 -2 -41t-11 -38t-25 -28 t-42 -11q-4 0 -11 1t-7 3z" />
<glyph unicode="l" horiz-adv-x="262" d="M44 1726l112 16q8 -106 15 -250t12 -304t9 -325t7 -313t7 -267t10 -187q0 -28 -10 -53t-24 -36q-8 -6 -18 -6q-7 0 -14 3q-18 8 -32 44z" />
<glyph unicode="m" horiz-adv-x="1502" d="M152 678q14 42 48 107t76 126t87 106t83 45q30 0 56 -21t48 -52t38 -64t24 -57q6 -18 20 -66l29 -101l29 -101q14 -48 18 -66l31 106q19 66 46 141t62 151t79 137t96 100t114 39q34 0 75 -25t77 -62t61 -80t25 -79l6 -914h-94l-6 868q0 86 -36 141t-104 55q-38 0 -77 -27 t-72 -66t-58 -81t-33 -70q-42 -120 -69 -222t-43 -201t-24 -204t-10 -233l-88 -8q-2 32 -10 86l-17 119q-9 65 -20 134l-22 134q-11 65 -19 119t-12 86q-32 136 -67 191q-31 49 -61 49q-4 0 -8 -1q-34 -7 -67 -63t-63 -141t-53 -188t-38 -203t-21 -186q-3 -37 -3 -67 q0 -40 5 -69q-12 -12 -34 -12h-6q-26 2 -50 10t-42 17t-14 9l-4 892q0 18 15 29t34 18t39 10t32 3z" />
<glyph unicode="n" horiz-adv-x="1032" d="M820 776q0 46 -15 104t-44 110t-73 88t-102 36q-116 -70 -185 -152t-107 -173t-51 -187t-18 -194l-10 -197q-5 -99 -23 -195q-2 0 -17 -3t-32 -6t-32 -5l-15 -2q-6 170 -10 296t-6 222t-3 170t-1 141v134v151l98 -2l-26 -414q32 76 63 165t79 165t122 127t192 51 q78 0 137 -41t98 -105t58 -140t19 -144l22 -728l-50 -48l-46 48z" />
<glyph unicode="o" horiz-adv-x="1114" d="M80 548q0 138 29 249t92 189t164 120t245 42q122 -42 195 -110t112 -145t51 -155t12 -138q0 -128 -35 -239t-104 -192t-170 -127t-233 -46q-120 0 -190 49t-108 127t-49 177t-11 199zM168 536q0 -92 11 -174t43 -144t92 -98t158 -36q120 0 200 40t130 111t71 167t21 208 q-16 78 -38 145t-62 120t-106 93t-170 68q-110 0 -178 -44t-106 -115t-52 -161t-14 -180z" />
<glyph unicode="p" horiz-adv-x="1072" d="M72 1024q0 4 1 12t1 10q72 20 134 31t120 16t120 6t134 1q92 0 174 -13t144 -51t98 -106t36 -176q0 -148 -62 -266t-164 -205t-232 -146t-264 -89v-26q0 -64 8 -126t19 -124t19 -124t8 -126h-102q-4 42 -11 132t-17 203t-20 238l-19 237q-9 112 -17 202t-10 132 q-4 44 -20 91t-33 92t-31 89t-14 86zM262 846q0 -84 4 -164t10 -159t15 -161t21 -172q8 -2 34 -3t36 -1q98 0 197 45t178 118t129 167t50 192t-32 157t-87 91t-130 41t-161 9q-12 0 -43 -1l-65 -2q-34 -1 -64 -2t-42 -1q-28 -4 -39 -24t-13 -45q-1 -12 -1 -24.5t1 -24.5 q2 -24 2 -36z" />
<glyph unicode="q" horiz-adv-x="880" d="M674 432l-89 -163q-41 -77 -89 -135t-110 -92t-152 -34q-70 0 -114 35t-70 89t-35 121t-9 133q0 80 25 187t74 204t124 164t177 67q62 0 121 -10t112 -36t98 -74t79 -122v-50q4 -122 4 -220t-3 -191t-9 -193l-14 -228q-8 -128 -17 -294t-17 -392l500 576l53 -67 q15 -20 15 -42q0 -6 -1 -12q-5 -29 -38 -72t-105 -120l-186 -198l-278 -307l-90 50zM98 386q0 -32 8 -78t26 -89t45 -77t67 -44q84 24 150 96t119 159t92 174t69 143q0 2 1 11t1 13q0 52 -28 93t-72 69t-95 43t-95 15q-82 0 -137 -64t-88 -151t-48 -175t-15 -138z" />
<glyph unicode="r" horiz-adv-x="808" d="M48 808q-6 26 -16 66t-18 82t-8 80t12 61t42 26h6q29 0 78 -27q4 -20 11 -67l15 -100q8 -53 14 -100t6 -67q36 80 92 152t130 126t162 86t188 32l-20 -114q-128 -22 -239 -108t-185 -222t-99 -318q-9 -66 -9 -136q0 -123 28 -260l-126 -26q-2 2 -6 49l-10 121 q-6 74 -12 166l-12 184q-6 92 -13 175t-11 139z" />
<glyph unicode="s" horiz-adv-x="1168" d="M48 380q16 34 38 43t58 5q72 -66 147 -124t157 -100t172 -67t192 -25h46q26 0 47 7t36 23t15 46q-8 60 -63 105t-133 86l-166 84q-88 43 -160 98t-116 126q-36 58 -36 135q0 18 2 36q0 56 36 100t88 75t109 48t101 17q86 0 175 -25t159 -73l-54 -76q-36 30 -89 45 t-109 16h-10q-51 0 -100 -9q-54 -10 -95 -31t-62 -50q-14 -20 -14 -42q0 -10 3 -21q0 -94 50 -153t126 -102t164 -77t164 -77t126 -102t50 -151q0 -58 -19 -92t-50 -52t-74 -24t-91 -6q-108 0 -224 28t-226 78t-206 121t-164 157z" />
<glyph unicode="t" horiz-adv-x="838" d="M-94 846l-10 120l330 18v528q6 0 29 1t48 1t46 -2t21 -8v-502l398 62q0 -34 5 -58t7 -41t-3 -27t-25 -14q-46 -10 -123 -10h-27h-19q-88 0 -193 -16q0 -4 -3 -61t-5 -139q-1 -27 -1 -56q0 -58 3 -122q4 -96 17 -180t39 -143t70 -67q12 -2 24 -2q42 0 92 26q64 34 121 81 t99 91t48 54q2 -2 6 -15t7 -28l6 -29q3 -14 3 -16q-18 -72 -69 -121t-117 -79t-137 -43t-127 -13q-50 0 -84 34t-56 81t-34 98t-16 85l-6 61l-9 92q-5 51 -10 108t-9 109t-8 93t-4 61z" />
<glyph unicode="u" horiz-adv-x="952" d="M168 1190q-6 -46 -6 -131t6 -189t19 -216t33 -211t48 -174t64 -105q20 -17 42 -17q18 0 38 11q44 24 98 126q48 128 75 234t44 210t30 214t31 248q28 52 72 52q4 0 13 -1t11 -1l12 -116q8 -78 17 -177t20 -208t20 -208l16 -177q7 -78 9 -116q0 -2 1 -23t3 -46t3 -47 t1 -28q0 -16 -1 -33t-11 -28t-35 -13h-8q-24 0 -67 10l-4 732q-28 -70 -45 -154l-33 -168q-16 -84 -39 -162t-64 -135t-106 -86q-46 -21 -110 -21q-27 0 -57 4q-66 0 -112 69t-76 176t-47 237t-26 252t-11 220t-2 144z" />
<glyph unicode="v" horiz-adv-x="916" d="M78 1060q0 30 6 54t46 36l292 -968q30 56 62 132t62 158t57 166l51 160l43 138q19 62 33 100q12 38 35 79t61 65l46 -50q2 -2 -12 -45l-37 -114l-54 -163l-65 -191l-68 -197l-64 -182q-12 -34 -22 -70t-25 -66t-37 -49t-60 -19q-44 0 -88 61t-83 158t-72 215t-57 232 t-37 211t-13 149z" />
<glyph unicode="w" horiz-adv-x="1554" d="M312 -16q-8 40 -24 113l-35 164l-39 189l-39 189l-35 164q-16 73 -26 113q0 6 -8 26t-16 44l-15 45q-7 21 -7 27q0 20 18 32t42 19t46 9t28 2q0 -6 1 -22t2 -34t3 -33t2 -21l24 -134l30 -158q16 -82 34 -161t36 -141t34 -101t30 -39q4 22 25 87l49 152l61 184l62 184 l51 151q22 64 28 86l108 -14q16 -42 53 -123l78 -168l79 -168q38 -81 54 -123q4 -12 17 -45t33 -71t44 -73t50 -49q4 8 11 29l14 43l13 42q6 20 8 28q8 36 26 97l39 135l45 154q24 80 44 154l36 135q16 61 22 97q8 14 18 23q8 7 18 7h4q12 -2 26 -19t30 -57q0 -12 -21 -80 l-52 -169l-67 -224q-36 -123 -66 -243t-50 -224q-18 -95 -18 -158v-12h-104l-430 918q-12 -8 -23 -22t-27 -49t-39 -100t-55 -173l-76 -266l-104 -382z" />
<glyph unicode="x" horiz-adv-x="1262" d="M100 -22q0 4 1 12t1 12l360 570l-378 588l124 28q38 -52 78 -123l81 -144q41 -73 85 -136t90 -97q34 34 79 106l91 153l89 156q43 75 77 117l128 -24l-388 -586l544 -542q0 -4 2 -8q0 -4 1 -7t1 -5q0 -32 -23 -54t-53 -22q-4 0 -12 1t-10 1l-125 120l-142 143l-133 142 q-62 69 -98 121q-32 -14 -66 -54t-68 -96t-68 -120l-64 -126l-57 -114q-27 -52 -49 -84q-2 0 -11 -1t-13 -1q-30 0 -52 21t-22 53z" />
<glyph unicode="y" horiz-adv-x="950" d="M168 -696q0 4 2 12t2 10l61 -45q33 -25 70 -48t76 -38t77 -15q58 0 105 28t84 73t65 102t45 116t26 114t9 95l-26 764l-37 -143q-21 -79 -57 -149t-89 -117t-133 -47q-58 0 -110 58t-97 147t-80 199t-60 213t-39 188t-14 125h98q2 -30 14 -101t32 -161t48 -187t61 -177 t72 -132t81 -52q38 0 71 32t61 81t51 108t39 112t26 92t14 51q4 18 5 55q0 18 0.5 39.5t-0.5 44.5q-1 47 -3 99t-3 99t-2 84t3 55l142 2l26 -1382q0 -60 -12 -131t-36 -143t-60 -140t-83 -120t-107 -83t-130 -31q-44 0 -94 19t-93 52t-72 77t-29 96z" />
<glyph unicode="z" horiz-adv-x="1192" d="M48 48q34 48 89 117l121 148l138 164l139 168l124 158q57 75 95 135q-76 12 -148 13h-18q-63 0 -125 -6q-71 -7 -143 -22t-148 -35q-6 0 -12 7t-5 24t16 44t51 69l772 -4l-702 -872q108 0 221 14t228 30t228 30t221 14l-8 -94q4 0 -60 -9t-168 -22l-234 -28 q-130 -15 -257 -26t-238 -17q-56 -3 -100 -3t-77 3z" />
<glyph unicode="{" horiz-adv-x="668" d="M306 382q0 54 16 101t35 92t35 90t16 97q0 58 -28 84t-71 35t-93 9t-93 7t-71 29t-28 74q0 4 6 11t13 14t15 14t14 9q10 4 37 12t58 15t58 14t37 7q-2 32 -7 87t-4 119t10 130t34 119t69 86t114 33q34 0 59 -14t59 -36q-8 -18 -38 -31t-64 -23t-61 -20t-27 -22v-524 q32 -28 52 -52t31 -48t14 -51t3 -61q0 -50 -16 -98t-35 -94t-35 -93t-16 -97q0 -60 30 -104t67 -80t67 -71t30 -79q0 -20 -11 -46t-39 -26q-58 0 -103 43t-76 104t-47 126t-16 109z" />
<glyph unicode="|" horiz-adv-x="286" d="M46 1110q0 14 -2 34t1 39t14 35t35 22q26 -8 44 -87t29 -196t16 -255t7 -262t2 -216v-118q0 -18 -2 -37t-9 -35t-22 -26t-41 -10q-4 0 -13 1t-11 1q-2 38 -5 116t-8 177l-10 207l-10 207q-5 99 -8 177t-5 116v18q0 14 -1 32t-1 34v26z" />
<glyph unicode="}" horiz-adv-x="644" d="M210 74q0 34 39 64l85 64q46 34 85 76t39 102q0 78 -38 141t-85 124t-85 124t-38 139q0 48 23 115l51 142q28 75 51 150t23 139q0 54 -21 80t-54 36t-72 12t-77 7t-68 22t-44 57q6 24 23 36t38 15t42 2t35 -1q50 0 110 -9t111 -33t86 -66t35 -108q0 -36 -8 -69t-19 -66 t-19 -67t-8 -70q0 -34 16 -54t35 -37t35 -38t16 -53q0 -48 -15 -67t-39 -22t-56 2t-66 5q0 -80 28 -146t62 -131t62 -132t28 -149q0 -50 -22 -120t-61 -135t-93 -110t-118 -45q-26 0 -39 26t-13 48z" />
<glyph unicode="~" horiz-adv-x="862" d="M68 1458q14 40 35 86t47 84t57 63t65 25q46 0 85 -38t76 -83t74 -83t81 -38q36 0 61 33t48 72t46 72t57 33q0 -90 -18 -152t-47 -101t-66 -56t-75 -17q-44 0 -82 29t-74 64t-73 64t-77 29q-64 0 -106 -31t-88 -115z" />
<glyph unicode="&#xa1;" horiz-adv-x="378" d="M305.649 1223.13q-43.6641 35.5205 -86.0439 43.9336t-66.7812 -3.73926q-24.4004 -12.1514 -23.1162 -40.1943t47.5176 -67.3018q35.958 -26.1738 75.7695 -8.41309q39.8115 17.7598 52.6543 75.7148zM213.184 -240.692l7.70605 123.388l11.5576 189.755 l12.8428 221.537l12.8428 221.536l11.5576 188.82l7.70605 122.453q0 26.1729 -2.56934 50.4766q-2.56836 24.3027 -15.4102 44.8682q-12.8428 20.5645 -37.2432 34.5859q-24.4004 14.0205 -70.6338 15.8906l-84.7598 -1181.53z" />
<glyph unicode="&#xa2;" horiz-adv-x="820" d="M338 1110q0 14 -1 34t2 39t14 35t35 22q20 -8 35 -56t25 -126q18 2 34 3t34 1q54 -24 91 -51t40 -52t-38 -47t-143 -34q8 -102 12 -210t6 -206t2 -176v-122q54 46 97 96t61 74q18 26 27 37l16 20q7 9 15 21t22 40q4 0 12 2t12 2q26 0 41 -11t31 -39q-44 -54 -80 -107 t-74 -101t-81 -88t-101 -66q-2 -28 -6 -62t-12 -63t-21 -48t-31 -19q-4 0 -13 1t-11 1q-2 22 -3 64t-5 92q-46 -10 -96 -12q-76 0 -120 52t-66 125t-27 150t-5 127q0 92 14 181t45 166t83 136t128 93v82zM332 92q24 0 46 8l-9 211l-10 224q-5 111 -9 209t-6 164 q-56 -6 -91 -55t-55 -113t-27 -130t-7 -108q0 -40 3 -109t18 -136t49 -116t98 -49z" />
<glyph unicode="&#xa3;" horiz-adv-x="1404" d="M82 96q0 4 5 23t7 25q98 2 161 31t98 77t49 111t16 133t-2 143t-4 141q-12 0 -56 -11t-92 -13t-86 12t-38 66q0 4 2 12t2 12q124 6 198 38t115 80t59 108t28 122t22 120t42 103t88 73t160 28q26 0 68 -5t80 -19t66 -39t28 -63q0 -4 -1 -12t-1 -12q-64 34 -112 44t-112 10 q-100 0 -150 -52t-70 -126t-20 -158v-146h368v-118h-382l-142 -644q42 -26 90 -38t99 -15t101 -1t94 2q86 0 149 18t119 39t114 39t132 18q0 -42 -20 -80t-53 -65t-75 -43t-84 -16h-762q-8 -6 -28 -14t-42 -16t-43 -13t-29 -5q-68 0 -112 18t-44 78z" />
<glyph unicode="&#xa4;" horiz-adv-x="1260" d="M268 692q0 -92 16 -167t55 -129t103 -83t162 -29q96 0 158 54t99 130t55 159t24 141q-6 84 -21 150t-51 111t-99 69t-165 24q-96 -22 -160 -66t-103 -102t-56 -126t-17 -136zM116 152q0 4 1 12t1 12l92 148q-38 78 -49 178t-11 202q0 62 12 113t32 95t45 83l49 79 l-144 224l124 30q26 -34 50 -76l50 -88q62 52 150 79t204 27q34 -12 64 -27t58 -31l50 85q24 39 44 63l126 -24l-128 -196q50 -48 74 -98t33 -99t8 -97t-1 -90q0 -182 -66 -320l194 -194q0 -4 2 -8q0 -4 1 -7t1 -5q0 -32 -23 -54t-53 -22q-4 0 -12 1t-10 1q-78 70 -178 172 q-68 -78 -168 -123t-230 -45q-70 0 -124 17t-94 51l-40 -80q-18 -36 -34 -60q-4 0 -13 -1t-13 -1q-30 0 -52 21t-22 53z" />
<glyph unicode="&#xa5;" horiz-adv-x="1312" d="M314 702q62 14 100 15t72 -5l74 -13q40 -7 106 -9q-4 84 -15 153t-33 109l-566 696l86 66q72 -64 150 -152l155 -177l147 -167q70 -78 126 -122q74 68 137 152t123 173l123 176q63 87 137 165l98 -48q-48 -92 -126 -195l-157 -201l-147 -182q-68 -84 -96 -136l4 -312 q74 2 148 11t150 31q34 -16 44 -39t6 -59q-78 -32 -165 -48t-181 -24l2 -164q96 2 167 2h93q14 0 35 1t40 -2t35 -14t20 -35l-46 -46q-100 -12 -184 -20t-160 -16l4 -258q0 -16 -18 -18t-42 4t-49 13t-37 9q-6 44 -7 105t-1 133q-118 -10 -192 -12t-116 -1t-59 6t-22 11 t-3 12t-2 10q-2 0 -3 8t-1 16q0 26 25 42t75 24t125 12t175 8q2 40 2 80v80q-72 -2 -118 4t-83 14t-73 15t-90 7z" />
<glyph unicode="&#xa6;" horiz-adv-x="262" d="M76 1014l-32 712l112 16q10 -134 17 -323t13 -395zM186 908l14 -490q6 -202 16 -322q0 -28 -10 -53t-24 -36t-32 -3t-32 44l-32 840z" />
<glyph unicode="&#xa7;" horiz-adv-x="1330" d="M168 774q-10 8 -11 15t3 17v14q-10 46 8 91t52 84t79 69t87 48q-42 36 -71 82t-35 110q-12 54 13 105t68 93t96 71t95 39q50 10 116 7t138 -17t144 -34t131 -42t100 -43t51 -35l-36 -86q-42 36 -119 66t-168 47t-184 19t-165 -17t-113 -60t-27 -109q14 -62 47 -100 t79 -66q196 -26 332 -71t217 -100t112 -114t20 -111t-60 -93t-127 -59q-160 -36 -344 -18q68 -12 136 -27t124 -40t97 -68t57 -111q12 -56 1 -93t-38 -62t-67 -40t-86 -27q-106 -24 -226 -23t-238 26t-227 73t-195 118q10 34 29 48t53 18q84 -48 171 -87t177 -63t183 -28 t191 18q20 6 45 12t45 17t30 30t4 49q-20 52 -80 83t-141 54t-172 44t-173 54t-144 85t-84 138zM524 1032q-54 -12 -102 -34t-81 -50t-46 -60t5 -64l2 -6q68 -72 144 -108t159 -46t171 -1t182 31q22 4 47 10t45 17t30 30t4 49q-20 54 -80 85t-139 53t-169 42t-172 52z" />
<glyph unicode="&#xa8;" horiz-adv-x="630" d="M184 1488q44 -6 70 -27t22 -55q-8 -46 -60 -66q-68 24 -91 49t-18 45t28 34t49 20zM378 1416q2 14 14 30t28 28t34 14t30 -12q32 -6 51 -33t22 -54t-13 -46t-54 -13q-18 2 -39 8t-38 16t-28 25t-7 37z" />
<glyph unicode="&#xa9;" horiz-adv-x="1606" d="M414 650q0 114 22 224t74 195t138 138t214 53q8 -40 2 -85t-27 -75t-55 -34t-78 40q-60 0 -98 -47t-59 -113t-29 -135t-8 -113q0 -40 3 -109t18 -136t49 -116t98 -49q44 0 103 38t116 89t102 99t59 70q18 26 38 44t40 34t39 34t33 46q2 0 10 2t12 2q28 0 43 -11t29 -41 l-125 -156q-67 -84 -149 -158t-180 -127t-216 -59q-76 0 -120 52t-66 125t-27 150t-5 129zM120 766q0 188 30 355t110 290t221 190t365 53q198 -64 315 -170t179 -225t81 -240t19 -215q0 -200 -37 -363t-125 -279t-233 -180t-359 -64q-130 0 -222 58t-155 147t-100 195 t-57 200t-26 163t-6 85zM250 762q0 -144 17 -272t70 -225t149 -153t254 -56q194 0 311 59t179 165t81 253t19 321q-28 122 -48 229t-66 195t-137 154t-261 108q-178 0 -289 -69t-173 -179t-84 -250t-22 -280z" />
<glyph unicode="&#xaa;" horiz-adv-x="666" d="M492.469 911.158l-50.7871 -84.3301q-29.2012 -48.7246 -70.4648 -93.7012t-95.2246 -76.8359q-53.96 -31.8574 -126.33 -34.6689q-33.0117 0 -53.9609 16.8662t-32.376 40.7598q-11.4268 23.8945 -15.8701 49.1934q-4.44434 25.2988 -4.44434 41.2285 q-1.26953 7.96484 -1.26953 16.8662q0 18.7402 5.0791 43.1025q7.61719 36.543 24.7578 78.2402t43.168 83.8633q26.0283 42.165 60.9434 75.8975q34.916 33.7324 78.084 55.2842q43.168 21.5508 92.6846 22.4883q25.3936 1.87305 46.3428 3.74805 q12.0615 0.936523 24.123 0.936523q9.52246 0 19.0449 -0.46875q22.2188 -1.40527 48.2471 -7.49609q26.0273 -6.09082 62.8477 -21.083q1.26953 -13.1172 2.53906 -45.9131t1.9043 -74.4922q0.634766 -41.6973 1.26953 -88.0791q0.635742 -46.3828 1.27051 -87.6113 t1.26953 -74.0234t1.9043 -45.9141q0 -4.68457 0.634766 -18.2715l1.26953 -28.5781q0.634766 -14.9922 0.634766 -28.5791v-18.2725q-6.34766 0 -19.0449 1.875q-12.6963 1.87305 -26.0273 5.15332q-13.332 3.2793 -23.4893 8.43262q-10.1572 5.1543 -10.1572 11.7129z M103.954 765.922q0 -27.1738 13.9668 -54.3467q13.9658 -27.1729 48.2461 -44.04q24.124 3.74805 55.2305 27.1738t63.4824 58.5635t63.4824 77.7715t55.2305 84.7998q24.123 42.166 39.3594 79.1777q15.2354 37.0117 16.5049 61.374q0 14.0557 -8.8877 22.4883 t-22.8535 13.5869q-13.9658 5.15332 -30.4717 6.55859q-16.5059 1.40625 -31.7412 1.40625q-45.708 -1.875 -83.1621 -22.957q-37.4551 -21.083 -66.6572 -53.4102q-29.2021 -32.3262 -50.1514 -71.2129q-20.9492 -38.8857 -34.915 -75.4297 q-13.9668 -36.543 -20.3145 -66.9961q-6.34863 -30.4531 -6.34863 -44.5078z" />
<glyph unicode="&#xab;" horiz-adv-x="1706" d="M1108 1190l6 -134l-796 -382q-2 -4 28 -32l72 -64q42 -36 87 -71t75 -51q26 -16 92 -51l141 -75l142 -74q67 -34 95 -46q0 -4 -2 -12t-2 -12q-10 -28 -36 -43t-56 -5q-4 0 -13 4t-11 6l-234 131l-228 128q-110 63 -206 125t-170 126l14 46zM1730 1172l6 -134l-796 -382 q-2 -4 28 -32l72 -64q42 -36 87 -71t75 -51q16 -10 53 -30l83 -45l98 -51l98 -50l84 -43q38 -19 56 -27q0 -4 -2 -12t-2 -12q-10 -28 -37 -44t-57 -6q-4 0 -13 4t-11 8l-233 131l-227 128q-110 63 -207 125t-171 124l16 48z" />
<glyph unicode="&#xac;" horiz-adv-x="988" d="M748 600q0 30 -2 80t-4 106t-5 107t-3 81l-636 2q-18 2 -24 20t-3 40t14 39t29 15q34 -6 100 -6t146 3t166 5t159 2t125 -5t66 -19l8 -480z" />
<glyph unicode="&#xad;" horiz-adv-x="700" d="M52 510q0 12 1 20t14 14t45 9t94 5t159 3t243 1l-24 -102l-482 -24q-26 -4 -38 25t-12 49z" />
<glyph unicode="&#xae;" horiz-adv-x="1356" d="M80 548q0 92 16 193t49 200t81 188t113 157t145 108t178 40q112 10 201 -26t158 -101t117 -154t79 -182t46 -185t15 -166q0 -128 -38 -221t-102 -161l-6 -8h-2q-74 -78 -171 -124t-195 -71t-185 -32t-141 -7q-120 0 -190 49t-108 127t-49 177t-11 199zM456 618 q-40 -18 -62 -8t-23 29t20 39t65 20q2 40 3 97l2 115q1 58 5 107t10 75q-22 0 -41 1t-19 29q0 30 37 45t85 19t94 3t64 -1q56 0 109 -9t95 -29t67 -55t25 -85q0 -78 -50 -141t-119 -110t-141 -79t-114 -46l512 -298q48 58 78 131t34 163q12 80 -2 166t-52 166t-95 151 t-131 121t-160 74t-182 12q-74 0 -132 -41t-103 -108t-76 -152t-52 -172t-30 -169t-9 -142q0 -92 11 -174t43 -144t92 -98t158 -36q72 0 148 12t149 37t141 63t124 90l-496 300v-486l-76 -4q0 90 -1 150t-2 114l-2 112q-1 58 -1 146zM930 1014q-6 58 -50 87t-105 37t-126 -1 t-111 -27v-406q60 0 128 30t127 76t98 100t39 104z" />
<glyph unicode="&#xaf;" horiz-adv-x="700" d="M66 1562q0 12 1 20t15 14t46 9t93 5t159 3t242 1l-24 -100l-482 -26q-26 -4 -38 25t-12 49z" />
<glyph unicode="&#xb0;" horiz-adv-x="534" d="M120 930q0 102 46 162t158 60q48 -16 76 -41t43 -54t19 -58t4 -51q8 -76 -46 -142t-162 -82q-40 18 -65 42t-40 51t-22 56t-11 57zM188 930q0 -28 10 -49t24 -36t31 -25t33 -16q40 14 71 57t39 88t-13 80t-83 37q-54 -28 -83 -59t-29 -77z" />
<glyph unicode="&#xb1;" horiz-adv-x="1104" d="M118 206q0 20 115 19t309 -7q-6 66 -12 144l-11 145q-5 67 -9 113l-4 46l-324 18q-18 0 -29 15t-19 35t-11 40t-3 28l408 -18v596l76 18l44 -590l362 22q-4 -12 2 -35t9 -47t-2 -43t-29 -25l-342 -14v-452q106 -4 223 -6t251 -2l-24 -102l-930 28q-26 -4 -38 25t-12 49z " />
<glyph unicode="&#xb2;" horiz-adv-x="776" d="M52.6523 780.062q42.0781 27.0693 85.4717 69.6777q43.3936 42.6094 83.499 94.7432q40.1055 52.1328 74.9512 110.281t60.4873 115.796t40.7637 112.789q15.1221 55.1406 15.1221 101.259q0 21.0537 -3.94531 34.0869t-14.4648 20.5527t-29.5859 10.5264 q-19.0664 3.00781 -47.9951 3.00781t-59.8301 -9.02246q-30.9014 -9.02344 -61.8018 -19.5498q-30.9014 -10.5273 -61.8027 -19.0488q-30.9004 -8.52246 -61.1445 -8.52246q0 25.0645 35.5039 46.6191q35.5029 21.5557 82.8408 37.5967t94.0186 25.5654 q46.6797 9.52441 69.0342 9.52441q80.2119 0 112.428 -32.082t32.2158 -87.2236q0 -35.0889 -11.1768 -82.21q-11.1768 -47.1201 -30.9014 -98.752q-19.7246 -51.6328 -45.3652 -105.27q-25.6416 -53.6367 -54.5703 -102.763t-58.5146 -89.7295 q-29.5869 -40.6035 -57.2002 -66.6709q67.0625 7.01855 123.604 18.5479t111.771 26.5684l113.742 32.082q58.5146 17.043 129.521 34.0869l22.3535 -63.1621q-182.776 -37.0947 -302.436 -65.166q-119.66 -28.0723 -193.297 -47.6221l-109.798 -29.5752 q-36.1611 -10.0264 -51.9404 -10.5273t-19.7236 7.51953t-11.835 26.0664z" />
<glyph unicode="&#xb3;" horiz-adv-x="648" d="M98.709 812.214q0 1.02539 3.50195 8.19824l7.58887 15.3721l7.58887 15.3721q3.50195 7.17285 4.66992 8.19824l19.8477 -14.3477q11.6738 -8.19824 23.9326 -15.8838t25.6846 -13.3223q13.4258 -5.63574 26.2686 -6.66113q39.6943 0 77.6377 18.4463t71.7998 48.6768 q33.8564 30.2314 62.46 69.1729t49.0342 79.9326t32.1064 80.958q11.6738 39.9668 11.6738 71.7344q-5.83691 47.1406 -32.6895 69.1729q-26.8516 22.0332 -64.7949 25.6191q-37.9434 3.58691 -82.8906 -7.68555q-44.9482 -11.2725 -86.9775 -31.2559t-77.6377 -45.0898 q-35.6074 -25.1074 -54.2871 -49.7021l-21.0156 50.2139l268.521 323.831q-9.33984 2.0498 -43.1973 -3.58691q-33.8574 -5.63574 -75.3027 -14.8594q-41.4453 -9.22266 -79.9727 -21.0078q-38.5264 -11.7852 -57.2061 -21.0078q-3.50293 0 -7.58887 8.19824 t-7.58789 18.958q-3.50293 10.7607 -5.83789 20.4961t-2.33496 12.8096l305.88 49.1895q11.6748 0 17.5117 -5.12402q5.83789 -5.12402 8.17285 -12.8096t2.91895 -15.3721q0.583984 -7.68555 0.583984 -13.834q0 -19.4717 -15.1777 -47.6523 q-15.1777 -28.1816 -36.1914 -57.3877q-21.0156 -29.207 -42.6133 -54.8262l-33.2734 -39.9668q88.7285 18.4463 141.849 10.7607t82.8916 -29.7188q29.7705 -22.0322 40.2773 -51.751q10.5078 -29.7188 12.8428 -54.3135q0 -38.9424 -14.0098 -86.082t-37.9434 -95.3047 q-23.9326 -48.1641 -57.79 -92.7422t-74.1348 -79.4209q-40.2783 -34.8418 -84.6426 -55.8506q-44.3643 -21.0078 -91.0635 -21.0078q-19.8467 0 -40.8623 1.02539q-21.0137 1.02441 -38.5264 6.14844t-28.6035 15.8838q-11.0908 10.7607 -11.0908 29.2061z" />
<glyph unicode="&#xb4;" horiz-adv-x="370" d="M292 1270q-38 -62 -89 -113t-83 -61q-12 -12 -27 -11t-24 15t-6 36t27 52l84 110q102 96 136 84t-18 -112z" />
<glyph unicode="&#xb5;" horiz-adv-x="1016" d="M232 1190q-12 -36 -16 -110t0 -167t17 -195t36 -195t56 -168t78 -113t102 -30t127 82q48 128 66 233t24 206t10 210t22 247q28 52 72 52q4 0 13 -1t11 -1l12 -116q8 -78 17 -177t20 -208t20 -208l16 -177q7 -78 9 -116q0 -2 1 -23t3 -46t3 -47t1 -28q0 -16 -1 -33 t-11 -28t-35 -13t-75 10l-4 732q-8 -102 -27 -211t-52 -205t-82 -170t-115 -107t-151 -15t-191 108l34 -484h-144v1460z" />
<glyph unicode="&#xb6;" horiz-adv-x="1000" d="M638 846q-62 -78 -155 -108t-181 -11t-151 91t-63 198q0 104 41 169t110 101t157 49t182 13t187 -7t171 -11q-2 -118 0 -209t5 -172t8 -162t8 -178t3 -219t-4 -286l-102 -22q-2 204 -6 402q-2 84 -4 177t-5 184t-7 178t-10 163l-9 -2q-9 -2 -24 -3t-33 0t-34 7l-8 -1096 h-96z" />
<glyph unicode="&#xb7;" horiz-adv-x="312" d="M84 610q0 4 1 12t3 8q-10 44 12 63t52 20t56 -15t26 -42q0 -36 -26 -73t-46 -49q-14 -8 -28 -3t-25 18t-18 29t-7 32z" />
<glyph unicode="&#xb8;" horiz-adv-x="854" d="M154 -448q16 34 38 43t58 5q66 -72 135 -103t121 -31t81 24t17 62q-8 58 -45 86t-88 44t-107 29t-101 42t-71 83t-16 154q6 84 39 124t65 36t48 -51t-14 -135q-10 -72 15 -106t69 -53t98 -31t102 -41t82 -83t38 -156q-50 -82 -125 -113t-155 -20t-156 61t-128 130z" />
<glyph unicode="&#xb9;" horiz-adv-x="232" d="M53.0195 1433.52q0 18.499 30.79 31.0127q30.79 12.5127 69.5635 12.5127q0 -189.335 10.2627 -384.655q10.2637 -195.32 10.2637 -384.655v-17.4102q0 -8.70508 -9.12305 -14.1465q-9.12305 -5.44043 -31.9307 -7.07227q-22.8076 -1.63281 -68.4229 4.89648 q4.56152 151.251 6.84277 290.532q0 59.8467 -1.14062 122.959l-2.28125 122.959q-1.14062 59.8477 -4.56152 113.166q-3.4209 53.3193 -10.2627 94.668v15.2334z" />
<glyph unicode="&#xba;" horiz-adv-x="690" d="M60.3613 971.424q0 87.9932 18.2559 158.771t57.916 120.513q39.6592 49.7363 103.24 76.5166t154.231 26.7803q76.8018 -26.7803 122.756 -70.1396q45.9551 -43.3594 70.5059 -92.457q24.5518 -49.0977 32.1055 -98.833t7.55371 -87.9941q0 -81.6172 -22.0322 -152.395 q-22.0332 -70.7773 -65.4697 -122.426q-43.4375 -51.6484 -107.019 -80.9795t-146.677 -29.3311q-75.542 0 -119.608 31.2441t-67.9873 80.9795q-23.9219 49.7354 -30.8467 112.861t-6.9248 126.89zM115.759 963.771q0 -58.6621 6.9248 -110.948t27.0693 -91.8193 t57.915 -62.4883q37.7715 -22.9541 99.4639 -22.9541q75.542 0 125.903 25.5049q50.3613 25.5059 81.8369 70.7773q31.4756 45.2725 44.6963 106.485q13.2197 61.2129 13.2197 132.628q-10.0723 49.7354 -23.9219 92.457t-39.0303 76.5156 q-25.1807 33.7949 -66.7285 59.3008q-41.5479 25.5049 -107.018 43.3584q-69.2471 0 -112.055 -28.0557q-42.8066 -28.0557 -66.7285 -73.3281q-23.9219 -45.2715 -32.7344 -102.659q-8.81348 -57.3867 -8.81348 -114.774z" />
<glyph unicode="&#xbb;" horiz-adv-x="1706" d="M842 736l-760 326l82 120q4 0 47 -21l111 -54l153 -74l170 -80q85 -39 162 -71t131 -50q22 -8 40 -13t32 -11t21 -17t7 -29q0 -30 -12 -42t-40 -32t-85 -64l-127 -100l-147 -118l-148 -117l-127 -98q-56 -43 -84 -61q-14 6 -31 19t-31 28t-23 31t-9 28zM1390 776 l-760 328l82 118q4 0 48 -21l112 -54l153 -74l169 -80q84 -39 161 -71t131 -50q22 -8 41 -13t32 -11t21 -17t8 -29q0 -28 -13 -40t-41 -32t-84 -64l-127 -100l-147 -118l-147 -117l-127 -99q-56 -44 -84 -62q-16 6 -32 19t-31 28t-24 31t-9 28z" />
<glyph unicode="&#xbc;" horiz-adv-x="1260" d="M53.0195 1433.81q0 17.5312 30.79 29.3906t69.5635 11.8594q0 -179.438 10.2627 -364.547q10.2637 -185.109 10.2637 -364.547v-16.5q0 -8.25 -9.12305 -13.4062t-31.9307 -6.70312t-68.4229 4.64062q4.56152 143.344 6.84277 275.344q0 56.7188 -1.14062 116.531 l-2.28125 116.531q-1.14062 56.7188 -4.56152 107.25t-10.2627 89.7188v14.4375zM518 1544l78 -52l-402 -1504l-76 76zM919.331 474.02q-101.072 0 -207.56 -8.53027t-213.576 -11.1553q-3.61035 0 -12.6348 3.28125t-18.0488 8.53027l-16.8447 9.84277 q-7.82129 4.59375 -10.2275 8.53027l458.437 437.022q-9.62598 31.4971 -4.8125 50.5264q4.8125 19.0293 18.0479 30.1846q13.2363 11.1553 33.0898 14.4365q19.8535 3.28027 40.3086 3.28027q24.0654 -27.5596 34.8945 -51.8389q10.8291 -24.2783 13.8369 -49.8701 q3.00879 -25.5918 -0.601562 -54.4639l-8.42285 -66.2744q-4.8125 -37.4033 -7.82129 -83.9922q-3.00781 -46.5898 0.602539 -108.271l168.454 5.24902v-81.3672q-9.62598 -1.3125 -35.4961 -4.59277l-54.1455 -7.21875l-54.1465 -7.87402 q-25.8701 -3.9375 -35.4961 -6.56152q-2.40625 0 -4.8125 -1.3125t-3.60938 -11.8115q-1.2041 -10.499 -1.2041 -35.4346q0 -24.9346 1.80566 -73.4932q1.80469 -48.5576 6.01562 -125.988q4.21191 -77.4297 12.6348 -192.919l-78.2119 -14.4365 q-2.40625 32.8096 -1.20312 88.5859q1.20312 55.7754 0.601562 117.457q-0.601562 61.6826 -4.21094 121.396q-3.61035 59.7129 -15.6426 99.084zM898.876 829.674q-157.625 -124.676 -285.169 -283.473h11.4307q7.82129 0 16.8447 -0.65625 q9.02441 -0.65625 16.8457 -0.65625h11.4307q40.9111 0 88.4395 -3.28125t87.8369 3.9375q40.3086 7.21777 66.7803 30.8408q26.4707 23.6221 26.4707 78.7422q0 48.5576 -8.42285 88.5859q-8.42188 40.0273 -32.4873 85.96z" />
<glyph unicode="&#xbd;" horiz-adv-x="1434" d="M52.6309 1428.89q0 19.6514 28.4199 32.9453q28.4209 13.2949 64.21 13.2949q0 -201.146 9.47363 -408.648q9.47266 -207.503 9.47266 -408.648v-18.4961q0 -9.24805 -8.41992 -15.0273q-8.42188 -5.78027 -29.4736 -7.51465q-21.0518 -1.7334 -63.1572 5.20215 q4.21094 160.685 6.31641 308.653q0 63.5811 -1.05273 130.629l-2.10547 130.629q-1.05273 63.5801 -4.20996 120.225q-3.1582 56.6436 -9.47363 100.572v16.1846zM502 1486l78 -52l-402 -1504l-76 76zM536.463 109.785q50.5625 31.2578 102.705 80.4609t100.335 109.404 t90.0645 127.349t72.6836 133.716t48.9824 130.243t18.1709 116.929q0 24.3125 -4.74023 39.3633q-4.74023 15.0498 -17.3809 23.7324q-12.6406 8.68359 -35.5518 12.1562t-57.6729 3.47266t-71.8936 -10.4189t-74.2637 -22.5752t-74.2637 -21.9971t-73.4736 -9.84082 q0 28.9434 42.6621 53.834t99.5449 43.4141t112.976 29.5225q56.0928 10.998 82.9541 10.998q96.3848 0 135.097 -37.0469t38.7119 -100.722q0 -40.5195 -13.4307 -94.9316q-13.4307 -54.4131 -37.1318 -114.035q-23.7012 -59.623 -54.5127 -121.561t-65.5732 -118.666 q-34.7617 -56.7275 -70.3135 -103.615q-35.5518 -46.8867 -68.7334 -76.9883q80.584 8.10449 148.527 21.418q67.9434 13.3145 134.307 30.6797l136.677 37.0469q70.3135 19.6816 155.638 39.3623l26.8613 -72.9365q-219.631 -42.835 -363.418 -75.251t-232.271 -54.9912 l-131.937 -34.1523q-43.4521 -11.5781 -62.4131 -12.1562q-18.9609 -0.579102 -23.7012 8.68262t-14.2207 30.1006z" />
<glyph unicode="&#xbe;" horiz-adv-x="1796" d="M101.155 707.261q0 1.16797 4.56641 9.34863l9.89453 17.5283l9.89453 17.5283q4.56641 8.18066 6.08887 9.34863l25.8779 -16.3594q15.2217 -9.34863 31.2051 -18.1133t33.4893 -15.1914q17.5049 -6.42773 34.25 -7.5957q51.7549 0 101.227 21.0342 q49.4727 21.0342 93.6172 55.5078q44.1436 34.4727 81.4385 78.8789q37.2939 44.4062 63.9326 91.1494t41.8613 92.3174q15.2217 45.5742 15.2217 81.8008q-7.61035 53.7539 -42.6221 78.8789q-35.0107 25.124 -84.4824 29.2148q-49.4727 4.08984 -108.078 -8.76465 t-113.404 -35.6416q-54.8008 -22.7871 -101.228 -51.418q-46.4277 -28.6299 -70.7832 -56.6758l-27.4004 57.2607l350.11 369.271q-12.1777 2.33691 -56.3223 -4.08984q-44.1445 -6.42773 -98.1826 -16.9443q-54.0391 -10.5176 -104.272 -23.9561 q-50.2324 -13.4385 -74.5879 -23.9561q-4.56738 0 -9.89453 9.34863q-5.32812 9.34863 -9.89453 21.6191q-4.56641 12.2695 -7.61133 23.3711t-3.04492 14.6074l398.821 56.0918q15.2217 0 22.833 -5.84277t10.6562 -14.6074q3.04395 -8.76465 3.80469 -17.5283 q0.761719 -8.76465 0.761719 -15.7764q0 -22.2021 -19.7891 -54.3389q-19.7891 -32.1357 -47.1885 -65.4404q-27.4004 -33.3037 -55.5615 -62.5186l-43.3828 -45.5742q115.688 21.0342 184.949 12.2695t108.077 -33.8887q38.8174 -25.125 52.5166 -59.0137 q13.7002 -33.8887 16.7441 -61.9346q0 -44.4053 -18.2656 -98.1602q-18.2676 -53.7549 -49.4727 -108.678q-31.2051 -54.9238 -75.3496 -105.757t-96.6611 -90.5645q-52.5166 -39.7324 -110.36 -63.6875q-57.8438 -23.9561 -118.732 -23.9561q-25.8779 0 -53.2783 1.16797 q-27.3994 1.16895 -50.2334 7.01172q-22.833 5.84277 -37.2939 18.1133q-14.4609 12.2695 -14.4609 33.3047zM974 1580l78 -52l-402 -1504l-76 76zM1409.69 478.161q-113.85 0 -233.798 -9.42773q-119.948 -9.42676 -240.574 -12.3271q-4.06543 0 -14.2305 3.62598 q-10.165 3.625 -20.3301 9.42676l-18.9756 10.877q-8.80957 5.07617 -11.5205 9.42773l516.388 482.955q-10.8428 34.8076 -5.42188 55.8379q5.42188 21.0293 20.3311 33.3564q14.9082 12.3281 37.2715 15.9541t45.4043 3.62598q27.1064 -30.457 39.3047 -57.2881 t15.5869 -55.1123q3.3877 -28.2803 -0.677734 -60.1875l-9.4873 -73.2412q-5.42188 -41.334 -8.80957 -92.8203q-3.38867 -51.4863 0.676758 -119.651l189.749 5.80176v-89.9199q-10.8428 -1.4502 -39.9824 -5.07617l-60.9912 -7.97656l-60.9902 -8.70215 q-29.1396 -4.35059 -39.9824 -7.25195q-2.71094 0 -5.42188 -1.4502t-4.06641 -13.0527q-1.35449 -11.6025 -1.35449 -39.1582q0 -27.5566 2.03223 -81.2178q2.0332 -53.6621 6.77734 -139.23q4.74316 -85.5693 14.2305 -213.197l-88.0967 -15.9531 q-2.71094 36.2578 -1.35547 97.8965t0.677734 129.804q-0.677734 68.1641 -4.74414 134.154q-4.06543 65.9893 -17.6191 109.499zM1386.65 871.197q-177.551 -137.78 -321.218 -313.27h12.876q8.80957 0 18.9756 -0.724609q10.165 -0.725586 18.9746 -0.725586h12.876 q46.0811 0 99.6172 -3.625q53.5361 -3.62598 98.9404 4.35059t75.2217 34.082q29.8184 26.1064 29.8184 87.0195q0 53.6621 -9.4873 97.8965q-9.48828 44.2344 -36.5947 94.9961z" />
<glyph unicode="&#xbf;" horiz-adv-x="908" d="M729.719 421.723q-102.929 -7.2207 -191.494 -47.8369q-88.5664 -40.6162 -155.589 -98.3818q-67.0234 -57.7656 -110.109 -124.558t-52.6611 -123.654q-9.57422 -56.8633 15.5586 -96.5771q25.1338 -39.7139 92.1572 -44.2266q67.0225 -4.51367 180.723 34.2979 q113.699 38.8115 281.257 138.097l55.0547 -45.1299q-59.8418 -55.96 -111.307 -96.5771q-51.4639 -40.6162 -105.321 -67.6934q-53.8574 -27.0781 -119.684 -39.7148q-65.8262 -12.6357 -159.18 -12.6357q-119.684 0 -185.51 35.2012q-65.8262 35.2002 -65.8262 130.875 q0 88.4541 40.6924 167.882t107.715 148.023q67.0234 68.5977 154.393 127.266t180.723 103.797l-21.543 407.971h114.896l3.59082 -25.2734q3.58984 -25.2715 8.37793 -66.791q4.78711 -41.5195 11.9678 -92.9668t13.165 -103.797q5.98438 -52.3506 10.7715 -100.188 q4.78809 -47.8379 7.18164 -83.9414v-23.4668zM684.238 1147.4q0 -3.61035 -1.19629 -10.8311q-1.19727 -7.2207 -3.59082 -7.2207q-67.0225 -45.1289 -100.534 -38.8115q-33.5117 6.31836 -40.6924 31.5908q-7.18164 25.2725 8.37793 56.8633 q15.5586 31.5898 44.2822 37.0059q38.2988 0 65.8262 -19.8574q27.5273 -19.8564 27.5273 -48.7393z" />
<glyph unicode="&#xc0;" horiz-adv-x="1052" d="M358 886l-194 -912h-130l216 918l-238 34l-2 124q26 2 63 -8l76 -20q39 -10 72 -13t51 15l258 570q74 66 107 85q16 9 28 9q13 0 22 -10q17 -20 32 -76t55 -138l22 -81l34 -125l34 -125q16 -59 20 -83l318 8v-118l-290 -36l114 -896l-120 -6l-116 890zM630 1512 q-30 -22 -64 -86t-66 -139l-60 -145q-28 -70 -46 -106h348q0 130 -21 246t-91 230zM482 2042q-58 102 -18 114t150 -84l92 -114q26 -30 29 -53t-7 -36t-27 -16t-31 9q-16 6 -40 23t-49 41t-51 54t-48 62z" />
<glyph unicode="&#xc1;" horiz-adv-x="1052" d="M358 886l-194 -912h-130l216 918l-238 34l-2 124q26 2 63 -8l76 -20q39 -10 72 -13t51 15l258 570q74 66 107 85q16 9 28 9q13 0 22 -10q17 -20 32 -76t55 -138l22 -81l34 -125l34 -125q16 -59 20 -83l318 8v-118l-290 -36l114 -896l-120 -6l-116 890zM630 1512 q-30 -22 -64 -86t-66 -139l-60 -145q-28 -70 -46 -106h348q0 130 -21 246t-91 230zM624 1998q-38 -62 -89 -113t-83 -61q-12 -12 -27 -11t-24 15t-6 36t27 52l84 110q102 96 136 84t-18 -112z" />
<glyph unicode="&#xc2;" horiz-adv-x="1052" d="M358 886l-194 -912h-130l216 918l-238 34l-2 124q26 2 63 -8l76 -20q39 -10 72 -13t51 15l258 570q74 66 107 85q16 9 28 9q13 0 22 -10q17 -20 32 -76t55 -138l22 -81l34 -125l34 -125q16 -59 20 -83l318 8v-118l-290 -36l114 -896l-120 -6l-116 890zM630 1512 q-30 -22 -64 -86t-66 -139l-60 -145q-28 -70 -46 -106h348q0 130 -21 246t-91 230zM656 2164q-30 -22 -62 -55t-61 -67t-53 -66l-38 -52q-10 -16 -23 -19t-28 -1t-29 6t-28 4q-4 0 -13 1t-11 1l300 438h94q10 -38 42 -104l69 -139l69 -139q32 -66 44 -104l-108 -6 q-8 32 -34 83t-54 100t-51 84t-25 35z" />
<glyph unicode="&#xc3;" horiz-adv-x="1052" d="M358 886l-194 -912h-130l216 918l-238 34l-2 124q26 2 63 -8l76 -20q39 -10 72 -13t51 15l258 570q74 66 107 85q16 9 28 9q13 0 22 -10q17 -20 32 -76t55 -138l22 -81l34 -125l34 -125q16 -59 20 -83l318 8v-118l-290 -36l114 -896l-120 -6l-116 890zM630 1512 q-30 -22 -64 -86t-66 -139l-60 -145q-28 -70 -46 -106h348q0 130 -21 246t-91 230zM264 1988q14 40 35 86t47 84t57 63t65 25q46 0 85 -38t76 -83t74 -83t81 -38q36 0 61 33t48 72t46 72t57 33q0 -90 -18 -152t-47 -101t-66 -56t-75 -17q-44 0 -82 29t-74 64t-73 64t-77 29 q-64 0 -106 -31t-88 -115z" />
<glyph unicode="&#xc4;" horiz-adv-x="1052" d="M358 886l-194 -912h-130l216 918l-238 34l-2 124q26 2 63 -8l76 -20q39 -10 72 -13t51 15l258 570q74 66 107 85q16 9 28 9q13 0 22 -10q17 -20 32 -76t55 -138l22 -81l34 -125l34 -125q16 -59 20 -83l318 8v-118l-290 -36l114 -896l-120 -6l-116 890zM630 1512 q-30 -22 -64 -86t-66 -139l-60 -145q-28 -70 -46 -106h348q0 130 -21 246t-91 230zM396 2216q44 -6 70 -27t22 -55q-8 -46 -60 -66q-68 24 -91 49t-18 45t28 34t49 20zM590 2144q2 14 14 30t28 28t34 14t30 -12q32 -6 51 -33t22 -54t-13 -46t-54 -13q-18 2 -39 8t-38 16 t-28 25t-7 37z" />
<glyph unicode="&#xc5;" horiz-adv-x="1052" d="M358 886l-194 -912h-130l216 918l-238 34l-2 124q26 2 63 -8l76 -20q39 -10 72 -13t51 15l258 570q74 66 107 85q16 9 28 9q13 0 22 -10q17 -20 32 -76t55 -138l22 -81l34 -125l34 -125q16 -59 20 -83l318 8v-118l-290 -36l114 -896l-120 -6l-116 890zM630 1512 q-30 -22 -64 -86t-66 -139l-60 -145q-28 -70 -46 -106h348q0 130 -21 246t-91 230zM348 1944q0 102 46 162t158 60q48 -16 76 -41t43 -54t19 -58t4 -51q8 -76 -46 -142t-162 -82q-40 18 -65 42t-40 51t-22 56t-11 57zM416 1944q0 -28 10 -49t24 -36t31 -25t33 -16 q40 14 71 57t39 88t-13 80t-83 37q-54 -28 -83 -59t-29 -77z" />
<glyph unicode="&#xc6;" horiz-adv-x="2046" d="M788 900l-430 -14l-194 -912h-130l216 918l-238 34l-2 124q26 2 63 -8l76 -20q39 -10 72 -13t51 15l258 570q74 66 107 85t50 -1t32 -76t55 -138l22 -81l34 -125l34 -125q16 -59 20 -83h44v558l220 29q130 17 264 37t254 42t190 46v-104l-810 -154v-450l138 4 q70 12 156 31l168 37l150 33q68 15 104 21l78 -78l-776 -210l-12 -742q164 -16 295 -2t237 44t195 67t173 67q2 0 6 -16l9 -36l9 -36q4 -16 8 -18q-110 -70 -230 -106t-262 -50t-312 -11t-382 13zM630 1512q-30 -22 -64 -86t-66 -139l-60 -145q-28 -70 -46 -106h348 q0 130 -21 246t-91 230z" />
<glyph unicode="&#xc7;" horiz-adv-x="916" d="M70 522q0 70 8 172t27 214t53 223t85 199t123 143t168 55q20 0 47 -1t51 -9t40 -25t16 -47q-150 -10 -242 -82t-147 -187t-82 -267t-45 -322q-1 -13 -1 -30.5t1 -39.5q2 -44 10 -94t24 -101t39 -92t56 -67t77 -26q66 0 119 35t97 90t80 121l68 128q32 62 63 111t63 71 l48 -46q2 -2 -9 -40t-32 -95t-53 -125t-70 -130q-28 -44 -73 -90t-101 -84t-119 -62t-125 -24q-88 0 -141 60t-80 143t-35 172t-8 149zM288 -530q16 34 38 43t58 5q66 -72 135 -103t121 -31t81 24t17 62q-8 58 -45 86t-88 44t-107 29t-101 42t-71 83t-16 154q6 84 39 124 t65 36t48 -51t-14 -135q-10 -72 15 -106t69 -53t98 -31t102 -41t82 -83t38 -156q-50 -82 -125 -113t-155 -20t-156 61t-128 130z" />
<glyph unicode="&#xc8;" horiz-adv-x="1310" d="M-26 768l-8 136l202 48v618l220 29q130 17 264 37t254 42t190 46v-104l-810 -154v-460h12q27 0 72 6q56 8 125 21t145 30l146 33l127 29q57 13 89 17l78 -78l-776 -210l-12 -742q87 -9 166 -9q68 0 129 7q131 14 237 44t195 67t173 67q2 0 7 -17t10 -36t9 -36t8 -17 q-124 -78 -254 -115t-267 -50t-277 -13t-284 -4v808zM546 1968q-58 102 -18 114t150 -84l92 -114q26 -30 29 -53t-7 -36t-27 -16t-31 9q-16 6 -40 23t-49 41t-51 54t-48 62z" />
<glyph unicode="&#xc9;" horiz-adv-x="1310" d="M-26 768l-8 136l202 48v618l220 29q130 17 264 37t254 42t190 46v-104l-810 -154v-460h12q27 0 72 6q56 8 125 21t145 30l146 33l127 29q57 13 89 17l78 -78l-776 -210l-12 -742q87 -9 166 -9q68 0 129 7q131 14 237 44t195 67t173 67q2 0 7 -17t10 -36t9 -36t8 -17 q-124 -78 -254 -115t-267 -50t-277 -13t-284 -4v808zM754 1998q-38 -62 -89 -113t-83 -61q-12 -12 -27 -11t-24 15t-6 36t27 52l84 110q102 96 136 84t-18 -112z" />
<glyph unicode="&#xca;" horiz-adv-x="1310" d="M-26 768l-8 136l202 48v618l220 29q130 17 264 37t254 42t190 46v-104l-810 -154v-460h12q27 0 72 6q56 8 125 21t145 30l146 33l127 29q57 13 89 17l78 -78l-776 -210l-12 -742q87 -9 166 -9q68 0 129 7q131 14 237 44t195 67t173 67q2 0 7 -17t10 -36t9 -36t8 -17 q-124 -78 -254 -115t-267 -50t-277 -13t-284 -4v808zM692 2230q-30 -22 -62 -55t-61 -67t-53 -66l-38 -52q-10 -16 -23 -19t-28 -1t-29 6t-28 4q-4 0 -13 1t-11 1l300 438h94q10 -38 42 -104l69 -139l69 -139q32 -66 44 -104l-108 -6q-8 32 -34 83t-54 100t-51 84t-25 35z " />
<glyph unicode="&#xcb;" horiz-adv-x="1310" d="M-26 768l-8 136l202 48v618l220 29q130 17 264 37t254 42t190 46v-104l-810 -154v-460h12q27 0 72 6q56 8 125 21t145 30l146 33l127 29q57 13 89 17l78 -78l-776 -210l-12 -742q87 -9 166 -9q68 0 129 7q131 14 237 44t195 67t173 67q2 0 7 -17t10 -36t9 -36t8 -17 q-124 -78 -254 -115t-267 -50t-277 -13t-284 -4v808zM554 2028q44 -6 70 -27t22 -55q-8 -46 -60 -66q-68 24 -91 49t-18 45t28 34t49 20zM748 1956q2 14 14 30t28 28t34 14t30 -12q32 -6 51 -33t22 -54t-13 -46t-54 -13q-18 2 -39 8t-38 16t-28 25t-7 37z" />
<glyph unicode="&#xcc;" horiz-adv-x="216" d="M46 158v164v246q0 138 1 294l2 311l2 297q1 142 4 251t7 174t8 65q36 -10 57 -17t21 -17q-2 -52 -3 -149t-1 -222v-272q0 -147 1 -297l2 -296q1 -146 1 -272t-1 -223t-3 -147q-4 0 -13 -1t-13 -1q-26 0 -40 10t-21 26t-9 36t-2 40zM14 2280q-58 102 -18 114t150 -84 l92 -114q26 -30 29 -53t-7 -36t-27 -16t-31 9q-16 6 -40 23t-49 41t-51 54t-48 62z" />
<glyph unicode="&#xcd;" horiz-adv-x="216" d="M46 158v164v246q0 138 1 294l2 311l2 297q1 142 4 251t7 174t8 65q36 -10 57 -17t21 -17q-2 -52 -3 -149t-1 -222v-272q0 -147 1 -297l2 -296q1 -146 1 -272t-1 -223t-3 -147q-4 0 -13 -1t-13 -1q-26 0 -40 10t-21 26t-9 36t-2 40zM288 2242q-38 -62 -89 -113t-83 -61 q-12 -12 -27 -11t-24 15t-6 36t27 52l84 110q102 96 136 84t-18 -112z" />
<glyph unicode="&#xce;" horiz-adv-x="216" d="M46 158v164v246q0 138 1 294l2 311l2 297q1 142 4 251t7 174t8 65q36 -10 57 -17t21 -17q-2 -52 -3 -149t-1 -222v-272q0 -147 1 -297l2 -296q1 -146 1 -272t-1 -223t-3 -147q-4 0 -13 -1t-13 -1q-26 0 -40 10t-21 26t-9 36t-2 40zM148 2230q-30 -22 -62 -55t-61 -67 t-53 -66l-38 -52q-10 -16 -23 -19t-28 -1t-29 6t-28 4q-4 0 -13 1t-11 1l300 438h94q10 -38 42 -104l69 -139l69 -139q32 -66 44 -104l-108 -6q-8 32 -34 83t-54 100t-51 84t-25 35z" />
<glyph unicode="&#xcf;" horiz-adv-x="216" d="M46 158v164v246q0 138 1 294l2 311l2 297q1 142 4 251t7 174t8 65q36 -10 57 -17t21 -17q-2 -52 -3 -149t-1 -222v-272q0 -147 1 -297l2 -296q1 -146 1 -272t-1 -223t-3 -147q-4 0 -13 -1t-13 -1q-26 0 -40 10t-21 26t-9 36t-2 40zM-18 2216q44 -6 70 -27t22 -55 q-8 -46 -60 -66q-68 24 -91 49t-18 45t28 34t49 20zM176 2144q2 14 14 30t28 28t34 14t30 -12q32 -6 51 -33t22 -54t-13 -46t-54 -13q-18 2 -39 8t-38 16t-28 25t-7 37z" />
<glyph unicode="&#xd0;" horiz-adv-x="1098" d="M-52 694q0 12 1 20t16 14t48 9t99 5l-23 243q-11 121 -16 227t-3 188t16 128q246 46 428 15t304 -117t184 -214t69 -273t-42 -295t-149 -279t-250 -227t-346 -140q-48 0 -71 19t-33 48t-10 63t-2 62q-6 82 -18 195l-26 241l-126 -6q-26 -4 -38 25t-12 49zM210 1096 q0 -96 4 -178t14 -174q54 2 121 2h155l-24 -102l-240 -12q12 -94 29 -209l41 -275l130 61q72 35 145 83t143 110t124 140t87 173t35 209q0 122 -60 217t-153 159t-203 98t-212 34q-68 0 -98 -33t-38 -84t-4 -110t4 -109z" />
<glyph unicode="&#xd1;" horiz-adv-x="1240" d="M190 1286q-16 -24 -26 -83t-15 -142t-6 -183v-40q0 -81 3 -164q4 -104 10 -205t15 -186t21 -148t24 -91q-16 -34 -40 -43q-17 -6 -38 -6q-10 0 -20 1q-44 192 -62 377t-18 368t16 365t40 370q6 0 25 2t25 2q12 0 25 -6t40 -40t77 -109l136 -213l215 -351l315 -523 q18 148 37 334t35 383t26 393t10 366h94q0 -18 -2 -65t-4 -100l-4 -101q-2 -48 -2 -68q-4 -50 -11 -154l-16 -235l-19 -276l-20 -277l-18 -236l-12 -154q-24 -52 -74 -52q-4 0 -12 1t-8 3zM254 2186q14 40 35 86t47 84t57 63t65 25q46 0 85 -38t76 -83t74 -83t81 -38 q36 0 61 33t48 72t46 72t57 33q0 -90 -18 -152t-47 -101t-66 -56t-75 -17q-44 0 -82 29t-74 64t-73 64t-77 29q-64 0 -106 -31t-88 -115z" />
<glyph unicode="&#xd2;" d="M46 780q0 96 12 199t40 202t72 188t110 156t153 107t199 40q92 0 158 -37t113 -98t76 -141t45 -165t22 -170t6 -155q0 -82 -8 -181t-29 -200t-59 -196t-96 -168t-141 -118t-195 -45q-108 12 -196 83t-150 180t-96 244t-36 275zM138 838q0 -56 10 -133t31 -159t53 -164 t77 -146t104 -104t133 -40q92 0 157 41t111 106t74 149t43 169t20 164t5 137q0 60 -7 137t-24 157t-47 157t-76 138t-109 98t-147 37q-74 0 -133 -41t-104 -107t-78 -148t-53 -165t-30 -158t-10 -125zM462 1968q-58 102 -18 114t150 -84l92 -114q26 -30 29 -53t-7 -36 t-27 -16t-31 9q-16 6 -40 23t-49 41t-51 54t-48 62z" />
<glyph unicode="&#xd3;" d="M46 780q0 96 12 199t40 202t72 188t110 156t153 107t199 40q92 0 158 -37t113 -98t76 -141t45 -165t22 -170t6 -155q0 -82 -8 -181t-29 -200t-59 -196t-96 -168t-141 -118t-195 -45q-108 12 -196 83t-150 180t-96 244t-36 275zM138 838q0 -56 10 -133t31 -159t53 -164 t77 -146t104 -104t133 -40q92 0 157 41t111 106t74 149t43 169t20 164t5 137q0 60 -7 137t-24 157t-47 157t-76 138t-109 98t-147 37q-74 0 -133 -41t-104 -107t-78 -148t-53 -165t-30 -158t-10 -125zM670 1998q-38 -62 -89 -113t-83 -61q-12 -12 -27 -11t-24 15t-6 36 t27 52l84 110q102 96 136 84t-18 -112z" />
<glyph unicode="&#xd4;" d="M46 780q0 96 12 199t40 202t72 188t110 156t153 107t199 40q92 0 158 -37t113 -98t76 -141t45 -165t22 -170t6 -155q0 -82 -8 -181t-29 -200t-59 -196t-96 -168t-141 -118t-195 -45q-108 12 -196 83t-150 180t-96 244t-36 275zM138 838q0 -56 10 -133t31 -159t53 -164 t77 -146t104 -104t133 -40q92 0 157 41t111 106t74 149t43 169t20 164t5 137q0 60 -7 137t-24 157t-47 157t-76 138t-109 98t-147 37q-74 0 -133 -41t-104 -107t-78 -148t-53 -165t-30 -158t-10 -125zM608 2230q-30 -22 -62 -55t-61 -67t-53 -66l-38 -52q-10 -16 -23 -19 t-28 -1t-29 6t-28 4q-4 0 -13 1t-11 1l300 438h94q10 -38 42 -104l69 -139l69 -139q32 -66 44 -104l-108 -6q-8 32 -34 83t-54 100t-51 84t-25 35z" />
<glyph unicode="&#xd5;" d="M46 780q0 96 12 199t40 202t72 188t110 156t153 107t199 40q92 0 158 -37t113 -98t76 -141t45 -165t22 -170t6 -155q0 -82 -8 -181t-29 -200t-59 -196t-96 -168t-141 -118t-195 -45q-108 12 -196 83t-150 180t-96 244t-36 275zM138 838q0 -56 10 -133t31 -159t53 -164 t77 -146t104 -104t133 -40q92 0 157 41t111 106t74 149t43 169t20 164t5 137q0 60 -7 137t-24 157t-47 157t-76 138t-109 98t-147 37q-74 0 -133 -41t-104 -107t-78 -148t-53 -165t-30 -158t-10 -125zM180 1940q14 40 35 86t47 84t57 63t65 25q46 0 85 -38t76 -83t74 -83 t81 -38q36 0 61 33t48 72t46 72t57 33q0 -90 -18 -152t-47 -101t-66 -56t-75 -17q-44 0 -82 29t-74 64t-73 64t-77 29q-64 0 -106 -31t-88 -115z" />
<glyph unicode="&#xd6;" d="M46 780q0 96 12 199t40 202t72 188t110 156t153 107t199 40q92 0 158 -37t113 -98t76 -141t45 -165t22 -170t6 -155q0 -82 -8 -181t-29 -200t-59 -196t-96 -168t-141 -118t-195 -45q-108 12 -196 83t-150 180t-96 244t-36 275zM138 838q0 -56 10 -133t31 -159t53 -164 t77 -146t104 -104t133 -40q92 0 157 41t111 106t74 149t43 169t20 164t5 137q0 60 -7 137t-24 157t-47 157t-76 138t-109 98t-147 37q-74 0 -133 -41t-104 -107t-78 -148t-53 -165t-30 -158t-10 -125zM410 2050q44 -6 70 -27t22 -55q-8 -46 -60 -66q-68 24 -91 49t-18 45 t28 34t49 20zM604 1978q2 14 14 30t28 28t34 14t30 -12q32 -6 51 -33t22 -54t-13 -46t-54 -13q-18 2 -39 8t-38 16t-28 25t-7 37z" />
<glyph unicode="&#xd7;" horiz-adv-x="928" d="M178 268q0 4 1 10t1 10l180 226l-192 258l108 24q34 -34 47 -50t24 -31l27 -37q16 -22 56 -68q26 42 46 78t40 68t41 59t51 53l112 -20l-222 -302l290 -248q0 -4 2 -8q0 -4 1 -6t1 -4q0 -26 -20 -44t-46 -18q-4 0 -11 1t-9 1q-48 42 -81 67t-60 48t-52 49t-57 70 q-40 -38 -64 -71t-42 -63t-37 -58t-49 -54q-2 0 -10 -1t-10 -1q-28 0 -47 17t-19 45z" />
<glyph unicode="&#xd8;" d="M46 780q0 96 12 199t40 202t72 188t110 156t153 107t199 40q92 0 158 -37t113 -98t76 -141t45 -165t22 -170t6 -155q0 -82 -8 -181t-29 -200t-59 -196t-96 -168t-141 -118t-195 -45q-108 12 -196 83t-150 180t-96 244t-36 275zM138 838q0 -56 10 -133t31 -159t53 -164 t77 -146t104 -104t133 -40q92 0 157 41t111 106t74 149t43 169t20 164t5 137q0 60 -7 137t-24 157t-47 157t-76 138t-109 98t-147 37q-74 0 -133 -41t-104 -107t-78 -148t-53 -165t-30 -158t-10 -125zM795.414 1689.1l90.4023 -57.415l-465.917 -1660.61l-88.083 83.9141z " />
<glyph unicode="&#xd9;" horiz-adv-x="1072" d="M476 -4q-110 38 -187 146t-126 254t-75 315t-37 331q-10 148 -10 278v23q1 139 7 227q2 6 10 16t19 21t23 18t22 7l17 -300q9 -164 24 -330t40 -321t63 -276t91 -194t127 -73q56 6 110 81t100 193t83 267t59 306t28 309q2 46 2 89q0 101 -10 187q20 40 51 51t71 11 q-14 -160 -24 -337t-25 -349t-43 -332t-79 -288t-131 -215t-200 -115zM426 1968q-58 102 -18 114t150 -84l92 -114q26 -30 29 -53t-7 -36t-27 -16t-31 9q-16 6 -40 23t-49 41t-51 54t-48 62z" />
<glyph unicode="&#xda;" horiz-adv-x="1072" d="M476 -4q-110 38 -187 146t-126 254t-75 315t-37 331q-10 148 -10 278v23q1 139 7 227q2 6 10 16t19 21t23 18t22 7l17 -300q9 -164 24 -330t40 -321t63 -276t91 -194t127 -73q56 6 110 81t100 193t83 267t59 306t28 309q2 46 2 89q0 101 -10 187q20 40 51 51t71 11 q-14 -160 -24 -337t-25 -349t-43 -332t-79 -288t-131 -215t-200 -115zM634 1998q-38 -62 -89 -113t-83 -61q-12 -12 -27 -11t-24 15t-6 36t27 52l84 110q102 96 136 84t-18 -112z" />
<glyph unicode="&#xdb;" horiz-adv-x="1072" d="M476 -4q-110 38 -187 146t-126 254t-75 315t-37 331q-10 148 -10 278v23q1 139 7 227q2 6 10 16t19 21t23 18t22 7l17 -300q9 -164 24 -330t40 -321t63 -276t91 -194t127 -73q56 6 110 81t100 193t83 267t59 306t28 309q2 46 2 89q0 101 -10 187q20 40 51 51t71 11 q-14 -160 -24 -337t-25 -349t-43 -332t-79 -288t-131 -215t-200 -115zM572 2230q-30 -22 -62 -55t-61 -67t-53 -66l-38 -52q-10 -16 -23 -19t-28 -1t-29 6t-28 4q-4 0 -13 1t-11 1l300 438h94q10 -38 42 -104l69 -139l69 -139q32 -66 44 -104l-108 -6q-8 32 -34 83t-54 100 t-51 84t-25 35z" />
<glyph unicode="&#xdc;" horiz-adv-x="1072" d="M476 -4q-110 38 -187 146t-126 254t-75 315t-37 331q-10 148 -10 278v23q1 139 7 227q2 6 10 16t19 21t23 18t22 7l17 -300q9 -164 24 -330t40 -321t63 -276t91 -194t127 -73q56 6 110 81t100 193t83 267t59 306t28 309q2 46 2 89q0 101 -10 187q20 40 51 51t71 11 q-14 -160 -24 -337t-25 -349t-43 -332t-79 -288t-131 -215t-200 -115zM406 2216q44 -6 70 -27t22 -55q-8 -46 -60 -66q-68 24 -91 49t-18 45t28 34t49 20zM600 2144q2 14 14 30t28 28t34 14t30 -12q32 -6 51 -33t22 -54t-13 -46t-54 -13q-18 2 -39 8t-38 16t-28 25t-7 37z " />
<glyph unicode="&#xdd;" horiz-adv-x="1312" d="M138 1714q72 -64 150 -152l155 -177l147 -167q70 -78 126 -122q74 68 137 152t123 173l123 176q63 87 137 165l98 -48q-48 -92 -126 -195l-157 -201l-147 -182q-68 -84 -96 -136l12 -992q0 -16 -18 -18h-9q-15 0 -33 4q-24 6 -49 13t-37 9q-6 52 -7 130v53q0 55 1 115 q2 90 2 185t-4 181t-15 158t-33 114l-566 696zM754 1998q-38 -62 -89 -113t-83 -61q-12 -12 -27 -11t-24 15t-6 36t27 52l84 110q102 96 136 84t-18 -112z" />
<glyph unicode="&#xde;" horiz-adv-x="1012" d="M62 -110l38 1610h96l2 -530q38 64 108 115t150 82t163 40t150 -8t109 -63t40 -126q6 -208 -56 -357t-165 -243t-235 -138t-266 -42q-10 0 -16 -26t-9 -65t-4 -83t0 -80t2 -55t1 -9zM674 1112q-100 -12 -176 -59t-131 -115t-89 -149t-48 -162t-11 -157t23 -132 q46 -28 109 -8t130 70t131 123t113 155t76 163t19 149q0 20 -17 42t-40 40t-48 29t-41 11z" />
<glyph unicode="&#xdf;" horiz-adv-x="1182" d="M172 -140q12 72 9 193t-13 268t-24 309t-22 317t-7 293t19 236t57 145t109 21q150 0 254 -8t173 -22t109 -31t59 -36t24 -37t5 -32q0 -46 -29 -108t-70 -122t-85 -111t-76 -77q18 2 66 2h101h101q48 0 66 -2q118 -24 160 -79t26 -129t-81 -162t-161 -175t-214 -168 t-240 -143l20 160l179 121q95 67 175 136t133 134t53 117q0 60 -30 78t-86 18q-38 0 -96 -5t-124 -16t-134 -29t-128 -46l32 164q50 40 92 86t77 92l65 89q30 43 60 79q6 28 7 48t-12 33t-47 18t-97 6t-160 -3l-239 -10l52 -808q2 -22 4 -74t4 -121t5 -151l6 -164l6 -157 q3 -75 5 -131z" />
<glyph unicode="&#xe0;" horiz-adv-x="956" d="M760 630l-80 -180q-46 -104 -111 -200t-150 -164t-199 -74q-52 0 -85 36t-51 87t-25 105t-7 88q-2 17 -2 36q0 40 8 92q12 78 39 167t68 179t96 162t123 118t146 48q40 4 73 8q19 2 38 2q15 0 30 -1q35 -3 76 -16t99 -45q2 -28 4 -98t3 -159t2 -188t2 -187t2 -158t3 -98 q0 -10 1 -39l2 -61q1 -32 1 -61v-39q-10 0 -30 4t-41 11t-37 18t-16 25zM148 320q0 -58 22 -116t76 -94q38 8 87 58t100 125t100 166t87 181t62 169t26 131q0 30 -14 48t-36 29t-48 14t-50 3q-72 -4 -131 -49t-105 -114t-79 -152t-55 -161t-32 -143t-10 -95zM434 1474 q-58 102 -18 114t150 -84l92 -114q26 -30 29 -53t-7 -36t-27 -16t-31 9q-16 6 -40 23t-49 41t-51 54t-48 62z" />
<glyph unicode="&#xe1;" horiz-adv-x="956" d="M760 630l-80 -180q-46 -104 -111 -200t-150 -164t-199 -74q-52 0 -85 36t-51 87t-25 105t-7 88q-2 17 -2 36q0 40 8 92q12 78 39 167t68 179t96 162t123 118t146 48q40 4 73 8q19 2 38 2q15 0 30 -1q35 -3 76 -16t99 -45q2 -28 4 -98t3 -159t2 -188t2 -187t2 -158t3 -98 q0 -10 1 -39l2 -61q1 -32 1 -61v-39q-10 0 -30 4t-41 11t-37 18t-16 25zM148 320q0 -58 22 -116t76 -94q38 8 87 58t100 125t100 166t87 181t62 169t26 131q0 30 -14 48t-36 29t-48 14t-50 3q-72 -4 -131 -49t-105 -114t-79 -152t-55 -161t-32 -143t-10 -95zM700 1548 q-38 -62 -89 -113t-83 -61q-12 -12 -27 -11t-24 15t-6 36t27 52l84 110q102 96 136 84t-18 -112z" />
<glyph unicode="&#xe2;" horiz-adv-x="956" d="M760 630l-80 -180q-46 -104 -111 -200t-150 -164t-199 -74q-52 0 -85 36t-51 87t-25 105t-7 88q-2 17 -2 36q0 40 8 92q12 78 39 167t68 179t96 162t123 118t146 48q40 4 73 8q19 2 38 2q15 0 30 -1q35 -3 76 -16t99 -45q2 -28 4 -98t3 -159t2 -188t2 -187t2 -158t3 -98 q0 -10 1 -39l2 -61q1 -32 1 -61v-39q-10 0 -30 4t-41 11t-37 18t-16 25zM148 320q0 -58 22 -116t76 -94q38 8 87 58t100 125t100 166t87 181t62 169t26 131q0 30 -14 48t-36 29t-48 14t-50 3q-72 -4 -131 -49t-105 -114t-79 -152t-55 -161t-32 -143t-10 -95zM546 1702 q-30 -22 -62 -55t-61 -67t-53 -66l-38 -52q-10 -16 -23 -19t-28 -1t-29 6t-28 4q-4 0 -13 1t-11 1l300 438h94q10 -38 42 -104l69 -139l69 -139q32 -66 44 -104l-108 -6q-8 32 -34 83t-54 100t-51 84t-25 35z" />
<glyph unicode="&#xe3;" horiz-adv-x="956" d="M760 630l-80 -180q-46 -104 -111 -200t-150 -164t-199 -74q-52 0 -85 36t-51 87t-25 105t-7 88q-2 17 -2 36q0 40 8 92q12 78 39 167t68 179t96 162t123 118t146 48q40 4 73 8q19 2 38 2q15 0 30 -1q35 -3 76 -16t99 -45q2 -28 4 -98t3 -159t2 -188t2 -187t2 -158t3 -98 q0 -10 1 -39l2 -61q1 -32 1 -61v-39q-10 0 -30 4t-41 11t-37 18t-16 25zM148 320q0 -58 22 -116t76 -94q38 8 87 58t100 125t100 166t87 181t62 169t26 131q0 30 -14 48t-36 29t-48 14t-50 3q-72 -4 -131 -49t-105 -114t-79 -152t-55 -161t-32 -143t-10 -95zM112 1458 q14 40 35 86t47 84t57 63t65 25q46 0 85 -38t76 -83t74 -83t81 -38q36 0 61 33t48 72t46 72t57 33q0 -90 -18 -152t-47 -101t-66 -56t-75 -17q-44 0 -82 29t-74 64t-73 64t-77 29q-64 0 -106 -31t-88 -115z" />
<glyph unicode="&#xe4;" horiz-adv-x="956" d="M760 630l-80 -180q-46 -104 -111 -200t-150 -164t-199 -74q-52 0 -85 36t-51 87t-25 105t-7 88q-2 17 -2 36q0 40 8 92q12 78 39 167t68 179t96 162t123 118t146 48q40 4 73 8q19 2 38 2q15 0 30 -1q35 -3 76 -16t99 -45q2 -28 4 -98t3 -159t2 -188t2 -187t2 -158t3 -98 q0 -10 1 -39l2 -61q1 -32 1 -61v-39q-10 0 -30 4t-41 11t-37 18t-16 25zM148 320q0 -58 22 -116t76 -94q38 8 87 58t100 125t100 166t87 181t62 169t26 131q0 30 -14 48t-36 29t-48 14t-50 3q-72 -4 -131 -49t-105 -114t-79 -152t-55 -161t-32 -143t-10 -95zM348 1488 q44 -6 70 -27t22 -55q-8 -46 -60 -66q-68 24 -91 49t-18 45t28 34t49 20zM542 1416q2 14 14 30t28 28t34 14t30 -12q32 -6 51 -33t22 -54t-13 -46t-54 -13q-18 2 -39 8t-38 16t-28 25t-7 37z" />
<glyph unicode="&#xe5;" horiz-adv-x="956" d="M760 630l-80 -180q-46 -104 -111 -200t-150 -164t-199 -74q-52 0 -85 36t-51 87t-25 105t-7 88q-2 17 -2 36q0 40 8 92q12 78 39 167t68 179t96 162t123 118t146 48q40 4 73 8q19 2 38 2q15 0 30 -1q35 -3 76 -16t99 -45q2 -28 4 -98t3 -159t2 -188t2 -187t2 -158t3 -98 q0 -10 1 -39l2 -61q1 -32 1 -61v-39q-10 0 -30 4t-41 11t-37 18t-16 25zM148 320q0 -58 22 -116t76 -94q38 8 87 58t100 125t100 166t87 181t62 169t26 131q0 30 -14 48t-36 29t-48 14t-50 3q-72 -4 -131 -49t-105 -114t-79 -152t-55 -161t-32 -143t-10 -95zM344 1316 q0 102 46 162t158 60q48 -16 76 -41t43 -54t19 -58t4 -51q8 -76 -46 -142t-162 -82q-40 18 -65 42t-40 51t-22 56t-11 57zM412 1316q0 -28 10 -49t24 -36t31 -25t33 -16q40 14 71 57t39 88t-13 80t-83 37q-54 -28 -83 -59t-29 -77z" />
<glyph unicode="&#xe6;" horiz-adv-x="1602" d="M760 630l-80 -180q-46 -104 -111 -200t-150 -164t-199 -74q-52 0 -85 36t-51 87t-25 105t-7 88q-2 17 -2 36q0 40 8 92q12 78 39 167t68 179t96 162t123 118t146 48q40 4 73 8q19 2 38 2q15 0 30 -1q35 -3 76 -16t99 -45q2 -28 4 -98t3 -159t2 -188t2 -187t2 -158t3 -98 q0 -10 1 -39l2 -61q1 -32 1 -61v-39q-10 0 -30 4t-41 11t-37 18t-16 25zM148 320q0 -58 22 -116t76 -94q38 8 87 58t100 125t100 166t87 181t62 169t26 131q0 30 -14 48t-36 29t-48 14t-50 3q-72 -4 -131 -49t-105 -114t-79 -152t-55 -161t-32 -143t-10 -95zM846 80 q-66 218 -86 379q-11 92 -11 169q0 57 6 106q15 114 59 186t106 110t135 48q41 6 81 6q33 0 66 -4q38 0 76 -20t70 -51t52 -69t20 -76q0 -106 -51 -178t-129 -119t-171 -72t-177 -35v-19q0 -13 -1 -29t-1 -29v-19q0 -52 18 -111t53 -109t84 -83t109 -33q56 0 101 33t87 72 t86 72t102 33q0 -58 -44 -112t-107 -97t-131 -69t-116 -26q-84 0 -162 35t-124 111zM1176 988q-80 0 -136 -39t-91 -98t-51 -130t-16 -135q50 0 125 11t145 40t119 78t49 127q0 26 -13 53t-33 47t-46 33t-52 13z" />
<glyph unicode="&#xe7;" horiz-adv-x="820" d="M68 452q0 114 22 224t74 196t138 138t214 52q5 -23 5 -47q0 -18 -3 -38q-6 -45 -27 -75t-55 -33h-4q-32 0 -74 41q-60 0 -98 -48t-59 -114t-29 -135t-8 -111q0 -40 3 -109t18 -136t49 -116t98 -49q44 0 92 30t92 70t78 80t50 62q18 26 27 37l16 20q7 9 15 21t22 40 q4 0 12 2t12 2q26 0 41 -11t31 -39q-58 -72 -104 -142t-102 -127t-133 -95t-195 -44q-76 0 -120 52t-66 125t-27 150t-5 127zM282 -512q16 34 38 43t58 5q66 -72 135 -103t121 -31t81 24t17 62q-8 58 -45 86t-88 44t-107 29t-101 42t-71 83t-16 154q6 84 39 124t65 36 t48 -51t-14 -135q-10 -72 15 -106t69 -53t98 -31t102 -41t82 -83t38 -156q-50 -82 -125 -113t-155 -20t-156 61t-128 130z" />
<glyph unicode="&#xe8;" horiz-adv-x="870" d="M156 144q-66 218 -86 379q-11 92 -11 169q0 57 6 106q15 114 59 186t106 110t135 48q41 6 81 6q33 0 66 -4q38 0 76 -20t70 -51t52 -69t20 -76q0 -106 -51 -178t-129 -119t-171 -72t-177 -35v-19q0 -13 -1 -29t-1 -29v-19q0 -52 18 -111t53 -109t84 -83t109 -33 q56 0 101 33t87 72t86 72t102 33q0 -58 -44 -112t-107 -97t-131 -69t-116 -26q-84 0 -162 35t-124 111zM486 1052q-80 0 -136 -39t-91 -98t-51 -130t-16 -135q50 0 125 11t145 40t119 78t49 127q0 26 -13 53t-33 47t-46 33t-52 13zM350 1574q-58 102 -18 114t150 -84 l92 -114q26 -30 29 -53t-7 -36t-27 -16t-31 9q-16 6 -40 23t-49 41t-51 54t-48 62z" />
<glyph unicode="&#xe9;" horiz-adv-x="870" d="M156 144q-66 218 -86 379q-11 92 -11 169q0 57 6 106q15 114 59 186t106 110t135 48q41 6 81 6q33 0 66 -4q38 0 76 -20t70 -51t52 -69t20 -76q0 -106 -51 -178t-129 -119t-171 -72t-177 -35v-19q0 -13 -1 -29t-1 -29v-19q0 -52 18 -111t53 -109t84 -83t109 -33 q56 0 101 33t87 72t86 72t102 33q0 -58 -44 -112t-107 -97t-131 -69t-116 -26q-84 0 -162 35t-124 111zM486 1052q-80 0 -136 -39t-91 -98t-51 -130t-16 -135q50 0 125 11t145 40t119 78t49 127q0 26 -13 53t-33 47t-46 33t-52 13zM568 1592q-38 -62 -89 -113t-83 -61 q-12 -12 -27 -11t-24 15t-6 36t27 52l84 110q102 96 136 84t-18 -112z" />
<glyph unicode="&#xea;" horiz-adv-x="870" d="M156 144q-66 218 -86 379q-11 92 -11 169q0 57 6 106q15 114 59 186t106 110t135 48q41 6 81 6q33 0 66 -4q38 0 76 -20t70 -51t52 -69t20 -76q0 -106 -51 -178t-129 -119t-171 -72t-177 -35v-19q0 -13 -1 -29t-1 -29v-19q0 -52 18 -111t53 -109t84 -83t109 -33 q56 0 101 33t87 72t86 72t102 33q0 -58 -44 -112t-107 -97t-131 -69t-116 -26q-84 0 -162 35t-124 111zM486 1052q-80 0 -136 -39t-91 -98t-51 -130t-16 -135q50 0 125 11t145 40t119 78t49 127q0 26 -13 53t-33 47t-46 33t-52 13zM472 1502q-30 -22 -62 -55t-61 -67 t-53 -66l-38 -52q-10 -16 -23 -19t-28 -1t-29 6t-28 4q-4 0 -13 1t-11 1l300 438h94q10 -38 42 -104l69 -139l69 -139q32 -66 44 -104l-108 -6q-8 32 -34 83t-54 100t-51 84t-25 35z" />
<glyph unicode="&#xeb;" horiz-adv-x="870" d="M156 144q-66 218 -86 379q-11 92 -11 169q0 57 6 106q15 114 59 186t106 110t135 48q41 6 81 6q33 0 66 -4q38 0 76 -20t70 -51t52 -69t20 -76q0 -106 -51 -178t-129 -119t-171 -72t-177 -35v-19q0 -13 -1 -29t-1 -29v-19q0 -52 18 -111t53 -109t84 -83t109 -33 q56 0 101 33t87 72t86 72t102 33q0 -58 -44 -112t-107 -97t-131 -69t-116 -26q-84 0 -162 35t-124 111zM486 1052q-80 0 -136 -39t-91 -98t-51 -130t-16 -135q50 0 125 11t145 40t119 78t49 127q0 26 -13 53t-33 47t-46 33t-52 13zM306 1488q44 -6 70 -27t22 -55 q-8 -46 -60 -66q-68 24 -91 49t-18 45t28 34t49 20zM500 1416q2 14 14 30t28 28t34 14t30 -12q32 -6 51 -33t22 -54t-13 -46t-54 -13q-18 2 -39 8t-38 16t-28 25t-7 37z" />
<glyph unicode="&#xec;" horiz-adv-x="262" d="M168 -12q-10 0 -26 4t-32 12t-27 19t-11 25l-2 962q0 14 11 25t27 19t32 12t26 4zM10 1440q-58 102 -18 114t150 -84l92 -114q26 -30 29 -53t-7 -36t-27 -16t-31 9q-16 6 -40 23t-49 41t-51 54t-48 62z" />
<glyph unicode="&#xed;" horiz-adv-x="262" d="M166 1070q-10 0 -26 -4t-32 -12t-27 -19t-11 -25l2 -962q0 -14 11 -25t27 -19t32 -12t26 -4zM218 1514q-38 -62 -89 -113t-83 -61q-12 -12 -27 -11t-24 15t-6 36t27 52l84 110q102 96 136 84t-18 -112z" />
<glyph unicode="&#xee;" horiz-adv-x="262" d="M168 -12q-10 0 -26 4t-32 12t-27 19t-11 25l-2 962q0 14 11 25t27 19t32 12t26 4zM168 1502q-30 -22 -62 -55t-61 -67t-53 -66l-38 -52q-10 -16 -23 -19t-28 -1t-29 6t-28 4q-4 0 -13 1t-11 1l300 438h94q10 -38 42 -104l69 -139l69 -139q32 -66 44 -104l-108 -6 q-8 32 -34 83t-54 100t-51 84t-25 35z" />
<glyph unicode="&#xef;" horiz-adv-x="262" d="M168 -12q-10 0 -26 4t-32 12t-27 19t-11 25l-2 962q0 14 11 25t27 19t32 12t26 4zM2 1488q44 -6 70 -27t22 -55q-8 -46 -60 -66q-68 24 -91 49t-18 45t28 34t49 20zM196 1416q2 14 14 30t28 28t34 14t30 -12q32 -6 51 -33t22 -54t-13 -46t-54 -13q-18 2 -39 8t-38 16 t-28 25t-7 37z" />
<glyph unicode="&#xf0;" horiz-adv-x="880" d="M800 1046l-146 -52q48 -106 88 -221t67 -217t39 -178t0 -104q0 -40 -9 -92t-33 -98t-67 -78t-111 -32q-120 0 -228 51t-190 132t-130 180t-48 195q0 46 17 88t50 74t80 51t107 19q84 0 154 -45t125 -110t94 -137t61 -128q12 44 0 112t-40 149t-67 170t-81 175l-212 -76 l-30 76q30 18 83 42l115 50l-86 165q-40 75 -62 121h46q50 10 108 -58t116 -182q70 26 113 37t27 -5zM628 214q0 48 -22 126t-63 153t-101 129t-136 54q-42 0 -76 -14t-56 -38t-34 -54t-12 -62q0 -54 29 -125t80 -134t119 -107t146 -44q82 0 104 29t22 87z" />
<glyph unicode="&#xf1;" horiz-adv-x="1032" d="M820 776q0 46 -15 104t-44 110t-73 88t-102 36q-116 -70 -185 -152t-107 -173t-51 -187t-18 -194l-10 -197q-5 -99 -23 -195q-2 0 -17 -3t-32 -6t-32 -5l-15 -2q-6 170 -10 296t-6 222t-3 170t-1 141v134v151l98 -2l-26 -414q32 76 63 165t79 165t122 127t192 51 q78 0 137 -41t98 -105t58 -140t19 -144l22 -728l-50 -48l-46 48zM150 1458q14 40 35 86t47 84t57 63t65 25q46 0 85 -38t76 -83t74 -83t81 -38q36 0 61 33t48 72t46 72t57 33q0 -90 -18 -152t-47 -101t-66 -56t-75 -17q-44 0 -82 29t-74 64t-73 64t-77 29q-64 0 -106 -31 t-88 -115z" />
<glyph unicode="&#xf2;" horiz-adv-x="1114" d="M80 548q0 138 29 249t92 189t164 120t245 42q122 -42 195 -110t112 -145t51 -155t12 -138q0 -128 -35 -239t-104 -192t-170 -127t-233 -46q-120 0 -190 49t-108 127t-49 177t-11 199zM168 536q0 -92 11 -174t43 -144t92 -98t158 -36q120 0 200 40t130 111t71 167t21 208 q-16 78 -38 145t-62 120t-106 93t-170 68q-110 0 -178 -44t-106 -115t-52 -161t-14 -180zM352 1486q-58 102 -18 114t150 -84l92 -114q26 -30 29 -53t-7 -36t-27 -16t-31 9q-16 6 -40 23t-49 41t-51 54t-48 62z" />
<glyph unicode="&#xf3;" horiz-adv-x="1114" d="M80 548q0 138 29 249t92 189t164 120t245 42q122 -42 195 -110t112 -145t51 -155t12 -138q0 -128 -35 -239t-104 -192t-170 -127t-233 -46q-120 0 -190 49t-108 127t-49 177t-11 199zM168 536q0 -92 11 -174t43 -144t92 -98t158 -36q120 0 200 40t130 111t71 167t21 208 q-16 78 -38 145t-62 120t-106 93t-170 68q-110 0 -178 -44t-106 -115t-52 -161t-14 -180zM684 1570q-38 -62 -89 -113t-83 -61q-12 -12 -27 -11t-24 15t-6 36t27 52l84 110q102 96 136 84t-18 -112z" />
<glyph unicode="&#xf4;" horiz-adv-x="1114" d="M80 548q0 138 29 249t92 189t164 120t245 42q122 -42 195 -110t112 -145t51 -155t12 -138q0 -128 -35 -239t-104 -192t-170 -127t-233 -46q-120 0 -190 49t-108 127t-49 177t-11 199zM168 536q0 -92 11 -174t43 -144t92 -98t158 -36q120 0 200 40t130 111t71 167t21 208 q-16 78 -38 145t-62 120t-106 93t-170 68q-110 0 -178 -44t-106 -115t-52 -161t-14 -180zM594 1502q-30 -22 -62 -55t-61 -67t-53 -66l-38 -52q-10 -16 -23 -19t-28 -1t-29 6t-28 4q-4 0 -13 1t-11 1l300 438h94q10 -38 42 -104l69 -139l69 -139q32 -66 44 -104l-108 -6 q-8 32 -34 83t-54 100t-51 84t-25 35z" />
<glyph unicode="&#xf5;" horiz-adv-x="1114" d="M80 548q0 138 29 249t92 189t164 120t245 42q122 -42 195 -110t112 -145t51 -155t12 -138q0 -128 -35 -239t-104 -192t-170 -127t-233 -46q-120 0 -190 49t-108 127t-49 177t-11 199zM168 536q0 -92 11 -174t43 -144t92 -98t158 -36q120 0 200 40t130 111t71 167t21 208 q-16 78 -38 145t-62 120t-106 93t-170 68q-110 0 -178 -44t-106 -115t-52 -161t-14 -180zM190 1458q14 40 35 86t47 84t57 63t65 25q46 0 85 -38t76 -83t74 -83t81 -38q36 0 61 33t48 72t46 72t57 33q0 -90 -18 -152t-47 -101t-66 -56t-75 -17q-44 0 -82 29t-74 64t-73 64 t-77 29q-64 0 -106 -31t-88 -115z" />
<glyph unicode="&#xf6;" horiz-adv-x="1114" d="M80 548q0 138 29 249t92 189t164 120t245 42q122 -42 195 -110t112 -145t51 -155t12 -138q0 -128 -35 -239t-104 -192t-170 -127t-233 -46q-120 0 -190 49t-108 127t-49 177t-11 199zM168 536q0 -92 11 -174t43 -144t92 -98t158 -36q120 0 200 40t130 111t71 167t21 208 q-16 78 -38 145t-62 120t-106 93t-170 68q-110 0 -178 -44t-106 -115t-52 -161t-14 -180zM428 1488q44 -6 70 -27t22 -55q-8 -46 -60 -66q-68 24 -91 49t-18 45t28 34t49 20zM622 1416q2 14 14 30t28 28t34 14t30 -12q32 -6 51 -33t22 -54t-13 -46t-54 -13q-18 2 -39 8 t-38 16t-28 25t-7 37z" />
<glyph unicode="&#xf7;" horiz-adv-x="608" d="M256 280q0 42 18 71t52 29q48 0 74 -52q-16 -70 -38 -95t-43 -23t-38 24t-25 46zM282 564q-14 0 -32 10t-31 25t-18 32t9 29q2 32 25 55t50 29t48 -8t21 -52q0 -18 -3 -39t-12 -39t-23 -30t-34 -12zM22 496.989q0 10 1 16.667q1 6.66602 14 11.666t45 7.5t94 4.16602 q62 1.66699 159 2.5q97 0.833984 243 0.833984l-24 -84.998l-482 -20q-26 -3.33301 -38 20.833t-12 40.832z" />
<glyph unicode="&#xf8;" horiz-adv-x="1114" d="M80 548q0 138 29 249t92 189t164 120t245 42q122 -42 195 -110t112 -145t51 -155t12 -138q0 -128 -35 -239t-104 -192t-170 -127t-233 -46q-120 0 -190 49t-108 127t-49 177t-11 199zM168 536q0 -92 11 -174t43 -144t92 -98t158 -36q120 0 200 40t130 111t71 167t21 208 q-16 78 -38 145t-62 120t-106 93t-170 68q-110 0 -178 -44t-106 -115t-52 -161t-14 -180zM660.52 1216.49l71.4736 -43.7139l-368.361 -1264.32l-69.6396 63.8887z" />
<glyph unicode="&#xf9;" horiz-adv-x="952" d="M168 1190q-6 -46 -6 -131t6 -189t19 -216t33 -211t48 -174t64 -105q20 -17 42 -17q18 0 38 11q44 24 98 126q48 128 75 234t44 210t30 214t31 248q28 52 72 52q4 0 13 -1t11 -1l12 -116q8 -78 17 -177t20 -208t20 -208l16 -177q7 -78 9 -116q0 -2 1 -23t3 -46t3 -47 t1 -28q0 -16 -1 -33t-11 -28t-35 -13h-8q-24 0 -67 10l-4 732q-28 -70 -45 -154l-33 -168q-16 -84 -39 -162t-64 -135t-106 -86q-46 -21 -110 -21q-27 0 -57 4q-66 0 -112 69t-76 176t-47 237t-26 252t-11 220t-2 144zM270 1608q-58 102 -18 114t150 -84l92 -114 q26 -30 29 -53t-7 -36t-27 -16t-31 9q-16 6 -40 23t-49 41t-51 54t-48 62z" />
<glyph unicode="&#xfa;" horiz-adv-x="952" d="M168 1190q-6 -46 -6 -131t6 -189t19 -216t33 -211t48 -174t64 -105q20 -17 42 -17q18 0 38 11q44 24 98 126q48 128 75 234t44 210t30 214t31 248q28 52 72 52q4 0 13 -1t11 -1l12 -116q8 -78 17 -177t20 -208t20 -208l16 -177q7 -78 9 -116q0 -2 1 -23t3 -46t3 -47 t1 -28q0 -16 -1 -33t-11 -28t-35 -13h-8q-24 0 -67 10l-4 732q-28 -70 -45 -154l-33 -168q-16 -84 -39 -162t-64 -135t-106 -86q-46 -21 -110 -21q-27 0 -57 4q-66 0 -112 69t-76 176t-47 237t-26 252t-11 220t-2 144zM642 1516q-38 -62 -89 -113t-83 -61q-12 -12 -27 -11 t-24 15t-6 36t27 52l84 110q102 96 136 84t-18 -112z" />
<glyph unicode="&#xfb;" horiz-adv-x="952" d="M168 1190q-6 -46 -6 -131t6 -189t19 -216t33 -211t48 -174t64 -105q20 -17 42 -17q18 0 38 11q44 24 98 126q48 128 75 234t44 210t30 214t31 248q28 52 72 52q4 0 13 -1t11 -1l12 -116q8 -78 17 -177t20 -208t20 -208l16 -177q7 -78 9 -116q0 -2 1 -23t3 -46t3 -47 t1 -28q0 -16 -1 -33t-11 -28t-35 -13h-8q-24 0 -67 10l-4 732q-28 -70 -45 -154l-33 -168q-16 -84 -39 -162t-64 -135t-106 -86q-46 -21 -110 -21q-27 0 -57 4q-66 0 -112 69t-76 176t-47 237t-26 252t-11 220t-2 144zM472 1666q-30 -22 -62 -55t-61 -67t-53 -66l-38 -52 q-10 -16 -23 -19t-28 -1t-29 6t-28 4q-4 0 -13 1t-11 1l300 438h94q10 -38 42 -104l69 -139l69 -139q32 -66 44 -104l-108 -6q-8 32 -34 83t-54 100t-51 84t-25 35z" />
<glyph unicode="&#xfc;" horiz-adv-x="952" d="M168 1190q-6 -46 -6 -131t6 -189t19 -216t33 -211t48 -174t64 -105q20 -17 42 -17q18 0 38 11q44 24 98 126q48 128 75 234t44 210t30 214t31 248q28 52 72 52q4 0 13 -1t11 -1l12 -116q8 -78 17 -177t20 -208t20 -208l16 -177q7 -78 9 -116q0 -2 1 -23t3 -46t3 -47 t1 -28q0 -16 -1 -33t-11 -28t-35 -13h-8q-24 0 -67 10l-4 732q-28 -70 -45 -154l-33 -168q-16 -84 -39 -162t-64 -135t-106 -86q-46 -21 -110 -21q-27 0 -57 4q-66 0 -112 69t-76 176t-47 237t-26 252t-11 220t-2 144zM346 1488q44 -6 70 -27t22 -55q-8 -46 -60 -66 q-68 24 -91 49t-18 45t28 34t49 20zM540 1416q2 14 14 30t28 28t34 14t30 -12q32 -6 51 -33t22 -54t-13 -46t-54 -13q-18 2 -39 8t-38 16t-28 25t-7 37z" />
<glyph unicode="&#xfd;" horiz-adv-x="950" d="M168 -696q0 4 2 12t2 10l61 -45q33 -25 70 -48t76 -38t77 -15q58 0 105 28t84 73t65 102t45 116t26 114t9 95l-26 764l-37 -143q-21 -79 -57 -149t-89 -117t-133 -47q-58 0 -110 58t-97 147t-80 199t-60 213t-39 188t-14 125h98q2 -30 14 -101t32 -161t48 -187t61 -177 t72 -132t81 -52q38 0 71 32t61 81t51 108t39 112t26 92t14 51q4 18 5 55q0 18 0.5 39.5t-0.5 44.5q-1 47 -3 99t-3 99t-2 84t3 55l142 2l26 -1382q0 -60 -12 -131t-36 -143t-60 -140t-83 -120t-107 -83t-130 -31q-44 0 -94 19t-93 52t-72 77t-29 96zM642 1420 q-38 -62 -89 -113t-83 -61q-12 -12 -27 -11t-24 15t-6 36t27 52l84 110q102 96 136 84t-18 -112z" />
<glyph unicode="&#xfe;" horiz-adv-x="1024" d="M34 1492l144 14l36 -404q58 18 137 27t164 4t167 -26t149 -66t109 -115t46 -172q0 -148 -62 -266t-164 -205t-232 -146t-264 -89v-26q0 -64 4 -92t9 -51t9 -52t4 -93h-102zM214 846q0 -84 4 -164t10 -159t15 -161t21 -172q8 -2 34 -3t36 -1q98 0 197 45t178 118t129 167 t50 192t-32 157t-87 91t-130 41t-161 9q-12 0 -43 -1l-65 -2q-34 -1 -64 -2t-42 -1q-28 -4 -39 -24t-13 -45t0 -49t2 -36z" />
<glyph unicode="&#xff;" horiz-adv-x="950" d="M168 -696q0 4 2 12t2 10l61 -45q33 -25 70 -48t76 -38t77 -15q58 0 105 28t84 73t65 102t45 116t26 114t9 95l-26 764l-37 -143q-21 -79 -57 -149t-89 -117t-133 -47q-58 0 -110 58t-97 147t-80 199t-60 213t-39 188t-14 125h98q2 -30 14 -101t32 -161t48 -187t61 -177 t72 -132t81 -52q38 0 71 32t61 81t51 108t39 112t26 92t14 51q4 18 5 55q0 18 0.5 39.5t-0.5 44.5q-1 47 -3 99t-3 99t-2 84t3 55l142 2l26 -1382q0 -60 -12 -131t-36 -143t-60 -140t-83 -120t-107 -83t-130 -31q-44 0 -94 19t-93 52t-72 77t-29 96zM346 1488q44 -6 70 -27 t22 -55q-8 -46 -60 -66q-68 24 -91 49t-18 45t28 34t49 20zM540 1416q2 14 14 30t28 28t34 14t30 -12q32 -6 51 -33t22 -54t-13 -46t-54 -13q-18 2 -39 8t-38 16t-28 25t-7 37z" />
<glyph unicode="&#x152;" horiz-adv-x="2132" d="M46 780q0 96 12 199t40 202t72 188t110 156t153 107t199 40q74 0 132 -25t102 -68t75 -100t53 -123v220l219 29q129 17 263 37t254 43t192 45v-104l-810 -154v-460q28 -2 84 6t125 21t145 30l145 33l126 29q57 13 89 17l78 -76l-776 -212l-10 -742q164 -16 294 -2t237 44 t196 67t173 67q2 0 6 -16l9 -36l9 -36q4 -16 8 -18q-124 -78 -254 -114t-266 -50t-277 -14t-285 -4v354q-28 -76 -68 -141t-94 -115t-124 -78t-158 -28q-108 12 -196 83t-150 180t-96 244t-36 275zM138 838q0 -56 10 -133t31 -159t53 -164t77 -146t104 -104t133 -40 q92 0 157 41t111 106t74 149t43 169t20 164t5 137q0 60 -7 137t-24 157t-47 157t-76 138t-109 98t-147 37q-74 0 -133 -41t-104 -107t-78 -148t-53 -165t-30 -158t-10 -125z" />
<glyph unicode="&#x153;" horiz-adv-x="1726" d="M80 548q0 138 29 249t92 189t164 120t245 42q122 -42 195 -110t112 -145t51 -155t12 -138q0 -128 -35 -239t-104 -192t-170 -127t-233 -46q-120 0 -190 49t-108 127t-49 177t-11 199zM168 536q0 -92 11 -174t43 -144t92 -98t158 -36q120 0 200 40t130 111t71 167t21 208 q-16 78 -38 145t-62 120t-106 93t-170 68q-110 0 -178 -44t-106 -115t-52 -161t-14 -180zM950 144q-66 218 -86 379q-11 92 -11 169q0 57 6 106q15 114 59 186t106 110t135 48q41 6 81 6q33 0 66 -4q38 0 76 -20t70 -51t52 -69t20 -76q0 -106 -51 -178t-129 -119t-171 -72 t-177 -35v-19q0 -13 -1 -29t-1 -29v-19q0 -52 18 -111t53 -109t84 -83t109 -33q56 0 101 33t87 72t86 72t102 33q0 -58 -44 -112t-107 -97t-131 -69t-116 -26q-84 0 -162 35t-124 111zM1280 1052q-80 0 -136 -39t-91 -98t-51 -130t-16 -135q50 0 125 11t145 40t119 78 t49 127q0 26 -13 53t-33 47t-46 33t-52 13z" />
<glyph unicode="&#x178;" horiz-adv-x="1312" d="M138 1714q72 -64 150 -152l155 -177l147 -167q70 -78 126 -122q74 68 137 152t123 173l123 176q63 87 137 165l98 -48q-48 -92 -126 -195l-157 -201l-147 -182q-68 -84 -96 -136l12 -992q0 -16 -18 -18h-9q-15 0 -33 4q-24 6 -49 13t-37 9q-6 52 -7 130v53q0 55 1 115 q2 90 2 185t-4 181t-15 158t-33 114l-566 696zM534 1904q44 -6 70 -27t22 -55q-8 -46 -60 -66q-68 24 -91 49t-18 45t28 34t49 20zM728 1832q2 14 14 30t28 28t34 14t30 -12q32 -6 51 -33t22 -54t-13 -46t-54 -13q-18 2 -39 8t-38 16t-28 25t-7 37z" />
<glyph unicode="&#x2c6;" horiz-adv-x="762" d="M440 1502q-30 -22 -62 -55t-61 -67t-53 -66l-38 -52q-10 -16 -23 -19t-28 -1t-29 6t-28 4q-4 0 -13 1t-11 1l300 438h94q10 -38 42 -104l69 -139l69 -139q32 -66 44 -104l-108 -6q-8 32 -34 83t-54 100t-51 84t-25 35z" />
<glyph unicode="&#x2da;" horiz-adv-x="534" d="M112 1216q0 102 46 162t158 60q48 -16 76 -41t43 -54t19 -58t4 -51q8 -76 -46 -142t-162 -82q-40 18 -65 42t-40 51t-22 56t-11 57zM180 1216q0 -28 10 -49t24 -36t31 -25t33 -16q40 14 71 57t39 88t-13 80t-83 37q-54 -28 -83 -59t-29 -77z" />
<glyph unicode="&#x2dc;" horiz-adv-x="862" d="M68 1458q14 40 35 86t47 84t57 63t65 25q46 0 85 -38t76 -83t74 -83t81 -38q36 0 61 33t48 72t46 72t57 33q0 -90 -18 -152t-47 -101t-66 -56t-75 -17q-44 0 -82 29t-74 64t-73 64t-77 29q-64 0 -106 -31t-88 -115z" />
<glyph unicode="&#x2000;" horiz-adv-x="1222" />
<glyph unicode="&#x2001;" horiz-adv-x="2444" />
<glyph unicode="&#x2002;" horiz-adv-x="1222" />
<glyph unicode="&#x2003;" horiz-adv-x="2444" />
<glyph unicode="&#x2004;" horiz-adv-x="814" />
<glyph unicode="&#x2005;" horiz-adv-x="610" />
<glyph unicode="&#x2006;" horiz-adv-x="406" />
<glyph unicode="&#x2007;" horiz-adv-x="406" />
<glyph unicode="&#x2008;" horiz-adv-x="304" />
<glyph unicode="&#x2009;" horiz-adv-x="488" />
<glyph unicode="&#x200a;" horiz-adv-x="134" />
<glyph unicode="&#x2010;" horiz-adv-x="700" d="M52 510q0 12 1 20t14 14t45 9t94 5t159 3t243 1l-24 -102l-482 -24q-26 -4 -38 25t-12 49z" />
<glyph unicode="&#x2011;" horiz-adv-x="700" d="M52 510q0 12 1 20t14 14t45 9t94 5t159 3t243 1l-24 -102l-482 -24q-26 -4 -38 25t-12 49z" />
<glyph unicode="&#x2012;" horiz-adv-x="700" d="M52 510q0 12 1 20t14 14t45 9t94 5t159 3t243 1l-24 -102l-482 -24q-26 -4 -38 25t-12 49z" />
<glyph unicode="&#x2013;" horiz-adv-x="700" d="M52 510q0 12 1 20t14 14t45 9t94 5t159 3t243 1l-24 -102l-482 -24q-26 -4 -38 25t-12 49z" />
<glyph unicode="&#x2014;" horiz-adv-x="1060" d="M52 510q0 34 230 47t668 13l8 -120l-856 -14q-26 -4 -38 25t-12 49z" />
<glyph unicode="&#x2018;" horiz-adv-x="286" d="M130 1598q32 0 49 -18t25 -44t8 -54v-46q0 -42 -3 -75t-17 -60t-44 -51t-82 -46q0 2 -1 11t-1 13q0 50 10 90t23 81t23 88t10 111z" />
<glyph unicode="&#x2019;" horiz-adv-x="286" d="M130 1598q32 0 49 -18t25 -44t8 -54v-46q0 -42 -3 -75t-17 -60t-44 -51t-82 -46q0 2 -1 11t-1 13q0 50 10 90t23 81t23 88t10 111z" />
<glyph unicode="&#x201a;" horiz-adv-x="286" d="M142 290q32 0 50 -18t25 -43t8 -53t1 -46q0 -42 -3 -75t-18 -61t-44 -51t-83 -45q0 2 -1 11t-1 13q0 50 10 90t23 80t23 87t10 111z" />
<glyph unicode="&#x201c;" horiz-adv-x="604" d="M186 1414q22 0 45 -19t41 -45t30 -52t12 -40q0 -26 -13 -67t-36 -80t-53 -67t-64 -28q-4 0 -14 2t-12 2q32 30 46 89t18 121t2 114t-2 70zM390 1434q20 0 43 -19t41 -45t30 -52t12 -40q0 -26 -13 -67t-36 -80t-53 -67t-64 -28q-4 0 -13 2t-11 2q32 30 46 89t18 121t2 114 t-2 70z" />
<glyph unicode="&#x201d;" horiz-adv-x="604" d="M186 1414q22 0 45 -19t41 -45t30 -52t12 -40q0 -26 -13 -67t-36 -80t-53 -67t-64 -28q-4 0 -14 2t-12 2q32 30 46 89t18 121t2 114t-2 70zM390 1434q20 0 43 -19t41 -45t30 -52t12 -40q0 -26 -13 -67t-36 -80t-53 -67t-64 -28q-4 0 -13 2t-11 2q32 30 46 89t18 121t2 114 t-2 70z" />
<glyph unicode="&#x201e;" horiz-adv-x="604" d="M172 294q22 0 45 -19t41 -44t30 -51t12 -40q0 -26 -13 -67t-36 -80t-53 -67t-64 -28q-6 0 -15 2t-11 2q32 30 46 89t18 120t2 113t-2 70zM374 316q22 0 45 -19t41 -45t30 -52t12 -40q0 -26 -13 -67t-36 -80t-53 -67t-64 -28q-4 0 -13 2t-11 2q32 30 46 89t17 121t1 114 t-2 70z" />
<glyph unicode="&#x2022;" horiz-adv-x="526" d="M154 596q0 8 2 20t6 12q-12 48 4 79t47 46t70 15t74 -11t59 -33t24 -52t-6 -66t-22 -67t-42 -52t-66 -21q-62 0 -106 39t-44 91z" />
<glyph unicode="&#x2026;" horiz-adv-x="934" d="M94 110q0 4 1 13t3 9q-10 42 12 62t52 20t56 -16t26 -42q0 -18 -3 -39t-12 -40t-23 -31t-34 -12q-32 0 -55 23t-23 53zM406 110q0 4 1 13t3 9q-10 42 12 62t52 20t56 -16t26 -42q0 -18 -4 -39t-12 -40t-22 -31t-34 -12q-34 0 -56 23t-22 53zM716 110q0 4 1 13t3 9 q-10 42 12 62t52 20t56 -16t26 -42q0 -18 -3 -39t-12 -40t-23 -31t-34 -12q-32 0 -55 23t-23 53z" />
<glyph unicode="&#x202f;" horiz-adv-x="488" />
<glyph unicode="&#x2039;" d="M1108 1190l6 -134l-796 -382q-2 -4 28 -32l72 -64q42 -36 87 -71t75 -51q26 -16 92 -51l141 -75l142 -74q67 -34 95 -46q0 -4 -2 -12t-2 -12q-10 -28 -36 -43t-56 -5q-4 0 -13 4t-11 6l-234 131l-228 128q-110 63 -206 125t-170 126l14 46z" />
<glyph unicode="&#x203a;" horiz-adv-x="1130" d="M842 736l-760 326l82 120q4 0 47 -21l111 -54l153 -74l170 -80q85 -39 162 -71t131 -50q22 -8 40 -13t32 -11t21 -17t7 -29q0 -30 -12 -42t-40 -32t-85 -64l-127 -100l-147 -118l-148 -117l-127 -98q-56 -43 -84 -61q-14 6 -31 19t-31 28t-23 31t-9 28z" />
<glyph unicode="&#x205f;" horiz-adv-x="610" />
<glyph unicode="&#x20ac;" horiz-adv-x="1476" d="M334 572q-14 -2 -48 -3t-72 -1t-72 1t-48 3q-10 2 -27 20t-19 26q4 10 20 28t26 22q14 4 48 11l72 15q38 8 72 14t48 6q2 2 4 12t5 22t5 23t2 15q0 76 -53 113t-153 7q0 2 -2 10t-2 12q0 44 31 59t72 20l80 10q39 5 57 31q26 40 42 101t32 130t36 139t53 127t85 92 t132 35q28 0 70 -15t80 -39t65 -54t27 -62q0 -28 -11 -43t-39 -29q-28 32 -52 52t-48 31t-51 14t-61 3q-62 0 -101 -25t-61 -66t-29 -93t-7 -105t3 -104t3 -89h358l46 -48l-96 -94h-380v-208q36 0 104 9t141 9t138 -20t93 -78l-46 -46h-430q10 -76 33 -161t65 -156t105 -117 t155 -46q94 0 182 51t162 128t127 170t75 177h62q0 -108 -58 -219t-149 -201t-203 -146t-218 -56q-114 0 -195 54t-137 138t-92 186t-56 198z" />
<glyph unicode="&#x2122;" horiz-adv-x="3046" d="M738 1512h-668v70q198 0 405 13t414 36t409 54t392 67v-98l-810 -142q-12 -184 -15 -381t-5 -389t-7 -370t-19 -324h-94zM2686 1524q-66 -136 -123 -297l-110 -322l-101 -310q-48 -149 -94 -261q-24 -50 -69 -50t-73 50l-32 93l-50 143l-59 168l-59 168l-51 143 q-23 63 -35 93q-4 12 -17 40l-28 58q-15 30 -30 57t-21 37q-24 -114 -37 -246t-17 -267t-4 -265v-241q0 -111 -4 -193t-16 -122q-16 -28 -31 -40t-39 -12q-10 0 -23 3t-25 9t-19 16t-5 24l126 1476q4 30 27 40t45 10q32 0 62 -36t52 -80t36 -82t16 -42q12 -30 35 -93 l51 -143l59 -168l59 -168l50 -143l32 -93l202 509l136 345l84 212q30 76 46 113t22 44t12 7q2 0 21 -4t40 -10t38 -13t19 -13q20 -52 37 -153t33 -233t30 -286l28 -312q14 -158 29 -309t33 -279v-28q0 -30 -21 -50t-51 -20q-4 0 -12 1t-12 1q-22 108 -32 241t-17 275 l-14 287q-7 145 -21 278t-39 247t-69 196z" />
<glyph unicode="&#x2212;" horiz-adv-x="700" d="M52 510q0 12 1 20t14 14t45 9t94 5t159 3t243 1l-24 -102l-482 -24q-26 -4 -38 25t-12 49z" />
<glyph unicode="&#xe000;" horiz-adv-x="1220" d="M0 1220h1220v-1220h-1220v1220z" />
<glyph unicode="&#xfb01;" horiz-adv-x="1064" d="M250 1018h-13q-9 0 -21 1t-23 1h-15l-236 6v104l308 32q-1 32 -1 78v50q1 80 12 170t36 181t70 160t114 106q48 26 111 26q27 0 58 -5q46 0 104 -19t108 -53t84 -81t34 -101q-52 0 -93 24t-81 53t-82 53t-96 24q-68 0 -111 -40t-68 -103t-34 -139t-11 -150q-1 -30 -1 -57 q0 -42 2 -80q3 -63 3 -97l442 -18l-8 -92l-448 -34l58 -1028h-130q-10 36 -18 107t-16 160t-14 192t-11 205t-8 196t-5 168zM892 14q-10 0 -26 4t-32 12t-27 19t-11 25l-2 962q0 14 11 25t27 19t32 12t26 4zM808 1302q-14 0 -32 10t-31 25t-18 32q-1 5 -1 10q0 11 8 19 q8 24 32 44t50 27q11 3 21 3q13 0 24 -5q19 -9 19 -45q0 -18 -3 -39t-12 -39t-23 -30t-34 -12z" />
<glyph unicode="&#xfb02;" horiz-adv-x="1064" d="M250 1018h-13q-9 0 -21 1t-23 1h-15l-236 6v104l308 32q-1 32 -1 78v50q1 80 12 170t36 181t70 160t114 106q48 26 111 26q27 0 58 -5q46 0 104 -19t108 -53t84 -81t34 -101q-52 0 -93 24t-81 53t-82 53t-96 24q-68 0 -111 -40t-68 -103t-34 -139t-11 -150q-1 -30 -1 -57 q0 -42 2 -80q3 -63 3 -97l442 -18l-8 -92l-448 -34l58 -1028h-130q-10 36 -18 107t-16 160t-14 192t-11 205t-8 196t-5 168zM736 1676l112 16q8 -106 15 -250t12 -304t9 -325t7 -313t7 -267t10 -187q0 -28 -10 -53t-24 -36q-8 -6 -18 -6q-7 0 -14 3q-18 8 -32 44z" />
<glyph unicode="&#xfb03;" horiz-adv-x="1866" d="M1772 -12q-10 0 -26 4t-32 12t-27 19t-11 25l-2 962q0 14 11 25t27 19t32 12t26 4zM1688 1276q-14 0 -32 10t-31 25t-18 32q-1 5 -1 10q0 11 8 19q8 24 32 44t50 27q11 3 21 3q13 0 24 -5q19 -9 19 -45q0 -18 -3 -39t-12 -39t-23 -30t-34 -12zM1052 1018h-13q-9 0 -21 1 t-23 1h-15l-236 6v104l308 32q-1 32 -1 78v50q1 80 12 170t36 181t70 160t114 106q48 26 111 26q27 0 58 -5q46 0 104 -19t108 -53t84 -81t34 -101q-52 0 -93 24t-81 53t-82 53t-96 24q-68 0 -111 -40t-68 -103t-34 -139t-11 -150q-1 -30 -1 -57q0 -42 2 -80q3 -63 3 -97 l442 -18l-8 -92l-448 -34l58 -1028h-130q-10 36 -18 107t-16 160t-14 192t-11 205t-8 196t-5 168zM250 1018h-13q-9 0 -21 1t-23 1h-15l-236 6v104l308 32q-1 32 -1 78v50q1 80 12 170t36 181t70 160t114 106q48 26 111 26q27 0 58 -5q46 0 104 -19t108 -53t84 -81t34 -101 q-52 0 -93 24t-81 53t-82 53t-96 24q-68 0 -111 -40t-68 -103t-34 -139t-11 -150q-1 -30 -1 -57q0 -42 2 -80q3 -63 3 -97l442 -18l-8 -92l-448 -34l58 -1028h-130q-10 36 -18 107t-16 160t-14 192t-11 205t-8 196t-5 168z" />
<glyph unicode="&#xfb04;" horiz-adv-x="1866" d="M1648 1726l112 16q8 -106 15 -250t12 -304t9 -325t7 -313t7 -267t10 -187q0 -28 -10 -53t-24 -36q-8 -6 -18 -6q-7 0 -14 3q-18 8 -32 44zM1052 1018h-13q-9 0 -21 1t-23 1h-15l-236 6v104l308 32q-1 32 -1 78v50q1 80 12 170t36 181t70 160t114 106q48 26 111 26 q27 0 58 -5q46 0 104 -19t108 -53t84 -81t34 -101q-52 0 -93 24t-81 53t-82 53t-96 24q-68 0 -111 -40t-68 -103t-34 -139t-11 -150q-1 -30 -1 -57q0 -42 2 -80q3 -63 3 -97l442 -18l-8 -92l-448 -34l58 -1028h-130q-10 36 -18 107t-16 160t-14 192t-11 205t-8 196t-5 168z M250 1018h-13q-9 0 -21 1t-23 1h-15l-236 6v104l308 32q-1 32 -1 78v50q1 80 12 170t36 181t70 160t114 106q48 26 111 26q27 0 58 -5q46 0 104 -19t108 -53t84 -81t34 -101q-52 0 -93 24t-81 53t-82 53t-96 24q-68 0 -111 -40t-68 -103t-34 -139t-11 -150q-1 -30 -1 -57 q0 -42 2 -80q3 -63 3 -97l442 -18l-8 -92l-448 -34l58 -1028h-130q-10 36 -18 107t-16 160t-14 192t-11 205t-8 196t-5 168z" />
</font>
</defs>
</svg>
