<?xml version="1.0" standalone="no"?>
<!DOCTYPE svg PUBLIC "-//W3C//DTD SVG 1.1//EN" "http://www.w3.org/Graphics/SVG/1.1/DTD/svg11.dtd" >
<svg xmlns="http://www.w3.org/2000/svg">
<metadata>
This is a custom SVG webfont generated by Font Squirrel.
Designer    : Michael D. Adams
Foundry     : Michael D. Adams
</metadata>
<defs>
<font id="webfontACz3Qwvv" horiz-adv-x="622" >
<font-face units-per-em="1000" ascent="800" descent="-200" />
<missing-glyph horiz-adv-x="414" />
<glyph unicode=" "  horiz-adv-x="414" />
<glyph unicode="&#x09;" horiz-adv-x="414" />
<glyph unicode="&#xa0;" horiz-adv-x="414" />
<glyph unicode="!" horiz-adv-x="317" d="M230 56q0 -30 -21 -49t-52 -19q-33 0 -54 18.5t-21 49.5q0 29 21 47t52 18q34 0 54.5 -18t20.5 -47zM203 203h-112v488h112v-488z" />
<glyph unicode="&#x22;" horiz-adv-x="530" d="M199 496h-78l-23 228h127zM405 496h-79l-22 228h127z" />
<glyph unicode="#" horiz-adv-x="591" d="M243 478l-16 -138h119l18 138h-121zM552 478h-97l-20 -138h104l-12 -83h-105l-18 -137h-90l19 137h-116l-19 -137h-87l18 137h-103l9 83h104l16 138h-103l11 83h104l16 130h90l-17 -130h121l18 130h88l-17 -130h98z" />
<glyph unicode="$" horiz-adv-x="613" d="M512 211q0 -70 -37.5 -117.5t-115.5 -58.5v-83h-106v83q-82 6 -156 53l39 94q83 -62 164 -62q102 0 102 84q0 28 -14 47t-46 38l-108 56q-66 34 -96.5 69.5t-29.5 93.5q0 65 36 107.5t110 54.5v77h105v-77q62 -7 128 -39l-32 -94q-67 44 -140 44q-94 0 -94 -66 q0 -27 16.5 -44t60.5 -39l97 -49q59 -30 88 -70.5t29 -101.5z" />
<glyph unicode="%" horiz-adv-x="837" d="M707 187q0 129 -66 129q-37 0 -51 -33.5t-14 -95.5q0 -61 14 -94.5t51 -33.5q38 0 52 33.5t14 94.5zM786 187q0 -93 -37 -145t-109 -52q-71 0 -107.5 52.5t-36.5 144.5q0 94 37 146t109 52q70 0 107 -53t37 -145zM271 0h-87l380 691h86zM260 504q0 129 -65 129t-65 -129 q0 -61 14 -94.5t51 -33.5t51 33.5t14 94.5zM340 506q0 -94 -36.5 -146.5t-108.5 -52.5q-73 0 -108.5 53t-35.5 146q0 92 36.5 144t108.5 52q70 0 107 -53t37 -143z" />
<glyph unicode="&#x26;" horiz-adv-x="620" d="M418 326h-120q-58 0 -84 -25.5t-26 -88.5q0 -129 117 -129q67 0 90 35.5t23 119.5v88zM527 326v-90q0 -246 -222 -246q-112 0 -170.5 58t-58.5 159q0 67 28.5 111.5t80.5 57.5v3q-88 36 -88 143q0 86 55 133t148 47q67 0 130 -28l-29 -87q-48 23 -92 23q-100 0 -100 -95 q0 -51 32.5 -72.5t95.5 -21.5h81v88h107v-88h81v-95h-79z" />
<glyph unicode="'" horiz-adv-x="377" d="M220 496h-78l-23 228h127z" />
<glyph unicode="(" horiz-adv-x="257" d="M115 -142q-45 134 -65.5 243t-20.5 229q0 235 86 472l80 -22q-60 -232 -60 -450q0 -214 60 -450z" />
<glyph unicode=")" horiz-adv-x="251" d="M218 330q0 -220 -85 -473l-81 23q61 224 61 450q0 232 -61 450l81 22q85 -257 85 -472z" />
<glyph unicode="*" horiz-adv-x="357" d="M229 568v-4l75 -70l-77 -55l-46 93h-5l-46 -94l-77 54l75 72v4l-107 11l28 90l96 -48l2 3l-20 100h98l-17 -100l2 -2l94 48l30 -90z" />
<glyph unicode="+" horiz-adv-x="431" d="M267 231v-172h-105v172h-162v101h162v162h105v-162h163v-101h-163z" />
<glyph unicode="," horiz-adv-x="223" d="M137 -131h-74l30 241h125z" />
<glyph unicode="-" horiz-adv-x="489" d="M124 247v112h234v-112h-234z" />
<glyph unicode="." horiz-adv-x="285" d="M210 57q0 -31 -20 -50t-51 -19q-32 0 -52.5 19t-20.5 50q0 30 20 48.5t53 18.5q31 0 51 -18.5t20 -48.5z" />
<glyph unicode="/" horiz-adv-x="436" d="M99 -119h-99l334 843h102z" />
<glyph unicode="0" horiz-adv-x="649" d="M459 345q0 59 -5.5 103t-20 81.5t-42 57.5t-68.5 20q-40 0 -67.5 -20t-42 -57.5t-20 -81.5t-5.5 -103q0 -128 30 -194.5t105 -66.5q74 0 105 67t31 194zM577 347q0 -165 -62.5 -262t-191.5 -97q-88 0 -145.5 47.5t-82.5 125.5t-25 186q0 165 63.5 260t189.5 95t190 -95 t64 -260z" />
<glyph unicode="1" horiz-adv-x="404" d="M163 0v540h-5l-105 -100l-53 84l180 169h94v-693h-111z" />
<glyph unicode="2" horiz-adv-x="575" d="M92 0l-17 104l109 110l80 86q47 52 66 81.5t33.5 64t14.5 64.5q0 42 -21 68.5t-68 26.5q-74 0 -147 -81l-60 84q98 94 216 94q90 0 142.5 -48t52.5 -139q0 -90 -63.5 -179t-232.5 -239l298 2v-99h-403z" />
<glyph unicode="3" horiz-adv-x="557" d="M484 200q0 -100 -57 -156t-167 -56q-109 0 -198 60l44 89q77 -54 147 -54q117 0 117 120q0 58 -25.5 84.5t-81.5 26.5h-75v95h31q68 0 102 23.5t34 75.5q0 98 -101 98q-68 0 -137 -54l-45 85q98 65 198 65q90 0 144 -48t54 -139q0 -104 -89 -145v-2q105 -28 105 -168z " />
<glyph unicode="4" horiz-adv-x="521" d="M286 552l-174 -311h176v311h-2zM400 144v-144h-117v144h-255l-28 91l273 456h127v-450h89v-97h-89z" />
<glyph unicode="5" horiz-adv-x="553" d="M490 238q0 -120 -59.5 -185t-171.5 -65q-104 0 -187 58l48 89q63 -52 132 -52q125 0 125 152q0 147 -114 147q-69 0 -110 -64l-75 58l47 315h326v-101h-235l-26 -158l1 -2q41 40 107 40q91 0 141.5 -60t50.5 -172z" />
<glyph unicode="6" horiz-adv-x="579" d="M410 226q0 133 -108 133q-52 0 -82 -36.5t-30 -100.5q0 -65 28.5 -101.5t83.5 -36.5q52 0 80 38t28 104zM521 228q0 -107 -60.5 -173.5t-159.5 -66.5q-119 0 -175.5 86t-56.5 240q0 388 253 388q81 0 153 -41l-40 -86q-58 33 -109 33q-69 0 -104.5 -53t-39.5 -177h2 q40 72 136 72q94 0 147.5 -59t53.5 -163z" />
<glyph unicode="7" horiz-adv-x="463" d="M453 589q-78 -78 -115 -141t-54 -154t-17 -246v-48h-120v35q0 84 6 148t23.5 141.5t57 144t99.5 119.5v2h-307v101h412z" />
<glyph unicode="8" horiz-adv-x="607" d="M419 199q0 121 -116 121t-116 -123q0 -118 117 -118q115 0 115 120zM403 511q0 101 -99 101q-101 0 -101 -101q0 -102 100 -102t100 102zM534 200q0 -102 -58 -157t-172 -55t-173 55t-59 157q0 124 104 169v3q-45 27 -65 60.5t-20 87.5q0 88 54 135t158 47q100 0 156 -46 t56 -136q0 -53 -19.5 -87.5t-65.5 -60.5v-3q104 -44 104 -169z" />
<glyph unicode="9" horiz-adv-x="581" d="M386 468q0 65 -27.5 102t-81.5 37q-52 0 -81 -37.5t-29 -102.5q0 -63 27.5 -98t80.5 -35t82 36.5t29 97.5zM508 357q0 -181 -60.5 -275t-192.5 -94q-85 0 -158 47l44 84q58 -38 115 -38q72 0 107 58t35 182h-2q-41 -83 -135 -83q-92 0 -149 63t-57 164q0 103 62 170 t163 67q228 0 228 -345z" />
<glyph unicode=":" horiz-adv-x="316" d="M224 419q0 -30 -20 -49t-51 -19q-32 0 -52.5 18.5t-20.5 49.5t20.5 49.5t52.5 18.5q31 0 51 -19t20 -49zM224 57q0 -31 -20 -50t-51 -19q-32 0 -52.5 19t-20.5 50q0 30 20 48.5t53 18.5q31 0 51 -18.5t20 -48.5z" />
<glyph unicode=";" horiz-adv-x="242" d="M226 434q0 -32 -20 -51.5t-53 -19.5t-54.5 19.5t-21.5 51.5q0 31 21.5 50.5t54.5 19.5t53 -19.5t20 -50.5zM132 -136h-77l33 251h129z" />
<glyph unicode="&#x37e;" horiz-adv-x="242" d="M226 434q0 -32 -20 -51.5t-53 -19.5t-54.5 19.5t-21.5 51.5q0 31 21.5 50.5t54.5 19.5t53 -19.5t20 -50.5zM132 -136h-77l33 251h129z" />
<glyph unicode="&#x3c;" horiz-adv-x="538" d="M0 229v98l498 229v-96l-398 -181l398 -184v-95z" />
<glyph unicode="=" horiz-adv-x="524" d="M124 122v98h373v-98h-373zM124 316v98h373v-98h-373z" />
<glyph unicode="&#x3e;" d="M124 0v95l398 183l-398 182v96l498 -229v-98z" />
<glyph unicode="?" horiz-adv-x="428" d="M254 57q0 -31 -20 -50t-51 -19t-51.5 19.5t-20.5 49.5t20 48t51 18t51.5 -18t20.5 -48zM417 517q0 -121 -102 -179l-43 -29q-24 -13 -29 -23.5t-5 -44.5v-55h-106v78q0 48 10.5 67t47.5 41l40 23q39 21 56.5 46t17.5 67q0 46 -25 72.5t-72 26.5q-69 0 -132 -55l-45 88 q94 62 191 62q94 0 145 -49t51 -136z" />
<glyph unicode="@" horiz-adv-x="767" d="M457 388q1 6 1 19q0 56 -60 56q-88 0 -88 -160q0 -83 60 -83q67 0 79 94zM708 404q0 -125 -52.5 -189.5t-118.5 -64.5q-27 0 -49 15t-28 45h-2q-41 -59 -111 -59q-56 0 -89 41t-33 119q0 91 42 156t121 65q56 0 82 -44h2l4 35h81l-32 -279q0 -1 -0.5 -3t-0.5 -3 q0 -11 8 -19t23 -8q34 0 63.5 49t29.5 149q0 112 -62 174.5t-167 62.5q-136 0 -214 -86t-78 -230q0 -142 67.5 -217.5t188.5 -75.5q112 0 188 67l29 -52q-87 -71 -223 -71q-143 0 -228.5 90.5t-85.5 262.5q0 168 101 268t253 100q127 0 209 -76.5t82 -221.5z" />
<glyph unicode="A" horiz-adv-x="616" d="M307 583h-4l-89 -323h183zM468 0l-48 160h-228l-47 -160h-124l215 693h140l218 -693h-126z" />
<glyph unicode="B" horiz-adv-x="664" d="M473 199q0 69 -36 92t-101 23q-21 0 -56 -2t-40 -2v-220q17 -1 49 -1h49q73 0 104 20.5t31 89.5zM452 502q0 55 -29.5 79.5t-93.5 24.5q-49 0 -89 -6v-200q16 -2 51 -2h37q68 0 96 22t28 82zM593 192q0 -192 -217 -192h-252v686q94 12 205 12q239 0 239 -185 q0 -114 -96 -148v-2q60 -13 90.5 -58.5t30.5 -112.5z" />
<glyph unicode="C" horiz-adv-x="621" d="M561 87q-96 -99 -218 -99q-96 0 -161 48.5t-92.5 127t-27.5 183.5q0 71 16.5 133.5t49 113t88.5 79.5t129 29q114 0 211 -97l-70 -81q-38 42 -68 60.5t-73 18.5q-80 0 -121 -67.5t-41 -188.5q0 -50 7.5 -93t25 -82t51 -62t79.5 -23q80 0 153 81z" />
<glyph unicode="D" horiz-adv-x="680" d="M494 352q0 55 -7.5 97.5t-25.5 79t-52.5 56.5t-83.5 20q-51 0 -85 -5v-505h67q97 0 142 60.5t45 196.5zM617 349q0 -164 -74.5 -256.5t-227.5 -92.5h-191v686q84 12 196 12q147 0 222 -91.5t75 -257.5z" />
<glyph unicode="E" horiz-adv-x="580" d="M124 0v691h370v-100h-254v-181h230v-101h-230v-212h264v-97h-380z" />
<glyph unicode="F" horiz-adv-x="488" d="M240 591v-184h223v-100h-223v-307h-116v691h364v-100h-248z" />
<glyph unicode="G" horiz-adv-x="648" d="M590 307q0 -319 -247 -319q-94 0 -159 50.5t-93 128.5t-28 178q0 152 72 254.5t211 102.5q62 0 109 -23t98 -66l-69 -82q-67 72 -137 72q-47 0 -81 -23.5t-51 -63.5t-24 -81.5t-7 -89.5q0 -264 161 -264q136 0 136 196h-131v97h240v-67z" />
<glyph unicode="H" horiz-adv-x="721" d="M476 0v310h-236v-310h-116v691h116v-270h236v270h117v-691h-117z" />
<glyph unicode="I" horiz-adv-x="380" d="M124 0v691h118v-691h-118z" />
<glyph unicode="J" horiz-adv-x="438" d="M323 180q0 -192 -174 -192q-86 0 -149 47l46 88q47 -36 92 -36q36 0 52 22.5t16 70.5v511h117v-511z" />
<glyph unicode="K" horiz-adv-x="665" d="M460 0l-160 311l-60 -80v-231h-116v691h116v-306h4l197 306h139l-199 -294l212 -397h-133z" />
<glyph unicode="L" horiz-adv-x="473" d="M124 0v691h116v-592h233v-99h-349z" />
<glyph unicode="M" horiz-adv-x="816" d="M577 0v475h-4l-167 -279l-166 278h-2v-474h-114v691h111l171 -289l172 289h111v-691h-112z" />
<glyph unicode="N" horiz-adv-x="757" d="M518 0l-280 471v-471h-114v691h114l277 -476h3v476h112v-691h-112z" />
<glyph unicode="O" horiz-adv-x="714" d="M522 346q0 124 -37.5 192t-128.5 68t-128.5 -68t-37.5 -192q0 -125 38 -193t130 -68q46 0 79 19t51 55.5t26 82t8 104.5zM644 346q0 -165 -73.5 -261.5t-214.5 -96.5q-142 0 -214.5 95.5t-72.5 262.5q0 164 72.5 260t214.5 96q141 0 214.5 -96t73.5 -260z" />
<glyph unicode="P" horiz-adv-x="571" d="M452 476q0 71 -27.5 99.5t-94.5 28.5q-20 0 -90 -6v-249h91q66 0 93.5 25.5t27.5 101.5zM570 477q0 -112 -53.5 -168t-167.5 -56h-109v-253h-116v686q90 12 201 12q118 0 181.5 -51t63.5 -170z" />
<glyph unicode="Q" horiz-adv-x="695" d="M491 347q0 123 -37 191t-130 68q-48 0 -81.5 -19t-51.5 -55.5t-25.5 -81.5t-7.5 -104q0 -125 37.5 -193t130.5 -68q165 0 165 262zM612 346q0 -217 -116 -302v-2q17 -5 45.5 -27t61.5 -29l-36 -86q-39 2 -77 25t-67 44.5t-47 21.5q-7 0 -20.5 -1.5t-22.5 -1.5 q-149 0 -222.5 95t-73.5 263q0 163 72 259.5t215 96.5q144 0 216 -96.5t72 -259.5z" />
<glyph unicode="R" horiz-adv-x="657" d="M452 487q0 60 -29.5 89t-93.5 29q-41 0 -89 -5v-228h101q57 0 84 25.5t27 89.5zM458 0l-78 244q-6 19 -13.5 26.5t-23.5 7.5h-103v-278h-116v686q95 12 204 12q112 0 177 -49.5t65 -156.5q0 -136 -102 -181v-1q8 -4 21 -37l93 -273h-124z" />
<glyph unicode="S" horiz-adv-x="563" d="M496 198q0 -104 -60.5 -157t-160.5 -53q-120 0 -221 67l43 96q85 -68 172 -68q50 0 82 24t32 78q0 47 -33 74.5t-95 52.5q-86 38 -114 60q-65 51 -65 143q0 91 60.5 138t148.5 47q99 0 189 -54l-34 -96q-75 56 -145 56q-46 0 -75.5 -21.5t-29.5 -64.5q0 -21 9.5 -37.5 t30 -29.5t38 -21.5t49.5 -20.5q31 -13 51.5 -23t47 -28.5t42 -39t27 -52.5t11.5 -70z" />
<glyph unicode="T" horiz-adv-x="471" d="M293 590v-590h-117v590h-160v101h438v-101h-161z" />
<glyph unicode="U" horiz-adv-x="689" d="M582 280q0 -147 -54 -219.5t-184 -72.5q-133 0 -186 71.5t-53 220.5v411h116v-419q0 -93 25.5 -138.5t97.5 -45.5q71 0 95.5 45.5t24.5 138.5v419h118v-411z" />
<glyph unicode="V" horiz-adv-x="566" d="M351 0h-138l-192 691h125l136 -571h2l137 571h123z" />
<glyph unicode="W" horiz-adv-x="936" d="M724 0h-135l-120 501h-4l-119 -501h-137l-146 691h124l96 -560h3l129 560h108l128 -559h3l96 559h122z" />
<glyph unicode="X" horiz-adv-x="676" d="M465 0l-130 261h-1l-130 -261h-132l192 358l-170 333h133l112 -246h3l112 246h130l-175 -340l186 -351h-130z" />
<glyph unicode="Y" horiz-adv-x="547" d="M332 268v-268h-117v263l-205 428h127l137 -322l137 322h125z" />
<glyph unicode="Z" horiz-adv-x="618" d="M95 0v95l285 495h-271v101h406v-94l-288 -500h295v-97h-427z" />
<glyph unicode="[" horiz-adv-x="339" d="M124 -122v920h197v-74h-94v-772h94v-74h-197z" />
<glyph unicode="\" horiz-adv-x="432" d="M335 -119l-335 844h99l333 -844h-97z" />
<glyph unicode="]" horiz-adv-x="344" d="M15 -122v74h94v772h-94v74h197v-920h-197z" />
<glyph unicode="^" horiz-adv-x="460" d="M376 519l-147 80l-148 -80l-54 82l201 112l203 -112z" />
<glyph unicode="_" horiz-adv-x="767" d="M124 -162v77h516v-77h-516z" />
<glyph unicode="`" horiz-adv-x="235" d="M165 629l-165 115l98 50l130 -129z" />
<glyph unicode="a" horiz-adv-x="599" d="M385 291q-202 0 -202 -127q0 -96 77 -96q64 0 125 58v165zM460 -7q-28 9 -43.5 23t-21.5 42h-3q-70 -70 -166 -70q-74 0 -114.5 46.5t-40.5 122.5q0 48 19.5 85.5t50 60.5t73 37t84 19.5t87.5 5.5v20q0 54 -15.5 78t-63.5 24q-90 0 -183 -53l-29 85q104 56 219 56 q103 0 144 -47.5t41 -147.5v-251q0 -33 6 -46t28 -27z" />
<glyph unicode="b" horiz-adv-x="613" d="M417 282q0 49 -4 81.5t-15 62.5t-34 44.5t-59 14.5q-107 0 -107 -120v-147q0 -64 25.5 -103.5t80.5 -39.5q113 0 113 207zM532 282q0 -57 -10.5 -107t-33 -93t-63.5 -68.5t-96 -25.5q-89 0 -136 79h-3l-13 -67h-93v749h114v-241h2q37 67 129 67q103 0 153 -79.5 t50 -213.5z" />
<glyph unicode="c" horiz-adv-x="633" d="M475 430q-52 53 -120 53q-38 0 -65.5 -18t-41 -49.5t-19.5 -63.5t-6 -68q0 -38 6 -71.5t19.5 -65t41 -50t65.5 -18.5q68 0 132 51l36 -84q-82 -58 -177 -58q-123 0 -181.5 83t-58.5 211t61 210.5t185 82.5q93 0 169 -58z" />
<glyph unicode="d" horiz-adv-x="588" d="M349 365q0 59 -28 89.5t-80 30.5q-67 0 -90 -52.5t-23 -150.5q0 -206 113 -206q57 0 82.5 38.5t25.5 99.5v151zM362 0l-7 66h-3q-52 -78 -137 -78q-54 0 -95 25.5t-64 68.5t-34 93.5t-11 106.5q0 134 51 213.5t154 79.5q91 0 131 -66v240h114v-749h-99z" />
<glyph unicode="e" horiz-adv-x="590" d="M418 323q-3 79 -26 122t-84 43q-59 0 -92 -42.5t-33 -122.5h235zM525 287v-21q0 -9 -2 -25h-340q0 -162 134 -162q73 0 143 48l36 -86q-83 -53 -184 -53q-119 0 -182.5 77.5t-63.5 216.5q0 143 65.5 218t174.5 75q219 0 219 -288z" />
<glyph unicode="f" horiz-adv-x="317" d="M299 666q-5 0 -20 2t-23 2q-38 0 -50.5 -13t-12.5 -49v-58h99v-94h-97v-456h-115v455h-71v95h71v46q0 90 32.5 125t128.5 35q25 0 58 -5v-85z" />
<glyph unicode="g" horiz-adv-x="634" d="M404 358q0 57 -27.5 92t-81.5 35q-64 0 -88.5 -52t-24.5 -145q0 -189 112 -189q60 0 85 45.5t25 109.5v104zM517 -5q0 -109 -47 -162t-163 -53q-114 0 -206 49l32 93q85 -47 172 -47q56 0 77.5 22.5t21.5 83.5v100h-3q-47 -69 -132 -69q-100 0 -152 71t-52 202 q0 59 10 108t32.5 91.5t64 66.5t98.5 24q92 0 136 -73h2l7 62h102v-569z" />
<glyph unicode="h" horiz-adv-x="581" d="M439 0v323q0 34 -0.5 50.5t-5 41t-14 35.5t-27.5 20t-44 9q-58 0 -84 -33.5t-26 -100.5v-345h-114v749h114v-238q46 64 143 64q98 0 135.5 -58t37.5 -179v-338h-115z" />
<glyph unicode="i" horiz-adv-x="280" d="M212 707q0 -30 -20 -47.5t-53 -17.5t-52 17.5t-19 47.5q0 29 19 46.5t52 17.5t53 -17.5t20 -46.5zM82 0v564h115v-564h-115z" />
<glyph unicode="j" horiz-adv-x="333" d="M251 3q0 -108 -40 -165t-142 -57q-35 0 -69 6v94q40 -2 53 -2q24 0 40.5 6.5t25 15t13 28.5t5 35t0.5 46v554h114v-561zM266 707q0 -29 -20.5 -47t-51.5 -18q-32 0 -52 17.5t-20 47.5t19.5 47t52.5 17q32 0 52 -17t20 -47z" />
<glyph unicode="k" horiz-adv-x="553" d="M425 0l-125 252l-64 -81v-171h-112v749h114v-439h2l172 254h131l-164 -234l174 -330h-128z" />
<glyph unicode="l" horiz-adv-x="421" d="M306 0q-32 -6 -76 -6q-65 0 -90.5 26.5t-25.5 94.5v634h114v-606q0 -33 9.5 -43t41.5 -10h27v-90z" />
<glyph unicode="m" horiz-adv-x="953" d="M722 0v332q0 30 -1 48.5t-6 39.5t-14 32.5t-25.5 19t-40.5 7.5q-99 0 -99 -124v-355h-113v334q0 74 -16 109.5t-70 35.5q-99 0 -99 -124v-355h-114v564h102l7 -60h2q47 71 134 71q102 0 136 -78q52 78 153 78q95 0 136.5 -55.5t41.5 -170.5v-349h-114z" />
<glyph unicode="n" horiz-adv-x="667" d="M439 0v322q0 29 -0.5 43.5t-3 36.5t-8 33t-15.5 23t-26 16.5t-38 4.5q-110 0 -110 -134v-345h-114v564h100l9 -60h2q43 71 145 71q99 0 136 -57.5t37 -179.5v-338h-114z" />
<glyph unicode="o" d="M435 282q0 43 -5 76t-18 63t-38.5 46t-62.5 16q-38 0 -63.5 -16t-38.5 -45.5t-18 -62.5t-5 -77q0 -100 27.5 -151.5t97.5 -51.5q69 0 96.5 52t27.5 151zM551 282q0 -137 -61 -215.5t-179 -78.5q-119 0 -180.5 78t-61.5 216q0 135 61 214t181 79q118 0 179 -78t61 -215z " />
<glyph unicode="p" horiz-adv-x="600" d="M411 282q0 26 -1 44.5t-4.5 45t-11 44t-19.5 35t-32 26t-46 8.5q-54 0 -80.5 -34.5t-26.5 -90.5v-140q0 -62 25.5 -103t82.5 -41q113 0 113 206zM527 284q0 -54 -10 -103t-32.5 -94t-64.5 -72t-99 -27q-87 0 -127 66h-2v-267h-114v777h100l9 -60q46 71 136 71 q57 0 99 -26.5t64 -71t31.5 -92t9.5 -101.5z" />
<glyph unicode="q" horiz-adv-x="572" d="M345 359q0 126 -107 126q-29 0 -50.5 -10.5t-33.5 -27.5t-19 -44.5t-9 -55t-2 -65.5q0 -206 114 -206q40 0 65 23t33.5 54.5t8.5 70.5v135zM432 -233q-53 15 -70 49t-17 96v143h-4q-44 -67 -129 -67q-102 0 -153.5 82.5t-51.5 213.5q0 57 10.5 106.5t33 92.5t63.5 67.5 t97 24.5q98 0 137 -71h1l7 60h103v-630q0 -42 7 -58.5t34 -28.5z" />
<glyph unicode="r" horiz-adv-x="403" d="M373 469q-67 0 -101.5 -27t-34.5 -95v-347h-114v564h102l9 -68q24 42 56 60.5t84 18.5h29v-106h-30z" />
<glyph unicode="s" horiz-adv-x="528" d="M455 162q0 -87 -52 -130.5t-147 -43.5q-107 0 -199 56l38 88q76 -54 162 -54q88 0 88 72q0 41 -63 70q-12 6 -54 23q-77 30 -103 51q-51 42 -51 121q0 77 53.5 118.5t140.5 41.5q98 0 171 -38l-27 -89q-59 35 -135 35q-46 0 -69.5 -12t-23.5 -46q0 -8 1.5 -14.5 t6.5 -12.5l8 -10q4 -5 12 -10t13.5 -8t16.5 -8l18 -6l20 -8q14 -6 20 -8q37 -15 56.5 -25.5t46.5 -31t39.5 -50.5t12.5 -71z" />
<glyph unicode="t" horiz-adv-x="335" d="M304 -1q-45 -5 -78 -5q-89 0 -116 36t-27 132v293h-76v95h78v157h112v-157h107v-95h-107v-300q0 -42 13 -53.5t63 -11.5h31v-91z" />
<glyph unicode="u" horiz-adv-x="662" d="M430 0l-7 59h-2q-48 -71 -146 -71q-86 0 -125 49t-39 167v360h114v-326q0 -32 1 -52t6 -42t14.5 -33.5t26 -19.5t41.5 -8q58 0 82 34t24 105v342h115v-564h-105z" />
<glyph unicode="v" horiz-adv-x="518" d="M331 0h-143l-164 564h121l115 -471h3l111 471h117z" />
<glyph unicode="w" horiz-adv-x="862" d="M665 0h-130l-103 395h-4l-103 -395h-131l-130 564h118l83 -453h3l110 453h105l110 -454h3l86 454h115z" />
<glyph unicode="x" horiz-adv-x="624" d="M417 0l-108 222h-3l-108 -222h-125l167 295l-148 269h127l95 -199h2l94 199h118l-148 -266l164 -298h-127z" />
<glyph unicode="y" horiz-adv-x="545" d="M357 -33q-35 -104 -71.5 -145.5t-110.5 -41.5q-35 0 -69 5v96q12 -3 48 -3q37 0 53.5 14.5t29.5 61.5l12 42l-181 568h121l118 -444h2l114 444h119z" />
<glyph unicode="z" horiz-adv-x="574" d="M120 0v86l236 384h-230v94h357v-93l-233 -376h238v-95h-368z" />
<glyph unicode="{" horiz-adv-x="288" d="M193 -128q-71 0 -100 30t-29 110v189q0 39 -10 60t-40 27v84q29 6 39.5 27.5t10.5 58.5v200q0 78 29 109t99 31h55v-74h-22q-39 0 -49 -16.5t-10 -67.5v-198q0 -43 -9.5 -64.5t-39.5 -47.5q30 -25 39.5 -47.5t9.5 -64.5v-187q0 -54 10 -70t49 -16h22v-73h-54z" />
<glyph unicode="|" horiz-adv-x="352" d="M124 -228v952h83v-952h-83z" />
<glyph unicode="}" horiz-adv-x="286" d="M271 288q-52 -10 -52 -87v-189q0 -80 -28 -110t-99 -30h-54v73h21q39 0 49 16t10 70v187q0 42 10 64t40 48q-30 26 -40 48t-10 64v198q0 52 -10 68t-49 16h-21v74h54q70 0 98.5 -30.5t28.5 -109.5v-200q0 -38 11 -59t41 -27v-84z" />
<glyph unicode="~" horiz-adv-x="589" d="M513 617q-31 -82 -125 -82q-34 0 -94 22t-89 22q-22 0 -35.5 -9.5t-27.5 -35.5l-71 57q26 46 53.5 63.5t71.5 17.5q34 0 94 -22t89 -22q41 0 63 45z" />
<glyph unicode="&#xa1;" horiz-adv-x="325" d="M226 501q0 -30 -19.5 -48t-50.5 -18q-30 0 -49 18t-19 48q0 29 19 47t49 18q31 0 50.5 -18t19.5 -47zM111 -136v488h109v-488h-109z" />
<glyph unicode="&#xa2;" horiz-adv-x="440" d="M424 140q-60 -48 -127 -59v-81h-100v83q-86 17 -128.5 89.5t-42.5 176.5t42 173.5t129 89.5v79h100v-77q61 -10 119 -50l-45 -87q-31 26 -55 37t-56 11q-118 0 -118 -176q0 -77 28.5 -128.5t92.5 -51.5q60 0 120 51z" />
<glyph unicode="&#xa3;" horiz-adv-x="546" d="M64 0v93h11q72 0 72 104q0 48 -13 128h-69v91h58q-13 112 -13 128q0 79 47 118.5t134 39.5q86 0 161 -41l-23 -97q-56 41 -120 41q-46 0 -66 -21.5t-20 -64.5q0 -40 12 -103h132v-91h-121q17 -86 17 -135q0 -56 -19 -90v-1h220v-99h-400z" />
<glyph unicode="&#xa4;" horiz-adv-x="632" d="M20 233l19 68h55q-1 8 -1 23v43q0 14 1 21h-65l19 68h53q17 111 79 178.5t173 67.5q113 0 210 -97l-70 -75q-65 77 -142 77q-114 0 -134 -151h235l-19 -68h-223q-1 -7 -1 -21v-43q0 -16 1 -23h217l-20 -68h-189q11 -70 41 -109.5t92 -39.5q83 0 155 78l60 -76 q-90 -98 -216 -98q-214 0 -249 245h-81z" />
<glyph unicode="&#xa5;" horiz-adv-x="567" d="M402 396h106v-78h-144l-21 -44v-61h166v-78h-166v-135h-116v135h-167v78h167v57l-22 48h-145v78h105l-143 295h125l138 -321l138 321h119z" />
<glyph unicode="&#xa6;" horiz-adv-x="290" d="M124 -228v404h82v-404h-82zM124 321v403h82v-403h-82z" />
<glyph unicode="&#xa7;" horiz-adv-x="509" d="M339 301q0 34 -20 50t-65 16q-87 0 -87 -66t87 -66q85 0 85 66zM435 319q0 -116 -115 -127v-3q51 -19 82 -56t31 -89q0 -68 -42.5 -108t-133.5 -40q-95 0 -180 58l34 83q80 -55 144 -55q72 0 72 58q0 25 -15 39.5t-60 40.5l-44 22q-29 14 -38 18q-51 28 -75.5 58.5 t-24.5 79.5q0 53 31 84t87 36v3q-109 41 -109 136q0 69 46.5 107t129.5 38q79 0 160 -36l-28 -89q-60 36 -119 36q-74 0 -74 -54q0 -37 60 -69q75 -32 100 -44q81 -41 81 -127z" />
<glyph unicode="&#xa8;" horiz-adv-x="528" d="M219 706q0 -25 -18.5 -43t-42.5 -18q-26 0 -43.5 17.5t-17.5 43.5t17.5 44t43.5 18q24 0 42.5 -18t18.5 -44zM426 706q0 -25 -18 -43t-44 -18q-25 0 -43 18t-18 43q0 26 18 44t43 18q26 0 44 -18t18 -44z" />
<glyph unicode="&#xa9;" horiz-adv-x="833" d="M581 185q-69 -62 -156 -62q-101 0 -153 62t-52 163t53 160.5t149 59.5q92 0 157 -62l-47 -58q-49 49 -107 49q-120 0 -120 -150q0 -154 122 -154q59 0 115 50zM730 347q0 129 -92.5 220.5t-221.5 91.5t-220.5 -91.5t-91.5 -220.5t91.5 -220.5t220.5 -91.5t221.5 91.5 t92.5 220.5zM773 346q0 -149 -104.5 -253.5t-252.5 -104.5t-253 104.5t-105 253.5q0 148 105.5 253t252.5 105q148 0 252.5 -105t104.5 -253z" />
<glyph unicode="&#xaa;" horiz-adv-x="435" d="M274 545q-125 0 -125 -64q0 -22 12.5 -34.5t32.5 -12.5q38 0 80 31v80zM327 382q-35 10 -45 35h-2q-50 -36 -104 -36q-45 0 -72.5 26.5t-27.5 69.5q0 116 198 116v7q0 28 -8.5 37.5t-40.5 9.5q-54 0 -118 -34l-23 56q72 38 145 38q67 0 93 -27.5t26 -91.5v-118 q0 -17 5 -25t20 -15z" />
<glyph unicode="&#xab;" horiz-adv-x="526" d="M152 108l-116 206l116 205l82 -42l-94 -165l94 -163zM359 108l-116 206l116 205l80 -42l-93 -165l93 -163z" />
<glyph unicode="&#xad;" horiz-adv-x="489" d="M124 247v112h234v-112h-234z" />
<glyph unicode="&#xae;" horiz-adv-x="481" d="M241 613h-16q-8 0 -12 -1v-51h30q33 0 33 24q0 28 -35 28zM292 537q3 -5 12 -25.5t16 -38.5t7 -19h-51l-28 66q0 6 -7 6h-27v-72h-47v193q27 3 72 3q83 0 83 -62q0 -34 -30 -51zM239 698q-63 0 -108 -44t-45 -104q0 -62 45 -105t108 -43t107.5 43t44.5 105q0 60 -45 104 t-107 44zM239 374q-75 0 -127.5 51t-52.5 123q0 74 52.5 125t127.5 51t127.5 -51t52.5 -125q0 -72 -52.5 -123t-127.5 -51z" />
<glyph unicode="&#xaf;" horiz-adv-x="549" d="M124 662v81h295v-81h-295z" />
<glyph unicode="&#x2c9;" horiz-adv-x="549" d="M124 662v81h295v-81h-295z" />
<glyph unicode="&#xb0;" horiz-adv-x="441" d="M335 550q0 48 -34 81.5t-82 33.5q-46 0 -80.5 -34t-34.5 -81q0 -46 34.5 -80t80.5 -34q47 0 81.5 34t34.5 80zM380 550q0 -66 -48 -113.5t-113 -47.5q-66 0 -113 47.5t-47 113.5q0 67 46.5 114t113.5 47q66 0 113.5 -47.5t47.5 -113.5z" />
<glyph unicode="&#xb1;" horiz-adv-x="537" d="M28 0v95h478v-95h-478zM324 336v-162h-112v162h-184v110h184v169h112v-169h182v-110h-182z" />
<glyph unicode="&#xb2;" horiz-adv-x="443" d="M77 412l46 44q34 33 51 51l40 45q23 26 33 47.5t10 40.5q0 24 -13.5 39.5t-41.5 15.5q-42 0 -86 -44l-41 58q65 59 141 59q59 0 93 -31t34 -89q0 -51 -38 -105.5t-128 -129.5h168v-71h-256z" />
<glyph unicode="&#xb3;" horiz-adv-x="412" d="M339 464q0 -57 -39 -92.5t-106 -35.5q-72 0 -131 40l35 62q44 -33 93 -33q29 0 46.5 15t17.5 46q0 61 -65 61h-48v66h33q36 0 51.5 13.5t15.5 42.5q0 51 -55 51q-45 0 -84 -31l-34 58q41 23 68 32.5t62 9.5q59 0 93.5 -29t34.5 -84q0 -61 -47 -90q59 -22 59 -102z" />
<glyph unicode="&#xb4;" horiz-adv-x="233" d="M68 629l-62 36l129 129l98 -50z" />
<glyph unicode="&#xb5;" horiz-adv-x="566" d="M443 0l-7 59h-2q-23 -34 -59 -52.5t-72 -18.5q-50 0 -70 20l1 -254h-110v810h114v-326q0 -32 1 -52t6 -42t14.5 -33.5t26 -19.5t41.5 -8q58 0 82 34t24 105v342h115v-564h-105z" />
<glyph unicode="&#x3bc;" horiz-adv-x="566" d="M443 0l-7 59h-2q-23 -34 -59 -52.5t-72 -18.5q-50 0 -70 20l1 -254h-110v810h114v-326q0 -32 1 -52t6 -42t14.5 -33.5t26 -19.5t41.5 -8q58 0 82 34t24 105v342h115v-564h-105z" />
<glyph unicode="&#xb6;" horiz-adv-x="532" d="M332 0q-141 0 -216.5 72.5t-75.5 188.5q0 113 76 185.5t216 72.5h71v-519h-71z" />
<glyph unicode="&#xb7;" horiz-adv-x="290" d="M223 282q0 -33 -24 -56.5t-57 -23.5q-34 0 -57.5 23t-23.5 57q0 33 23.5 56.5t57.5 23.5q33 0 57 -23.5t24 -56.5z" />
<glyph unicode="&#x2219;" horiz-adv-x="290" d="M223 282q0 -33 -24 -56.5t-57 -23.5q-34 0 -57.5 23t-23.5 57q0 33 23.5 56.5t57.5 23.5q33 0 57 -23.5t24 -56.5z" />
<glyph unicode="&#xb8;" horiz-adv-x="242" d="M203 -140q0 -40 -26 -65.5t-69 -25.5q-48 0 -81 21l19 46q30 -16 50 -16q18 0 30 10.5t12 32.5q0 16 -9 27t-26 11q-16 0 -32 -9l-20 19l40 88h50l-25 -59l1 -1q7 3 23 3q30 0 46.5 -21.5t16.5 -60.5z" />
<glyph unicode="&#xb9;" horiz-adv-x="320" d="M187 762v-420h-83v314l-69 -48l-35 58l122 96h65z" />
<glyph unicode="&#xba;" horiz-adv-x="425" d="M274 548q0 100 -64 100q-37 0 -50 -26.5t-13 -74.5q0 -54 15 -78.5t48 -24.5q35 0 49.5 25t14.5 79zM350 546q0 -77 -36 -120t-106 -43q-67 0 -102.5 44t-35.5 121q0 75 36 118.5t104 43.5q69 0 104.5 -43.5t35.5 -120.5z" />
<glyph unicode="&#xbb;" horiz-adv-x="525" d="M164 108l-81 41l95 165l-95 164l81 42l116 -206zM371 108l-81 41l93 165l-93 164l81 42l116 -206z" />
<glyph unicode="&#xbc;" horiz-adv-x="912" d="M729 116v183l-104 -183h104zM805 -40h-84v86h-152l-18 69l158 266h96v-262h53v-73h-53v-86zM216 -40h-74l511 802h68zM241 762v-420h-83v314l-67 -48l-37 58l88 96h99z" />
<glyph unicode="&#xbd;" horiz-adv-x="913" d="M593 31l46 45q34 32 50.5 49.5t39 44t32.5 48.5t10 41q0 53 -53 53q-46 0 -88 -43l-41 58q67 60 141 60q59 0 94 -31.5t35 -89.5q0 -51 -39 -105t-130 -130h170v-71h-255zM216 -41h-75l512 803h74zM242 762v-420h-83v314l-67 -48l-37 58l86 96h101z" />
<glyph unicode="&#xbe;" horiz-adv-x="941" d="M759 116v183l-103 -183h103zM836 -40h-84v86h-153l-18 69l159 266h96v-262h52v-73h-52v-86zM246 -40h-74l511 802h69zM323 464q0 -57 -39 -92.5t-105 -35.5q-73 0 -132 40l35 62q45 -33 93 -33q29 0 46.5 15t17.5 46q0 61 -65 61h-48v66h33q36 0 52 13.5t16 42.5 q0 51 -57 51q-43 0 -82 -31l-35 58q41 23 68 32.5t62 9.5q59 0 93.5 -29t34.5 -84q0 -59 -47 -90q59 -22 59 -102z" />
<glyph unicode="&#xbf;" horiz-adv-x="428" d="M315 501q0 -30 -20 -47.5t-51 -17.5t-50 17.5t-19 47.5q0 29 19 47t50 18t51 -18t20 -47zM398 -84q-90 -63 -192 -63q-94 0 -144.5 49.5t-50.5 138.5q0 68 23 105.5t78 71.5l44 26q24 16 29 26.5t5 43.5v55h106v-77q0 -48 -11 -68.5t-47 -40.5l-41 -24 q-41 -23 -57.5 -44.5t-16.5 -64.5q0 -48 25 -74.5t73 -26.5q67 0 132 55z" />
<glyph unicode="&#xc0;" horiz-adv-x="616" d="M307 583h-4l-89 -323h183zM468 0l-48 160h-228l-47 -160h-124l215 693h140l218 -693h-126zM359 763l-165 115l98 50l130 -129z" />
<glyph unicode="&#xc1;" horiz-adv-x="616" d="M307 583h-4l-89 -323h183zM468 0l-48 160h-228l-47 -160h-124l215 693h140l218 -693h-126zM256 763l-62 36l129 129l98 -50z" />
<glyph unicode="&#xc2;" horiz-adv-x="616" d="M307 583h-4l-89 -323h183zM468 0l-48 160h-228l-47 -160h-124l215 693h140l218 -693h-126zM409 763l-102 60l-102 -61l-45 53l147 96l148 -96z" />
<glyph unicode="&#xc3;" horiz-adv-x="616" d="M307 583h-4l-89 -323h183zM468 0l-48 160h-228l-47 -160h-124l215 693h140l218 -693h-126zM478 858q-14 -36 -41.5 -57.5t-60.5 -21.5q-28 0 -71.5 21.5t-61.5 21.5q-36 0 -51 -46l-54 38q18 43 41.5 62.5t59.5 19.5q27 0 71 -21.5t61 -21.5q37 0 54 44z" />
<glyph unicode="&#xc4;" horiz-adv-x="616" d="M307 583h-4l-89 -323h183zM468 0l-48 160h-228l-47 -160h-124l215 693h140l218 -693h-126zM265 840q0 -25 -18.5 -43t-42.5 -18q-26 0 -43.5 17.5t-17.5 43.5t17.5 44t43.5 18q24 0 42.5 -18t18.5 -44zM472 840q0 -25 -18 -43t-44 -18q-25 0 -43 18t-18 43q0 26 18 44 t43 18q26 0 44 -18t18 -44z" />
<glyph unicode="&#xc5;" horiz-adv-x="616" d="M307 583h-4l-89 -323h183zM468 0l-48 160h-228l-47 -160h-124l215 693h140l218 -693h-126zM356 854q0 20 -14 34t-34 14t-34 -14t-14 -34t14 -34t34 -14t34 14t14 34zM400 854q0 -39 -26.5 -66t-65.5 -27q-38 0 -65.5 27.5t-27.5 65.5t27.5 66t65.5 28q39 0 65.5 -27.5 t26.5 -66.5z" />
<glyph unicode="&#xc6;" horiz-adv-x="904" d="M241 258h183v333h-51zM423 0v159h-219l-64 -159h-118l287 691h486v-100h-255v-181h230v-101h-230v-212h264v-97h-381z" />
<glyph unicode="&#xc7;" horiz-adv-x="621" d="M561 87q-96 -99 -218 -99q-96 0 -161 48.5t-92.5 127t-27.5 183.5q0 71 16.5 133.5t49 113t88.5 79.5t129 29q114 0 211 -97l-70 -81q-38 42 -68 60.5t-73 18.5q-80 0 -121 -67.5t-41 -188.5q0 -50 7.5 -93t25 -82t51 -62t79.5 -23q80 0 153 81zM398 -140 q0 -40 -26 -65.5t-69 -25.5q-48 0 -81 21l19 46q30 -16 50 -16q18 0 30 10.5t12 32.5q0 16 -9 27t-26 11q-16 0 -32 -9l-20 19l40 88h50l-25 -59l1 -1q7 3 23 3q30 0 46.5 -21.5t16.5 -60.5z" />
<glyph unicode="&#xc8;" horiz-adv-x="580" d="M124 0v691h370v-100h-254v-181h230v-101h-230v-212h264v-97h-380zM341 763l-165 115l98 50l130 -129z" />
<glyph unicode="&#xc9;" horiz-adv-x="580" d="M124 0v691h370v-100h-254v-181h230v-101h-230v-212h264v-97h-380zM238 763l-62 36l129 129l98 -50z" />
<glyph unicode="&#xca;" horiz-adv-x="580" d="M124 0v691h370v-100h-254v-181h230v-101h-230v-212h264v-97h-380zM391 763l-102 60l-102 -61l-45 53l147 96l148 -96z" />
<glyph unicode="&#xcb;" horiz-adv-x="580" d="M124 0v691h370v-100h-254v-181h230v-101h-230v-212h264v-97h-380zM247 840q0 -25 -18.5 -43t-42.5 -18q-26 0 -43.5 17.5t-17.5 43.5t17.5 44t43.5 18q24 0 42.5 -18t18.5 -44zM454 840q0 -25 -18 -43t-44 -18q-25 0 -43 18t-18 43q0 26 18 44t43 18q26 0 44 -18t18 -44z " />
<glyph unicode="&#xcc;" horiz-adv-x="380" d="M124 0v691h118v-691h-118zM241 763l-165 115l98 50l130 -129z" />
<glyph unicode="&#xcd;" horiz-adv-x="380" d="M124 0v691h118v-691h-118zM138 763l-62 36l129 129l98 -50z" />
<glyph unicode="&#xce;" horiz-adv-x="380" d="M124 0v691h118v-691h-118zM291 763l-102 60l-102 -61l-45 53l147 96l148 -96z" />
<glyph unicode="&#xcf;" horiz-adv-x="380" d="M124 0v691h118v-691h-118zM148 840q0 -25 -18.5 -43t-42.5 -18q-26 0 -43.5 17.5t-17.5 43.5t17.5 44t43.5 18q24 0 42.5 -18t18.5 -44zM355 840q0 -25 -18 -43t-44 -18q-25 0 -43 18t-18 43q0 26 18 44t43 18q26 0 44 -18t18 -44z" />
<glyph unicode="&#xd0;" horiz-adv-x="679" d="M234 316v-221h67q96 0 141.5 61t45.5 196q0 253 -170 253q-50 0 -84 -5v-196h107v-88h-107zM611 349q0 -164 -75 -256.5t-228 -92.5h-190v316h-60v88h60v282q84 12 195 12q147 0 222.5 -92t75.5 -257z" />
<glyph unicode="&#xd1;" horiz-adv-x="757" d="M518 0l-280 471v-471h-114v691h114l277 -476h3v476h112v-691h-112zM548 858q-14 -36 -41.5 -57.5t-60.5 -21.5q-28 0 -71.5 21.5t-61.5 21.5q-36 0 -51 -46l-54 38q18 43 41.5 62.5t59.5 19.5q27 0 71 -21.5t61 -21.5q37 0 54 44z" />
<glyph unicode="&#xd2;" horiz-adv-x="714" d="M522 346q0 124 -37.5 192t-128.5 68t-128.5 -68t-37.5 -192q0 -125 38 -193t130 -68q46 0 79 19t51 55.5t26 82t8 104.5zM644 346q0 -165 -73.5 -261.5t-214.5 -96.5q-142 0 -214.5 95.5t-72.5 262.5q0 164 72.5 260t214.5 96q141 0 214.5 -96t73.5 -260zM408 763 l-165 115l98 50l130 -129z" />
<glyph unicode="&#xd3;" horiz-adv-x="714" d="M522 346q0 124 -37.5 192t-128.5 68t-128.5 -68t-37.5 -192q0 -125 38 -193t130 -68q46 0 79 19t51 55.5t26 82t8 104.5zM644 346q0 -165 -73.5 -261.5t-214.5 -96.5q-142 0 -214.5 95.5t-72.5 262.5q0 164 72.5 260t214.5 96q141 0 214.5 -96t73.5 -260zM305 763l-62 36 l129 129l98 -50z" />
<glyph unicode="&#xd4;" horiz-adv-x="714" d="M522 346q0 124 -37.5 192t-128.5 68t-128.5 -68t-37.5 -192q0 -125 38 -193t130 -68q46 0 79 19t51 55.5t26 82t8 104.5zM644 346q0 -165 -73.5 -261.5t-214.5 -96.5q-142 0 -214.5 95.5t-72.5 262.5q0 164 72.5 260t214.5 96q141 0 214.5 -96t73.5 -260zM458 763 l-102 60l-102 -61l-45 53l147 96l148 -96z" />
<glyph unicode="&#xd5;" horiz-adv-x="714" d="M522 346q0 124 -37.5 192t-128.5 68t-128.5 -68t-37.5 -192q0 -125 38 -193t130 -68q46 0 79 19t51 55.5t26 82t8 104.5zM644 346q0 -165 -73.5 -261.5t-214.5 -96.5q-142 0 -214.5 95.5t-72.5 262.5q0 164 72.5 260t214.5 96q141 0 214.5 -96t73.5 -260zM527 858 q-14 -36 -41.5 -57.5t-60.5 -21.5q-28 0 -71.5 21.5t-61.5 21.5q-36 0 -51 -46l-54 38q18 43 41.5 62.5t59.5 19.5q27 0 71 -21.5t61 -21.5q37 0 54 44z" />
<glyph unicode="&#xd6;" horiz-adv-x="714" d="M522 346q0 124 -37.5 192t-128.5 68t-128.5 -68t-37.5 -192q0 -125 38 -193t130 -68q46 0 79 19t51 55.5t26 82t8 104.5zM644 346q0 -165 -73.5 -261.5t-214.5 -96.5q-142 0 -214.5 95.5t-72.5 262.5q0 164 72.5 260t214.5 96q141 0 214.5 -96t73.5 -260zM314 840 q0 -25 -18.5 -43t-42.5 -18q-26 0 -43.5 17.5t-17.5 43.5t17.5 44t43.5 18q24 0 42.5 -18t18.5 -44zM521 840q0 -25 -18 -43t-44 -18q-25 0 -43 18t-18 43q0 26 18 44t43 18q26 0 44 -18t18 -44z" />
<glyph unicode="&#xd7;" horiz-adv-x="527" d="M457 397l-125 -123l125 -123l-72 -72l-123 126l-123 -126l-72 72l126 123l-126 123l72 72l123 -125l123 125z" />
<glyph unicode="&#xd8;" horiz-adv-x="714" d="M522 346q0 124 -37.5 192t-128.5 68t-128.5 -68t-37.5 -192q0 -125 38 -193t130 -68q46 0 79 19t51 55.5t26 82t8 104.5zM644 346q0 -165 -73.5 -261.5t-214.5 -96.5q-142 0 -214.5 95.5t-72.5 262.5q0 164 72.5 260t214.5 96q141 0 214.5 -96t73.5 -260zM238 -119h-99 l334 843h102z" />
<glyph unicode="&#xd9;" horiz-adv-x="689" d="M582 280q0 -147 -54 -219.5t-184 -72.5q-133 0 -186 71.5t-53 220.5v411h116v-419q0 -93 25.5 -138.5t97.5 -45.5q71 0 95.5 45.5t24.5 138.5v419h118v-411zM395 763l-165 115l98 50l130 -129z" />
<glyph unicode="&#xda;" horiz-adv-x="689" d="M582 280q0 -147 -54 -219.5t-184 -72.5q-133 0 -186 71.5t-53 220.5v411h116v-419q0 -93 25.5 -138.5t97.5 -45.5q71 0 95.5 45.5t24.5 138.5v419h118v-411zM293 763l-62 36l129 129l98 -50z" />
<glyph unicode="&#xdb;" horiz-adv-x="689" d="M582 280q0 -147 -54 -219.5t-184 -72.5q-133 0 -186 71.5t-53 220.5v411h116v-419q0 -93 25.5 -138.5t97.5 -45.5q71 0 95.5 45.5t24.5 138.5v419h118v-411zM446 763l-102 60l-102 -61l-45 53l147 96l148 -96z" />
<glyph unicode="&#xdc;" horiz-adv-x="689" d="M582 280q0 -147 -54 -219.5t-184 -72.5q-133 0 -186 71.5t-53 220.5v411h116v-419q0 -93 25.5 -138.5t97.5 -45.5q71 0 95.5 45.5t24.5 138.5v419h118v-411zM302 840q0 -25 -18.5 -43t-42.5 -18q-26 0 -43.5 17.5t-17.5 43.5t17.5 44t43.5 18q24 0 42.5 -18t18.5 -44z M509 840q0 -25 -18 -43t-44 -18q-25 0 -43 18t-18 43q0 26 18 44t43 18q26 0 44 -18t18 -44z" />
<glyph unicode="&#xdd;" horiz-adv-x="547" d="M332 268v-268h-117v263l-205 428h127l137 -322l137 322h125zM222 763l-62 36l129 129l98 -50z" />
<glyph unicode="&#xde;" horiz-adv-x="570" d="M452 347q0 71 -27 99t-95 28q-32 0 -90 -5v-249h91q66 0 93.5 25.5t27.5 101.5zM124 0v691h116v-125q54 2 85 2q118 0 181.5 -51t63.5 -169q0 -112 -53.5 -168t-167.5 -56h-109v-124h-116z" />
<glyph unicode="&#xdf;" horiz-adv-x="596" d="M545 195q0 -99 -53 -147t-146 -48h-51v89q32 0 55 4t44 14.5t32 32.5t11 55q0 60 -36 96t-120 67l-11 70q58 61 76 89.5t18 69.5t-16.5 63t-56.5 22q-38 0 -53 -22t-15 -72v-578h-114v455h-66v95h66v25q0 85 40 134t142 49q178 0 178 -164q0 -51 -19.5 -88.5t-67.5 -82.5 v-2q84 -44 123.5 -93t39.5 -133z" />
<glyph unicode="&#xe0;" horiz-adv-x="599" d="M385 291q-202 0 -202 -127q0 -96 77 -96q64 0 125 58v165zM460 -7q-28 9 -43.5 23t-21.5 42h-3q-70 -70 -166 -70q-74 0 -114.5 46.5t-40.5 122.5q0 48 19.5 85.5t50 60.5t73 37t84 19.5t87.5 5.5v20q0 54 -15.5 78t-63.5 24q-90 0 -183 -53l-29 85q104 56 219 56 q103 0 144 -47.5t41 -147.5v-251q0 -33 6 -46t28 -27zM350 629l-165 115l98 50l130 -129z" />
<glyph unicode="&#xe1;" horiz-adv-x="599" d="M385 291q-202 0 -202 -127q0 -96 77 -96q64 0 125 58v165zM460 -7q-28 9 -43.5 23t-21.5 42h-3q-70 -70 -166 -70q-74 0 -114.5 46.5t-40.5 122.5q0 48 19.5 85.5t50 60.5t73 37t84 19.5t87.5 5.5v20q0 54 -15.5 78t-63.5 24q-90 0 -183 -53l-29 85q104 56 219 56 q103 0 144 -47.5t41 -147.5v-251q0 -33 6 -46t28 -27zM248 629l-62 36l129 129l98 -50z" />
<glyph unicode="&#xe2;" horiz-adv-x="599" d="M385 291q-202 0 -202 -127q0 -96 77 -96q64 0 125 58v165zM460 -7q-28 9 -43.5 23t-21.5 42h-3q-70 -70 -166 -70q-74 0 -114.5 46.5t-40.5 122.5q0 48 19.5 85.5t50 60.5t73 37t84 19.5t87.5 5.5v20q0 54 -15.5 78t-63.5 24q-90 0 -183 -53l-29 85q104 56 219 56 q103 0 144 -47.5t41 -147.5v-251q0 -33 6 -46t28 -27zM401 629l-102 60l-102 -61l-45 53l147 96l148 -96z" />
<glyph unicode="&#xe3;" horiz-adv-x="599" d="M385 291q-202 0 -202 -127q0 -96 77 -96q64 0 125 58v165zM460 -7q-28 9 -43.5 23t-21.5 42h-3q-70 -70 -166 -70q-74 0 -114.5 46.5t-40.5 122.5q0 48 19.5 85.5t50 60.5t73 37t84 19.5t87.5 5.5v20q0 54 -15.5 78t-63.5 24q-90 0 -183 -53l-29 85q104 56 219 56 q103 0 144 -47.5t41 -147.5v-251q0 -33 6 -46t28 -27zM469 724q-14 -36 -41.5 -57.5t-60.5 -21.5q-28 0 -71.5 21.5t-61.5 21.5q-36 0 -51 -46l-54 38q18 43 41.5 62.5t59.5 19.5q27 0 71 -21.5t61 -21.5q37 0 54 44z" />
<glyph unicode="&#xe4;" horiz-adv-x="599" d="M385 291q-202 0 -202 -127q0 -96 77 -96q64 0 125 58v165zM460 -7q-28 9 -43.5 23t-21.5 42h-3q-70 -70 -166 -70q-74 0 -114.5 46.5t-40.5 122.5q0 48 19.5 85.5t50 60.5t73 37t84 19.5t87.5 5.5v20q0 54 -15.5 78t-63.5 24q-90 0 -183 -53l-29 85q104 56 219 56 q103 0 144 -47.5t41 -147.5v-251q0 -33 6 -46t28 -27zM257 706q0 -25 -18.5 -43t-42.5 -18q-26 0 -43.5 17.5t-17.5 43.5t17.5 44t43.5 18q24 0 42.5 -18t18.5 -44zM464 706q0 -25 -18 -43t-44 -18q-25 0 -43 18t-18 43q0 26 18 44t43 18q26 0 44 -18t18 -44z" />
<glyph unicode="&#xe5;" horiz-adv-x="599" d="M385 291q-202 0 -202 -127q0 -96 77 -96q64 0 125 58v165zM460 -7q-28 9 -43.5 23t-21.5 42h-3q-70 -70 -166 -70q-74 0 -114.5 46.5t-40.5 122.5q0 48 19.5 85.5t50 60.5t73 37t84 19.5t87.5 5.5v20q0 54 -15.5 78t-63.5 24q-90 0 -183 -53l-29 85q104 56 219 56 q103 0 144 -47.5t41 -147.5v-251q0 -33 6 -46t28 -27zM348 720q0 20 -14 34t-34 14t-34 -14t-14 -34t14 -34t34 -14t34 14t14 34zM392 720q0 -39 -26.5 -66t-65.5 -27q-38 0 -65.5 27.5t-27.5 65.5t27.5 66t65.5 28q39 0 65.5 -27.5t26.5 -66.5z" />
<glyph unicode="&#xe6;" horiz-adv-x="954" d="M405 291q-203 0 -203 -127q0 -44 20.5 -70t55.5 -26q64 0 127 59v164zM762 326q-4 77 -29 119.5t-87 42.5q-58 0 -90 -40.5t-33 -121.5h239zM869 284v-14q0 -18 -2 -27h-344q5 -162 137 -162q74 0 141 49l35 -86q-85 -56 -182 -56q-130 0 -191 93q-74 -93 -204 -93 q-80 0 -124 46t-44 123q0 108 86.5 159t229.5 51v17q0 53 -14.5 76t-66.5 23q-82 0 -184 -53l-30 89q105 56 221 56q114 0 154 -64q60 66 160 66q106 0 164 -72t58 -221z" />
<glyph unicode="&#xe7;" horiz-adv-x="633" d="M475 430q-52 53 -120 53q-38 0 -65.5 -18t-41 -49.5t-19.5 -63.5t-6 -68q0 -38 6 -71.5t19.5 -65t41 -50t65.5 -18.5q68 0 132 51l36 -84q-82 -58 -177 -58q-123 0 -181.5 83t-58.5 211t61 210.5t185 82.5q93 0 169 -58zM404 -140q0 -40 -26 -65.5t-69 -25.5 q-48 0 -81 21l19 46q30 -16 50 -16q18 0 30 10.5t12 32.5q0 16 -9 27t-26 11q-16 0 -32 -9l-20 19l40 88h50l-25 -59l1 -1q7 3 23 3q30 0 46.5 -21.5t16.5 -60.5z" />
<glyph unicode="&#xe8;" horiz-adv-x="590" d="M418 323q-3 79 -26 122t-84 43q-59 0 -92 -42.5t-33 -122.5h235zM525 287v-21q0 -9 -2 -25h-340q0 -162 134 -162q73 0 143 48l36 -86q-83 -53 -184 -53q-119 0 -182.5 77.5t-63.5 216.5q0 143 65.5 218t174.5 75q219 0 219 -288zM346 629l-165 115l98 50l130 -129z" />
<glyph unicode="&#xe9;" horiz-adv-x="590" d="M418 323q-3 79 -26 122t-84 43q-59 0 -92 -42.5t-33 -122.5h235zM525 287v-21q0 -9 -2 -25h-340q0 -162 134 -162q73 0 143 48l36 -86q-83 -53 -184 -53q-119 0 -182.5 77.5t-63.5 216.5q0 143 65.5 218t174.5 75q219 0 219 -288zM243 629l-62 36l129 129l98 -50z" />
<glyph unicode="&#xea;" horiz-adv-x="590" d="M418 323q-3 79 -26 122t-84 43q-59 0 -92 -42.5t-33 -122.5h235zM525 287v-21q0 -9 -2 -25h-340q0 -162 134 -162q73 0 143 48l36 -86q-83 -53 -184 -53q-119 0 -182.5 77.5t-63.5 216.5q0 143 65.5 218t174.5 75q219 0 219 -288zM396 629l-102 60l-102 -61l-45 53 l147 96l148 -96z" />
<glyph unicode="&#xeb;" horiz-adv-x="590" d="M418 323q-3 79 -26 122t-84 43q-59 0 -92 -42.5t-33 -122.5h235zM525 287v-21q0 -9 -2 -25h-340q0 -162 134 -162q73 0 143 48l36 -86q-83 -53 -184 -53q-119 0 -182.5 77.5t-63.5 216.5q0 143 65.5 218t174.5 75q219 0 219 -288zM252 706q0 -25 -18.5 -43t-42.5 -18 q-26 0 -43.5 17.5t-17.5 43.5t17.5 44t43.5 18q24 0 42.5 -18t18.5 -44zM459 706q0 -25 -18 -43t-44 -18q-25 0 -43 18t-18 43q0 26 18 44t43 18q26 0 44 -18t18 -44z" />
<glyph unicode="&#xec;" horiz-adv-x="378" d="M124 0v564h115v-564h-115zM240 629l-165 115l98 50l130 -129z" />
<glyph unicode="&#xed;" horiz-adv-x="378" d="M124 0v564h115v-564h-115zM137 629l-62 36l129 129l98 -50z" />
<glyph unicode="&#xee;" horiz-adv-x="378" d="M124 0v564h115v-564h-115zM290 629l-102 60l-102 -61l-45 53l147 96l148 -96z" />
<glyph unicode="&#xef;" horiz-adv-x="378" d="M124 0v564h115v-564h-115zM147 706q0 -25 -18.5 -43t-42.5 -18q-26 0 -43.5 17.5t-17.5 43.5t17.5 44t43.5 18q24 0 42.5 -18t18.5 -44zM354 706q0 -25 -18 -43t-44 -18q-25 0 -43 18t-18 43q0 26 18 44t43 18q26 0 44 -18t18 -44z" />
<glyph unicode="&#xf0;" horiz-adv-x="582" d="M384 282q0 43 -5 76t-18 63t-38.5 46t-62.5 16q-38 0 -63.5 -16t-38.5 -45.5t-18 -62.5t-5 -77q0 -100 27.5 -151.5t97.5 -51.5q69 0 96.5 52t27.5 151zM412 653q88 -190 88 -371q0 -137 -61 -215.5t-179 -78.5q-119 0 -180.5 78t-61.5 216q0 132 58 211.5t162 79.5 q85 0 118 -58h4q-12 45 -35 101l-47 -21l-32 71l49 22q-9 24 -26 59l83 35q7 -14 27 -57l85 38l33 -72z" />
<glyph unicode="&#xf1;" horiz-adv-x="667" d="M439 0v322q0 29 -0.5 43.5t-3 36.5t-8 33t-15.5 23t-26 16.5t-38 4.5q-110 0 -110 -134v-345h-114v564h100l9 -60h2q43 71 145 71q99 0 136 -57.5t37 -179.5v-338h-114zM503 724q-14 -36 -41.5 -57.5t-60.5 -21.5q-28 0 -71.5 21.5t-61.5 21.5q-36 0 -51 -46l-54 38 q18 43 41.5 62.5t59.5 19.5q27 0 71 -21.5t61 -21.5q37 0 54 44z" />
<glyph unicode="&#xf2;" d="M435 282q0 43 -5 76t-18 63t-38.5 46t-62.5 16q-38 0 -63.5 -16t-38.5 -45.5t-18 -62.5t-5 -77q0 -100 27.5 -151.5t97.5 -51.5q69 0 96.5 52t27.5 151zM551 282q0 -137 -61 -215.5t-179 -78.5q-119 0 -180.5 78t-61.5 216q0 135 61 214t181 79q118 0 179 -78t61 -215z M362 629l-165 115l98 50l130 -129z" />
<glyph unicode="&#xf3;" d="M435 282q0 43 -5 76t-18 63t-38.5 46t-62.5 16q-38 0 -63.5 -16t-38.5 -45.5t-18 -62.5t-5 -77q0 -100 27.5 -151.5t97.5 -51.5q69 0 96.5 52t27.5 151zM551 282q0 -137 -61 -215.5t-179 -78.5q-119 0 -180.5 78t-61.5 216q0 135 61 214t181 79q118 0 179 -78t61 -215z M259 629l-62 36l129 129l98 -50z" />
<glyph unicode="&#xf4;" d="M435 282q0 43 -5 76t-18 63t-38.5 46t-62.5 16q-38 0 -63.5 -16t-38.5 -45.5t-18 -62.5t-5 -77q0 -100 27.5 -151.5t97.5 -51.5q69 0 96.5 52t27.5 151zM551 282q0 -137 -61 -215.5t-179 -78.5q-119 0 -180.5 78t-61.5 216q0 135 61 214t181 79q118 0 179 -78t61 -215z M412 629l-102 60l-102 -61l-45 53l147 96l148 -96z" />
<glyph unicode="&#xf5;" d="M435 282q0 43 -5 76t-18 63t-38.5 46t-62.5 16q-38 0 -63.5 -16t-38.5 -45.5t-18 -62.5t-5 -77q0 -100 27.5 -151.5t97.5 -51.5q69 0 96.5 52t27.5 151zM551 282q0 -137 -61 -215.5t-179 -78.5q-119 0 -180.5 78t-61.5 216q0 135 61 214t181 79q118 0 179 -78t61 -215z M481 724q-14 -36 -41.5 -57.5t-60.5 -21.5q-28 0 -71.5 21.5t-61.5 21.5q-36 0 -51 -46l-54 38q18 43 41.5 62.5t59.5 19.5q27 0 71 -21.5t61 -21.5q37 0 54 44z" />
<glyph unicode="&#xf6;" d="M435 282q0 43 -5 76t-18 63t-38.5 46t-62.5 16q-38 0 -63.5 -16t-38.5 -45.5t-18 -62.5t-5 -77q0 -100 27.5 -151.5t97.5 -51.5q69 0 96.5 52t27.5 151zM551 282q0 -137 -61 -215.5t-179 -78.5q-119 0 -180.5 78t-61.5 216q0 135 61 214t181 79q118 0 179 -78t61 -215z M268 706q0 -25 -18.5 -43t-42.5 -18q-26 0 -43.5 17.5t-17.5 43.5t17.5 44t43.5 18q24 0 42.5 -18t18.5 -44zM475 706q0 -25 -18 -43t-44 -18q-25 0 -43 18t-18 43q0 26 18 44t43 18q26 0 44 -18t18 -44z" />
<glyph unicode="&#xf8;" d="M435 282q0 43 -5 76t-18 63t-38.5 46t-62.5 16q-38 0 -63.5 -16t-38.5 -45.5t-18 -62.5t-5 -77q0 -100 27.5 -151.5t97.5 -51.5q69 0 96.5 52t27.5 151zM551 282q0 -137 -61 -215.5t-179 -78.5q-119 0 -180.5 78t-61.5 216q0 135 61 214t181 79q118 0 179 -78t61 -215z M192 -119h-99l334 843h102z" />
<glyph unicode="&#xf9;" horiz-adv-x="662" d="M430 0l-7 59h-2q-48 -71 -146 -71q-86 0 -125 49t-39 167v360h114v-326q0 -32 1 -52t6 -42t14.5 -33.5t26 -19.5t41.5 -8q58 0 82 34t24 105v342h115v-564h-105zM382 629l-165 115l98 50l130 -129z" />
<glyph unicode="&#xfa;" horiz-adv-x="662" d="M430 0l-7 59h-2q-48 -71 -146 -71q-86 0 -125 49t-39 167v360h114v-326q0 -32 1 -52t6 -42t14.5 -33.5t26 -19.5t41.5 -8q58 0 82 34t24 105v342h115v-564h-105zM279 629l-62 36l129 129l98 -50z" />
<glyph unicode="&#xfb;" horiz-adv-x="662" d="M430 0l-7 59h-2q-48 -71 -146 -71q-86 0 -125 49t-39 167v360h114v-326q0 -32 1 -52t6 -42t14.5 -33.5t26 -19.5t41.5 -8q58 0 82 34t24 105v342h115v-564h-105zM432 629l-102 60l-102 -61l-45 53l147 96l148 -96z" />
<glyph unicode="&#xfc;" horiz-adv-x="662" d="M430 0l-7 59h-2q-48 -71 -146 -71q-86 0 -125 49t-39 167v360h114v-326q0 -32 1 -52t6 -42t14.5 -33.5t26 -19.5t41.5 -8q58 0 82 34t24 105v342h115v-564h-105zM288 706q0 -25 -18.5 -43t-42.5 -18q-26 0 -43.5 17.5t-17.5 43.5t17.5 44t43.5 18q24 0 42.5 -18t18.5 -44 zM495 706q0 -25 -18 -43t-44 -18q-25 0 -43 18t-18 43q0 26 18 44t43 18q26 0 44 -18t18 -44z" />
<glyph unicode="&#xfd;" horiz-adv-x="545" d="M357 -33q-35 -104 -71.5 -145.5t-110.5 -41.5q-35 0 -69 5v96q12 -3 48 -3q37 0 53.5 14.5t29.5 61.5l12 42l-181 568h121l118 -444h2l114 444h119zM221 629l-62 36l129 129l98 -50z" />
<glyph unicode="&#xfe;" horiz-adv-x="573" d="M398 282q0 26 -1 44.5t-4.5 45t-11 44t-19.5 35t-32 26t-46 8.5q-54 0 -80.5 -34.5t-26.5 -90.5v-140q0 -62 25.5 -103t82.5 -41q113 0 113 206zM514 284q0 -54 -10 -103t-32.5 -94t-64.5 -72t-99 -27q-87 0 -127 66h-2v-267h-114v962h109v-245q46 71 136 71 q57 0 99 -26.5t64 -71t31.5 -92t9.5 -101.5z" />
<glyph unicode="&#xff;" horiz-adv-x="545" d="M357 -33q-35 -104 -71.5 -145.5t-110.5 -41.5q-35 0 -69 5v96q12 -3 48 -3q37 0 53.5 14.5t29.5 61.5l12 42l-181 568h121l118 -444h2l114 444h119zM230 706q0 -25 -18.5 -43t-42.5 -18q-26 0 -43.5 17.5t-17.5 43.5t17.5 44t43.5 18q24 0 42.5 -18t18.5 -44zM437 706 q0 -25 -18 -43t-44 -18q-25 0 -43 18t-18 43q0 26 18 44t43 18q26 0 44 -18t18 -44z" />
<glyph unicode="&#x131;" horiz-adv-x="378" d="M124 0v564h115v-564h-115z" />
<glyph unicode="&#x152;" horiz-adv-x="1016" d="M543 346q0 123 -38.5 190.5t-129.5 67.5q-172 0 -172 -258q0 -259 172 -259q168 0 168 259zM547 0v79q-21 -41 -68.5 -65t-104.5 -24q-142 0 -216 95t-74 261q0 164 74 260t216 96q56 0 101.5 -23t71.5 -64v76h371v-100h-255v-181h230v-99h-230v-214h265v-97h-381z" />
<glyph unicode="&#x153;" horiz-adv-x="1038" d="M469 271q0 88 -25.5 138.5t-91.5 50.5q-68 0 -93 -50t-25 -139q0 -97 28 -143.5t90 -46.5q61 0 89 46.5t28 143.5zM811 314q0 153 -107 153q-118 0 -118 -153h225zM918 272v-18q0 -15 -1 -23h-331q2 -152 129 -152q62 0 136 48l35 -86q-87 -53 -176 -53q-124 0 -183 90 q-55 -90 -175 -90q-114 0 -174 74t-60 209q0 133 59.5 208t174.5 75t175 -87q57 88 175 88q101 0 158.5 -71t57.5 -212z" />
<glyph unicode="&#x178;" horiz-adv-x="547" d="M332 268v-268h-117v263l-205 428h127l137 -322l137 322h125zM231 840q0 -25 -18.5 -43t-42.5 -18q-26 0 -43.5 17.5t-17.5 43.5t17.5 44t43.5 18q24 0 42.5 -18t18.5 -44zM438 840q0 -25 -18 -43t-44 -18q-25 0 -43 18t-18 43q0 26 18 44t43 18q26 0 44 -18t18 -44z" />
<glyph unicode="&#x2c6;" horiz-adv-x="340" d="M270 629l-102 60l-102 -61l-45 53l147 96l148 -96z" />
<glyph unicode="&#x2da;" horiz-adv-x="311" d="M201 720q0 20 -14 34t-34 14t-34 -14t-14 -34t14 -34t34 -14t34 14t14 34zM245 720q0 -39 -26.5 -66t-65.5 -27q-38 0 -65.5 27.5t-27.5 65.5t27.5 66t65.5 28q39 0 65.5 -27.5t26.5 -66.5z" />
<glyph unicode="&#x2dc;" horiz-adv-x="481" d="M412 724q-14 -36 -41.5 -57.5t-60.5 -21.5q-28 0 -71.5 21.5t-61.5 21.5q-36 0 -51 -46l-54 38q18 43 41.5 62.5t59.5 19.5q27 0 71 -21.5t61 -21.5q37 0 54 44z" />
<glyph unicode="&#x2000;" horiz-adv-x="474" />
<glyph unicode="&#x2001;" horiz-adv-x="948" />
<glyph unicode="&#x2002;" horiz-adv-x="474" />
<glyph unicode="&#x2003;" horiz-adv-x="948" />
<glyph unicode="&#x2004;" horiz-adv-x="316" />
<glyph unicode="&#x2005;" horiz-adv-x="237" />
<glyph unicode="&#x2006;" horiz-adv-x="158" />
<glyph unicode="&#x2007;" horiz-adv-x="158" />
<glyph unicode="&#x2008;" horiz-adv-x="118" />
<glyph unicode="&#x2009;" horiz-adv-x="189" />
<glyph unicode="&#x200a;" horiz-adv-x="52" />
<glyph unicode="&#x2010;" horiz-adv-x="489" d="M124 247v112h234v-112h-234z" />
<glyph unicode="&#x2011;" horiz-adv-x="489" d="M124 247v112h234v-112h-234z" />
<glyph unicode="&#x2013;" horiz-adv-x="673" d="M124 307v94h421v-94h-421z" />
<glyph unicode="&#x2014;" horiz-adv-x="1093" d="M124 252v95h843v-95h-843z" />
<glyph unicode="&#x2018;" horiz-adv-x="394" d="M238 502h-127l85 222h75z" />
<glyph unicode="&#x2019;" horiz-adv-x="225" d="M136 502h-73l32 222h125z" />
<glyph unicode="&#x201a;" horiz-adv-x="222" d="M133 -153h-74l33 222h125z" />
<glyph unicode="&#x201c;" horiz-adv-x="505" d="M177 502h-126l85 222h74zM377 502h-126l86 222h74z" />
<glyph unicode="&#x201d;" horiz-adv-x="503" d="M167 502h-74l33 222h126zM367 502h-74l34 222h125z" />
<glyph unicode="&#x201e;" horiz-adv-x="505" d="M168 -153h-75l34 222h125zM368 -153h-74l34 222h125z" />
<glyph unicode="&#x2022;" horiz-adv-x="451" d="M390 340q0 -68 -49 -116t-117 -48t-116 48t-48 116q0 69 48 117.5t116 48.5t117 -48.5t49 -117.5z" />
<glyph unicode="&#x2026;" horiz-adv-x="851" d="M739 55q0 -29 -18.5 -47t-48.5 -20q-30 0 -49.5 18t-19.5 48q0 29 19 46.5t50 17.5h2q29 0 47 -17.5t18 -45.5zM493 55q0 -29 -19 -47t-49 -20q-30 0 -49.5 18t-19.5 48q0 29 19 46.5t49 17.5h2q30 0 48.5 -17.5t18.5 -45.5zM245 55v-2q0 -28 -19 -45.5t-48 -19.5 q-30 0 -49 18t-19 48t19 47t49 17h2q29 0 47 -17.5t18 -45.5z" />
<glyph unicode="&#x202f;" horiz-adv-x="189" />
<glyph unicode="&#x2039;" horiz-adv-x="252" d="M116 108l-116 206l116 206l82 -42l-94 -164l94 -165z" />
<glyph unicode="&#x203a;" horiz-adv-x="247" d="M131 108l-82 41l94 165l-94 164l82 42l115 -206z" />
<glyph unicode="&#x205f;" horiz-adv-x="237" />
<glyph unicode="&#x20ac;" horiz-adv-x="632" d="M20 233l19 68h55q-1 8 -1 23v43q0 14 1 21h-65l19 68h53q17 111 79 178.5t173 67.5q113 0 210 -97l-70 -75q-65 77 -142 77q-114 0 -134 -151h235l-19 -68h-223q-1 -7 -1 -21v-43q0 -16 1 -23h217l-20 -68h-189q11 -70 41 -109.5t92 -39.5q83 0 155 78l60 -76 q-90 -98 -216 -98q-214 0 -249 245h-81z" />
<glyph unicode="&#x2122;" horiz-adv-x="733" d="M210 672v-205h-62v205h-73v52h207v-52h-72zM547 467v152l-73 -111l-74 111v-152h-60v257h56l78 -116l77 116h55v-257h-59z" />
<glyph horiz-adv-x="414" />
</font>
</defs>
</svg>
