<?xml version="1.0" standalone="no"?>
<!DOCTYPE svg PUBLIC "-//W3C//DTD SVG 1.1//EN" "http://www.w3.org/Graphics/SVG/1.1/DTD/svg11.dtd" >
<svg xmlns="http://www.w3.org/2000/svg">
<metadata>
This is a custom SVG webfont generated by Font Squirrel.
Designer    : Michael D. Adams
Foundry     : Michael D. Adams
</metadata>
<defs>
<font id="webfontk3bDAC8H" horiz-adv-x="495" >
<font-face units-per-em="1000" ascent="800" descent="-200" />
<missing-glyph horiz-adv-x="278" />
<glyph unicode=" "  horiz-adv-x="278" />
<glyph unicode="&#x09;" horiz-adv-x="278" />
<glyph unicode="&#xa0;" horiz-adv-x="278" />
<glyph unicode="!" horiz-adv-x="368" d="M107 54q0 13 12 41q33 24 66 24q32 0 54 -16.5t22 -48.5q0 -33 -22 -49.5t-56 -16.5t-55 16.5t-21 49.5zM119 195v475h114v-475h-114z" />
<glyph unicode="&#x22;" horiz-adv-x="581" d="M103 459l35 223h133q-6 -18 -42 -104.5t-47 -118.5h-79zM309 459l37 223h132v-2q-4 -5 -24 -61l-40 -108q-21 -52 -27 -52h-78z" />
<glyph unicode="#" horiz-adv-x="722" d="M173 118l18 127h-103l12 88h101l17 128h-106l14 89h103l19 122h92l-14 -121h115l20 121h92l-16 -122h97l-14 -89h-95l-18 -128h101l-13 -88h-103l-19 -127h-95l18 126h-112l-17 -126h-94zM428 460h-116l-14 -126h111l9 57q4 26 6 37t3 19t1 13z" />
<glyph unicode="$" horiz-adv-x="573" d="M235 32q-122 18 -160 56v-1v3q0 4 3 7q34 81 37 84l3 -1q2 -1 4 -1q89 -56 161 -56q100 0 100 74q0 26 -22.5 49t-48 36t-69 32.5t-61.5 29.5q-95 51 -95 145q0 134 148 160v74h111v-74q85 -15 129 -40v-2q-6 -23 -19 -58.5t-19 -35.5q-30 16 -47.5 23.5t-42 13.5 t-51.5 6q-91 0 -91 -61q0 -14 5 -24.5t16 -19t19 -13t23.5 -11.5t20.5 -9q14 -7 50.5 -24t51.5 -25t41 -26.5t37 -35t20.5 -43.5t9.5 -59q0 -77 -38 -116.5t-115 -56.5v-79h-111v79z" />
<glyph unicode="%" horiz-adv-x="760" d="M613 705h-30l-31 -44l-4 -4l-51 -69q-9 -9 -18 -25l-15 -17q-1 -5 -12 -16l-28 -41q-1 -1 -9 -10l-38 -52q-9 -8 -23 -30l-12 -18q-19 -19 -32 -42l-43 -59q-8 -6 -17 -22l-8 -9q-8 -8 -17 -23l-16 -21q-2 -4 -9 -11l-7 -11q-13 -13 -36 -48l-47 -62q-6 -11 -18 -24 l-24 -34q-2 -3 -7 -13h77q3 7 10 14l23 33l2 2q1 1 1 2l37 51q14 10 31 40l88 119q21 21 33 43l4 4q2 5 8 10l5 11l9 8l21 31q12 12 30 40l35 46q2 3 9.5 11t13.5 17t10 18l42 56q7 0 15 21l20 22l9 13q6 10 15 21l22 28l2 7q5 5 15 19l12 14q-25 5 -31 5q-9 0 -16 -1z M314 539q-5 150 -129 157q-54 -7 -83.5 -49.5t-29.5 -114.5q0 -37 10.5 -71.5t38.5 -61.5t70 -27q62 0 92.5 47t30.5 120zM129 586q11 45 57 61q41 -7 58.5 -36t17.5 -84q0 -39 -17 -73t-47 -34q-73 0 -73 108q0 30 4 58zM639 224q-14 108 -127 111q-108 -29 -108 -162 q0 -78 32.5 -121.5t80.5 -43.5q63 0 96 45t33 116q0 35 -7 55zM461 216q8 47 54 68q43 -3 62 -31t19 -85q0 -43 -17.5 -76t-48.5 -33q-72 0 -72 110q0 21 3 47z" />
<glyph unicode="&#x26;" horiz-adv-x="598" d="M422 551q-32 120 -166 120q-54 0 -97 -52.5t-43 -114.5q0 -55 33 -112q-105 -56 -105 -181q0 -78 62.5 -143t151.5 -65q67 0 147 44q46 -46 108 -46q61 0 61 15q0 7 -5 39l-2 10q0 18 -7 44l2 5q-13 -7 -33 -7q-24 0 -50 14q59 77 71 180h-110q-1 -45 -30 -89 q-9 20 -26 37l-6 10q-5 5 -9 14l-11 12q-10 17 -16 23l-19 27q-6 10 -14 18l1 6q65 25 89.5 68t24.5 116q0 2 -2 8zM222 533q6 14 19 26.5t27 12.5q37 0 55 -39q-4 -61 -68 -86l-11 -2q-25 25 -25 61q0 12 3 27zM169 156q-20 35 -20 65q0 53 55 96h5q7 -20 33 -48l13 -15 q8 -16 24 -35l31 -45q1 -2 9 -12t15 -20l4 -7q-40 -28 -78 -28q-49 0 -91 49z" />
<glyph unicode="'" horiz-adv-x="185" d="M158 630q-13 61 -79 61q-23 0 -36 -17.5t-13 -39.5q0 -16 11 -27.5t23.5 -16t23.5 -12.5t11 -19q-26 -17 -58 -19l2 -35q115 0 115 111v14z" />
<glyph unicode="(" horiz-adv-x="498" d="M326 778l-6 4q-118 -70 -186 -186t-68 -262q0 -275 254 -446q17 15 46 67l11 17q-196 130 -196 377q0 207 196 345q-7 16 -24 42z" />
<glyph unicode=")" horiz-adv-x="498" d="M431 304q1 11 1 34q0 279 -256 444q-10 -13 -20 -34l-18 -24q-7 -7 -10 -17l-7 -13q93 -59 145 -150.5t52 -209.5q0 -216 -197 -362l35 -52q0 -10 22 -32q226 135 253 416z" />
<glyph unicode="*" horiz-adv-x="474" d="M113 453q11 15 38 40t34 33l-105 12l28 86q1 2 7 2l79 -40q2 0 5.5 -1t4.5 -1v7l-19 91h103l-18 -99l89 43q9 0 35 -84q0 -4 -2 -4l-100 -12q8 -9 33.5 -32t36.5 -38q0 -5 -3 -7l-67 -46q0 -1 -2 -2t-3 -1l-1 -1q-3 0 -3 4l-44 86l-3 -3q-1 -1 -10 -20.5t-11 -20.5 l-23 -47h-4q-1 0 -2 1.5t-3 3.5q-2 1 -23 14t-34 22.5t-13 13.5z" />
<glyph unicode="+" horiz-adv-x="579" d="M236 289h-162v105h162v155h107v-155h162v-105h-162v-166h-107v166z" />
<glyph unicode="," horiz-adv-x="310" d="M161 32q-9 68 -80 70q-44 -9 -50 -56q8 -50 65 -56q3 -8 3 -18q-23 -20 -57 -20l2 -32v-5h8q108 0 109 117z" />
<glyph unicode="-" horiz-adv-x="311" d="M45 339h-12v-99h21h172l13 2v97h-194z" />
<glyph unicode="." horiz-adv-x="251" d="M176 51q-10 47 -64 55q-58 -9 -63 -72q12 -57 65 -57q4 0 18 2q44 15 44 62v10z" />
<glyph unicode="/" horiz-adv-x="369" d="M286 674q-8 5 -19 8q-5 -11 -10 -37l-4 -5v-6l-3 -4l-2 -7l-8 -30l-2 -7q-8 -22 -9 -28l-2 -3l-2 -4l-1 -5l-4 -11l-4 -13l-1 -8l-7 -21q-4 -11 -5 -14l-2 -12l-5 -11l-5 -20q-3 -6 -6 -15l-3 -13q-6 -12 -9 -29l-2 -3l-2 -7q-3 -11 -4 -14l-4 -14q-5 -9 -9 -28l-2 -3 l-2 -4l-3 -12l-2 -10l-5 -11l-6 -21l-1 -5q-1 -5 -3 -9l-2 -5l-2 -6v-4l-1 -6l-4 -5l-5 -20l-4 -11l-9 -27l-8 -30l-4 -7l-1 -5l-2 -5v-5l-4 -9l-9 -29l-3 -13l-6 -13q-2 -10 -9 -27v-7l-2 -5q-4 -4 -7 -25l-2 -4l-2 -3v-5l-4 -5l-1 -7l-2 -9l-5 -13q-2 -10 -9 -27v-6l-2 -3 q-2 -10 -5 -14l-1 -5l-4 -13q4 -1 28 -8l9 -3l5 -2l8 -4q16 -3 40 -12h6q1 8 7 24l2 5l1 8q2 7 6 14l2 5l1 12l4 5q1 4 8 28l2 9l3 7l4 13l3 13l2 4l4 9q2 10 5 17l6 19l4 17l4 13l3 11q0 1 1 3t2.5 4.5t2.5 5.5l1 5l4 15l2 5l9 24l7 28l8 23l2 10l1 4q4 5 6 14v5l3 6v5 q4 7 6 17l2 5l5 11l4 12l2 14q6 14 7 22l2 6l2 3l2 4q2 12 9 28l5 19l2 4l2 5l1 5l5 19l3 13l4 13l5 13q1 7 6 13q1 8 7 24l2 10l9 23l1 5q2 11 5 19l9 30l2 5l3 7l2 7l2 5l2 9l10 30l1 7l2 4l2 9l3 9l-38 15l-5 1l-7 2q-10 1 -19 6h-6z" />
<glyph unicode="0" horiz-adv-x="631" d="M548 511q-52 172 -243 172h-13q-155 -25 -205 -187q-6 -9 -9 -25l-4 -13l-4 -26l-2 -5l-2 -7v-10q-3 -12 -5 -34v-14l-2 -5v-49l4 -30q0 -8 3 -19q0 -16 4 -23l2 -9q0 -12 4 -19l2 -7v-7l3 -5q33 -155 182 -197q22 -7 63 -7q125 0 203 124q51 103 51 216q0 81 -32 186z M224 535q31 31 81 46q161 -9 161 -228q0 -15 -2 -47v-4q0 -194 -152 -214l-20 5l-4 2l-5 2h-6q-97 52 -103 188v98q2 5 4 29l2 4v7q2 6 3 22q6 13 7 27q8 12 12 30l2 5q8 9 18 24z" />
<glyph unicode="1" horiz-adv-x="374" d="M185 670h-9q1 -5 1 -16q0 -39 -25 -73q-4 -1 -16 -9q-18 0 -26 -4h-16l-8 -2h-20l-7 -2h-12v-90h112v-135v-337h116v668h-90z" />
<glyph unicode="2" horiz-adv-x="570" d="M498 495q-27 183 -228 183h-10q-204 -24 -204 -228q0 -4 0.5 -10t0.5 -10h112q-3 16 -3 32q0 73 61 101q25 13 53 13q40 0 81 -32l13 -18q9 -34 9 -67q0 -117 -114 -200q-9 -11 -21 -19l-4 -6h-1q-1 0 -1 -1q-3 0 -4 -4l-5 -4l-6 -2l-5 -6l-23 -18l-3 -1l-2 -4l-12 -7 l-4 -5q-4 0 -5 -3l-6 -2q-8 -8 -13 -11l-4 -1l-3 -4l-6 -4l-5 -3l-5 -5q-10 -4 -17 -10l-8 -4l-5 -5l-37 -19l-7 -5v-104h22h423v104h-262q19 12 29 22l15 9l4 5q4 1 5 4l6 2l3 4q12 7 16 13q8 3 12 10q10 7 18 16l5 1l19 22q2 0 4 3l5 4l4 4q15 14 33 34l2 3l1 2q1 2 2 2 l15 14l4 5l3 4l4 5l2 5l5 3l15 31l4 2l5 15l2 5l4 5q15 42 15 89q0 22 -3 46z" />
<glyph unicode="3" horiz-adv-x="603" d="M505 549q-51 134 -213 134h-11q-200 -10 -226 -212l26 -4h5l5 -2h5l9 -2h5l9 -1h13l6 -2q18 0 25 -4q18 123 116 123q42 0 81 -16q7 -7 19 -16l7 -10q11 -39 11 -61q0 -86 -122 -86q-11 0 -35 2v-98q26 3 47 3q111 0 116 -74q3 -15 3 -29q0 -59 -58 -90q-44 -11 -62 -11 q-92 0 -123 114l-29 -4h-4l-6 -2h-5l-14 -2l-9 -1h-7q-12 0 -19 -4h-15v-8q17 -159 178 -190q26 -8 67 -8q82 0 147 50q63 52 72 144q2 22 2 31q0 87 -83 137q60 23 68 95q8 34 8 48q0 27 -9 56z" />
<glyph unicode="4" horiz-adv-x="623" d="M353 670h-7q-1 -1 -3 -4t-6 -8l-9 -11l-3 -4l-2 -3l-4 -4l-2 -3l-2 -5l-5 -4l-2 -5l-16 -18l-8 -12q-6 -6 -11 -16l-6 -5l-7 -9l-5 -8q-7 -4 -13 -18l-4 -2l-4 -5q-4 -8 -14 -17l-2 -5q-7 -7 -13 -18l-4 -3l-3 -4l-7 -10l-18 -23l-2 -3l-4 -2l-1 -5l-3 -2l-4 -7l-9 -9 l-7 -12q-4 -3 -22 -29l-4 -3l-3 -3l-6 -9l-3 -3l-4 -6l-12 -16l-3 -2q-6 -10 -11 -15l-2 -3l-3 -4l-4 -5q-6 -6 -11 -17l-6 -4l-2 -5q-1 -1 -3.5 -4t-6.5 -8.5t-9 -11.5l-4 -2l-2 -4v-2v2v-3v1v-3v2v-4v2v-4v2v-3v1v-3v2v-4v2v-4v2v-4v2v-3v1v-3v2v-4v2v-4v2v-4v2v-3v1v-2v1 v-3v2v-4v2v-4v2v-3v1v-3v2v-4v2v-4v2v-4v2v-3v1v-3v2v-4v2v-4v2v-4v2v-3v1v-3v2v-4v2v-4v2v-3v1v-3v2v-4v2v-3v1v-3v2v-4v2v-3v1v-3v2v-4v2v-4v2v-3v1v-3v2v-4v2v-4v2v-4v2v-3v1v-3v2v-4v2v-4v2v-4v2v-3v1v-3v2v-4v2v-4v2v-3v1v-2v1v-3v2v-4v2v-18v2v-2h84h264v-126h118v126 h93v103h-93v439h-135zM363 522l7 9q2 -10 2 -19v-281h-232l17 23l2 4l17 20l4 4l3 5l6 7l3 5l6 5l3 6l4 5l19 24l5 7l15 22l4 3l14 19l2 4q10 10 19 24l3 2l22 29l9 9l4 11l9 9l3 4l6 6l7 12q8 6 17 22z" />
<glyph unicode="5" horiz-adv-x="578" d="M123 670h-11q0 -29 -7 -47l-2 -24l-2 -6l-3 -29l-2 -3v-6l-2 -8l-3 -25l-2 -11l-5 -39l-3 -18l-2 -11v-6l-2 -9q-3 -16 -4 -18v-9l-1 -7l-2 -15q-2 -13 -6 -29v-11l-1 -4v-11q19 -3 23 -4h5l5 -2l25 -5l5 -2q8 0 19 -3l29 -6q26 53 92 64q14 2 21 2q57 0 103 -48 q23 -38 23 -83q0 -17 -1 -25q-2 -89 -93 -119q-17 -3 -32 -3q-98 0 -122 109l-13 -1l-28 -11q-4 0 -5 -1q-3 0 -5 -2h-8l-5 -3h-5l-5 -4q-13 -1 -30 -9l-6 -2l2 -10q1 -9 6 -21l1 -7q42 -104 160 -134q34 -8 62 -8q69 0 139 37q70 43 94 134q9 33 9 67q0 64 -28 119 q-34 76 -119 110q-31 16 -79 16q-43 0 -104 -26l1 11q0 1 2 15l4 29l1 7q0 3 1 9t2 10l-1 2v2q0 5 3 11l2 22l7 5h275v104h-372z" />
<glyph unicode="6" horiz-adv-x="598" d="M530 530q-60 150 -234 150h-10q-114 -14 -172 -124q-57 -99 -57 -227q0 -12 2 -42l4 -12v-8q0 -107 75 -198q68 -80 170 -80q45 0 75 10q122 41 154 178q5 32 5 52q0 93 -74 170q-70 51 -139 51q-79 0 -155 -64q-1 8 -1 24q0 129 108 165q9 4 35 4q74 0 112 -81q9 3 25 9 q14 3 17 4l5 2l5 3q0 1 1 1q4 0 5 1q14 3 17 4q10 2 19 8h8zM182 203q-1 7 -1 21q0 100 105 128q137 0 137 -138v-9q-18 -109 -111 -109q-36 0 -62 10q-54 29 -68 97z" />
<glyph unicode="7" horiz-adv-x="493" d="M19 670h-6v-104h330q-5 -14 -15 -33l-3 -9q-1 -5 -7 -15l-1 -4l-2 -7l-4 -7q-1 -5 -7 -15l-2 -4q-2 -9 -9 -21l-1 -5l-2 -5l-2 -4l-2 -5q-6 -10 -10 -26l-7 -12l-3 -11l-4 -9l-5 -8l-4 -11l-5 -11l-4 -11q-3 -5 -8 -16l-7 -18l-2 -3l-2 -5l-1 -6q-1 -2 -8 -18 q-7 -14 -15 -38q-4 -4 -7 -13l-5 -13q-5 -8 -7 -19q-3 -4 -6 -12l-3 -4l-6 -12q-2 -12 -11 -28l-4 -13l-5 -9q-6 -10 -13 -32l-3 -3v-6q-10 -13 -16 -36l-3 -4l-2 -7l-2 -4q-4 -10 -5 -14h126l13 29v3l4 6l2 8l2 5l1 5l4 6q6 14 9 22q5 6 9 22l10 18l1 7l4 8l4 10l16 33v5 l3 4l4 10q3 10 4 15l6 9l5 11l16 40l7 13l21 54q7 9 11 25l6 11l3 13l22 44q1 7 5 13l2 5l10 24l4 8l3 7l5 12q4 16 15 34l2 3l1 5q1 7 7 16v107h-451z" />
<glyph unicode="8" horiz-adv-x="615" d="M524 551q-63 129 -221 129h-21q-146 -19 -193 -143q-6 -24 -6 -47q0 -84 82 -144q-93 -51 -93 -169v-7q25 -124 157 -166q33 -13 84 -13q95 0 178 71q55 49 55 132v9q-8 91 -93 147q82 48 82 133q0 22 -11 68zM198 465v10q0 84 95 102h15q102 0 113 -96q-6 -77 -92 -91 q-15 -3 -28 -3q-75 0 -103 78zM187 187q5 98 112 111h6q109 0 127 -102q-7 -96 -112 -103q-7 -1 -20 -1q-93 0 -113 95z" />
<glyph unicode="9" horiz-adv-x="606" d="M550 386q-19 297 -276 299q-204 -37 -204 -237q0 -23 3 -47q23 -128 153 -170q23 -8 58 -8q82 0 149 66q2 -14 2 -20v-22q-7 -120 -112 -150q-2 0 -5 -1q-4 -1 -5 -1h-16q-76 0 -117 80q-11 -2 -23 -9l-12 -3l-5 -2h-1q-1 0 -3 -2q-3 0 -5 -2l-8 -1l-10 -4l-17 -4l-7 -4 l-9 -2q60 -149 209 -149q25 0 65 7q13 1 40 14l13 6l12 7q11 6 29 24l6 4l3 3q94 121 94 289q0 26 -1 39zM183 428q-2 16 -2 23q0 99 105 128h3q137 0 137 -144v-3q-19 -109 -118 -109q-22 0 -49 6q-62 27 -76 99z" />
<glyph unicode=":" horiz-adv-x="251" d="M178 287q-15 51 -73 52q-54 -15 -54 -62q0 -11 3 -25q21 -40 56 -40q10 0 43 11q25 22 25 64zM162 -3q16 28 16 50q0 44 -66 59q-57 -9 -64 -70q18 -61 58 -61q25 0 56 22z" />
<glyph unicode=";" horiz-adv-x="310" d="M161 32q-9 68 -80 70q-44 -9 -50 -56q8 -50 65 -56q3 -8 3 -18q-23 -20 -57 -20l2 -32v-5h8q108 0 109 117zM158 287q-15 51 -73 52q-54 -15 -54 -62q0 -11 3 -25q21 -40 56 -40q10 0 43 11q25 22 25 64z" />
<glyph unicode="&#x3c;" horiz-adv-x="445" d="M384 27v165l-185 138l185 137v165l-328 -258v-90z" />
<glyph unicode="=" horiz-adv-x="580" d="M100 372h380v-100h-380v100zM100 567h380v-100h-380v100z" />
<glyph unicode="&#x3e;" horiz-adv-x="445" d="M389 284v90l-328 258v-166l185 -138l-185 -137v-164z" />
<glyph unicode="?" horiz-adv-x="655" d="M596 544q-56 141 -219 141h-10q-172 -30 -191 -216h107q11 110 124 110h3q91 -24 91 -113q0 -7 -2 -29l-15 -31q-6 -6 -9 -11l-2 -2q-1 -1 -2 -1q-3 -2 -14 -13q-115 -65 -119 -213h109q-1 1 -1 13q0 18 6 42q7 19 25 41q9 7 17 16q114 64 114 183q0 38 -12 83zM447 69 q-18 35 -62 35h-7q-43 -16 -43 -61q0 -13 1 -14q20 -39 54 -39q19 0 38 10q23 18 23 45q0 17 -4 24z" />
<glyph unicode="@" horiz-adv-x="833" d="M107 209q-12 72 -12 121q0 113 45 188q47 83 127.5 125.5t180.5 42.5q98 0 168 -42q122 -75 122 -247q0 -173 -108 -232q-26 -14 -39 -14h-47q-20 0 -34.5 15.5t-21.5 37.5h-2q-40 -51 -108 -51q-65 0 -93.5 44.5t-28.5 109.5q0 87 21 118q28 49 59.5 72.5t82.5 23.5 q40 0 56 -12l9 -9l9 -12q4 -4 5 -4q4 8 4 25l3 2h85l-32 -265q0 -1 -0.5 -3.5t-0.5 -3.5q0 -26 29 -26q26 0 45 21t28 53t13.5 60t4.5 50q0 107 -60.5 169t-167.5 62q-93 0 -177 -51q-64 -51 -86.5 -115.5t-22.5 -162.5q0 -119 71 -187t182 -68q62 0 126 25l14 7q1 0 12 9 t21 15.5t15 6.5q3 0 3 -3l26 -42v-3q0 -8 -34 -29t-48 -21q-64 -21 -136 -21q-70 0 -119.5 16t-102.5 58q-40 31 -77 121q0 4 -2 10.5t-4 10.5zM344 303q0 -37 12 -57.5t46 -20.5q15 0 27 4.5t20 11t14.5 19t9.5 21.5t5.5 26t3.5 25.5t2.5 27t1.5 23.5q0 34 -13 50t-44 16 q-85 0 -85 -146z" />
<glyph unicode="A" horiz-adv-x="645" d="M259 670h-8l-3 -11l-6 -21l-5 -12l-2 -7l-2 -5l-1 -8l-2 -5l-4 -6l-1 -7l-1 -6l-4 -9v-5l-11 -29l-9 -25q-1 -7 -7 -21l-13 -44l-13 -39l-2 -4l-1 -5l-2 -6l-2 -5l-5 -17l-6 -13l-2 -12l-4 -13l-2 -4q-2 -10 -5 -14l-2 -7l-2 -6l-1 -5q-5 -9 -6 -19l-3 -5l-2 -8 q-1 -3 -4 -13.5t-6 -17.5l-2 -5l-9 -28l-1 -5l-13 -39l-7 -20q-2 -10 -5 -15l-1 -5l-2 -5l-6 -17l-1 -6l-9 -24l-4 -12l-3 -15l-2 -2q-1 -8 -6 -15l-1 -7l-1 -5l-2 -6v-5h114l13 40l2 4l1 5l2 7q1 2 1 4t1 4l4 7l1 4q2 11 8 20l1 7l2 9l3 6l2 7h265q8 -23 11 -31v-5 q3 -6 5 -14l2 -7l4 -5q1 -12 10 -32q0 -4 1 -5l2 -11l4 -7l2 -7h115q-1 7 -7 21q-2 7 -6 15q0 3 -1 4v6l-3 5q-8 29 -13 40l-1 7l-4 8l-4 15l-1 3l-4 7l-3 17q-4 7 -5 17l-3 10l-6 11q0 2 -1 5t-2 5l-11 33q-2 12 -9 25l-2 10q-2 12 -8 23v6l-2 3l-5 12l-2 7l-2 5l-1 7l-2 4 l-4 10l-3 11q-3 9 -4 10q-1 3 -2 7l-2 4q-1 14 -9 31v6q0 1 -1 3t-2.5 4.5t-2.5 5.5l-2 7l-3 6q-1 0 -1 1l-1 1v3l-4 12l-3 14l-5 12q-1 7 -7 21l-3 14q-2 8 -9 23v5l-2 4l-2 7q-1 7 -9 22v6l-2 3l-5 13l-2 6l-2 5l-1 7l-1 4l-6 17l-3 7q0 3 -4 13l-3 14h-134zM321 522v6 l9 -21l-1 -1l3 -2q0 -11 4 -18v-5l4 -5q0 -3 2 -5q0 -5 1 -6l4 -16l2 -3l3 -7q3 -10 4 -11l2 -10l11 -28v-5l3 -8l1 -6l9 -25q2 -7 4 -9l1 -8l6 -12l3 -15l9 -29l5 -12l3 -12l6 -13l3 -13h-200q6 14 10 31l1 4l2 4l2 5l2 6l2 7l3 9l2 7l4 8l5 20l10 29l3 9l2 7q6 14 11 37 l3 5v5l6 11l2 10l5 10l3 11l1 11l6 12l3 12z" />
<glyph unicode="B" horiz-adv-x="695" d="M140 670h-25v-291v-379h299q14 2 24 2q6 1 30 7h5l13 5h5q123 57 123 181q0 33 -9 72q-23 76 -105 95q76 49 76 136q0 10 -8 60q-42 113 -198 113q-23 0 -35 -1h-195zM233 403v163h160l10 -2l22 -5q34 -19 46 -61q0 -2 0.5 -6t0.5 -6q0 -46 -44 -76q-13 -6 -30 -7h-165z M233 106v205h172q7 -1 39 -7q39 -19 58 -64q4 -9 4 -32q0 -67 -77 -99l-38 -3h-158z" />
<glyph unicode="C" horiz-adv-x="699" d="M645 488q-67 201 -291 201h-19q-185 -21 -251 -208q-25 -75 -25 -144q0 -96 53 -213q85 -142 258 -142q20 0 31 1q181 16 244 204l-31 7l-13 2l-6 2l-29 5l-3 2q-9 0 -19 3l-9 2q-40 -124 -179 -124h-3q-127 12 -162 141q-14 61 -14 107q0 79 22 145q7 7 15 26l3 2l2 6 l8 9l2 4q9 5 29 25l4 2l4 3l5 3l5 2q0 1 2 2l2 1q9 2 18 8l12 5v1h2q2 0 3 1q22 7 59 7q113 0 161 -124l28 5l3 2l13 2l7 1q3 0 5 2h3q7 0 14 4q8 0 9 1h7l16 4q3 2 5 5z" />
<glyph unicode="D" horiz-adv-x="730" d="M132 670h-12v-346v-322h212q9 -1 26 -1q249 0 302 275q5 35 5 63q0 147 -113 269l-25 16q0 3 -4 4q-4 4 -13 8l-5 2l-18 11l-26 8l-14 4l-3 2l-7 2l-9 1l-28 2h-6l-7 2h-7l-3 -2h-5l-5 2h-235zM235 106v460h143l24 -3l8 -2q8 -1 28 -10h6q100 -64 106 -205v-5 q0 -85 -45 -167q-11 -11 -18 -20q-7 -4 -12 -12l-5 -2l-2 -3l-6 -2l-1 -4l-6 -1q-2 0 -3 -4q-13 -3 -28 -12l-14 -3l-28 -4h-5l-5 -1h-137z" />
<glyph unicode="E" horiz-adv-x="623" d="M125 670h-11v-296v-374h64h376v104h-22h-297q-5 0 -5 8v175h278v103h-56h-215q-6 0 -7 7v167h304v106h-409z" />
<glyph unicode="F" horiz-adv-x="563" d="M126 668h-11v-206v-462h116v285h277v105h-277v174h304v104h-409z" />
<glyph unicode="G" horiz-adv-x="734" d="M640 530q-81 159 -273 159h-24q-25 -3 -32 -4l-5 -2h-5l-6 -1l-17 -2q-216 -86 -216 -330q0 -42 8 -98q10 -104 91 -188q85 -84 211 -84q25 0 63 5q23 3 42 15l7 2q30 18 53 53q2 -30 2 -55h102v377h-293v-102h191q3 -19 3 -36q0 -102 -100 -141q-39 -14 -72 -14 q-71 0 -132 55q-16 13 -29 36l-3 2q-29 82 -29 153q0 70 29 163l7 9q7 9 11 16l1 4h4l4 6l3 3l4 4l10 7q60 45 121 45q71 0 144 -61l16 -24l4 -2l-1 -1q0 -1 3 -3q1 -8 6 -15q8 1 18 8l20 9l2 4l11 3l4 2l3 4l5 2q2 0 4 3q9 3 17 8z" />
<glyph unicode="H" horiz-adv-x="760" d="M123 668h-8v-206v-462h116v304h297v-117v-187h115v668h-115v-260h-297v260h-108z" />
<glyph unicode="I" horiz-adv-x="344" d="M123 668h-8v-206v-462h116v668h-108z" />
<glyph unicode="J" horiz-adv-x="440" d="M233 668h-8v-260v-249l-1 -13q-6 -14 -11 -22l-2 -5q-8 -8 -24 -17l-4 -4l-35 -3h-14l-2 -1h-2q-4 0 -9 3h-6l-5 -2l-17 5l-21 4l-4 2l-21 3l-10 -27l-2 -3l-2 -5l-5 -14l-2 -7l-2 -6l-2 -5q-2 -4 -8 -19l-1 -7q11 -5 34 -12l14 -4l14 -3q3 -1 9 -2t10 -1l23 -2h13 q9 -3 24 -3q2 0 5.5 0.5t5.5 0.5l1 -1v1q0 1 1 2q3 0 8 -0.5t7 -0.5q94 0 146 88q7 18 13 44l2 14v531h-110z" />
<glyph unicode="K" horiz-adv-x="655" d="M124 668h-7v-260v-408h116v212q13 12 17 19q9 4 17 21l6 4l6 10l7 5l6 7l5 7l5 8l6 3q3 8 10 12l1 3l4 4q6 -8 14 -26l4 -2l2 -5l1 -4l4 -3l2 -6l6 -10l2 -5l5 -7l4 -5l2 -8q1 -3 16 -22l1 -5q7 -16 19 -32q0 -1 2 -3q2 -6 5 -9q3 -7 16 -30l1 -3l6 -9l7 -10l5 -9l6 -11 l7 -10l2 -4l1 -3l2 -5l12 -20l2 -3l3 -4l2 -4l7 -13l4 -7l5 -5l5 -13h129l-16 30l-4 8q-4 11 -15 22q-1 10 -12 21l-4 7q-1 3 -3 5l-2 5l-5 8l-1 6l-8 11l-12 21l-5 6l-4 9l-4 7q-4 10 -13 21l-2 5l-7 9l-5 13l-7 11l-17 31l-4 3l-7 12q-5 13 -15 27q0 1 -2 3l-2 7l-4 2 l-1 5l-4 7l-4 5l-3 8l-7 11l-7 9q-1 5 -5 9l-5 12q-8 8 -18 32q13 11 31 35l4 3l2 3l5 4l3 5l4 4l4 5l9 9l3 7l5 5l5 3q6 10 16 20l5 5l19 24l6 7q6 4 22 26l13 13l3 3l11 14l5 5l8 9l7 11q5 3 9 10q13 10 24 30h-134l-23 -27l-3 -3l-1 -4q-2 0 -4 -2l-4 -4l-16 -20l-13 -13 l-5 -7l-6 -6l-18 -23q-10 -7 -17 -20q-5 -4 -18 -17l-5 -9l-6 -8l-20 -20l-7 -9l-19 -23l-2 -4l-10 -8l-2 -5l-9 -9l-22 -26l-4 -4l-2 -3q-1 0 -2 -2l-1 -2l-6 -5l-4 -6l-7 -8v297h-109z" />
<glyph unicode="L" horiz-adv-x="506" d="M123 670h-8v-64v-457v-147h376v104h-260v564h-108z" />
<glyph unicode="M" horiz-adv-x="872" d="M123 670h-8v-64v-457v-147h2h-2h4h-2h4h-2h4h-2h3h-1h3h-2h4h-2h4h-2h3h-1h2h-1h3h-2h4h-2h4h-2h4h-2h3h-1h3h-2h4h-2h4h-2h3h-1h3h-2h4h-2h4h-2h4h-2h3h-1h3h-2h4h-2h4h-2h4h-2h3h-1h2h-1h3h-2h4h-2h4h-2h3h-1h3h-2h4h-2h4h-2h4h-2h3h-1h3h-2h4h-2h4h-2h4h-2h3h-1h3h-2 h4h-2h4h-2h3h-1h3h-2h4h-2h4h-2h3h-1h3h-2h3h-1h3h-2h4h-2h4h-2h3h-1h3h-2h4h-2h4h-2h4h-2h3h-1h3h-2h4h-2h4h-2h2v505q10 -10 22 -29l4 -4q3 -8 10 -12l2 -6l6 -3q2 -7 8 -14l1 -3q9 -8 18 -24l4 -2q0 -3 4 -4l3 -7l6 -9l6 -5l3 -8l6 -4l5 -7l5 -9l8 -7l6 -9q2 -6 5 -8 l7 -11l18 -23l6 -6q1 -3 4 -6l7 -11l6 -5l7 -12q1 -3 10 -10l7 -13q17 18 25 30l2 3q0 1 1 2l2 2l6 11q7 4 13 15q9 9 18 25q10 10 22 29l9 9l2 6q3 0 4 3l4 5l2 5l5 7l6 7l7 9l7 7l5 9q10 12 14 19l1 4l6 3l2 3l3 4l2 3l3 6l4 5q4 4 6 11q5 3 11 13l9 9l2 4l3 3v-56v-449 h116v668h-132l-17 -23l-2 -6l-5 -3l-3 -5l-2 -3l-4 -4l-2 -5q-6 -6 -10 -15l-8 -8l-2 -3l-4 -4l-3 -5l-4 -5l-7 -9l-5 -9l-6 -5l-2 -5l-17 -22l-3 -3l-7 -8l-6 -7l-4 -8l-6 -9l-7 -8l-14 -19l-2 -4l-3 -2l-2 -3q-2 -4 -8 -11q-4 -5 -9 -15q-9 -9 -14 -16l-21 25l-14 20l-6 6 l-2 5l-3 4l-6 10l-4 3l-5 5l-2 6q-3 5 -16 18q-1 1 -8 13l-2 4l-5 7l-18 20l-4 8l-17 21l-7 8q-4 9 -13 16l-6 11q-5 11 -14 17l-2 5l-3 2l-2 5l-4 2l-5 11h-125z" />
<glyph unicode="N" horiz-adv-x="797" d="M124 671h-7v-316v-353h116v479q6 -11 18 -27q0 -1 2 -3l4 -4l2 -4l5 -6l2 -5l5 -5l12 -21l12 -18q1 0 2 -1l2 -2l7 -11q6 -10 11 -17l4 -7l6 -11l8 -8l4 -9l7 -7q4 -10 17 -26q6 -14 14 -22l4 -8l22 -34q8 -10 15 -17l2 -5l3 -4l2 -5l3 -3q0 -3 3 -4q3 -6 9 -15 q7 -12 13 -16q1 -7 10 -17l7 -13l3 -3l2 -4l18 -26l9 -11q6 -13 19 -29l1 -4l19 -26l2 -5l4 -4l7 -12h129v669h-115v-26v-454q-3 5 -20 26l-1 6l-4 4l-3 4l-1 5l-6 4q-2 2 -3 5q0 1 -13 21l-7 10l-8 11l-7 11q-1 2 -13 19l-3 7l-6 9q-2 3 -6.5 8.5t-6.5 8.5q0 1 -2 3l-4 6 l-1 3l-13 19l-3 4l-8 12l-2 4l-4 5l-2 5l-3 5l-4 4l-12 17l-8 10l-6 11l-12 20l-4 3l-7 12l-4 3l-3 6l-5 11l-7 9q-6 10 -18 24q-4 10 -17 26q0 2 -1 3l-8 11l-7 11l-16 24l-1 3l-3 2q-6 10 -11 17l-7 13l-4 3l-7 12h-122z" />
<glyph unicode="O" horiz-adv-x="739" d="M369 691h-8q-221 -14 -280 -244q-6 -17 -8 -46l-1 -6v-5l-2 -7v-24l-2 -16v-26q2 -14 2 -15v-2q1 -1 1.5 -3.5t0.5 -5.5q2 -119 86 -220q94 -91 213 -91q61 0 130 24q190 91 190 325q0 23 -1 35q-8 237 -219 318q-1 0 -33 5h-10q-14 2 -21 2h-5l-8 2h-25zM185 291 q-3 29 -3 55q0 209 172 242q219 0 219 -239q0 -25 -1 -38q-2 -221 -214 -225l-44 11q-1 1 -7 1q-112 51 -122 193z" />
<glyph unicode="P" horiz-adv-x="615" d="M126 671h-11v-290v-312v-67h118v243h85q26 -2 38 -2q172 0 217 180q2 24 2 35q0 132 -133 199q-4 2 -14 5t-14 4l-20 4h-2l-2 -1l-2 1q-1 0 -3.5 0.5t-5.5 0.5h-253zM231 348v218h129l10 -2h9q4 -2 13 -4.5t13 -3.5q31 -18 51 -54q9 -26 9 -48q0 -64 -74 -102l-10 -2 l-12 -2h-1q-1 0 -3 -2q-14 2 -20 2h-114z" />
<glyph unicode="Q" horiz-adv-x="750" d="M676 449q-55 241 -305 241q-5 0 -15 -0.5t-15 -0.5q-13 -1 -30 -6h-10l-6 -1h-7q-220 -87 -220 -340q0 -36 4 -67q42 -292 313 -292h17q2 0 4 -1h3q9 0 24 3l12 -28l2 -5q8 -13 11 -22l4 -3v-5l3 -3q1 -7 6 -15l4 -10q16 2 31 14q11 2 20 9q14 2 26 11l5 2l6 4l7 2 q-5 21 -22 45l-3 11l-4 4q-2 8 -8 22q17 6 33 22l6 2l1 4q118 106 118 274q0 60 -15 129zM191 408q13 151 170 180q215 -8 215 -236q0 -4 -0.5 -14t-0.5 -14l-2 -40l-1 -4q0 -15 -4 -22q-1 -12 -7 -34q0 -3 -1.5 -6.5t-3 -9t-2.5 -9.5v-5q-9 -13 -13 -24l-22 -28l-4 -2 l-3 -5l-6 -4l-3 -1l-3 -4l-4 -5l-5 -2q-2 0 -3 -4l-17 29q0 6 -6 13v6l-3 3l-2 6l-11 20l-2 6l-3 3v6l-4 5l-3 7l-23 -12q-1 0 -3 -2q-17 -5 -39 -18l-9 -3l-19 -9q4 -16 16 -35l3 -10l2 -4l4 -3q0 -9 7 -16l9 -21h-4q-78 0 -141 60q-7 4 -13 13q-3 7 -12 16q-30 72 -30 156 q0 38 6 77z" />
<glyph unicode="R" horiz-adv-x="669" d="M124 671h-7v-316v-353h116v260h115l22 -48q5 -8 11 -22l2 -3l3 -5l2 -5l3 -4l2 -7l3 -7l11 -19l11 -21l3 -9l4 -3l-1 -1l3 -2l1 -6l3 -7l2 -4q2 -7 11 -18l1 -7l6 -9l5 -9q4 -14 15 -33l6 -11h122q-1 8 -7 16l-7 18l-2 2l-2 4l-3 4q-4 16 -15 31q-7 17 -11 23l-4 9l-5 10 q-1 2 -10 18q-3 7 -9 17l-5 12l-2 6l-4 5l-7 15l-15 29l-3 10l-6 11l-14 25l-2 6l-3 3q73 22 103 97q17 48 17 83q0 23 -11 72q-60 144 -225 144q-18 0 -29 -1h-194zM233 366v200h143q4 0 18 -2l9 -1l9 -2q38 -17 54 -57q8 -26 8 -44q0 -54 -54 -92q-12 -3 -27 -3 q-2 0 -6 0.5t-6 0.5h-148z" />
<glyph unicode="S" horiz-adv-x="649" d="M559 572q-78 113 -227 113q-10 0 -40 -2q-204 -17 -208 -207q19 -159 194 -180q4 -4 28 -7l4 -2l7 -2h4l14 -3h6q13 -6 28 -7l3 -2h5l4 -2l7 -2h5l3 -3q12 -2 18 -5l6 -2q38 -29 38 -79v-10q-6 -18 -14 -28l-2 -5q-10 -5 -19 -18q-49 -25 -102 -25q-94 0 -169 97h-5 q-13 -7 -26 -23q-2 0 -4 -2l-3 -1l-21 -17l-5 -6q-13 -7 -22 -18h-1q-1 0 -2 -1l-4 -2l-2 -4q108 -127 272 -127q62 0 99 10q7 3 21 11q83 38 112 137q10 21 10 60q0 56 -36 110l-22 19q0 2 -2.5 3.5t-6 4t-4.5 3.5l-4 5l-5 2l-3 4q-14 8 -37 14l-14 4l-8 2l-4 2l-25 5l-6 2 h-4l-5 2h-6l-44 11l-14 3h-4l-7 2l-8 2q-16 3 -18 4l-8 2l-7 2h-9l-18 9l-6 2l-12 7q-28 28 -28 77q22 67 103 70q7 1 21 1q91 0 151 -82q8 6 11 11q14 5 21 17q13 4 18 14l5 2l9 9q5 3 15 13z" />
<glyph unicode="T" horiz-adv-x="517" d="M24 671h-5v-105h184v-267v-297h115v564h184v105h-478z" />
<glyph unicode="U" horiz-adv-x="730" d="M115 668h-7v-63v-380l2 -11v-15q2 -14 9 -38l-1 -1q0 -2 3 -3l5 -18q53 -115 189 -149q25 -5 59 -5q161 0 244 164l7 28l2 4l2 11l2 13l1 28q-1 1 -1 14v421h-116v-428q0 -22 -9 -53l-1 -3l-2 -3v-6q-40 -78 -134 -86q-88 4 -133 90l-11 24v465h-110z" />
<glyph unicode="V" horiz-adv-x="616" d="M47 670h-7q2 -14 9 -30q0 -8 6 -19q0 -11 4 -18q0 -3 2 -5v-7q5 -9 9 -28l3 -8l2 -8q1 -4 4 -8v-8l3 -9l4 -9l2 -11l6 -17q2 -13 5 -20l2 -5q1 -1 1 -2q0 -3 1 -4l2 -8q2 -13 9 -26v-6l5 -11l2 -13l10 -30q0 -4 1 -5q2 -13 8 -24v-5l8 -28l2 -4v-5l7 -18l2 -9q1 -3 4 -14 t6 -19q2 -15 11 -35v-5l3 -12l6 -12l3 -15l4 -13q3 -9 9 -25q0 -6 3 -17l1 -6l2 -5q1 -7 5 -13l6 -25l3 -6q0 -8 6 -17l1 -3q0 -2 1.5 -7.5t2.5 -10.5h141l8 21l1 11l5 12l2 7l1 5l2 7l6 19l9 30q4 4 7 28l3 7l2 8l4 9l1 11q5 9 9 28l1 3l2 9l2 6l3 6l6 25q5 9 9 28l2 3 l8 32l3 9l4 11v6q5 10 11 34l5 13q1 12 10 35v5l2 6l3 10l2 3l3 13l4 14l2 3l2 6l3 11l4 15l7 24l2 5l2 6l1 5l3 13l4 15l5 12l4 12l3 14l7 24l2 6l4 10l1 13h-115l-4 -16q-3 -5 -5 -18l-2 -4l-7 -22l-2 -5l-1 -6l-2 -4l-4 -14l-6 -25l-2 -5l-11 -33v-5l-1 -6q-1 -1 -1 -2 v-1q-1 -2 -1 -4l-6 -12l-1 -12q-6 -12 -9 -29l-2 -2l-1 -4v-5l-2 -6l-3 -7l-6 -24l-3 -13q-8 -16 -15 -45l-3 -6v-6l-4 -7l-2 -14l-8 -24l-1 -4l-2 -5l-2 -6l-2 -8l-2 -5l-1 -9l-2 -5l-4 -11l-7 -24l-2 -4l-1 -5v-6q-2 -4 -4 -13t-4 -14l-4 -8q-3 26 -13 42v6l-3 5v7l-4 6 l-5 24l-3 5q-2 18 -12 42l-4 12q-1 9 -7 23l-1 2q0 2 -1.5 7t-2.5 10q0 3 -2 5l-2 9l-2 5q-2 3 -2 4q0 4 -8 30l-1 11q-3 10 -9 24v5l-2 4v1q-1 0 -2 1l-2 11l-3 7v6l-2 7l-4 11l-3 13l-10 29l-4 13l-12 44l-2 7l-2 4l-2 7l-1 6l-2 7l-5 13q-1 3 -3 11l-4 14l-3 13h-109z " />
<glyph unicode="W" horiz-adv-x="860" d="M55 670v-2v2v-4v2v-2l8 -33q0 -4 1 -5v-7q5 -8 6 -22l5 -15v-3q0 -8 4 -15l2 -11l1 -8l2 -8l4 -13l8 -35q0 -3 2 -5l1 -8q1 -8 7 -31l2 -11q4 -4 7 -30l2 -5l4 -15q1 0 1 -1q0 -3 1 -4v-5l1 -5q1 -10 8 -36l2 -13l4 -7l2 -7v-6l8 -35v-5l4 -12l4 -10q0 -1 5 -21v-7l4 -14 l9 -41l2 -13l9 -33l2 -5q3 -21 12 -53l2 -9q1 -1 1 -2q0 -3 1 -4q0 -12 6 -29v-7h102q1 0 5 -0.5t5 -0.5q9 0 20 3q0 7 3 16q3 16 4 18l2 11l2 7l2 16l2 3l4 18l1 7l2 7l7 33l2 6l2 8l2 7l7 33l2 5l1 9l7 35l1 6l2 10l2 3q2 14 5 23l2 13l4 12l7 33l2 5l3 20l2 6l4 18l2 14 l6 22l2 6l3 19l5 23l2 10l4 7q0 -1 5 -26q0 -11 6 -21v-5l1 -5q1 -1 1 -2q0 -3 1 -4l1 -3q0 -3 1.5 -9t2.5 -12v-7l1 -7l2 -7l4 -9l2 -10l1 -11q1 -9 6 -20v-4l2 -5l1 -11l2 -11l4 -8l1 -11l4 -16q2 -10 3 -17l2 -5l1 -7q1 -1 1 -2q0 -3 1 -4q1 -8 7 -31q2 -15 4 -19l2 -9 l1 -7q2 -15 8 -28q0 -8 3 -19l2 -6l2 -8q1 0 1 -1q0 -3 1 -4l1 -9l1 -7q2 -14 4 -19l3 -12l2 -13l4 -13q2 -3 3 -13l2 -14h130q3 23 4 25l2 11l2 4l3 13q2 9 6 24q2 14 5 23v7l7 22q2 10 6 23l4 25l11 44l2 11l9 35l3 13l2 12l10 43l2 6l1 12l2 5l2 8l2 11l3 11l4 11 q2 16 5 24l2 12l2 4l3 19l2 5l4 13l6 33l4 11l7 36l3 12l4 14l5 24l2 6l2 7l3 13l7 36h-118l-6 -25l-1 -5v-7l-6 -14v-5l-2 -6l-1 -5l-6 -24l-2 -7l-5 -21l-4 -14l-1 -9l-5 -21l-9 -42l-10 -44l-8 -26q-2 -11 -6 -27v-6l-2 -5l-3 -13l-2 -13l-4 -14l-3 -15l-4 -11 q-2 -15 -7 -29v-6q-5 -14 -9 -33q0 -3 -3 -4q0 17 -7 30v5q0 2 -2 4l-5 24l-2 7l-1 10l-2 9q0 8 -6 18q0 8 -1 9v6l-6 19l-2 9q0 12 -4 19l-2 11q-2 11 -5 19v5l-2 11l-4 9l-1 10q-1 5 -7 28q-4 18 -4 19l-2 5l-2 8l-1 11l-4 13q-1 3 -2 8t-2 12t-2 13l-4 14l-7 31l-2 6 l-3 13q0 5 -8 31v5h-128l-6 -25l-2 -5l-1 -7v-5l-2 -5q-4 -14 -4 -18l-3 -12l-6 -23l-1 -9l-4 -10l-6 -33l-2 -5l-4 -15v-5l-1 -8q-5 -11 -6 -25l-2 -4l-1 -3l-2 -7l-4 -21l-3 -14l-4 -14l-2 -5v-7l-1 -9l-1 -7l-4 -7l-2 -10l-1 -8l-2 -7l-4 -13v-6l-9 -36l-2 -11l-3 -9 l-7 -35l-4 -10l-3 12l-3 14q-1 7 -7 30l-2 7q-2 14 -5 22v8l-4 7v7l-4 9v6l-3 7q0 15 -4 22l-10 43l-1 10l-6 18l-3 21l-4 12l-4 11q0 1 -5 21v6q0 1 -2 3v7l-1 4l-2 6l-1 7l-4 12l-2 14l-5 18l-3 20l-6 18l-3 21l-4 12l-2 5l-2 13h-119z" />
<glyph unicode="X" horiz-adv-x="606" d="M53 670h-7q3 -14 15 -27q0 -1 2 -3l1 -6l4 -2q3 -9 9 -15l2 -5l3 -6l4 -5l8 -15l5 -5l13 -23l5 -5l4 -7l5 -9l12 -21q4 -11 16 -23q2 -5 5 -10q4 -13 15 -25q0 -2 2 -4l2 -3l5 -10l8 -11l18 -29l4 -6l2 -5l1 -4l4 -5l5 -5l6 -12q4 -4 7 -12q-8 -8 -20 -30l-3 -4l-2 -5 l-7 -12l-5 -5l-5 -9l-2 -3l-2 -6l-10 -14l-4 -5l-2 -7l-3 -5q-14 -20 -19 -30l-4 -3l-20 -37l-4 -3l-5 -9l-4 -9q-11 -11 -19 -32q-6 -6 -10 -13l-2 -4l-4 -5q-7 -9 -12 -23l-4 -2l-3 -5l-8 -12l-2 -9l-9 -11l-14 -24l-2 -3l-6 -11h130l24 40l2 4l4 5l3 7q8 11 14 24l4 4 l15 25l4 8l12 18l6 9l15 24l5 9l16 28q8 9 19 31l7 11q8 -11 11 -18l6 -12l4 -3l4 -4l1 -5l4 -4l5 -9l9 -15l2 -5q1 -1 12 -17l3 -7l13 -22l5 -5l4 -9l5 -5q8 -18 13 -25l6 -7l12 -21l2 -3l5 -9l7 -10l5 -11l7 -10l7 -11h129q-5 14 -17 28l-2 6l-3 2l-2 6l-3 3q-2 7 -9 15 q-5 11 -14 22q-4 15 -21 35l-12 21q-8 13 -14 21l-4 9l-5 9q-7 9 -15 24l-8 9l-5 11q-3 8 -16 24l-2 3q-3 7 -8 12q-4 11 -16 27v1q0 1 -2 3l-2 5l-3 3q-3 8 -9 14l-1 5l-4 4l-10 19l-6 5l-1 9q5 5 19 29l3 4l2 5l7 13l3 4l4 4l13 23l3 6l5 4l3 9l4 7q10 10 19 30l4 3l4 6 l3 7l5 11l5 6l5 11q10 11 18 27l7 9l5 11q7 7 12 20l4 2l5 13l9 11q2 7 8 13l6 12q2 3 7 13h-130l-24 -40l-2 -4l-2 -5l-5 -6l-2 -5l-6 -9q-2 -2 -4.5 -6.5t-4.5 -6.5l-2 -4q-6 -7 -10 -20l-4 -5l-11 -13q-7 -17 -24 -41l-3 -9l-6 -8q-8 -8 -17 -28q-13 18 -16 25l-4 3l-1 3 q0 3 -4 4q-2 7 -10 18l-3 7l-4 6l-3 4l-11 19l-4 7l-6 8l-4 8l-3 7l-6 9q-14 20 -16 24l-6 12q-6 10 -12 16l-6 12l-5 9l-6 9h-121z" />
<glyph unicode="Y" horiz-adv-x="583" d="M21 670h-5q4 -15 19 -37q3 -12 12 -23q2 -8 8 -13q0 -4 2 -6l9 -21q6 -9 15 -24l3 -4l4 -11l11 -20l6 -9l5 -9l4 -8l5 -7l4 -11l5 -11l6 -9q1 -4 6 -10l10 -21l2 -5l2 -3l3 -2q0 -1 2 -3q3 -12 12 -24q3 -12 14 -26q0 -2 1 -4.5t3 -5.5t3 -6l4 -4l5 -11l14 -26l1 -3 l9 -15l2 -5q0 -3 4 -4v-267h115v267l21 35l5 13l4 3q4 14 15 30l2 5l3 5l4 8l3 8q12 16 22 38l4 7l4 9l5 9l6 8l5 9l14 30l7 10l16 32l3 3l2 6l4 5l3 5l4 8l4 11l6 11q10 13 19 37l21 35l5 12l4 4v5h-123l-15 -32l-3 -4q0 -1 -1 -3t-2.5 -4.5t-2.5 -5.5l-3 -4l-4 -7l-4 -5 l-1 -7q-8 -8 -12 -21l-2 -4l-3 -5l-4 -7l-11 -19l-5 -11q-9 -13 -13 -27l-4 -2q-5 -14 -14 -26q-4 -12 -15 -27l-1 -3l-5 -12l-7 -11l-5 -12l-8 -10q-2 -6 -7 -11q-2 13 -11 22q-5 14 -15 27q-1 5 -7 15l-2 4l-3 7l-6 7l-2 9l-6 7q-2 8 -10 19q-3 13 -13 23q-1 7 -6 16 l-7 10q-3 7 -11 21l-2 5l-5 9l-7 10q-5 15 -14 29l-2 4l-7 11l-5 12l-7 13h-117z" />
<glyph unicode="Z" horiz-adv-x="564" d="M68 670h-13v-104h118h187l-16 -24l-3 -3q-1 -2 -13 -21l-3 -2l-4 -7l-3 -4l-1 -5l-4 -5l-5 -7l-4 -5l-3 -5q-1 -2 -13 -18l-5 -6l-5 -8l-18 -26l-7 -9q-1 -2 -3 -5l-6 -9l-6 -11l-4 -5l-7 -10l-7 -9l-2 -3l-9 -15l-3 -3l-7 -10q-7 -7 -8 -16q-6 -6 -13 -17q-1 -1 -7 -11 l-17 -23l-4 -5l-5 -10l-17 -24l-4 -4l-30 -46l-3 -5l-7 -11q-10 -7 -16 -24l-4 -4l-3 -3l-4 -5l-2 -4l-2 -5l-6 -7v-105h455v104h-313l22 36q3 0 4 4l3 4l4 4l3 5l17 25l2 5l4 5l5 5q4 9 14 22q2 2 4.5 6.5t4.5 6.5l2 4l5 5l23 37q3 0 4 4l3 5l4 4l4 9l14 18l6 11l7 10l8 11 l7 12l9 10q3 10 19 29q2 2 4.5 6.5t4.5 6.5l3 5q6 10 11 15l4 7l3 4l4 7l8 11l7 9l2 4l9 13q9 12 14 22l10 15l4 3l3 8l6 5l5 11l9 9v106h-434z" />
<glyph unicode="[" horiz-adv-x="411" d="M348 -105v105h-120v565h120v105h-254v-775h254z" />
<glyph unicode="\" horiz-adv-x="369" d="M84 674q8 5 19 8q5 -11 10 -37l4 -5v-6l3 -4l2 -7l8 -30l2 -7q8 -22 9 -28l2 -3l2 -4l1 -5l4 -11l4 -13l1 -8l7 -21q4 -11 5 -14l2 -12l5 -11l5 -20q3 -6 6 -15l3 -13q6 -12 9 -29l2 -3l2 -7q3 -11 4 -14l4 -14q5 -9 9 -28l2 -3l2 -4l3 -12l2 -10l5 -11l6 -21l1 -5 q1 -5 3 -9l2 -5l2 -6v-4l1 -6l4 -5l5 -20l4 -11l9 -27l8 -30l4 -7l1 -5l2 -5v-5l4 -9l9 -29l3 -13l6 -13q2 -10 9 -27v-7l2 -5q4 -4 7 -25l2 -4l2 -3v-5l4 -5l1 -7l2 -9l5 -13q2 -10 9 -27v-6l2 -3q2 -10 5 -14l1 -5l4 -13q-4 -1 -28 -8l-9 -3l-5 -2l-8 -4q-16 -3 -40 -12 h-6q-1 8 -7 24l-2 5l-1 8q-2 7 -6 14l-2 5l-1 12l-4 5q-1 4 -8 28l-2 9l-3 7l-4 13l-3 13l-2 4l-4 9q-2 10 -5 17l-6 19l-4 17l-4 13l-3 11q0 1 -1 3t-2.5 4.5t-2.5 5.5l-1 5l-4 15l-2 5l-9 24l-7 28l-8 23l-2 10l-1 4q-4 5 -6 14v5l-3 6v5q-4 7 -6 17l-2 5l-5 11l-4 12 l-2 14q-6 14 -7 22l-2 6l-2 3l-2 4q-2 12 -9 28l-5 19l-2 4l-2 5l-1 5l-5 19l-3 13l-4 13l-5 13q-1 7 -6 13q-1 8 -7 24l-2 10l-9 23l-1 5q-2 11 -5 19l-9 30l-2 5l-3 7l-2 7l-2 5l-2 9l-10 30l-1 7l-2 4l-2 9l-3 9l38 15l5 1l7 2q10 1 19 6h6z" />
<glyph unicode="]" horiz-adv-x="411" d="M317 -105v775h-255v-105h121v-565h-121v-105h255z" />
<glyph unicode="^" horiz-adv-x="572" d="M525 366l-185 304h-109l-185 -304h139l100 178l100 -178h140z" />
<glyph unicode="_" d="M495 -179v110h-495v-110h495z" />
<glyph unicode="`" d="M358 569l-86 154h-173l143 -154h116z" />
<glyph unicode="a" horiz-adv-x="524" d="M386 437q-54 54 -136 54q-10 0 -34 -2l-38 -6q-6 -1 -30 -7l-14 -4q-10 -2 -17 -5l-9 -2q-10 -3 -27 -12h-1q-1 0 -3 -2h-5l-4 -4l-5 -1l-4 -1l-4 -2q2 -13 11 -25q1 -5 7 -15l4 -11l2 -4l3 -3l2 -6l2 -5l7 -15q91 36 147 36q78 0 78 -74q0 -3 -0.5 -8t-0.5 -9l-44 -5h-6 l-5 -1h-12l-6 -2q-1 -1 -2 -1l-2 -1h-4h-4q-195 0 -195 -169v-2q19 -88 113 -123q41 -11 63 -11q58 0 117 41h5q28 -34 81 -47q6 10 13 26q10 9 16 25q7 5 11 15l4 4l2 5q2 0 3 4l3 5q-31 6 -47 39v229q0 17 -3 39q-7 27 -27 53zM275 216q3 0 4 1h36v-82l2 -7l-2 -5 q-5 -5 -7 -14q-38 -33 -78 -33q-32 0 -65 21q-25 22 -25 46t29 51q7 1 22 9h5l13 4l15 3h5q3 0 5 2h6l6 2h2l2 -1q6 0 14 3h11z" />
<glyph unicode="b" horiz-adv-x="554" d="M93 668h-25v-302v-364h105v36q49 -46 117 -46q44 0 73 13q84 32 125 125q20 65 20 109q0 97 -66 188q-12 14 -31 24q-60 42 -118 42q-61 0 -120 -48v223h-80zM182 327q25 45 82 59q132 -4 132 -149v-10q-11 -104 -106 -125q-1 -1 -14 -1q-72 0 -100 76v131q4 10 6 19z " />
<glyph unicode="c" horiz-adv-x="488" d="M449 360q-59 120 -209 125q-112 -7 -168 -106q-37 -61 -37 -141q0 -21 3 -42q22 -165 178 -197q21 -3 40 -3q124 0 193 123l-38 18l-4 3l-7 4q-6 4 -14 5l-7 3l-18 11q-26 -62 -97 -74q-2 0 -5 -0.5t-4 -0.5q-47 0 -81 43q-31 49 -31 106q0 54 28 109q16 16 25 27l19 10 l5 2l5 3q8 2 9 2h19q70 0 107 -73l28 16q6 1 14 6l10 4l4 1q5 3 13 9z" />
<glyph unicode="d" horiz-adv-x="563" d="M374 668h-7v-221q-53 41 -115 41q-33 0 -78 -14q-108 -46 -134 -173q-5 -38 -5 -65q0 -193 187 -244q16 -2 25 -2q63 0 118 46q2 -14 2 -21v-13h108v666h-101zM145 225q0 3 -0.5 8t-0.5 7q0 110 104 145q120 -3 120 -120q0 -19 -3 -38v-14q0 -110 -99 -110q-31 0 -42 4 q-66 37 -79 118z" />
<glyph unicode="e" horiz-adv-x="515" d="M465 284q-21 198 -225 205q-205 -30 -205 -259v-16q15 -168 166 -217q35 -9 67 -9q94 0 176 70l-24 28l-2 1q-2 1 -2 2q-6 10 -18 22l-5 4l-2 6q-9 8 -14 16q-47 -44 -111 -44q-8 0 -26 2q-82 16 -92 104h63h257v53q-1 0 -1 1l-1 1v4zM147 282q4 89 97 112q75 -1 108 -76 q0 -10 4 -17q0 -1 -0.5 -2t-0.5 -2q0 -4 3 -10v-5h-211z" />
<glyph unicode="f" horiz-adv-x="354" d="M242 673h-4q-78 -5 -126 -72q-9 -25 -9 -60v-63h-77v-90h77v-141v-247h106v388h88v90h-88v48q23 51 72 51q14 0 40 -7l2 28q2 14 2 17l2 21v9l3 20q-37 8 -68 8h-20z" />
<glyph unicode="g" horiz-adv-x="539" d="M346 445q-55 43 -132 43h-5q-94 -14 -143 -105q-30 -54 -30 -116q0 -44 15 -92q25 -91 122 -129q29 -9 56 -9q60 0 117 42v-74q-2 -11 -14 -29l-2 -6q-46 -28 -101 -28q-61 0 -131 36l-4 -13q-8 -13 -10 -20l-3 -8l-2 -5l-7 -17l-9 -20l-4 -7q83 -48 181 -48q54 0 113 15 l33 16l4 2l6 9q12 8 31 35l6 10l2 3l2 4l1 3l7 22l2 10l2 3l2 20v486h-105v-33zM234 383q2 0 4 2q104 -1 106 -118v-15q0 -100 -93 -112q-93 4 -104 103q-1 7 -1 20q0 60 43 106l38 14h7z" />
<glyph unicode="h" horiz-adv-x="531" d="M75 666h-7v-135v-531h106v298q2 4 4 10t4 10v6q32 63 106 64q25 -7 47 -28q2 -8 9 -17l6 -12v-5l3 -15v-20v-291h63h44v355v4q-1 0 -1 2q0 1 -0.5 3.5t-0.5 4.5l-2 12q-28 82 -119 105q-9 4 -39 4q-66 0 -124 -51v227h-99z" />
<glyph unicode="i" horiz-adv-x="253" d="M178 617q-18 49 -74 49h-3q-50 -15 -50 -61q0 -19 4 -26q21 -38 57 -38q20 0 44 12q22 22 22 59v5zM68 478h-7v-202v-276h106v478h-99z" />
<glyph unicode="j" horiz-adv-x="275" d="M198 615q-16 55 -74 55h-3q-51 -18 -51 -65q0 -11 3 -23q18 -39 60 -39q14 0 15 1q50 15 50 71zM105 479h-24v-362v-127v-27q-9 -11 -29 -11h-4q-3 1 -10.5 2.5t-15.5 2.5l-3 -35v-5l-1 -4v-11q-2 -14 -2 -20l-2 -4v-12l-1 -7q36 -9 67 -9q62 0 100 38q6 21 6 49 q0 3 -0.5 10t-0.5 10v522h-80z" />
<glyph unicode="k" horiz-adv-x="512" d="M64 670h-7v-388v-280h108v152q12 9 22 25l11 8l1 4q3 0 4 3l15 14l4 8q2 0 3 3l15 -18l-1 -1l3 -2l2 -6l7 -10l4 -5l7 -12l5 -6q1 -7 9 -13l5 -7q6 -14 16 -25l5 -8l6 -8l3 -7l6 -7l4 -5q1 -1 5 -9l8 -12l5 -9l5 -7l19 -26q0 -1 2 -3l5 -11h116q-8 18 -24 42l-4 5l-4 2 l-1 5l-4 6l-14 20l-4 6l-6 10l-5 8l-4 6l-5 7l-6 9l-5 7q-8 10 -14 21l-7 7l-3 9l-7 7q-5 11 -17 26q-6 10 -18 26v1l-2 2l-2 6l-5 5q-2 2 -5 7l-3 7l-2 3l-5 5l-8 11l-5 13q9 5 18 17l3 2l1 3l9 9l6 4l1 3l6 4l3 4l8 6l2 3l6 6l5 7l12 10l6 7q19 17 24 25q3 0 4 3 q12 9 26 26q2 0 3 4l4 2l5 9l9 6q7 7 12 14l3 2l2 4l4 1l3 4l2 3h-140q-7 -7 -12 -14l-4 -2q-7 -4 -15 -17l-2 -3l-5 -4l-4 -3l-3 -6l-6 -3l-3 -6l-6 -5l-5 -5q-6 -5 -12 -12l-5 -5l-5 -6q-9 -5 -17 -17l-18 -16l-24 -28q-2 0 -4 -3l-3 -2l-4 -4l-4 -3l-3 -4l-7 -9l-8 -6 v374h-101z" />
<glyph unicode="l" horiz-adv-x="293" d="M70 671h-7v-183v-400q1 -1 1 -14q28 -84 130 -84q39 0 87 12l-5 30v10l-1 4v10l-2 13l-2 12l-2 5v11q-19 -5 -40 -5q-39 0 -56 23q-4 17 -4 52v20v484h-99z" />
<glyph unicode="m" horiz-adv-x="777" d="M398 428q-45 60 -131 60q-52 -6 -101 -42v35h-109v-77v-400h109v288q0 11 -1 12l1 20l3 11q25 47 82 55q31 -1 55 -24l6 -12q4 -8 6 -13v-6l3 -6l2 -16v-309h106v307l4 22q12 24 37 43q26 15 47 15q35 0 61 -41q1 -4 7 -19l2 -14l2 -16v-271v-26h104v322q0 8 -2 34l-9 34 l-2 3l-4 11l-2 3q-27 42 -78 63q-29 13 -67 13q-69 0 -131 -59z" />
<glyph unicode="n" horiz-adv-x="530" d="M453 395q-48 98 -167 98h-7q-56 -8 -106 -52v40h-105v-247v-230h4h-4h60h45v290l7 30q14 28 40 46.5t57 18.5q52 0 75 -65l1 -11v-17v-292h63h44v365q-1 4 -7 21v5z" />
<glyph unicode="o" horiz-adv-x="561" d="M465 385q-69 111 -209 111h-18q-201 -45 -201 -264q0 -4 0.5 -11t0.5 -11q7 -116 107 -187q53 -35 118 -35q33 0 69 9q122 33 152 162q11 49 11 83q0 70 -30 143zM147 219q-1 9 -1 27q0 120 111 148q132 -9 132 -143q0 -35 -4 -48q-12 -101 -119 -112q-105 11 -119 128z " />
<glyph unicode="p" horiz-adv-x="561" d="M295 489h-29q-54 -8 -99 -44v36h-104v-142v-351v-135h104v183q53 -45 118 -45q45 0 80 16q124 56 137 209q1 11 1 32q0 177 -169 238q-16 3 -39 3zM171 259q0 2 -0.5 6.5t-0.5 6.5q0 90 97 109q104 -9 124 -122q1 -8 1 -23q0 -78 -64 -124q-28 -16 -55 -16q-37 0 -74 27 q-30 36 -30 99v14v9q0 4 2 14z" />
<glyph unicode="q" horiz-adv-x="559" d="M390 445q-53 44 -126 44h-14q-192 -48 -192 -244q0 -36 6 -75q22 -118 141 -166q26 -13 68 -13q61 0 118 45v-64v-119h105v626h-105q0 -2 0.5 -6t0.5 -7q0 -7 -2 -21zM167 229v3q0 115 104 147q121 -1 121 -120q0 -10 -2 -36v-11q0 -115 -100 -115q-17 0 -44 5 q-69 38 -79 127z" />
<glyph unicode="r" horiz-adv-x="379" d="M323 489h-22q-72 0 -123 -57q-3 9 -3 19q0 1 0.5 4t0.5 5v19h-106v-206v-269h106v262l2 12l5 28q37 72 123 72q2 0 7.5 -0.5t9.5 -0.5v112z" />
<glyph unicode="s" horiz-adv-x="458" d="M403 421q-73 72 -188 72h-9q-152 -9 -162 -154q15 -143 196 -153l39 -14q16 -16 16 -39q0 -9 -3 -19q-8 -5 -16 -16q-21 -10 -59 -10q-72 0 -136 61l-24 -26l-2 -2l-2 -4q-3 0 -4 -3l-3 -5l-20 -20l-4 -3l-4 -5l-4 -7q102 -87 204 -87q53 0 107 24q74 44 74 130 q0 14 -1 22q-20 120 -185 133q-12 5 -28 6q-4 3 -14 6q-22 14 -23 42q24 48 72 48t121 -46l22 25q3 3 11 13l3 2l4 3l4 6l3 5l10 8z" />
<glyph unicode="t" horiz-adv-x="383" d="M216 661q0 5 -3 9l-26 -11q-2 0 -4 -2q-2 0 -3 -1l-14 -4l-5 -3q-2 0 -11 -4q0 -1 -1 -1t-2 -0.5t-2 -0.5l-9 -2l-5 -3l-21 -6v-153h-84v-91h56h28v-260q0 -2 -0.5 -5t-0.5 -4q0 -12 3 -30v-5q1 -6 7 -20l4 -11l1 -4q37 -55 123 -55q51 0 96 13l-6 44q-1 7 -3 18v4 q0 1 -2 15v10l-2 6q-39 -11 -54 -11q-36 0 -58 22q-2 22 -2 39v234h127v91h-127v182z" />
<glyph unicode="u" horiz-adv-x="545" d="M89 479h-25v-346q0 -20 4 -27l2 -13q15 -41 56 -73q49 -31 99 -31q63 0 125 51v-38h106v477h-106v-297l-7 -21v-5q-25 -49 -83 -65h-3q-45 0 -75 42q-6 15 -9 35v1q0 1 -2 3q-1 0 -1 1v1q-1 1 -1 3v302h-80z" />
<glyph unicode="v" horiz-adv-x="463" d="M42 485h-29q0 -5 8 -31v-5q1 -7 9 -21q0 -4 1 -5v-7q0 -1 1 -3t2.5 -4.5t2.5 -5.5l1 -8l4 -7l7 -24l4 -7l6 -28l4 -7l3 -9q3 -25 13 -40l-1 -1q0 -2 3 -3q0 -4 1 -5q3 -9 4 -10l2 -12q2 -10 8 -21q0 -3 2 -5q0 -11 7 -24v-5l10 -28q1 0 1 -1q0 -3 1 -4l4 -14 q1 -10 10 -29l3 -13q2 -7 6 -14v-5l5 -12v-5q3 -5 5 -15l2 -5q1 -4 7 -19l4 -14h20h109l12 38l9 25l2 5l2 11l8 23l2 4l3 11l2 11l3 5l2 10q6 11 11 32l2 3l13 44l2 7l2 5l2 6l1 5l2 7l2 5l3 12q6 11 11 32l2 3l1 5l2 6l9 29q1 5 7 20l9 31l5 12l2 7l2 5l1 8l7 20q2 8 5 15 l4 14h-105l-9 -2q-1 -12 -9 -29l-2 -7l-1 -4l-8 -29l-2 -3v-5l-4 -5l-7 -28l-2 -4l-3 -12l-4 -5l-2 -8l-7 -24q-2 -4 -8 -27l-9 -26l-3 -9l-4 -11l-9 -31l-4 -13l-2 -7l-6 -15l-1 -7l-4 -15q-7 9 -11 25v1l-2 2l-3 14l-4 7q0 5 -1 6l-2 11l-3 6v5l-9 23l-5 16l-4 18l-2 5 l-5 15l-5 11l-2 9q-2 12 -8 24l-2 11q-1 2 -4.5 11.5t-6.5 15.5q-3 14 -5 19l-2 6q-1 4 -7 19v6q-1 6 -8 22v5l-4 6v7h-12h-70z" />
<glyph unicode="w" horiz-adv-x="695" d="M30 478h-9q1 -14 9 -33v-6l5 -14l2 -5q0 -5 1 -6l2 -10l2 -5l2 -7l5 -19l2 -9l4 -7q0 -11 4 -18v-4l2 -4l2 -9l3 -9l2 -11l9 -33l9 -27l-1 -1q0 -1 3 -3v-5q2 -10 5 -14q0 -4 1 -5l2 -9l3 -13l4 -11q1 -9 7 -27q0 -2 2 -4v-2q1 -2 2.5 -7t2.5 -10l2 -12q1 -5 4 -15t5 -16 l8 -28q0 -2 2 -4v-5q4 -11 5 -13q3 -16 9 -36h119q0 9 4 16q1 8 3 18v4l3 13l2 5l1 13l2 4l2 9l2 7l3 18q3 13 4 21l2 9l3 7l2 10l6 25l1 11l4 9l6 37l4 14l5 24q6 22 7 39q6 -11 7 -26q2 -5 4.5 -16t3.5 -14q0 -10 4 -17v-8l5 -17q2 -16 8 -30v-6l1 -7l4 -11l2 -13l3 -10 l2 -9q0 -16 7 -29v-5l3 -11q2 -16 5 -26q1 -11 6 -22v-4l1 -5l2 -15l4 -12h119l11 40l1 4l3 14l9 31l2 6l2 5l1 12l2 7q8 20 11 33l2 5l9 40l2 4l2 5l4 15l1 6l6 21l3 11l2 3l4 14l1 13l6 11l3 13l10 40l2 5l2 6l2 7l7 28l2 3l1 7l11 40l1 3l2 13l2 5l1 6h-110l-3 -20 l-6 -21v-7l-2 -5l-6 -21l-1 -3l-8 -33l-1 -6l-2 -9l-2 -10l-4 -8v-8l-3 -7l-7 -31l-3 -13v-5q-3 -5 -5 -21l-2 -3l-2 -5l-2 -11l-3 -12l-7 -33l-2 -5v-6l-4 -14q-2 6 -5 11l-5 27l-1 9l-9 30l-2 12l-4 11v6l-2 8l-10 43l-2 8q-1 0 -1 1v1q-1 1 -1 3l-2 10q-1 13 -6 28l-2 10 l-1 11l-6 18l-3 20l-9 32v5l-4 13h-108l-11 -2l-6 -33l-2 -6l-2 -9l-2 -5l-1 -3q0 -3 -1.5 -9t-2.5 -12q-2 -14 -5 -23v-7l-7 -23l-2 -7v-8l-4 -7q-3 -22 -4 -25l-2 -10l-4 -11l-5 -26l-2 -3v-6q-3 -7 -3 -18q-3 -7 -6 -18l-2 -13q-3 -14 -5 -20l-3 -11l-2 -4l-8 40 q0 2 -2 4l-4 14q0 8 -3 17l-2 13l-4 7l-1 7q0 4 -8 30l-1 8q-1 7 -7 30v6l-3 8l-2 9l-9 36l-4 15q0 4 -1 5l-2 6l-5 25q-2 14 -8 28l-1 11h-56h-45z" />
<glyph unicode="x" horiz-adv-x="493" d="M35 478h-5q5 -15 17 -27q4 -10 17 -26q0 -2 2 -4l2 -5l4 -4l3 -6l6 -5q0 -5 3 -6l2 -5l5 -7l10 -17q2 -6 14 -18l2 -5l4 -6l3 -2l6 -8l2 -9l6 -7l5 -9l7 -6l6 -11l15 -23l5 -12q-6 -7 -10 -17q-8 -11 -10 -14l-4 -5l-4 -6l-3 -5l-4 -4l-3 -5l-2 -5l-4 -5l-2 -5l-6 -7 l-3 -6l-6 -7l-3 -9l-6 -4l-17 -27l-5 -7l-9 -15l-7 -11l-4 -4l-3 -8l-6 -7l-8 -11l-17 -29l-4 -4l-7 -10l-5 -11h85h35q10 17 16 25l4 5l5 10l4 5l2 2q1 1 1 2l3 5q8 12 11 18l3 1l4 6l4 8l5 6l12 20l3 2l2 6l5 7q7 7 11 18l4 1l3 8l6 -1l24 -41l3 -4l4 -4q0 -1 3 -3 q1 -2 10 -18l16 -24l2 -4q7 -7 13 -18l4 -4l4 -7l7 -9l3 -9l8 -9h120q-4 13 -18 28l-1 6l-7 10q-11 13 -14 18q0 1 -2 3l-3 5l-4 5q-2 4 -3 5q-2 4 -13 22l-5 7l-5 8l-19 30l-4 3l-5 7q-5 15 -17 27q0 1 -2 3l-7 12l-4 4q-2 5 -9 14l-3 5l-3 7l-5 5q-1 3 -4 6l-4 7l-1 7 q9 10 20 29l4 8l2 3q1 0 3 3l2 3l11 15l1 5q10 10 14 19l5 9l4 5l3 7l7 7l11 19l14 20l1 3l6 9q11 10 18 27l6 9l7 9l5 13h-120q-8 -11 -14 -24l-7 -8l-3 -3l-2 -6l-6 -5l-1 -5l-4 -6l-4 -3l-8 -14l-16 -25l-1 -3q-10 -10 -19 -30l-20 25l-2 5l-3 3l-2 6l-5 5l-3 5l-4 6 l-2 5l-5 5l-2 5l-5 5l-4 6q-2 6 -9 16l-5 4l-3 9l-5 6l-4 7l-5 9h-117z" />
<glyph unicode="y" horiz-adv-x="465" d="M37 478h-30l14 -44l1 -4l8 -22l1 -7l4 -6l3 -16l2 -3q2 -4 6 -14l5 -16l2 -7q1 -1 1 -4t1 -4q5 -19 15 -42l2 -11l10 -28l-1 -1q0 -1 3 -2v-5q3 -5 5 -15l2 -4l14 -44l1 -4l6 -18l5 -11l4 -15l3 -12l6 -10l1 -11l3 -10l6 -13q0 -10 7 -20l3 -15l6 -11q1 -16 11 -37l4 -13 v-14q-15 -34 -57 -34q-24 0 -59 12l-4 -23l-2 -5l-3 -20v-5l-2 -4l-6 -31q48 -14 78 -14q43 0 104 23q17 17 28 33l2 4l1 7l9 19l6 19l5 13l2 10q7 17 10 30l3 6l6 20l3 11l4 8l3 11l4 9q2 13 11 33l1 5l1 9q6 11 11 31l4 8l1 6l2 5l2 7l4 9l9 24l1 6l1 5l2 11l4 4l1 13 l4 10l4 11l3 10q6 11 11 31l5 13q4 11 5 14l1 6l2 4l2 5l4 16l3 8q1 4 3 9t4 9v6l2 5q2 3 3.5 7t2.5 7l13 43q0 2 1 4v2q0 1 1 2l3 5l2 11h-113l-9 -31q-1 -4 -7 -19v-5l-3 -5l-4 -12l-2 -5l-3 -13l-2 -7l-2 -5l-11 -30q-2 -9 -6 -19q0 -3 -7 -23l-5 -19l-6 -12l-1 -6l-2 -9 l-4 -11l-3 -11l-4 -12l-8 -23l-4 -10v-5l-5 -12l-4 -13l-10 28q-2 7 -6 14q0 4 -1 5v6q-3 5 -5 13l-4 11l-1 7l-2 5l-4 9l-3 7l-4 16l-2 3l-1 8l-4 6l-2 5q-2 3 -2 4l-3 12q-2 13 -8 24q-1 3 -3 7l-1 4q-1 16 -12 37l-2 11l-5 9q-2 14 -9 27l-3 12l-4 14l-5 13h-82z" />
<glyph unicode="z" horiz-adv-x="460" d="M59 478h-4v-93h204q-5 -10 -15 -17l-2 -4l-2 -5l-11 -13l-4 -3l-1 -6q-5 -3 -11 -11l-4 -6l-3 -3l-3 -7l-5 -6l-6 -5q-4 -7 -14 -17l-2 -6l-3 -1l-2 -4l-4 -4l-10 -15l-5 -7l-7 -9l-5 -7l-8 -8l-6 -7l-7 -9l-18 -26l-3 -2q-6 -10 -14 -18l-2 -5l-3 -2l-2 -3l-4 -3l-7 -13 l-11 -10l-6 -11l-9 -10l-7 -9v-91h378v93h-240l18 22l3 4l2 3l2 4l2 3l5 4l2 4l3 3l1 6l6 4l3 4l18 23l4 3l11 17l4 4l4 5l12 16l4 3l3 7l5 8l7 7l7 9l5 6q10 10 21 30q11 8 20 24l3 2l7 9l1 4l7 10l11 10q2 6 9 13l3 4l6 6q0 2 8 12v90h-339z" />
<glyph unicode="{" horiz-adv-x="455" d="M403 -105v87q-73 8 -99 36q-25 25 -25 88v29q0 74 -23 106q-19 29 -71 43q52 15 71 43q23 35 23 107v29q0 62 25 90q26 28 99 35v87q-263 0 -263 -202v-69q0 -66 -59 -66h-22v-107h22q59 0 59 -66v-68q0 -202 263 -202z" />
<glyph unicode="|" horiz-adv-x="282" d="M203 -177v943h-124v-943h124z" />
<glyph unicode="}" horiz-adv-x="455" d="M396 232v107h-22q-59 0 -59 66v68q0 202 -263 202v-87q73 -7 98 -35q26 -29 26 -90v-28q0 -72 23 -107q19 -28 71 -43q-52 -14 -71 -43q-23 -32 -23 -106v-30q0 -63 -25 -88q-25 -28 -99 -36v-87q263 0 263 202v69q0 66 59 66h22z" />
<glyph unicode="~" horiz-adv-x="556" d="M514 406l-81 40q-23 -44 -35 -56t-33 -12q-18 0 -77 38q-50 33 -95 33q-93 0 -151 -145l81 -40q23 44 35 56t33 12q18 0 77 -38q50 -33 95 -33q93 0 151 145z" />
<glyph unicode="&#xa1;" horiz-adv-x="368" d="M107 604q0 -13 12 -41q33 -24 66 -24q32 0 54 16.5t22 48.5q0 33 -22 49.5t-56 16.5t-55 -16.5t-21 -49.5zM119 463v-475h114v475h-114z" />
<glyph unicode="&#xa2;" horiz-adv-x="565" d="M267 -7l-4 2q-59 10 -99 51.5t-55.5 93.5t-15.5 113q0 102 38 165.5t130 90.5l6 3v74h104v-74q80 -19 120 -55q0 -5 -23.5 -45t-26.5 -40q-4 0 -11.5 5t-15 12t-11.5 9q-33 18 -70 18q-119 0 -119 -162q0 -70 27.5 -119t91.5 -49q42 0 70 16q4 3 15.5 12.5t21.5 16 t16 6.5q10 -15 42 -79v-2q0 -16 -48.5 -37t-78.5 -26v-77h-104v77z" />
<glyph unicode="&#xa3;" horiz-adv-x="634" d="M495 486q-26 194 -235 199q-123 -12 -178 -130q-21 -45 -21 -93q0 -62 32 -118h-40v-80h79q2 -14 2 -22v-15q-14 -86 -101 -120l4 -12q2 -15 9 -31v-6l3 -9q1 0 1 -1q0 -3 1 -4l2 -10l2 -5v-8q2 -7 6 -14v-5q14 2 32 9h5q1 0 3 2l20 1q3 0 5.5 0.5t4.5 1t3 0.5l6 2h59 l21 -4h5l4 -1h11q65 -25 153 -25q70 0 137 17v2v-2v2l-9 27l-4 13q-2 13 -5 20l-7 31l-2 6l-1 5q-51 -15 -104 -15q-64 0 -131 21l-38 6l-13 2h-5q31 58 31 134v7h156v80h-182q-6 27 -27 50q-5 12 -13 20q-1 0 -1 1l-1 1v4l-5 21q-1 7 -1 20q0 111 127 118q81 -20 93 -107 q10 0 17 4h3l2 -1q8 0 15 3h4l6 1h5l9 2h14l7 2z" />
<glyph unicode="&#xa4;" horiz-adv-x="537" d="M100 435q-32 -50 -32 -106q0 -57 32 -107l-64 -61l54 -55l65 63q53 -32 112 -32q62 0 112 32l66 -63l55 55l-66 61q33 50 33 107t-33 106l66 62l-55 54l-66 -63q-49 33 -112 33q-61 0 -112 -33l-65 63l-54 -54zM144 329q0 48 35 83q34 34 87 34t87 -34q36 -34 36 -83 t-36 -84q-34 -34 -87 -34t-87 34q-35 35 -35 84z" />
<glyph unicode="&#xa5;" horiz-adv-x="677" d="M655 670h-157l-91 -159q-44 -76 -68 -131q-22 54 -67 131l-91 159h-159l250 -413v-44h-161v-113h161v-100h133v100h161v113h-161v47z" />
<glyph unicode="&#xa6;" horiz-adv-x="251" d="M163 675h-76v-358h76v358zM163 164h-76v-359h76v359z" />
<glyph unicode="&#xa7;" horiz-adv-x="693" d="M638 240q0 81 -52 127q-48 42 -151 74q-105 33 -133 47q-31 15 -31 37q0 45 69 45q84 0 154 -46l68 91q-92 66 -213 66q-97 0 -151.5 -43t-54.5 -113q0 -53 19 -84q-108 -54 -108 -158q0 -79 53 -126q44 -41 151 -75q112 -36 133 -47q30 -15 30 -37q0 -45 -69 -45 q-82 0 -153 47l-68 -92q92 -65 212 -65q99 0 154 45q52 42 52 111q0 51 -20 83q109 55 109 158zM506 231q0 -56 -64 -81q-34 17 -118 44q-73 24 -94 38q-43 25 -43 61q0 55 63 80q50 -22 118 -44q63 -20 95 -37q43 -25 43 -61z" />
<glyph unicode="&#xa8;" d="M431 643q0 31 -22.5 53t-53.5 22t-54.5 -22.5t-23.5 -52.5q0 -29 23.5 -51.5t54.5 -22.5t53.5 22.5t22.5 51.5zM218 643q0 31 -23 53t-55 22q-31 0 -54 -22t-23 -53q0 -29 23.5 -51.5t53.5 -22.5q31 0 54.5 22.5t23.5 51.5z" />
<glyph unicode="&#xa9;" horiz-adv-x="827" d="M771 335q0 147 -103 246q-100 100 -254 100q-153 0 -256 -100q-102 -99 -102 -246t102 -247q104 -99 256 -99t254 99q103 100 103 247zM707 335q0 -122 -84 -203t-209 -81q-126 0 -210 81t-84 203t84 203t210 81q125 0 209 -81t84 -203zM562 449q-44 83 -143 83 q-75 0 -124 -55q-48 -55 -48 -140q0 -90 46 -142t124 -52q91 0 142 86l-69 46q-31 -49 -71 -49q-79 0 -79 111q0 112 78 112q40 0 66 -42z" />
<glyph unicode="&#xaa;" horiz-adv-x="472" d="M411 264v274q0 66 -46.5 104.5t-124.5 38.5q-81 0 -158 -41l42 -74q52 27 116 27q63 0 63 -53v-20q-32 16 -83 16q-76 0 -122 -34q-50 -36 -50 -101q0 -70 50 -109q44 -35 108 -35q60 0 97 37v-30h108zM303 384q-27 -39 -79 -39q-67 0 -67 56q0 52 67 52q47 0 79 -17v-52 z" />
<glyph unicode="&#xab;" horiz-adv-x="621" d="M582 0l-157 252l157 250h-142l-161 -251l161 -251h142zM332 0l-156 252l156 250h-141l-161 -251l161 -251h141z" />
<glyph unicode="&#xac;" horiz-adv-x="565" d="M511 192v275h-457v-76h378v-199h79z" />
<glyph unicode="&#xad;" horiz-adv-x="311" d="M45 339h-12v-99h21h172l13 2v97h-194z" />
<glyph unicode="&#xae;" horiz-adv-x="827" d="M771 335q0 147 -103 246q-100 100 -254 100q-153 0 -256 -100q-102 -99 -102 -246t102 -247q104 -99 256 -99t254 99q103 100 103 247zM707 335q0 -122 -84 -203t-209 -81q-126 0 -210 81t-84 203t84 203t210 81q125 0 209 -81t84 -203zM584 412q0 58 -39 90 q-34 28 -95 28h-181v-377h82v138h67l71 -138h93l-75 148q77 29 77 111zM500 410q0 -49 -56 -49h-93v97h93q56 0 56 -48z" />
<glyph unicode="&#xaf;" horiz-adv-x="490" d="M387 559v96h-284v-96h284z" />
<glyph unicode="&#xb0;" horiz-adv-x="481" d="M436 492q0 78 -56 134q-55 55 -140 55q-84 0 -139 -55q-56 -56 -56 -134q0 -80 56 -136q55 -55 139 -55q85 0 140 55q56 56 56 136zM332 492q0 -39 -26 -65t-66 -26q-39 0 -65.5 26.5t-26.5 64.5q0 36 26.5 62.5t65.5 26.5t65.5 -26t26.5 -63z" />
<glyph unicode="&#xb1;" horiz-adv-x="530" d="M225 118h81v182h186v75h-186v182h-81v-182h-189v-75h189v-182zM492 0v76h-456v-76h456z" />
<glyph unicode="&#xb2;" horiz-adv-x="321" d="M12 332h294v55h-182q16 15 56 44q74 51 95 78q29 35 29 71q0 41 -34.5 66.5t-103.5 25.5q-63 0 -96.5 -23t-47.5 -74l71 -8q11 31 25.5 41.5t47.5 10.5q31 0 47 -13.5t16 -36.5q0 -20 -18 -38q-10 -11 -80 -61q-67 -46 -96 -86q-21 -26 -23 -52z" />
<glyph unicode="&#xb3;" horiz-adv-x="321" d="M16 421q19 -97 145 -97q66 0 105.5 30.5t39.5 73.5q0 66 -83 88q31 7 48.5 26.5t17.5 45.5q0 38 -32.5 61t-99.5 23q-54 0 -83.5 -19t-50.5 -67l68 -10q12 26 26 36t40 10q56 0 56 -40q0 -47 -72 -47l-11 -49h11q5 1 14 1q77 0 77 -50q0 -25 -21 -42.5t-54 -17.5 q-27 0 -47 14q-16 9 -27 36z" />
<glyph unicode="&#xb4;" d="M396 723h-173l-86 -154h115z" />
<glyph unicode="&#xb5;" horiz-adv-x="557" d="M480 481h-83v-206q0 -109 -12 -141q-10 -32 -42 -52t-68 -20q-35 0 -63 19t-41 52q-12 35 -12 144v204h-83v-666h83v233q29 -33 50 -44q31 -15 70 -15q43 0 75 18q26 13 51 51v-58h75v481z" />
<glyph unicode="&#xb6;" horiz-adv-x="716" d="M628 -177v847h-357q-96 0 -157 -55q-68 -59 -68 -155q0 -98 67 -156q63 -54 158 -54h68v-427h113v746h63v-746h113z" />
<glyph unicode="&#xb7;" horiz-adv-x="266" d="M226 336q0 35 -28 60.5t-64 25.5q-39 0 -65.5 -25t-26.5 -61t26.5 -61t65.5 -25q36 0 64 25.5t28 60.5z" />
<glyph unicode="&#xb8;" d="M373 -101q0 68 -77 68q-26 0 -39 -7l17 75h-55l-27 -108l36 -13q13 7 29 7q31 0 31 -25q0 -33 -54 -33q-40 0 -88 23l-20 -36q59 -35 129 -35q118 0 118 84z" />
<glyph unicode="&#xb9;" horiz-adv-x="321" d="M155 332h70v340h-51q-24 -27 -59 -51.5t-65 -32.5v-56q58 14 105 51v-251z" />
<glyph unicode="&#xba;" horiz-adv-x="486" d="M433 468q0 93 -54 153t-137 60t-137 -60q-53 -62 -53 -153q0 -93 53 -152q54 -59 137 -59t137 59q54 58 54 152zM321 468q0 -47 -21 -77.5t-58 -30.5q-78 0 -78 108q0 109 78 109q38 0 58.5 -29.5t20.5 -79.5z" />
<glyph unicode="&#xbb;" horiz-adv-x="621" d="M598 251l-162 251h-141l156 -250l-156 -252h141zM348 251l-161 251h-141l156 -250l-156 -252h141z" />
<glyph unicode="&#xbc;" horiz-adv-x="1366" d="M185 670h-9q1 -5 1 -16q0 -39 -25 -73q-4 -1 -16 -9q-18 0 -26 -4h-16l-8 -2h-20l-7 -2h-12v-90h112v-135v-337h116v668h-90zM660 674q-8 5 -19 8q-5 -11 -10 -37l-4 -5v-6l-3 -4l-2 -7l-8 -30l-2 -7q-8 -22 -9 -28l-2 -3l-2 -4l-1 -5l-4 -11l-4 -13l-1 -8l-7 -21 q-4 -11 -5 -14l-2 -12l-5 -11l-5 -20q-3 -6 -6 -15l-3 -13q-6 -12 -9 -29l-2 -3l-2 -7q-3 -11 -4 -14l-4 -14q-5 -9 -9 -28l-2 -3l-2 -4l-3 -12l-2 -10l-5 -11l-6 -21l-1 -5q-1 -5 -3 -9l-2 -5l-2 -6v-4l-1 -6l-4 -5l-5 -20l-4 -11l-9 -27l-8 -30l-4 -7l-1 -5l-2 -5v-5 l-4 -9l-9 -29l-3 -13l-6 -13q-2 -10 -9 -27v-7l-2 -5q-4 -4 -7 -25l-2 -4l-2 -3v-5l-4 -5l-1 -7l-2 -9l-5 -13q-2 -10 -9 -27v-6l-2 -3q-2 -10 -5 -14l-1 -5l-4 -13q4 -1 28 -8l9 -3l5 -2l8 -4q16 -3 40 -12h6q1 8 7 24l2 5l1 8q2 7 6 14l2 5l1 12l4 5q1 4 8 28l2 9l3 7 l4 13l3 13l2 4l4 9q2 10 5 17l6 19l4 17l4 13l3 11q0 1 1 3t2.5 4.5t2.5 5.5l1 5l4 15l2 5l9 24l7 28l8 23l2 10l1 4q4 5 6 14v5l3 6v5q4 7 6 17l2 5l5 11l4 12l2 14q6 14 7 22l2 6l2 3l2 4q2 12 9 28l5 19l2 4l2 5l1 5l5 19l3 13l4 13l5 13q1 7 6 13q1 8 7 24l2 10l9 23 l1 5q2 11 5 19l9 30l2 5l3 7l2 7l2 5l2 9l10 30l1 7l2 4l2 9l3 9l-38 15l-5 1l-7 2q-10 1 -19 6h-6zM1096 670h-7q-1 -1 -3 -4t-6 -8l-9 -11l-3 -4l-2 -3l-4 -4l-2 -3l-2 -5l-5 -4l-2 -5l-16 -18l-8 -12q-6 -6 -11 -16l-6 -5l-7 -9l-5 -8q-7 -4 -13 -18l-4 -2l-4 -5 q-5 -8 -14 -17l-2 -5q-7 -7 -13 -18l-4 -3l-3 -4l-7 -10l-18 -23l-2 -3l-4 -2l-1 -5l-3 -2l-4 -7l-9 -9l-7 -12q-4 -3 -22 -29l-4 -3l-3 -3l-6 -9l-3 -3l-4 -6l-12 -16l-3 -2q-6 -10 -11 -15l-2 -3l-3 -4l-4 -5q-7 -6 -11 -17l-6 -4l-2 -5q-1 -1 -3.5 -4t-6.5 -8.5t-9 -11.5 l-4 -2l-2 -4v-2v2v-3v1v-3v2v-4v2v-4v2v-3v1v-3v2v-4v2v-4v2v-4v2v-3v1v-3v2v-4v2v-4v2v-4v2v-3v1v-2v1v-3v2v-4v2v-4v2v-3v1v-3v2v-4v2v-4v2v-4v2v-3v1v-3v2v-4v2v-4v2v-4v2v-3v1v-3v2v-4v2v-4v2v-3v1v-3v2v-4v2v-3v1v-3v2v-4v2v-3v1v-3v2v-4v2v-4v2v-3v1v-3v2v-4v2v-4v2 v-4v2v-3v1v-3v2v-4v2v-4v2v-4v2v-3v1v-3v2v-4v2v-4v2v-3v1v-2v1v-3v2v-4v2v-18v2v-2h84h264v-126h118v126h93v103h-93v439h-135zM1106 522l7 9q2 -10 2 -19v-281h-232l17 23l2 4l17 20l4 4l3 5l6 7l3 5l6 5l3 6l4 5l19 24l5 7l15 22l4 3l14 19l2 4q10 10 19 24l3 2l22 29 l9 9l4 11l9 9l3 4l6 6l7 12q8 6 17 22z" />
<glyph unicode="&#xbd;" horiz-adv-x="1313" d="M185 670h-9q1 -5 1 -16q0 -39 -25 -73q-4 -1 -16 -9q-18 0 -26 -4h-16l-8 -2h-20l-7 -2h-12v-90h112v-135v-337h116v668h-90zM660 674q-8 5 -19 8q-5 -11 -10 -37l-4 -5v-6l-3 -4l-2 -7l-8 -30l-2 -7q-8 -22 -9 -28l-2 -3l-2 -4l-1 -5l-4 -11l-4 -13l-1 -8l-7 -21 q-4 -11 -5 -14l-2 -12l-5 -11l-5 -20q-3 -6 -6 -15l-3 -13q-6 -12 -9 -29l-2 -3l-2 -7q-3 -11 -4 -14l-4 -14q-5 -9 -9 -28l-2 -3l-2 -4l-3 -12l-2 -10l-5 -11l-6 -21l-1 -5q-1 -5 -3 -9l-2 -5l-2 -6v-4l-1 -6l-4 -5l-5 -20l-4 -11l-9 -27l-8 -30l-4 -7l-1 -5l-2 -5v-5 l-4 -9l-9 -29l-3 -13l-6 -13q-2 -10 -9 -27v-7l-2 -5q-4 -4 -7 -25l-2 -4l-2 -3v-5l-4 -5l-1 -7l-2 -9l-5 -13q-2 -10 -9 -27v-6l-2 -3q-2 -10 -5 -14l-1 -5l-4 -13q4 -1 28 -8l9 -3l5 -2l8 -4q16 -3 40 -12h6q1 8 7 24l2 5l1 8q2 7 6 14l2 5l1 12l4 5q1 4 8 28l2 9l3 7 l4 13l3 13l2 4l4 9q2 10 5 17l6 19l4 17l4 13l3 11q0 1 1 3t2.5 4.5t2.5 5.5l1 5l4 15l2 5l9 24l7 28l8 23l2 10l1 4q4 5 6 14v5l3 6v5q4 7 6 17l2 5l5 11l4 12l2 14q6 14 7 22l2 6l2 3l2 4q2 12 9 28l5 19l2 4l2 5l1 5l5 19l3 13l4 13l5 13q1 7 6 13q1 8 7 24l2 10l9 23 l1 5q2 11 5 19l9 30l2 5l3 7l2 7l2 5l2 9l10 30l1 7l2 4l2 9l3 9l-38 15l-5 1l-7 2q-10 1 -19 6h-6zM1241 495q-27 183 -228 183h-10q-204 -24 -204 -228q0 -4 0.5 -10t0.5 -10h112q-3 16 -3 32q0 73 61 101q25 13 53 13q40 0 81 -32l13 -18q9 -34 9 -67q0 -117 -114 -200 q-9 -11 -21 -19l-4 -6h-1q-1 0 -1 -1q-3 0 -4 -4l-5 -4l-6 -2l-5 -6l-23 -18l-3 -1l-2 -4l-12 -7l-4 -5q-3 0 -5 -3l-6 -2q-8 -8 -13 -11l-4 -1l-3 -4l-6 -4l-5 -3l-5 -5q-10 -4 -17 -10l-8 -4l-5 -5l-37 -19l-7 -5v-104h22h423v104h-262q19 12 29 22l15 9l4 5q4 1 5 4l6 2 l3 4q12 7 16 13q8 3 12 10q10 7 18 16l5 1l19 22q3 0 4 3l5 4l4 4q15 14 33 34l2 3q1 0 2 2l1 2l15 14l4 5l3 4l4 5l2 5l5 3l15 31l4 2l5 15l2 5l4 5q15 42 15 89q0 22 -3 46z" />
<glyph unicode="&#xbe;" horiz-adv-x="1595" d="M505 549q-51 134 -213 134h-11q-200 -10 -226 -212l26 -4h5l5 -2h5l9 -2h5l9 -1h13l6 -2q18 0 25 -4q18 123 116 123q42 0 81 -16q7 -7 19 -16l7 -10q11 -39 11 -61q0 -86 -122 -86q-11 0 -35 2v-98q26 3 47 3q111 0 116 -74q3 -15 3 -29q0 -59 -58 -90q-44 -11 -62 -11 q-92 0 -123 114l-29 -4h-4l-6 -2h-5l-14 -2l-9 -1h-7q-12 0 -19 -4h-15v-8q17 -159 178 -190q26 -8 67 -8q82 0 147 50q63 52 72 144q2 22 2 31q0 87 -83 137q60 23 68 95q8 34 8 48q0 27 -9 56zM889 674q-8 5 -19 8q-5 -11 -10 -37l-4 -5v-6l-3 -4l-2 -7l-8 -30l-2 -7 l-9 -28l-2 -3l-2 -4l-1 -5l-4 -11l-4 -13l-1 -8l-7 -21q-3 -11 -5 -14l-2 -12l-5 -11l-5 -20q-3 -6 -6 -15l-3 -13q-6 -12 -9 -29l-2 -3l-2 -7q-4 -11 -4 -14l-4 -14q-5 -9 -9 -28l-2 -3l-2 -4l-3 -12l-2 -10l-5 -11l-6 -21l-1 -5q-1 -5 -3 -9l-2 -5l-2 -6v-4l-1 -6l-4 -5 l-5 -20l-4 -11l-9 -27l-8 -30l-4 -7l-1 -5l-2 -5v-5l-4 -9l-9 -29l-3 -13l-6 -13q-1 -10 -9 -27v-7l-2 -5q-4 -4 -7 -25l-2 -4l-2 -3v-5l-4 -5l-1 -7l-2 -9l-5 -13q-1 -10 -9 -27v-6l-2 -3q-2 -10 -5 -14l-1 -5l-4 -13q4 -1 28 -8l9 -3l5 -2l8 -4q16 -3 40 -12h6q1 8 7 24 l2 5l1 8q2 7 6 14l2 5l1 12l4 5q1 4 8 28l2 9l3 7l4 13l3 13l2 4l4 9q2 10 5 17l6 19l4 17l4 13l3 11q0 1 1 3t2.5 4.5t2.5 5.5l1 5l4 15l2 5l9 24l7 28l8 23l2 10l1 4q3 5 6 14v5l3 6v5q4 7 6 17l2 5l5 11l4 12l2 14q6 14 7 22l2 6l2 3l2 4q2 12 9 28l5 19l2 4l2 5l1 5 l5 19l3 13l4 13l5 13q1 7 6 13q1 8 7 24l2 10l9 23l1 5q2 11 5 19l9 30l2 5l3 7l2 7l2 5l2 9l10 30l1 7l2 4l2 9l3 9l-38 15l-5 1l-7 2q-10 1 -19 6h-6zM1325 670h-7q-1 -1 -3 -4t-6 -8l-9 -11l-3 -4l-2 -3l-4 -4l-2 -3l-2 -5l-5 -4l-2 -5l-16 -18l-8 -12q-6 -6 -11 -16 l-6 -5l-7 -9l-5 -8q-7 -4 -13 -18l-4 -2l-4 -5q-4 -8 -14 -17l-2 -5q-7 -7 -13 -18l-4 -3l-3 -4l-7 -10l-18 -23l-2 -3l-4 -2l-1 -5l-3 -2l-4 -7l-9 -9l-7 -12q-4 -3 -22 -29l-4 -3l-3 -3l-6 -9l-3 -3l-4 -6l-12 -16l-3 -2q-6 -10 -11 -15l-2 -3l-3 -4l-4 -5q-6 -6 -11 -17 l-6 -4l-2 -5q-1 -1 -3.5 -4t-6.5 -8.5t-9 -11.5l-4 -2l-2 -4v-2v2v-3v1v-3v2v-4v2v-4v2v-3v1v-3v2v-4v2v-4v2v-4v2v-3v1v-3v2v-4v2v-4v2v-4v2v-3v1v-2v1v-3v2v-4v2v-4v2v-3v1v-3v2v-4v2v-4v2v-4v2v-3v1v-3v2v-4v2v-4v2v-4v2v-3v1v-3v2v-4v2v-4v2v-3v1v-3v2v-4v2v-3v1v-3v2 v-4v2v-3v1v-3v2v-4v2v-4v2v-3v1v-3v2v-4v2v-4v2v-4v2v-3v1v-3v2v-4v2v-4v2v-4v2v-3v1v-3v2v-4v2v-4v2v-3v1v-2v1v-3v2v-4v2v-18v2v-2h84h264v-126h118v126h93v103h-93v439h-135zM1335 522l7 9q2 -10 2 -19v-281h-232l17 23l2 4l17 20l4 4l3 5l6 7l3 5l6 5l3 6l4 5l19 24l5 7 l15 22l4 3l14 19l2 4q10 10 19 24l3 2l22 29l9 9l4 11l9 9l3 4l6 6l7 12q8 6 17 22z" />
<glyph unicode="&#xbf;" horiz-adv-x="655" d="M596 130q-56 -141 -219 -141h-10q-172 30 -191 216h107q11 -110 124 -110h3q91 24 91 113q0 7 -2 29l-15 31q-6 6 -9 11l-2 2q-1 1 -2 1q-3 2 -14 13q-115 65 -119 213h109q-1 -1 -1 -13q0 -18 6 -42q7 -19 25 -41q9 -7 17 -16q114 -64 114 -183q0 -38 -12 -83zM447 605 q-18 -35 -62 -35h-7q-43 16 -43 61q0 13 1 14q20 39 54 39q19 0 38 -10q23 -18 23 -45q0 -17 -4 -24z" />
<glyph unicode="&#xc0;" horiz-adv-x="645" d="M259 670h-8l-3 -11l-6 -21l-5 -12l-2 -7l-2 -5l-1 -8l-2 -5l-4 -6l-1 -7l-1 -6l-4 -9v-5l-11 -29l-9 -25q-1 -7 -7 -21l-13 -44l-13 -39l-2 -4l-1 -5l-2 -6l-2 -5l-5 -17l-6 -13l-2 -12l-4 -13l-2 -4q-2 -10 -5 -14l-2 -7l-2 -6l-1 -5q-5 -9 -6 -19l-3 -5l-2 -8 q-1 -3 -4 -13.5t-6 -17.5l-2 -5l-9 -28l-1 -5l-13 -39l-7 -20q-2 -10 -5 -15l-1 -5l-2 -5l-6 -17l-1 -6l-9 -24l-4 -12l-3 -15l-2 -2q-1 -8 -6 -15l-1 -7l-1 -5l-2 -6v-5h114l13 40l2 4l1 5l2 7q1 2 1 4t1 4l4 7l1 4q2 11 8 20l1 7l2 9l3 6l2 7h265q8 -23 11 -31v-5 q3 -6 5 -14l2 -7l4 -5q1 -12 10 -32q0 -4 1 -5l2 -11l4 -7l2 -7h115q-1 7 -7 21q-2 7 -6 15q0 3 -1 4v6l-3 5q-8 29 -13 40l-1 7l-4 8l-4 15l-1 3l-4 7l-3 17q-4 7 -5 17l-3 10l-6 11q0 2 -1 5t-2 5l-11 33q-2 12 -9 25l-2 10q-2 12 -8 23v6l-2 3l-5 12l-2 7l-2 5l-1 7l-2 4 l-4 10l-3 11q-3 9 -4 10q-1 3 -2 7l-2 4q-1 14 -9 31v6q0 1 -1 3t-2.5 4.5t-2.5 5.5l-2 7l-3 6q-1 0 -1 1l-1 1v3l-4 12l-3 14l-5 12q-1 7 -7 21l-3 14q-2 8 -9 23v5l-2 4l-2 7q-1 7 -9 22v6l-2 3l-5 13l-2 6l-2 5l-1 7l-1 4l-6 17l-3 7q0 3 -4 13l-3 14h-134zM321 522v6 l9 -21l-1 -1l3 -2q0 -11 4 -18v-5l4 -5q0 -3 2 -5q0 -5 1 -6l4 -16l2 -3l3 -7q3 -10 4 -11l2 -10l11 -28v-5l3 -8l1 -6l9 -25q2 -7 4 -9l1 -8l6 -12l3 -15l9 -29l5 -12l3 -12l6 -13l3 -13h-200q6 14 10 31l1 4l2 4l2 5l2 6l2 7l3 9l2 7l4 8l5 20l10 29l3 9l2 7q6 14 11 37 l3 5v5l6 11l2 10l5 10l3 11l1 11l6 12l3 12zM452 755l-86 154h-173l143 -154h116z" />
<glyph unicode="&#xc1;" horiz-adv-x="645" d="M259 670h-8l-3 -11l-6 -21l-5 -12l-2 -7l-2 -5l-1 -8l-2 -5l-4 -6l-1 -7l-1 -6l-4 -9v-5l-11 -29l-9 -25q-1 -7 -7 -21l-13 -44l-13 -39l-2 -4l-1 -5l-2 -6l-2 -5l-5 -17l-6 -13l-2 -12l-4 -13l-2 -4q-2 -10 -5 -14l-2 -7l-2 -6l-1 -5q-5 -9 -6 -19l-3 -5l-2 -8 q-1 -3 -4 -13.5t-6 -17.5l-2 -5l-9 -28l-1 -5l-13 -39l-7 -20q-2 -10 -5 -15l-1 -5l-2 -5l-6 -17l-1 -6l-9 -24l-4 -12l-3 -15l-2 -2q-1 -8 -6 -15l-1 -7l-1 -5l-2 -6v-5h114l13 40l2 4l1 5l2 7q1 2 1 4t1 4l4 7l1 4q2 11 8 20l1 7l2 9l3 6l2 7h265q8 -23 11 -31v-5 q3 -6 5 -14l2 -7l4 -5q1 -12 10 -32q0 -4 1 -5l2 -11l4 -7l2 -7h115q-1 7 -7 21q-2 7 -6 15q0 3 -1 4v6l-3 5q-8 29 -13 40l-1 7l-4 8l-4 15l-1 3l-4 7l-3 17q-4 7 -5 17l-3 10l-6 11q0 2 -1 5t-2 5l-11 33q-2 12 -9 25l-2 10q-2 12 -8 23v6l-2 3l-5 12l-2 7l-2 5l-1 7l-2 4 l-4 10l-3 11q-3 9 -4 10q-1 3 -2 7l-2 4q-1 14 -9 31v6q0 1 -1 3t-2.5 4.5t-2.5 5.5l-2 7l-3 6q-1 0 -1 1l-1 1v3l-4 12l-3 14l-5 12q-1 7 -7 21l-3 14q-2 8 -9 23v5l-2 4l-2 7q-1 7 -9 22v6l-2 3l-5 13l-2 6l-2 5l-1 7l-1 4l-6 17l-3 7q0 3 -4 13l-3 14h-134zM321 522v6 l9 -21l-1 -1l3 -2q0 -11 4 -18v-5l4 -5q0 -3 2 -5q0 -5 1 -6l4 -16l2 -3l3 -7q3 -10 4 -11l2 -10l11 -28v-5l3 -8l1 -6l9 -25q2 -7 4 -9l1 -8l6 -12l3 -15l9 -29l5 -12l3 -12l6 -13l3 -13h-200q6 14 10 31l1 4l2 4l2 5l2 6l2 7l3 9l2 7l4 8l5 20l10 29l3 9l2 7q6 14 11 37 l3 5v5l6 11l2 10l5 10l3 11l1 11l6 12l3 12zM452 909h-173l-86 -154h115z" />
<glyph unicode="&#xc2;" horiz-adv-x="645" d="M259 670h-8l-3 -11l-6 -21l-5 -12l-2 -7l-2 -5l-1 -8l-2 -5l-4 -6l-1 -7l-1 -6l-4 -9v-5l-11 -29l-9 -25q-1 -7 -7 -21l-13 -44l-13 -39l-2 -4l-1 -5l-2 -6l-2 -5l-5 -17l-6 -13l-2 -12l-4 -13l-2 -4q-2 -10 -5 -14l-2 -7l-2 -6l-1 -5q-5 -9 -6 -19l-3 -5l-2 -8 q-1 -3 -4 -13.5t-6 -17.5l-2 -5l-9 -28l-1 -5l-13 -39l-7 -20q-2 -10 -5 -15l-1 -5l-2 -5l-6 -17l-1 -6l-9 -24l-4 -12l-3 -15l-2 -2q-1 -8 -6 -15l-1 -7l-1 -5l-2 -6v-5h114l13 40l2 4l1 5l2 7q1 2 1 4t1 4l4 7l1 4q2 11 8 20l1 7l2 9l3 6l2 7h265q8 -23 11 -31v-5 q3 -6 5 -14l2 -7l4 -5q1 -12 10 -32q0 -4 1 -5l2 -11l4 -7l2 -7h115q-1 7 -7 21q-2 7 -6 15q0 3 -1 4v6l-3 5q-8 29 -13 40l-1 7l-4 8l-4 15l-1 3l-4 7l-3 17q-4 7 -5 17l-3 10l-6 11q0 2 -1 5t-2 5l-11 33q-2 12 -9 25l-2 10q-2 12 -8 23v6l-2 3l-5 12l-2 7l-2 5l-1 7l-2 4 l-4 10l-3 11q-3 9 -4 10q-1 3 -2 7l-2 4q-1 14 -9 31v6q0 1 -1 3t-2.5 4.5t-2.5 5.5l-2 7l-3 6q-1 0 -1 1l-1 1v3l-4 12l-3 14l-5 12q-1 7 -7 21l-3 14q-2 8 -9 23v5l-2 4l-2 7q-1 7 -9 22v6l-2 3l-5 13l-2 6l-2 5l-1 7l-1 4l-6 17l-3 7q0 3 -4 13l-3 14h-134zM321 522v6 l9 -21l-1 -1l3 -2q0 -11 4 -18v-5l4 -5q0 -3 2 -5q0 -5 1 -6l4 -16l2 -3l3 -7q3 -10 4 -11l2 -10l11 -28v-5l3 -8l1 -6l9 -25q2 -7 4 -9l1 -8l6 -12l3 -15l9 -29l5 -12l3 -12l6 -13l3 -13h-200q6 14 10 31l1 4l2 4l2 5l2 6l2 7l3 9l2 7l4 8l5 20l10 29l3 9l2 7q6 14 11 37 l3 5v5l6 11l2 10l5 10l3 11l1 11l6 12l3 12zM512 755l-120 154h-139l-121 -154h90l99 72l99 -72h92z" />
<glyph unicode="&#xc3;" horiz-adv-x="645" d="M259 670h-8l-3 -11l-6 -21l-5 -12l-2 -7l-2 -5l-1 -8l-2 -5l-4 -6l-1 -7l-1 -6l-4 -9v-5l-11 -29l-9 -25q-1 -7 -7 -21l-13 -44l-13 -39l-2 -4l-1 -5l-2 -6l-2 -5l-5 -17l-6 -13l-2 -12l-4 -13l-2 -4q-2 -10 -5 -14l-2 -7l-2 -6l-1 -5q-5 -9 -6 -19l-3 -5l-2 -8 q-1 -3 -4 -13.5t-6 -17.5l-2 -5l-9 -28l-1 -5l-13 -39l-7 -20q-2 -10 -5 -15l-1 -5l-2 -5l-6 -17l-1 -6l-9 -24l-4 -12l-3 -15l-2 -2q-1 -8 -6 -15l-1 -7l-1 -5l-2 -6v-5h114l13 40l2 4l1 5l2 7q1 2 1 4t1 4l4 7l1 4q2 11 8 20l1 7l2 9l3 6l2 7h265q8 -23 11 -31v-5 q3 -6 5 -14l2 -7l4 -5q1 -12 10 -32q0 -4 1 -5l2 -11l4 -7l2 -7h115q-1 7 -7 21q-2 7 -6 15q0 3 -1 4v6l-3 5q-8 29 -13 40l-1 7l-4 8l-4 15l-1 3l-4 7l-3 17q-4 7 -5 17l-3 10l-6 11q0 2 -1 5t-2 5l-11 33q-2 12 -9 25l-2 10q-2 12 -8 23v6l-2 3l-5 12l-2 7l-2 5l-1 7l-2 4 l-4 10l-3 11q-3 9 -4 10q-1 3 -2 7l-2 4q-1 14 -9 31v6q0 1 -1 3t-2.5 4.5t-2.5 5.5l-2 7l-3 6q-1 0 -1 1l-1 1v3l-4 12l-3 14l-5 12q-1 7 -7 21l-3 14q-2 8 -9 23v5l-2 4l-2 7q-1 7 -9 22v6l-2 3l-5 13l-2 6l-2 5l-1 7l-1 4l-6 17l-3 7q0 3 -4 13l-3 14h-134zM321 522v6 l9 -21l-1 -1l3 -2q0 -11 4 -18v-5l4 -5q0 -3 2 -5q0 -5 1 -6l4 -16l2 -3l3 -7q3 -10 4 -11l2 -10l11 -28v-5l3 -8l1 -6l9 -25q2 -7 4 -9l1 -8l6 -12l3 -15l9 -29l5 -12l3 -12l6 -13l3 -13h-200q6 14 10 31l1 4l2 4l2 5l2 6l2 7l3 9l2 7l4 8l5 20l10 29l3 9l2 7q6 14 11 37 l3 5v5l6 11l2 10l5 10l3 11l1 11l6 12l3 12zM516 890h-89q-7 -45 -33 -45q-18 0 -52 19q-53 29 -100 29q-51 0 -82.5 -37.5t-31.5 -100.5h89q7 46 34 46q18 0 52 -19q53 -29 99 -29q52 0 83 37t31 100z" />
<glyph unicode="&#xc4;" horiz-adv-x="645" d="M259 670h-8l-3 -11l-6 -21l-5 -12l-2 -7l-2 -5l-1 -8l-2 -5l-4 -6l-1 -7l-1 -6l-4 -9v-5l-11 -29l-9 -25q-1 -7 -7 -21l-13 -44l-13 -39l-2 -4l-1 -5l-2 -6l-2 -5l-5 -17l-6 -13l-2 -12l-4 -13l-2 -4q-2 -10 -5 -14l-2 -7l-2 -6l-1 -5q-5 -9 -6 -19l-3 -5l-2 -8 q-1 -3 -4 -13.5t-6 -17.5l-2 -5l-9 -28l-1 -5l-13 -39l-7 -20q-2 -10 -5 -15l-1 -5l-2 -5l-6 -17l-1 -6l-9 -24l-4 -12l-3 -15l-2 -2q-1 -8 -6 -15l-1 -7l-1 -5l-2 -6v-5h114l13 40l2 4l1 5l2 7q1 2 1 4t1 4l4 7l1 4q2 11 8 20l1 7l2 9l3 6l2 7h265q8 -23 11 -31v-5 q3 -6 5 -14l2 -7l4 -5q1 -12 10 -32q0 -4 1 -5l2 -11l4 -7l2 -7h115q-1 7 -7 21q-2 7 -6 15q0 3 -1 4v6l-3 5q-8 29 -13 40l-1 7l-4 8l-4 15l-1 3l-4 7l-3 17q-4 7 -5 17l-3 10l-6 11q0 2 -1 5t-2 5l-11 33q-2 12 -9 25l-2 10q-2 12 -8 23v6l-2 3l-5 12l-2 7l-2 5l-1 7l-2 4 l-4 10l-3 11q-3 9 -4 10q-1 3 -2 7l-2 4q-1 14 -9 31v6q0 1 -1 3t-2.5 4.5t-2.5 5.5l-2 7l-3 6q-1 0 -1 1l-1 1v3l-4 12l-3 14l-5 12q-1 7 -7 21l-3 14q-2 8 -9 23v5l-2 4l-2 7q-1 7 -9 22v6l-2 3l-5 13l-2 6l-2 5l-1 7l-1 4l-6 17l-3 7q0 3 -4 13l-3 14h-134zM321 522v6 l9 -21l-1 -1l3 -2q0 -11 4 -18v-5l4 -5q0 -3 2 -5q0 -5 1 -6l4 -16l2 -3l3 -7q3 -10 4 -11l2 -10l11 -28v-5l3 -8l1 -6l9 -25q2 -7 4 -9l1 -8l6 -12l3 -15l9 -29l5 -12l3 -12l6 -13l3 -13h-200q6 14 10 31l1 4l2 4l2 5l2 6l2 7l3 9l2 7l4 8l5 20l10 29l3 9l2 7q6 14 11 37 l3 5v5l6 11l2 10l5 10l3 11l1 11l6 12l3 12zM506 829q0 31 -22.5 53t-53.5 22t-54.5 -22.5t-23.5 -52.5q0 -29 23.5 -51.5t54.5 -22.5t53.5 22.5t22.5 51.5zM293 829q0 31 -23 53t-55 22q-31 0 -54 -22t-23 -53q0 -29 23.5 -51.5t53.5 -22.5q31 0 54.5 22.5t23.5 51.5z" />
<glyph unicode="&#xc5;" horiz-adv-x="645" d="M259 670h-8l-3 -11l-6 -21l-5 -12l-2 -7l-2 -5l-1 -8l-2 -5l-4 -6l-1 -7l-1 -6l-4 -9v-5l-11 -29l-9 -25q-1 -7 -7 -21l-13 -44l-13 -39l-2 -4l-1 -5l-2 -6l-2 -5l-5 -17l-6 -13l-2 -12l-4 -13l-2 -4q-2 -10 -5 -14l-2 -7l-2 -6l-1 -5q-5 -9 -6 -19l-3 -5l-2 -8 q-1 -3 -4 -13.5t-6 -17.5l-2 -5l-9 -28l-1 -5l-13 -39l-7 -20q-2 -10 -5 -15l-1 -5l-2 -5l-6 -17l-1 -6l-9 -24l-4 -12l-3 -15l-2 -2q-1 -8 -6 -15l-1 -7l-1 -5l-2 -6v-5h114l13 40l2 4l1 5l2 7q1 2 1 4t1 4l4 7l1 4q2 11 8 20l1 7l2 9l3 6l2 7h265q8 -23 11 -31v-5 q3 -6 5 -14l2 -7l4 -5q1 -12 10 -32q0 -4 1 -5l2 -11l4 -7l2 -7h115q-1 7 -7 21q-2 7 -6 15q0 3 -1 4v6l-3 5q-8 29 -13 40l-1 7l-4 8l-4 15l-1 3l-4 7l-3 17q-4 7 -5 17l-3 10l-6 11q0 2 -1 5t-2 5l-11 33q-2 12 -9 25l-2 10q-2 12 -8 23v6l-2 3l-5 12l-2 7l-2 5l-1 7l-2 4 l-4 10l-3 11q-3 9 -4 10q-1 3 -2 7l-2 4q-1 14 -9 31v6q0 1 -1 3t-2.5 4.5t-2.5 5.5l-2 7l-3 6q-1 0 -1 1l-1 1v3l-4 12l-3 14l-5 12q-1 7 -7 21l-3 14q-2 8 -9 23v5l-2 4l-2 7q-1 7 -9 22v6l-2 3l-5 13l-2 6l-2 5l-1 7l-1 4l-6 17l-3 7q0 3 -4 13l-3 14h-134zM321 522v6 l9 -21l-1 -1l3 -2q0 -11 4 -18v-5l4 -5q0 -3 2 -5q0 -5 1 -6l4 -16l2 -3l3 -7q3 -10 4 -11l2 -10l11 -28v-5l3 -8l1 -6l9 -25q2 -7 4 -9l1 -8l6 -12l3 -15l9 -29l5 -12l3 -12l6 -13l3 -13h-200q6 14 10 31l1 4l2 4l2 5l2 6l2 7l3 9l2 7l4 8l5 20l10 29l3 9l2 7q6 14 11 37 l3 5v5l6 11l2 10l5 10l3 11l1 11l6 12l3 12zM456 883q0 55 -38 92t-96 37q-57 0 -95 -37t-38 -92q0 -56 38 -92t95 -36q58 0 96 36t38 92zM381 883q0 -24 -17 -41t-42 -17q-24 0 -41 17t-17 41t17 40.5t41 16.5q25 0 42 -16.5t17 -40.5z" />
<glyph unicode="&#xc6;" horiz-adv-x="1027" d="M969 0v128h-338v167h179v126h-179v121h323v128h-475l-465 -670h158l80 120h247v-120h470zM501 500q0 -30 -1 -66q-1 -35 -1 -74v-123h-168l90 134q61 93 80 129z" />
<glyph unicode="&#xc7;" horiz-adv-x="699" d="M645 488q-67 201 -291 201h-19q-185 -21 -251 -208q-25 -75 -25 -144q0 -96 53 -213q85 -142 258 -142q20 0 31 1q181 16 244 204l-31 7l-13 2l-6 2l-29 5l-3 2q-9 0 -19 3l-9 2q-40 -124 -179 -124h-3q-127 12 -162 141q-14 61 -14 107q0 79 22 145q7 7 15 26l3 2l2 6 l8 9l2 4q9 5 29 25l4 2l4 3l5 3l5 2q0 1 2 2l2 1q9 2 18 8l12 5v1h2q2 0 3 1q22 7 59 7q113 0 161 -124l28 5l3 2l13 2l7 1q3 0 5 2h3q7 0 14 4q8 0 9 1h7l16 4q3 2 5 5zM473 -101q0 68 -77 68q-26 0 -39 -7l17 75h-55l-27 -108l36 -13q13 7 29 7q31 0 31 -25q0 -33 -54 -33 q-40 0 -88 23l-20 -36q59 -35 129 -35q118 0 118 84z" />
<glyph unicode="&#xc8;" horiz-adv-x="623" d="M125 670h-11v-296v-374h64h376v104h-22h-297q-5 0 -5 8v175h278v103h-56h-215q-6 0 -7 7v167h304v106h-409zM441 755l-86 154h-173l143 -154h116z" />
<glyph unicode="&#xc9;" horiz-adv-x="623" d="M125 670h-11v-296v-374h64h376v104h-22h-297q-5 0 -5 8v175h278v103h-56h-215q-6 0 -7 7v167h304v106h-409zM441 909h-173l-86 -154h115z" />
<glyph unicode="&#xca;" horiz-adv-x="623" d="M125 670h-11v-296v-374h64h376v104h-22h-297q-5 0 -5 8v175h278v103h-56h-215q-6 0 -7 7v167h304v106h-409zM501 755l-120 154h-139l-121 -154h90l99 72l99 -72h92z" />
<glyph unicode="&#xcb;" horiz-adv-x="623" d="M125 670h-11v-296v-374h64h376v104h-22h-297q-5 0 -5 8v175h278v103h-56h-215q-6 0 -7 7v167h304v106h-409zM495 829q0 31 -22.5 53t-53.5 22t-54.5 -22.5t-23.5 -52.5q0 -29 23.5 -51.5t54.5 -22.5t53.5 22.5t22.5 51.5zM282 829q0 31 -23 53t-55 22q-31 0 -54 -22 t-23 -53q0 -29 23.5 -51.5t53.5 -22.5q31 0 54.5 22.5t23.5 51.5z" />
<glyph unicode="&#xcc;" horiz-adv-x="344" d="M123 668h-8v-206v-462h116v668h-108zM302 755l-86 154h-173l143 -154h116z" />
<glyph unicode="&#xcd;" horiz-adv-x="344" d="M123 668h-8v-206v-462h116v668h-108zM302 909h-173l-86 -154h115z" />
<glyph unicode="&#xce;" horiz-adv-x="344" d="M123 668h-8v-206v-462h116v668h-108zM362 755l-120 154h-139l-121 -154h90l99 72l99 -72h92z" />
<glyph unicode="&#xcf;" horiz-adv-x="344" d="M123 668h-8v-206v-462h116v668h-108zM356 829q0 31 -22.5 53t-53.5 22t-54.5 -22.5t-23.5 -52.5q0 -29 23.5 -51.5t54.5 -22.5t53.5 22.5t22.5 51.5zM143 829q0 31 -23 53t-55 22q-31 0 -54 -22t-23 -53q0 -29 23.5 -51.5t53.5 -22.5q31 0 54.5 22.5t23.5 51.5z" />
<glyph unicode="&#xd0;" horiz-adv-x="699" d="M74 0h252q61 0 98 8q67 15 112 49.5t78 103.5q33 73 33 175q0 184 -110 271q-45 35 -100 47q-41 10 -124 10h-239v-302h-76v-60h76v-302zM166 78v224h190v60h-190v224h146q70 0 109 -11q36 -11 66 -39q65 -60 65 -199q0 -147 -70 -212q-47 -47 -169 -47h-147z" />
<glyph unicode="&#xd1;" horiz-adv-x="797" d="M124 671h-7v-316v-353h116v479q6 -11 18 -27q0 -1 2 -3l4 -4l2 -4l5 -6l2 -5l5 -5l12 -21l12 -18q1 0 2 -1l2 -2l7 -11q6 -10 11 -17l4 -7l6 -11l8 -8l4 -9l7 -7q4 -10 17 -26q6 -14 14 -22l4 -8l22 -34q8 -10 15 -17l2 -5l3 -4l2 -5l3 -3q0 -3 3 -4q3 -6 9 -15 q7 -12 13 -16q1 -7 10 -17l7 -13l3 -3l2 -4l18 -26l9 -11q6 -13 19 -29l1 -4l19 -26l2 -5l4 -4l7 -12h129v669h-115v-26v-454q-3 5 -20 26l-1 6l-4 4l-3 4l-1 5l-6 4q-2 2 -3 5q0 1 -13 21l-7 10l-8 11l-7 11q-1 2 -13 19l-3 7l-6 9q-2 3 -6.5 8.5t-6.5 8.5q0 1 -2 3l-4 6 l-1 3l-13 19l-3 4l-8 12l-2 4l-4 5l-2 5l-3 5l-4 4l-12 17l-8 10l-6 11l-12 20l-4 3l-7 12l-4 3l-3 6l-5 11l-7 9q-6 10 -18 24q-4 10 -17 26q0 2 -1 3l-8 11l-7 11l-16 24l-1 3l-3 2q-6 10 -11 17l-7 13l-4 3l-7 12h-122zM592 890h-89q-7 -45 -33 -45q-18 0 -52 19 q-53 29 -100 29q-51 0 -82.5 -37.5t-31.5 -100.5h89q7 46 34 46q18 0 52 -19q53 -29 99 -29q52 0 83 37t31 100z" />
<glyph unicode="&#xd2;" horiz-adv-x="739" d="M369 691h-8q-221 -14 -280 -244q-6 -17 -8 -46l-1 -6v-5l-2 -7v-24l-2 -16v-26q2 -14 2 -15v-2q1 -1 1.5 -3.5t0.5 -5.5q2 -119 86 -220q94 -91 213 -91q61 0 130 24q190 91 190 325q0 23 -1 35q-8 237 -219 318q-1 0 -33 5h-10q-14 2 -21 2h-5l-8 2h-25zM185 291 q-3 29 -3 55q0 209 172 242q219 0 219 -239q0 -25 -1 -38q-2 -221 -214 -225l-44 11q-1 1 -7 1q-112 51 -122 193zM499 755l-86 154h-173l143 -154h116z" />
<glyph unicode="&#xd3;" horiz-adv-x="739" d="M369 691h-8q-221 -14 -280 -244q-6 -17 -8 -46l-1 -6v-5l-2 -7v-24l-2 -16v-26q2 -14 2 -15v-2q1 -1 1.5 -3.5t0.5 -5.5q2 -119 86 -220q94 -91 213 -91q61 0 130 24q190 91 190 325q0 23 -1 35q-8 237 -219 318q-1 0 -33 5h-10q-14 2 -21 2h-5l-8 2h-25zM185 291 q-3 29 -3 55q0 209 172 242q219 0 219 -239q0 -25 -1 -38q-2 -221 -214 -225l-44 11q-1 1 -7 1q-112 51 -122 193zM499 909h-173l-86 -154h115z" />
<glyph unicode="&#xd4;" horiz-adv-x="739" d="M369 691h-8q-221 -14 -280 -244q-6 -17 -8 -46l-1 -6v-5l-2 -7v-24l-2 -16v-26q2 -14 2 -15v-2q1 -1 1.5 -3.5t0.5 -5.5q2 -119 86 -220q94 -91 213 -91q61 0 130 24q190 91 190 325q0 23 -1 35q-8 237 -219 318q-1 0 -33 5h-10q-14 2 -21 2h-5l-8 2h-25zM185 291 q-3 29 -3 55q0 209 172 242q219 0 219 -239q0 -25 -1 -38q-2 -221 -214 -225l-44 11q-1 1 -7 1q-112 51 -122 193zM559 755l-120 154h-139l-121 -154h90l99 72l99 -72h92z" />
<glyph unicode="&#xd5;" horiz-adv-x="739" d="M369 691h-8q-221 -14 -280 -244q-6 -17 -8 -46l-1 -6v-5l-2 -7v-24l-2 -16v-26q2 -14 2 -15v-2q1 -1 1.5 -3.5t0.5 -5.5q2 -119 86 -220q94 -91 213 -91q61 0 130 24q190 91 190 325q0 23 -1 35q-8 237 -219 318q-1 0 -33 5h-10q-14 2 -21 2h-5l-8 2h-25zM185 291 q-3 29 -3 55q0 209 172 242q219 0 219 -239q0 -25 -1 -38q-2 -221 -214 -225l-44 11q-1 1 -7 1q-112 51 -122 193zM563 890h-89q-7 -45 -33 -45q-18 0 -52 19q-53 29 -100 29q-51 0 -82.5 -37.5t-31.5 -100.5h89q7 46 34 46q18 0 52 -19q53 -29 99 -29q52 0 83 37t31 100z " />
<glyph unicode="&#xd6;" horiz-adv-x="739" d="M369 691h-8q-221 -14 -280 -244q-6 -17 -8 -46l-1 -6v-5l-2 -7v-24l-2 -16v-26q2 -14 2 -15v-2q1 -1 1.5 -3.5t0.5 -5.5q2 -119 86 -220q94 -91 213 -91q61 0 130 24q190 91 190 325q0 23 -1 35q-8 237 -219 318q-1 0 -33 5h-10q-14 2 -21 2h-5l-8 2h-25zM185 291 q-3 29 -3 55q0 209 172 242q219 0 219 -239q0 -25 -1 -38q-2 -221 -214 -225l-44 11q-1 1 -7 1q-112 51 -122 193zM553 829q0 31 -22.5 53t-53.5 22t-54.5 -22.5t-23.5 -52.5q0 -29 23.5 -51.5t54.5 -22.5t53.5 22.5t22.5 51.5zM340 829q0 31 -23 53t-55 22q-31 0 -54 -22 t-23 -53q0 -29 23.5 -51.5t53.5 -22.5q31 0 54.5 22.5t23.5 51.5z" />
<glyph unicode="&#xd7;" horiz-adv-x="565" d="M76 186l57 -55l148 142l151 -142l54 56l-147 141l147 142l-54 55l-151 -141l-148 141l-57 -55l149 -142z" />
<glyph unicode="&#xd8;" horiz-adv-x="739" d="M369 691h-8q-221 -14 -280 -244q-6 -17 -8 -46l-1 -6v-5l-2 -7v-24l-2 -16v-26q2 -14 2 -15v-2q1 -1 1.5 -3.5t0.5 -5.5q2 -119 86 -220q94 -91 213 -91q61 0 130 24q190 91 190 325q0 23 -1 35q-8 237 -219 318q-1 0 -33 5h-10q-14 2 -21 2h-5l-8 2h-25zM185 291 q-3 29 -3 55q0 209 172 242q219 0 219 -239q0 -25 -1 -38q-2 -221 -214 -225l-44 11q-1 1 -7 1q-112 51 -122 193zM470 674q-8 5 -19 8q-5 -11 -10 -37l-4 -5v-6l-3 -4l-2 -7l-8 -30l-2 -7q-8 -22 -9 -28l-2 -3l-2 -4l-1 -5l-4 -11l-4 -13l-1 -8l-7 -21q-4 -11 -5 -14 l-2 -12l-5 -11l-5 -20q-3 -6 -6 -15l-3 -13q-6 -12 -9 -29l-2 -3l-2 -7q-3 -11 -4 -14l-4 -14q-5 -9 -9 -28l-2 -3l-2 -4l-3 -12l-2 -10l-5 -11l-6 -21l-1 -5q-1 -5 -3 -9l-2 -5l-2 -6v-4l-1 -6l-4 -5l-5 -20l-4 -11l-9 -27l-8 -30l-4 -7l-1 -5l-2 -5v-5l-4 -9l-9 -29 l-3 -13l-6 -13q-2 -10 -9 -27v-7l-2 -5q-4 -4 -7 -25l-2 -4l-2 -3v-5l-4 -5l-1 -7l-2 -9l-5 -13q-2 -10 -9 -27v-6l-2 -3q-2 -10 -5 -14l-1 -5l-4 -13q4 -1 28 -8l9 -3l5 -2l8 -4q16 -3 40 -12h6q1 8 7 24l2 5l1 8q2 7 6 14l2 5l1 12l4 5q1 4 8 28l2 9l3 7l4 13l3 13l2 4 l4 9q2 10 5 17l6 19l4 17l4 13l3 11q0 1 1 3t2.5 4.5t2.5 5.5l1 5l4 15l2 5l9 24l7 28l8 23l2 10l1 4q4 5 6 14v5l3 6v5q4 7 6 17l2 5l5 11l4 12l2 14q6 14 7 22l2 6l2 3l2 4q2 12 9 28l5 19l2 4l2 5l1 5l5 19l3 13l4 13l5 13q1 7 6 13q1 8 7 24l2 10l9 23l1 5q2 11 5 19 l9 30l2 5l3 7l2 7l2 5l2 9l10 30l1 7l2 4l2 9l3 9l-38 15l-5 1l-7 2q-10 1 -19 6h-6z" />
<glyph unicode="&#xd9;" horiz-adv-x="730" d="M115 668h-7v-63v-380l2 -11v-15q2 -14 9 -38l-1 -1q0 -2 3 -3l5 -18q53 -115 189 -149q25 -5 59 -5q161 0 244 164l7 28l2 4l2 11l2 13l1 28q-1 1 -1 14v421h-116v-428q0 -22 -9 -53l-1 -3l-2 -3v-6q-40 -78 -134 -86q-88 4 -133 90l-11 24v465h-110zM494 755l-86 154 h-173l143 -154h116z" />
<glyph unicode="&#xda;" horiz-adv-x="730" d="M115 668h-7v-63v-380l2 -11v-15q2 -14 9 -38l-1 -1q0 -2 3 -3l5 -18q53 -115 189 -149q25 -5 59 -5q161 0 244 164l7 28l2 4l2 11l2 13l1 28q-1 1 -1 14v421h-116v-428q0 -22 -9 -53l-1 -3l-2 -3v-6q-40 -78 -134 -86q-88 4 -133 90l-11 24v465h-110zM494 909h-173 l-86 -154h115z" />
<glyph unicode="&#xdb;" horiz-adv-x="730" d="M115 668h-7v-63v-380l2 -11v-15q2 -14 9 -38l-1 -1q0 -2 3 -3l5 -18q53 -115 189 -149q25 -5 59 -5q161 0 244 164l7 28l2 4l2 11l2 13l1 28q-1 1 -1 14v421h-116v-428q0 -22 -9 -53l-1 -3l-2 -3v-6q-40 -78 -134 -86q-88 4 -133 90l-11 24v465h-110zM555 755l-120 154 h-139l-121 -154h90l99 72l99 -72h92z" />
<glyph unicode="&#xdc;" horiz-adv-x="730" d="M115 668h-7v-63v-380l2 -11v-15q2 -14 9 -38l-1 -1q0 -2 3 -3l5 -18q53 -115 189 -149q25 -5 59 -5q161 0 244 164l7 28l2 4l2 11l2 13l1 28q-1 1 -1 14v421h-116v-428q0 -22 -9 -53l-1 -3l-2 -3v-6q-40 -78 -134 -86q-88 4 -133 90l-11 24v465h-110zM549 829 q0 31 -22.5 53t-53.5 22t-54.5 -22.5t-23.5 -52.5q0 -29 23.5 -51.5t54.5 -22.5t53.5 22.5t22.5 51.5zM336 829q0 31 -23 53t-55 22q-31 0 -54 -22t-23 -53q0 -29 23.5 -51.5t53.5 -22.5q31 0 54.5 22.5t23.5 51.5z" />
<glyph unicode="&#xdd;" horiz-adv-x="583" d="M21 670h-5q4 -15 19 -37q3 -12 12 -23q2 -8 8 -13q0 -4 2 -6l9 -21q6 -9 15 -24l3 -4l4 -11l11 -20l6 -9l5 -9l4 -8l5 -7l4 -11l5 -11l6 -9q1 -4 6 -10l10 -21l2 -5l2 -3l3 -2q0 -1 2 -3q3 -12 12 -24q3 -12 14 -26q0 -2 1 -4.5t3 -5.5t3 -6l4 -4l5 -11l14 -26l1 -3 l9 -15l2 -5q0 -3 4 -4v-267h115v267l21 35l5 13l4 3q4 14 15 30l2 5l3 5l4 8l3 8q12 16 22 38l4 7l4 9l5 9l6 8l5 9l14 30l7 10l16 32l3 3l2 6l4 5l3 5l4 8l4 11l6 11q10 13 19 37l21 35l5 12l4 4v5h-123l-15 -32l-3 -4q0 -1 -1 -3t-2.5 -4.5t-2.5 -5.5l-3 -4l-4 -7l-4 -5 l-1 -7q-8 -8 -12 -21l-2 -4l-3 -5l-4 -7l-11 -19l-5 -11q-9 -13 -13 -27l-4 -2q-5 -14 -14 -26q-4 -12 -15 -27l-1 -3l-5 -12l-7 -11l-5 -12l-8 -10q-2 -6 -7 -11q-2 13 -11 22q-5 14 -15 27q-1 5 -7 15l-2 4l-3 7l-6 7l-2 9l-6 7q-2 8 -10 19q-3 13 -13 23q-1 7 -6 16 l-7 10q-3 7 -11 21l-2 5l-5 9l-7 10q-5 15 -14 29l-2 4l-7 11l-5 12l-7 13h-117zM421 909h-173l-86 -154h115z" />
<glyph unicode="&#xde;" horiz-adv-x="645" d="M74 0h92v135h177q147 0 203 59q57 58 57 143q-2 77 -45 127t-117 58q-32 7 -106 7h-169v135h-92v-664zM166 213v238h177q65 0 86 -7q36 -9 58 -38.5t22 -71.5q0 -60 -38.5 -90.5t-125.5 -30.5h-179z" />
<glyph unicode="&#xdf;" horiz-adv-x="580" d="M540 212q0 145 -145 173q92 30 92 133q0 82 -62 132q-59 45 -149 45q-210 0 -210 -196v-684l137 66v611q0 42 15 60t56 18q74 0 74 -67q0 -69 -65 -69h-5v-115h6q118 0 118 -107q0 -92 -106 -92h-18v-120h22q240 0 240 212z" />
<glyph unicode="&#xe0;" horiz-adv-x="524" d="M386 437q-54 54 -136 54q-10 0 -34 -2l-38 -6q-6 -1 -30 -7l-14 -4q-10 -2 -17 -5l-9 -2q-10 -3 -27 -12h-1q-1 0 -3 -2h-5l-4 -4l-5 -1l-4 -1l-4 -2q2 -13 11 -25q1 -5 7 -15l4 -11l2 -4l3 -3l2 -6l2 -5l7 -15q91 36 147 36q78 0 78 -74q0 -3 -0.5 -8t-0.5 -9l-44 -5h-6 l-5 -1h-12l-6 -2q-1 -1 -2 -1l-2 -1h-4h-4q-195 0 -195 -169v-2q19 -88 113 -123q41 -11 63 -11q58 0 117 41h5q28 -34 81 -47q6 10 13 26q10 9 16 25q7 5 11 15l4 4l2 5q2 0 3 4l3 5q-31 6 -47 39v229q0 17 -3 39q-7 27 -27 53zM275 216q3 0 4 1h36v-82l2 -7l-2 -5 q-5 -5 -7 -14q-38 -33 -78 -33q-32 0 -65 21q-25 22 -25 46t29 51q7 1 22 9h5l13 4l15 3h5q3 0 5 2h6l6 2h2l2 -1q6 0 14 3h11zM391 569l-86 154h-173l143 -154h116z" />
<glyph unicode="&#xe1;" horiz-adv-x="524" d="M386 437q-54 54 -136 54q-10 0 -34 -2l-38 -6q-6 -1 -30 -7l-14 -4q-10 -2 -17 -5l-9 -2q-10 -3 -27 -12h-1q-1 0 -3 -2h-5l-4 -4l-5 -1l-4 -1l-4 -2q2 -13 11 -25q1 -5 7 -15l4 -11l2 -4l3 -3l2 -6l2 -5l7 -15q91 36 147 36q78 0 78 -74q0 -3 -0.5 -8t-0.5 -9l-44 -5h-6 l-5 -1h-12l-6 -2q-1 -1 -2 -1l-2 -1h-4h-4q-195 0 -195 -169v-2q19 -88 113 -123q41 -11 63 -11q58 0 117 41h5q28 -34 81 -47q6 10 13 26q10 9 16 25q7 5 11 15l4 4l2 5q2 0 3 4l3 5q-31 6 -47 39v229q0 17 -3 39q-7 27 -27 53zM275 216q3 0 4 1h36v-82l2 -7l-2 -5 q-5 -5 -7 -14q-38 -33 -78 -33q-32 0 -65 21q-25 22 -25 46t29 51q7 1 22 9h5l13 4l15 3h5q3 0 5 2h6l6 2h2l2 -1q6 0 14 3h11zM392 723h-173l-86 -154h115z" />
<glyph unicode="&#xe2;" horiz-adv-x="524" d="M386 437q-54 54 -136 54q-10 0 -34 -2l-38 -6q-6 -1 -30 -7l-14 -4q-10 -2 -17 -5l-9 -2q-10 -3 -27 -12h-1q-1 0 -3 -2h-5l-4 -4l-5 -1l-4 -1l-4 -2q2 -13 11 -25q1 -5 7 -15l4 -11l2 -4l3 -3l2 -6l2 -5l7 -15q91 36 147 36q78 0 78 -74q0 -3 -0.5 -8t-0.5 -9l-44 -5h-6 l-5 -1h-12l-6 -2q-1 -1 -2 -1l-2 -1h-4h-4q-195 0 -195 -169v-2q19 -88 113 -123q41 -11 63 -11q58 0 117 41h5q28 -34 81 -47q6 10 13 26q10 9 16 25q7 5 11 15l4 4l2 5q2 0 3 4l3 5q-31 6 -47 39v229q0 17 -3 39q-7 27 -27 53zM275 216q3 0 4 1h36v-82l2 -7l-2 -5 q-5 -5 -7 -14q-38 -33 -78 -33q-32 0 -65 21q-25 22 -25 46t29 51q7 1 22 9h5l13 4l15 3h5q3 0 5 2h6l6 2h2l2 -1q6 0 14 3h11zM452 569l-120 154h-139l-121 -154h90l99 72l99 -72h92z" />
<glyph unicode="&#xe3;" horiz-adv-x="524" d="M386 437q-54 54 -136 54q-10 0 -34 -2l-38 -6q-6 -1 -30 -7l-14 -4q-10 -2 -17 -5l-9 -2q-10 -3 -27 -12h-1q-1 0 -3 -2h-5l-4 -4l-5 -1l-4 -1l-4 -2q2 -13 11 -25q1 -5 7 -15l4 -11l2 -4l3 -3l2 -6l2 -5l7 -15q91 36 147 36q78 0 78 -74q0 -3 -0.5 -8t-0.5 -9l-44 -5h-6 l-5 -1h-12l-6 -2q-1 -1 -2 -1l-2 -1h-4h-4q-195 0 -195 -169v-2q19 -88 113 -123q41 -11 63 -11q58 0 117 41h5q28 -34 81 -47q6 10 13 26q10 9 16 25q7 5 11 15l4 4l2 5q2 0 3 4l3 5q-31 6 -47 39v229q0 17 -3 39q-7 27 -27 53zM275 216q3 0 4 1h36v-82l2 -7l-2 -5 q-5 -5 -7 -14q-38 -33 -78 -33q-32 0 -65 21q-25 22 -25 46t29 51q7 1 22 9h5l13 4l15 3h5q3 0 5 2h6l6 2h2l2 -1q6 0 14 3h11zM456 704h-89q-7 -45 -33 -45q-18 0 -52 19q-53 29 -100 29q-51 0 -82.5 -37.5t-31.5 -100.5h89q7 46 34 46q18 0 52 -19q53 -29 99 -29 q52 0 83 37t31 100z" />
<glyph unicode="&#xe4;" horiz-adv-x="524" d="M386 437q-54 54 -136 54q-10 0 -34 -2l-38 -6q-6 -1 -30 -7l-14 -4q-10 -2 -17 -5l-9 -2q-10 -3 -27 -12h-1q-1 0 -3 -2h-5l-4 -4l-5 -1l-4 -1l-4 -2q2 -13 11 -25q1 -5 7 -15l4 -11l2 -4l3 -3l2 -6l2 -5l7 -15q91 36 147 36q78 0 78 -74q0 -3 -0.5 -8t-0.5 -9l-44 -5h-6 l-5 -1h-12l-6 -2q-1 -1 -2 -1l-2 -1h-4h-4q-195 0 -195 -169v-2q19 -88 113 -123q41 -11 63 -11q58 0 117 41h5q28 -34 81 -47q6 10 13 26q10 9 16 25q7 5 11 15l4 4l2 5q2 0 3 4l3 5q-31 6 -47 39v229q0 17 -3 39q-7 27 -27 53zM275 216q3 0 4 1h36v-82l2 -7l-2 -5 q-5 -5 -7 -14q-38 -33 -78 -33q-32 0 -65 21q-25 22 -25 46t29 51q7 1 22 9h5l13 4l15 3h5q3 0 5 2h6l6 2h2l2 -1q6 0 14 3h11zM446 643q0 31 -22.5 53t-53.5 22t-54.5 -22.5t-23.5 -52.5q0 -29 23.5 -51.5t54.5 -22.5t53.5 22.5t22.5 51.5zM233 643q0 31 -23 53t-55 22 q-31 0 -54 -22t-23 -53q0 -29 23.5 -51.5t53.5 -22.5q31 0 54.5 22.5t23.5 51.5z" />
<glyph unicode="&#xe5;" horiz-adv-x="524" d="M386 437q-54 54 -136 54q-10 0 -34 -2l-38 -6q-6 -1 -30 -7l-14 -4q-10 -2 -17 -5l-9 -2q-10 -3 -27 -12h-1q-1 0 -3 -2h-5l-4 -4l-5 -1l-4 -1l-4 -2q2 -13 11 -25q1 -5 7 -15l4 -11l2 -4l3 -3l2 -6l2 -5l7 -15q91 36 147 36q78 0 78 -74q0 -3 -0.5 -8t-0.5 -9l-44 -5h-6 l-5 -1h-12l-6 -2q-1 -1 -2 -1l-2 -1h-4h-4q-195 0 -195 -169v-2q19 -88 113 -123q41 -11 63 -11q58 0 117 41h5q28 -34 81 -47q6 10 13 26q10 9 16 25q7 5 11 15l4 4l2 5q2 0 3 4l3 5q-31 6 -47 39v229q0 17 -3 39q-7 27 -27 53zM275 216q3 0 4 1h36v-82l2 -7l-2 -5 q-5 -5 -7 -14q-38 -33 -78 -33q-32 0 -65 21q-25 22 -25 46t29 51q7 1 22 9h5l13 4l15 3h5q3 0 5 2h6l6 2h2l2 -1q6 0 14 3h11zM395 697q0 55 -38 92t-96 37q-57 0 -95 -37t-38 -92q0 -56 38 -92t95 -36q58 0 96 36t38 92zM320 697q0 -24 -17 -41t-42 -17q-24 0 -41 17 t-17 41t17 40.5t41 16.5q25 0 42 -16.5t17 -40.5z" />
<glyph unicode="&#xe7;" horiz-adv-x="488" d="M449 360q-59 120 -209 125q-112 -7 -168 -106q-37 -61 -37 -141q0 -21 3 -42q22 -165 178 -197q21 -3 40 -3q124 0 193 123l-38 18l-4 3l-7 4q-6 4 -14 5l-7 3l-18 11q-26 -62 -97 -74q-2 0 -5 -0.5t-4 -0.5q-47 0 -81 43q-31 49 -31 106q0 54 28 109q16 16 25 27l19 10 l5 2l5 3q8 2 9 2h19q70 0 107 -73l28 16q6 1 14 6l10 4l4 1q5 3 13 9zM368 -101q0 68 -77 68q-26 0 -39 -7l17 75h-55l-27 -108l36 -13q13 7 29 7q31 0 31 -25q0 -33 -54 -33q-40 0 -88 23l-20 -36q59 -35 129 -35q118 0 118 84z" />
<glyph unicode="&#xe8;" horiz-adv-x="515" d="M465 284q-21 198 -225 205q-205 -30 -205 -259v-16q15 -168 166 -217q35 -9 67 -9q94 0 176 70l-24 28l-2 1q-2 1 -2 2q-6 10 -18 22l-5 4l-2 6q-9 8 -14 16q-47 -44 -111 -44q-8 0 -26 2q-82 16 -92 104h63h257v53q-1 0 -1 1l-1 1v4zM147 282q4 89 97 112q75 -1 108 -76 q0 -10 4 -17q0 -1 -0.5 -2t-0.5 -2q0 -4 3 -10v-5h-211zM387 569l-86 154h-173l143 -154h116z" />
<glyph unicode="&#xe9;" horiz-adv-x="515" d="M465 284q-21 198 -225 205q-205 -30 -205 -259v-16q15 -168 166 -217q35 -9 67 -9q94 0 176 70l-24 28l-2 1q-2 1 -2 2q-6 10 -18 22l-5 4l-2 6q-9 8 -14 16q-47 -44 -111 -44q-8 0 -26 2q-82 16 -92 104h63h257v53q-1 0 -1 1l-1 1v4zM147 282q4 89 97 112q75 -1 108 -76 q0 -10 4 -17q0 -1 -0.5 -2t-0.5 -2q0 -4 3 -10v-5h-211zM387 723h-173l-86 -154h115z" />
<glyph unicode="&#xea;" horiz-adv-x="515" d="M465 284q-21 198 -225 205q-205 -30 -205 -259v-16q15 -168 166 -217q35 -9 67 -9q94 0 176 70l-24 28l-2 1q-2 1 -2 2q-6 10 -18 22l-5 4l-2 6q-9 8 -14 16q-47 -44 -111 -44q-8 0 -26 2q-82 16 -92 104h63h257v53q-1 0 -1 1l-1 1v4zM147 282q4 89 97 112q75 -1 108 -76 q0 -10 4 -17q0 -1 -0.5 -2t-0.5 -2q0 -4 3 -10v-5h-211zM447 569l-120 154h-139l-121 -154h90l99 72l99 -72h92z" />
<glyph unicode="&#xeb;" horiz-adv-x="515" d="M465 284q-21 198 -225 205q-205 -30 -205 -259v-16q15 -168 166 -217q35 -9 67 -9q94 0 176 70l-24 28l-2 1q-2 1 -2 2q-6 10 -18 22l-5 4l-2 6q-9 8 -14 16q-47 -44 -111 -44q-8 0 -26 2q-82 16 -92 104h63h257v53q-1 0 -1 1l-1 1v4zM147 282q4 89 97 112q75 -1 108 -76 q0 -10 4 -17q0 -1 -0.5 -2t-0.5 -2q0 -4 3 -10v-5h-211zM441 643q0 31 -22.5 53t-53.5 22t-54.5 -22.5t-23.5 -52.5q0 -29 23.5 -51.5t54.5 -22.5t53.5 22.5t22.5 51.5zM228 643q0 31 -23 53t-55 22q-31 0 -54 -22t-23 -53q0 -29 23.5 -51.5t53.5 -22.5q31 0 54.5 22.5 t23.5 51.5z" />
<glyph unicode="&#xec;" horiz-adv-x="253" d="M68 478h-7v-57v-145v-101v-175h106v478h-99zM256 569l-86 154h-173l143 -154h116z" />
<glyph unicode="&#xed;" horiz-adv-x="253" d="M68 478h-7v-57v-145v-101v-175h106v478h-99zM256 723h-173l-86 -154h115z" />
<glyph unicode="&#xee;" horiz-adv-x="253" d="M68 478h-7v-57v-145v-101v-175h106v478h-99zM317 569l-120 154h-139l-121 -154h90l99 72l99 -72h92z" />
<glyph unicode="&#xef;" horiz-adv-x="253" d="M68 478h-7v-57v-145v-101v-175h106v478h-99zM311 643q0 31 -22.5 53t-53.5 22t-54.5 -22.5t-23.5 -52.5q0 -29 23.5 -51.5t54.5 -22.5t53.5 22.5t22.5 51.5zM98 643q0 31 -23 53t-55 22q-31 0 -54 -22t-23 -53q0 -29 23.5 -51.5t53.5 -22.5q31 0 54.5 22.5t23.5 51.5z " />
<glyph unicode="&#xf0;" horiz-adv-x="537" d="M146 664q52 -34 98 -74l-114 -49l21 -47l130 57q22 -23 37 -45q11 -15 29 -52q-51 27 -99 27q-93 0 -153 -64q-60 -65 -60 -183q0 -100 43 -158q68 -87 188 -87q101 0 167 66q67 66 67 181q0 178 -153 344l82 38l-22 46l-100 -46q-27 23 -59 46h-102zM411 240 q0 -87 -41 -135.5t-104 -48.5q-65 0 -104.5 45.5t-39.5 130.5q0 92 38 139t103 47t106.5 -47t41.5 -131z" />
<glyph unicode="&#xf1;" horiz-adv-x="530" d="M453 395q-48 98 -167 98h-7q-56 -8 -106 -52v40h-105v-247v-230h4h-4h60h45v290l7 30q14 28 40 46.5t57 18.5q52 0 75 -65l1 -11v-17v-292h63h44v365q-1 4 -7 21v5zM459 704h-89q-7 -45 -33 -45q-18 0 -52 19q-53 29 -100 29q-51 0 -82.5 -37.5t-31.5 -100.5h89 q7 46 34 46q18 0 52 -19q53 -29 99 -29q52 0 83 37t31 100z" />
<glyph unicode="&#xf2;" horiz-adv-x="561" d="M465 385q-69 111 -209 111h-18q-201 -45 -201 -264q0 -4 0.5 -11t0.5 -11q7 -116 107 -187q53 -35 118 -35q33 0 69 9q122 33 152 162q11 49 11 83q0 70 -30 143zM147 219q-1 9 -1 27q0 120 111 148q132 -9 132 -143q0 -35 -4 -48q-12 -101 -119 -112q-105 11 -119 128z M410 569l-86 154h-173l143 -154h116z" />
<glyph unicode="&#xf3;" horiz-adv-x="561" d="M465 385q-69 111 -209 111h-18q-201 -45 -201 -264q0 -4 0.5 -11t0.5 -11q7 -116 107 -187q53 -35 118 -35q33 0 69 9q122 33 152 162q11 49 11 83q0 70 -30 143zM147 219q-1 9 -1 27q0 120 111 148q132 -9 132 -143q0 -35 -4 -48q-12 -101 -119 -112q-105 11 -119 128z M410 723h-173l-86 -154h115z" />
<glyph unicode="&#xf4;" horiz-adv-x="561" d="M465 385q-69 111 -209 111h-18q-201 -45 -201 -264q0 -4 0.5 -11t0.5 -11q7 -116 107 -187q53 -35 118 -35q33 0 69 9q122 33 152 162q11 49 11 83q0 70 -30 143zM147 219q-1 9 -1 27q0 120 111 148q132 -9 132 -143q0 -35 -4 -48q-12 -101 -119 -112q-105 11 -119 128z M470 569l-120 154h-139l-121 -154h90l99 72l99 -72h92z" />
<glyph unicode="&#xf5;" horiz-adv-x="561" d="M465 385q-69 111 -209 111h-18q-201 -45 -201 -264q0 -4 0.5 -11t0.5 -11q7 -116 107 -187q53 -35 118 -35q33 0 69 9q122 33 152 162q11 49 11 83q0 70 -30 143zM147 219q-1 9 -1 27q0 120 111 148q132 -9 132 -143q0 -35 -4 -48q-12 -101 -119 -112q-105 11 -119 128z M474 704h-89q-7 -45 -33 -45q-18 0 -52 19q-53 29 -100 29q-51 0 -82.5 -37.5t-31.5 -100.5h89q7 46 34 46q18 0 52 -19q53 -29 99 -29q52 0 83 37t31 100z" />
<glyph unicode="&#xf6;" horiz-adv-x="561" d="M465 385q-69 111 -209 111h-18q-201 -45 -201 -264q0 -4 0.5 -11t0.5 -11q7 -116 107 -187q53 -35 118 -35q33 0 69 9q122 33 152 162q11 49 11 83q0 70 -30 143zM147 219q-1 9 -1 27q0 120 111 148q132 -9 132 -143q0 -35 -4 -48q-12 -101 -119 -112q-105 11 -119 128z M464 643q0 31 -22.5 53t-53.5 22t-54.5 -22.5t-23.5 -52.5q0 -29 23.5 -51.5t54.5 -22.5t53.5 22.5t22.5 51.5zM251 643q0 31 -23 53t-55 22q-31 0 -54 -22t-23 -53q0 -29 23.5 -51.5t53.5 -22.5q31 0 54.5 22.5t23.5 51.5z" />
<glyph unicode="&#xf7;" horiz-adv-x="530" d="M217 417h96v94h-96v-94zM492 290v76h-456v-76h456zM217 145h96v92h-96v-92z" />
<glyph unicode="&#xf8;" horiz-adv-x="561" d="M465 385q-69 111 -209 111h-18q-201 -45 -201 -264q0 -4 0.5 -11t0.5 -11q7 -116 107 -187q53 -35 118 -35q33 0 69 9q122 33 152 162q11 49 11 83q0 70 -30 143zM147 219q-1 9 -1 27q0 120 111 148q132 -9 132 -143q0 -35 -4 -48q-12 -101 -119 -112q-105 11 -119 128z M381 674q-8 5 -19 8q-5 -11 -10 -37l-4 -5v-6l-3 -4l-2 -7l-8 -30l-2 -7q-8 -22 -9 -28l-2 -3l-2 -4l-1 -5l-4 -11l-4 -13l-1 -8l-7 -21q-4 -11 -5 -14l-2 -12l-5 -11l-5 -20q-3 -6 -6 -15l-3 -13q-6 -12 -9 -29l-2 -3l-2 -7q-3 -11 -4 -14l-4 -14q-5 -9 -9 -28l-2 -3l-2 -4 l-3 -12l-2 -10l-5 -11l-6 -21l-1 -5q-1 -5 -3 -9l-2 -5l-2 -6v-4l-1 -6l-4 -5l-5 -20l-4 -11l-9 -27l-8 -30l-4 -7l-1 -5l-2 -5v-5l-4 -9l-9 -29l-3 -13l-6 -13q-2 -10 -9 -27v-7l-2 -5q-4 -4 -7 -25l-2 -4l-2 -3v-5l-4 -5l-1 -7l-2 -9l-5 -13q-2 -10 -9 -27v-6l-2 -3 q-2 -10 -5 -14l-1 -5l-4 -13q4 -1 28 -8l9 -3l5 -2l8 -4q16 -3 40 -12h6q1 8 7 24l2 5l1 8q2 7 6 14l2 5l1 12l4 5q1 4 8 28l2 9l3 7l4 13l3 13l2 4l4 9q2 10 5 17l6 19l4 17l4 13l3 11q0 1 1 3t2.5 4.5t2.5 5.5l1 5l4 15l2 5l9 24l7 28l8 23l2 10l1 4q4 5 6 14v5l3 6v5 q4 7 6 17l2 5l5 11l4 12l2 14q6 14 7 22l2 6l2 3l2 4q2 12 9 28l5 19l2 4l2 5l1 5l5 19l3 13l4 13l5 13q1 7 6 13q1 8 7 24l2 10l9 23l1 5q2 11 5 19l9 30l2 5l3 7l2 7l2 5l2 9l10 30l1 7l2 4l2 9l3 9l-38 15l-5 1l-7 2q-10 1 -19 6h-6z" />
<glyph unicode="&#xf9;" horiz-adv-x="545" d="M89 479h-25v-346q0 -20 4 -27l2 -13q15 -41 56 -73q49 -31 99 -31q63 0 125 51v-38h106v477h-106v-297l-7 -21v-5q-25 -49 -83 -65h-3q-45 0 -75 42q-6 15 -9 35v1q0 1 -2 3q-1 0 -1 1v1q-1 1 -1 3v302h-80zM402 569l-86 154h-173l143 -154h116z" />
<glyph unicode="&#xfa;" horiz-adv-x="545" d="M89 479h-25v-346q0 -20 4 -27l2 -13q15 -41 56 -73q49 -31 99 -31q63 0 125 51v-38h106v477h-106v-297l-7 -21v-5q-25 -49 -83 -65h-3q-45 0 -75 42q-6 15 -9 35v1q0 1 -2 3q-1 0 -1 1v1q-1 1 -1 3v302h-80zM402 723h-173l-86 -154h115z" />
<glyph unicode="&#xfb;" horiz-adv-x="545" d="M89 479h-25v-346q0 -20 4 -27l2 -13q15 -41 56 -73q49 -31 99 -31q63 0 125 51v-38h106v477h-106v-297l-7 -21v-5q-25 -49 -83 -65h-3q-45 0 -75 42q-6 15 -9 35v1q0 1 -2 3q-1 0 -1 1v1q-1 1 -1 3v302h-80zM462 569l-120 154h-139l-121 -154h90l99 72l99 -72h92z" />
<glyph unicode="&#xfc;" horiz-adv-x="545" d="M89 479h-25v-346q0 -20 4 -27l2 -13q15 -41 56 -73q49 -31 99 -31q63 0 125 51v-38h106v477h-106v-297l-7 -21v-5q-25 -49 -83 -65h-3q-45 0 -75 42q-6 15 -9 35v1q0 1 -2 3q-1 0 -1 1v1q-1 1 -1 3v302h-80zM456 643q0 31 -22.5 53t-53.5 22t-54.5 -22.5t-23.5 -52.5 q0 -29 23.5 -51.5t54.5 -22.5t53.5 22.5t22.5 51.5zM243 643q0 31 -23 53t-55 22q-31 0 -54 -22t-23 -53q0 -29 23.5 -51.5t53.5 -22.5q31 0 54.5 22.5t23.5 51.5z" />
<glyph unicode="&#xfd;" horiz-adv-x="465" d="M37 478h-30l14 -44l1 -4l8 -22l1 -7l4 -6l3 -16l2 -3q2 -4 6 -14l5 -16l2 -7q1 -1 1 -4t1 -4q5 -19 15 -42l2 -11l10 -28l-1 -1q0 -1 3 -2v-5q3 -5 5 -15l2 -4l14 -44l1 -4l6 -18l5 -11l4 -15l3 -12l6 -10l1 -11l3 -10l6 -13q0 -10 7 -20l3 -15l6 -11q1 -16 11 -37l4 -13 v-14q-15 -34 -57 -34q-24 0 -59 12l-4 -23l-2 -5l-3 -20v-5l-2 -4l-6 -31q48 -14 78 -14q43 0 104 23q17 17 28 33l2 4l1 7l9 19l6 19l5 13l2 10q7 17 10 30l3 6l6 20l3 11l4 8l3 11l4 9q2 13 11 33l1 5l1 9q6 11 11 31l4 8l1 6l2 5l2 7l4 9l9 24l1 6l1 5l2 11l4 4l1 13 l4 10l4 11l3 10q6 11 11 31l5 13q4 11 5 14l1 6l2 4l2 5l4 16l3 8q1 4 3 9t4 9v6l2 5q2 3 3.5 7t2.5 7l13 43q0 2 1 4v2q0 1 1 2l3 5l2 11h-113l-9 -31q-1 -4 -7 -19v-5l-3 -5l-4 -12l-2 -5l-3 -13l-2 -7l-2 -5l-11 -30q-2 -9 -6 -19q0 -3 -7 -23l-5 -19l-6 -12l-1 -6l-2 -9 l-4 -11l-3 -11l-4 -12l-8 -23l-4 -10v-5l-5 -12l-4 -13l-10 28q-2 7 -6 14q0 4 -1 5v6q-3 5 -5 13l-4 11l-1 7l-2 5l-4 9l-3 7l-4 16l-2 3l-1 8l-4 6l-2 5q-2 3 -2 4l-3 12q-2 13 -8 24q-1 3 -3 7l-1 4q-1 16 -12 37l-2 11l-5 9q-2 14 -9 27l-3 12l-4 14l-5 13h-82zM362 723 h-173l-86 -154h115z" />
<glyph unicode="&#xfe;" horiz-adv-x="537" d="M63 -185h86v235q31 -31 59 -46q34 -15 73 -15h3q87 0 151.5 70t64.5 175v10v5q0 101 -58 172t-149 71h-6q-43 0 -78 -15q-25 -12 -60 -47v234h-86v-849zM141 238q0 91 41 141q40 49 97 49t95.5 -47.5t38.5 -135.5q0 -96 -41 -143q-40 -45 -97 -45q-59 0 -96.5 46 t-37.5 135z" />
<glyph unicode="&#xff;" horiz-adv-x="465" d="M37 478h-30l14 -44l1 -4l8 -22l1 -7l4 -6l3 -16l2 -3q2 -4 6 -14l5 -16l2 -7q1 -1 1 -4t1 -4q5 -19 15 -42l2 -11l10 -28l-1 -1q0 -1 3 -2v-5q3 -5 5 -15l2 -4l14 -44l1 -4l6 -18l5 -11l4 -15l3 -12l6 -10l1 -11l3 -10l6 -13q0 -10 7 -20l3 -15l6 -11q1 -16 11 -37l4 -13 v-14q-15 -34 -57 -34q-24 0 -59 12l-4 -23l-2 -5l-3 -20v-5l-2 -4l-6 -31q48 -14 78 -14q43 0 104 23q17 17 28 33l2 4l1 7l9 19l6 19l5 13l2 10q7 17 10 30l3 6l6 20l3 11l4 8l3 11l4 9q2 13 11 33l1 5l1 9q6 11 11 31l4 8l1 6l2 5l2 7l4 9l9 24l1 6l1 5l2 11l4 4l1 13 l4 10l4 11l3 10q6 11 11 31l5 13q4 11 5 14l1 6l2 4l2 5l4 16l3 8q1 4 3 9t4 9v6l2 5q2 3 3.5 7t2.5 7l13 43q0 2 1 4v2q0 1 1 2l3 5l2 11h-113l-9 -31q-1 -4 -7 -19v-5l-3 -5l-4 -12l-2 -5l-3 -13l-2 -7l-2 -5l-11 -30q-2 -9 -6 -19q0 -3 -7 -23l-5 -19l-6 -12l-1 -6l-2 -9 l-4 -11l-3 -11l-4 -12l-8 -23l-4 -10v-5l-5 -12l-4 -13l-10 28q-2 7 -6 14q0 4 -1 5v6q-3 5 -5 13l-4 11l-1 7l-2 5l-4 9l-3 7l-4 16l-2 3l-1 8l-4 6l-2 5q-2 3 -2 4l-3 12q-2 13 -8 24q-1 3 -3 7l-1 4q-1 16 -12 37l-2 11l-5 9q-2 14 -9 27l-3 12l-4 14l-5 13h-82zM417 643 q0 31 -22.5 53t-53.5 22t-54.5 -22.5t-23.5 -52.5q0 -29 23.5 -51.5t54.5 -22.5t53.5 22.5t22.5 51.5zM204 643q0 31 -23 53t-55 22q-31 0 -54 -22t-23 -53q0 -29 23.5 -51.5t53.5 -22.5q31 0 54.5 22.5t23.5 51.5z" />
<glyph unicode="&#x131;" horiz-adv-x="253" d="M68 478h-7v-57v-145v-101v-175h106v478h-99z" />
<glyph unicode="&#x152;" horiz-adv-x="1044" d="M985 0v131h-347v162h189v130h-189v116h333v131h-452v-60q-56 71 -166 71q-139 0 -220 -96q-81 -95 -81 -250q0 -154 80 -249q82 -97 221 -97q112 0 166 71v-60h466zM511 335q0 -96 -37 -151q-40 -61 -121 -61t-121 61q-37 55 -37 151t37 151q40 61 121 61t121 -61 q37 -55 37 -151z" />
<glyph unicode="&#x153;" horiz-adv-x="851" d="M808 251q0 112 -57 184q-60 78 -161 78q-95 0 -157 -74q-53 74 -159 74q-102 0 -168 -74q-66 -73 -66 -188t66 -189q66 -73 168 -73q108 0 158 72q60 -72 170 -72q55 0 105.5 22t80.5 60l-96 78q-32 -35 -90 -35q-42 0 -70 22q-33 25 -36 73h310q2 26 2 42zM676 308h-178 q4 40 27 65t58 25q43 0 68 -28q22 -22 25 -62zM371 251q0 -57 -24 -93q-26 -41 -73 -41q-46 0 -72 38q-24 35 -24 96q0 62 24.5 98.5t71.5 36.5t72 -36.5t25 -98.5z" />
<glyph unicode="&#x178;" horiz-adv-x="583" d="M21 670h-5q4 -15 19 -37q3 -12 12 -23q2 -8 8 -13q0 -4 2 -6l9 -21q6 -9 15 -24l3 -4l4 -11l11 -20l6 -9l5 -9l4 -8l5 -7l4 -11l5 -11l6 -9q1 -4 6 -10l10 -21l2 -5l2 -3l3 -2q0 -1 2 -3q3 -12 12 -24q3 -12 14 -26q0 -2 1 -4.5t3 -5.5t3 -6l4 -4l5 -11l14 -26l1 -3 l9 -15l2 -5q0 -3 4 -4v-267h115v267l21 35l5 13l4 3q4 14 15 30l2 5l3 5l4 8l3 8q12 16 22 38l4 7l4 9l5 9l6 8l5 9l14 30l7 10l16 32l3 3l2 6l4 5l3 5l4 8l4 11l6 11q10 13 19 37l21 35l5 12l4 4v5h-123l-15 -32l-3 -4q0 -1 -1 -3t-2.5 -4.5t-2.5 -5.5l-3 -4l-4 -7l-4 -5 l-1 -7q-8 -8 -12 -21l-2 -4l-3 -5l-4 -7l-11 -19l-5 -11q-9 -13 -13 -27l-4 -2q-5 -14 -14 -26q-4 -12 -15 -27l-1 -3l-5 -12l-7 -11l-5 -12l-8 -10q-2 -6 -7 -11q-2 13 -11 22q-5 14 -15 27q-1 5 -7 15l-2 4l-3 7l-6 7l-2 9l-6 7q-2 8 -10 19q-3 13 -13 23q-1 7 -6 16 l-7 10q-3 7 -11 21l-2 5l-5 9l-7 10q-5 15 -14 29l-2 4l-7 11l-5 12l-7 13h-117zM475 829q0 31 -22.5 53t-53.5 22t-54.5 -22.5t-23.5 -52.5q0 -29 23.5 -51.5t54.5 -22.5t53.5 22.5t22.5 51.5zM262 829q0 31 -23 53t-55 22q-31 0 -54 -22t-23 -53q0 -29 23.5 -51.5 t53.5 -22.5q31 0 54.5 22.5t23.5 51.5z" />
<glyph unicode="&#x2c6;" d="M437 569l-120 154h-139l-121 -154h90l99 72l99 -72h92z" />
<glyph unicode="&#x2da;" d="M381 697q0 55 -38 92t-96 37q-57 0 -95 -37t-38 -92q0 -56 38 -92t95 -36q58 0 96 36t38 92zM306 697q0 -24 -17 -41t-42 -17q-24 0 -41 17t-17 41t17 40.5t41 16.5q25 0 42 -16.5t17 -40.5z" />
<glyph unicode="&#x2dc;" d="M444 704h-89q-7 -45 -33 -45q-18 0 -52 19q-53 29 -100 29q-51 0 -82.5 -37.5t-31.5 -100.5h89q7 46 34 46q18 0 52 -19q53 -29 99 -29q52 0 83 37t31 100z" />
<glyph unicode="&#x2000;" horiz-adv-x="506" />
<glyph unicode="&#x2001;" horiz-adv-x="1012" />
<glyph unicode="&#x2002;" horiz-adv-x="506" />
<glyph unicode="&#x2003;" horiz-adv-x="1012" />
<glyph unicode="&#x2004;" horiz-adv-x="337" />
<glyph unicode="&#x2005;" horiz-adv-x="253" />
<glyph unicode="&#x2006;" horiz-adv-x="168" />
<glyph unicode="&#x2007;" horiz-adv-x="168" />
<glyph unicode="&#x2008;" horiz-adv-x="126" />
<glyph unicode="&#x2009;" horiz-adv-x="202" />
<glyph unicode="&#x200a;" horiz-adv-x="56" />
<glyph unicode="&#x2010;" horiz-adv-x="311" d="M45 339h-12v-99h21h172l13 2v97h-194z" />
<glyph unicode="&#x2011;" horiz-adv-x="311" d="M45 339h-12v-99h21h172l13 2v97h-194z" />
<glyph unicode="&#x2013;" d="M448 286v123h-394v-123h394z" />
<glyph unicode="&#x2014;" horiz-adv-x="613" d="M559 286v123h-505v-123h505z" />
<glyph unicode="&#x2018;" horiz-adv-x="278" d="M218 670h-94l-81 -269h175v269z" />
<glyph unicode="&#x2019;" horiz-adv-x="278" d="M235 670h-175v-269h94z" />
<glyph unicode="&#x201a;" horiz-adv-x="278" d="M235 162h-175v-269h94z" />
<glyph unicode="&#x201c;" horiz-adv-x="536" d="M476 670h-94l-81 -269h175v269zM218 670h-94l-81 -269h175v269z" />
<glyph unicode="&#x201d;" horiz-adv-x="536" d="M494 670h-175v-269h94zM235 670h-175v-269h94z" />
<glyph unicode="&#x201e;" horiz-adv-x="536" d="M494 162h-175v-269h94zM235 162h-175v-269h94z" />
<glyph unicode="&#x2022;" horiz-adv-x="485" d="M420 350q0 73 -51 124t-127 51q-74 0 -127 -51q-51 -51 -51 -124q0 -72 51 -122q53 -50 127 -50t127 50q51 50 51 122z" />
<glyph unicode="&#x2026;" horiz-adv-x="807" d="M766 79q0 36 -28 63t-65 27q-38 0 -65.5 -26.5t-27.5 -63.5q0 -36 27.5 -63t65.5 -27q37 0 65 27t28 63zM497 79q0 36 -28 63t-65 27q-38 0 -65.5 -26.5t-27.5 -63.5q0 -36 27.5 -63t65.5 -27q37 0 65 27t28 63zM228 79q0 36 -28 63t-65 27q-38 0 -65.5 -26.5 t-27.5 -63.5q0 -36 27.5 -63t65.5 -27q37 0 65 27t28 63z" />
<glyph unicode="&#x202f;" horiz-adv-x="202" />
<glyph unicode="&#x2039;" horiz-adv-x="372" d="M332 0l-156 252l156 250h-141l-161 -251l161 -251h141z" />
<glyph unicode="&#x203a;" horiz-adv-x="372" d="M342 252l-161 250h-141l156 -251l-156 -251h141z" />
<glyph unicode="&#x205f;" horiz-adv-x="253" />
<glyph unicode="&#x20ac;" horiz-adv-x="537" d="M374 601q73 0 129 -47l19 85q-58 36 -147 36q-94 0 -167 -40q-125 -64 -154 -212h-54l-14 -60h62v-19q0 -15 2 -41h-50l-14 -60h74q10 -48 25 -84q74 -170 289 -170q68 0 129 26v93q-48 -45 -137 -45q-62 0 -118 32q-74 44 -95 148h281l13 60h-303q-3 7 -3 42q0 7 3 18 h315l14 60h-324q6 37 33 78q26 40 58 63q52 37 134 37z" />
<glyph unicode="&#x2122;" horiz-adv-x="821" d="M781 293v377h-94l-83 -163q-18 -40 -27 -62q-16 40 -28 62l-84 163h-93v-377h88v187q0 3 -2 41q16 -35 17 -36l100 -204l102 204q15 28 17 37q0 -5 -0.5 -21.5t-0.5 -20.5v-187h88zM307 592v78h-288v-78h97v-299h94v299h97z" />
</font>
</defs>
</svg>
